<svg xmlns="http://www.w3.org/2000/svg" xmlns:xlink="http://www.w3.org/1999/xlink" width="500" zoomAndPan="magnify" viewBox="0 0 375 374.999991" height="500" preserveAspectRatio="xMidYMid meet" version="1.2"><defs/><g id="ee00034e4f"><g style="fill:#ffffff;fill-opacity:0.302;"><g transform="translate(35.806994, 362.144626)"><path style="stroke:none" d="M 177.59375 3.203125 C 156 3.203125 135.800781 -0.59375 117 -8.1875 C 98.195312 -15.789062 81.59375 -26.660156 67.1875 -40.796875 C 52.789062 -54.929688 41.59375 -71.734375 33.59375 -91.203125 C 25.59375 -110.671875 21.59375 -132.132812 21.59375 -155.59375 C 21.59375 -179.332031 25.726562 -201.066406 34 -220.796875 C 42.269531 -240.535156 53.671875 -257.535156 68.203125 -271.796875 C 82.734375 -286.066406 99.53125 -297.066406 118.59375 -304.796875 C 137.664062 -312.535156 157.867188 -316.40625 179.203125 -316.40625 C 204.796875 -316.40625 227.125 -311.738281 246.1875 -302.40625 C 265.257812 -293.070312 280.925781 -281.070312 293.1875 -266.40625 C 305.457031 -251.738281 313.992188 -236.40625 318.796875 -220.40625 L 289.203125 -206.796875 C 284.929688 -219.597656 278.257812 -232 269.1875 -244 C 260.125 -256 248.191406 -265.863281 233.390625 -273.59375 C 218.597656 -281.332031 200.269531 -285.203125 178.40625 -285.203125 C 161.863281 -285.203125 146.191406 -282.132812 131.390625 -276 C 116.597656 -269.863281 103.535156 -261.128906 92.203125 -249.796875 C 80.867188 -238.460938 72 -224.992188 65.59375 -209.390625 C 59.195312 -193.796875 56 -176.53125 56 -157.59375 C 56 -132.800781 61.332031 -110.671875 72 -91.203125 C 82.664062 -71.734375 97.265625 -56.332031 115.796875 -45 C 134.328125 -33.664062 155.328125 -28 178.796875 -28 C 207.597656 -28 231.128906 -35.398438 249.390625 -50.203125 C 267.660156 -65.003906 281.0625 -84.003906 289.59375 -107.203125 L 319.203125 -93.203125 C 313.597656 -77.460938 304.59375 -62.191406 292.1875 -47.390625 C 279.789062 -32.597656 263.992188 -20.46875 244.796875 -11 C 225.597656 -1.53125 203.195312 3.203125 177.59375 3.203125 Z M 177.59375 3.203125 "/></g></g><g style="fill:#ffffff;fill-opacity:0.502;"><g transform="translate(18.129336, 344.466964)"><path style="stroke:none" d="M 177.59375 3.203125 C 156 3.203125 135.800781 -0.59375 117 -8.1875 C 98.195312 -15.789062 81.59375 -26.660156 67.1875 -40.796875 C 52.789062 -54.929688 41.59375 -71.734375 33.59375 -91.203125 C 25.59375 -110.671875 21.59375 -132.132812 21.59375 -155.59375 C 21.59375 -179.332031 25.726562 -201.066406 34 -220.796875 C 42.269531 -240.535156 53.671875 -257.535156 68.203125 -271.796875 C 82.734375 -286.066406 99.53125 -297.066406 118.59375 -304.796875 C 137.664062 -312.535156 157.867188 -316.40625 179.203125 -316.40625 C 204.796875 -316.40625 227.125 -311.738281 246.1875 -302.40625 C 265.257812 -293.070312 280.925781 -281.070312 293.1875 -266.40625 C 305.457031 -251.738281 313.992188 -236.40625 318.796875 -220.40625 L 289.203125 -206.796875 C 284.929688 -219.597656 278.257812 -232 269.1875 -244 C 260.125 -256 248.191406 -265.863281 233.390625 -273.59375 C 218.597656 -281.332031 200.269531 -285.203125 178.40625 -285.203125 C 161.863281 -285.203125 146.191406 -282.132812 131.390625 -276 C 116.597656 -269.863281 103.535156 -261.128906 92.203125 -249.796875 C 80.867188 -238.460938 72 -224.992188 65.59375 -209.390625 C 59.195312 -193.796875 56 -176.53125 56 -157.59375 C 56 -132.800781 61.332031 -110.671875 72 -91.203125 C 82.664062 -71.734375 97.265625 -56.332031 115.796875 -45 C 134.328125 -33.664062 155.328125 -28 178.796875 -28 C 207.597656 -28 231.128906 -35.398438 249.390625 -50.203125 C 267.660156 -65.003906 281.0625 -84.003906 289.59375 -107.203125 L 319.203125 -93.203125 C 313.597656 -77.460938 304.59375 -62.191406 292.1875 -47.390625 C 279.789062 -32.597656 263.992188 -20.46875 244.796875 -11 C 225.597656 -1.53125 203.195312 3.203125 177.59375 3.203125 Z M 177.59375 3.203125 "/></g></g><g style="fill:#ffffff;fill-opacity:1;"><g transform="translate(0.451679, 326.789304)"><path style="stroke:none" d="M 177.59375 3.203125 C 156 3.203125 135.800781 -0.59375 117 -8.1875 C 98.195312 -15.789062 81.59375 -26.660156 67.1875 -40.796875 C 52.789062 -54.929688 41.59375 -71.734375 33.59375 -91.203125 C 25.59375 -110.671875 21.59375 -132.132812 21.59375 -155.59375 C 21.59375 -179.332031 25.726562 -201.066406 34 -220.796875 C 42.269531 -240.535156 53.671875 -257.535156 68.203125 -271.796875 C 82.734375 -286.066406 99.53125 -297.066406 118.59375 -304.796875 C 137.664062 -312.535156 157.867188 -316.40625 179.203125 -316.40625 C 204.796875 -316.40625 227.125 -311.738281 246.1875 -302.40625 C 265.257812 -293.070312 280.925781 -281.070312 293.1875 -266.40625 C 305.457031 -251.738281 313.992188 -236.40625 318.796875 -220.40625 L 289.203125 -206.796875 C 284.929688 -219.597656 278.257812 -232 269.1875 -244 C 260.125 -256 248.191406 -265.863281 233.390625 -273.59375 C 218.597656 -281.332031 200.269531 -285.203125 178.40625 -285.203125 C 161.863281 -285.203125 146.191406 -282.132812 131.390625 -276 C 116.597656 -269.863281 103.535156 -261.128906 92.203125 -249.796875 C 80.867188 -238.460938 72 -224.992188 65.59375 -209.390625 C 59.195312 -193.796875 56 -176.53125 56 -157.59375 C 56 -132.800781 61.332031 -110.671875 72 -91.203125 C 82.664062 -71.734375 97.265625 -56.332031 115.796875 -45 C 134.328125 -33.664062 155.328125 -28 178.796875 -28 C 207.597656 -28 231.128906 -35.398438 249.390625 -50.203125 C 267.660156 -65.003906 281.0625 -84.003906 289.59375 -107.203125 L 319.203125 -93.203125 C 313.597656 -77.460938 304.59375 -62.191406 292.1875 -47.390625 C 279.789062 -32.597656 263.992188 -20.46875 244.796875 -11 C 225.597656 -1.53125 203.195312 3.203125 177.59375 3.203125 Z M 177.59375 3.203125 "/></g></g></g></svg>