<svg role="img" viewBox="0 0 24 24" xmlns="http://www.w3.org/2000/svg">
    <title>Airchat</title>
    <path d="M17.5163 20.4726L17.9715 20.7371C19.2114 21.4575 20.6038 21.9126 22.0813 22.0443L22.0614 12.6155C22.0614 12.4783 22.0682 12.3512 22.0736 12.2517L22.0737 12.2504C22.0795 12.1432 22.0833 12.0701 22.0833 12.0007C22.0833 6.42516 17.5756 1.9174 12 1.9174C6.42442 1.9174 1.91667 6.42516 1.91667 12.0007C1.91667 17.5763 6.42442 22.0841 12 22.0841C13.829 22.0841 15.5623 21.5816 17.0585 20.7325L17.5163 20.4726ZM23 23.0007H22.978C22.6771 23.0007 22.3787 22.9885 22.0833 22.9644C20.4391 22.8305 18.8883 22.33 17.511 21.5297C15.8862 22.4518 13.998 23.0007 12 23.0007C5.91816 23.0007 1 18.0826 1 12.0007C1 5.9189 5.91816 1.00073 12 1.00073C18.0818 1.00073 23 5.9189 23 12.0007C23 12.0969 22.9948 12.1931 22.9895 12.2919C22.9838 12.3959 22.978 12.5028 22.978 12.6155L23 23.0007Z"/>
    <path d="M5.03858 8.90765H18.9615L19.0775 9.19379C19.4295 10.0622 19.6161 11.021 19.6161 12.0007C19.6161 16.2059 16.2053 19.6167 12 19.6167C7.7948 19.6167 4.38401 16.2059 4.38401 12.0007C4.38401 11.021 4.57051 10.0622 4.92258 9.19379L5.03858 8.90765ZM5.66428 9.82432C5.42702 10.5043 5.30068 11.2437 5.30068 12.0007C5.30068 15.6997 8.30106 18.7001 12 18.7001C15.699 18.7001 18.6994 15.6997 18.6994 12.0007C18.6994 11.2437 18.573 10.5043 18.3358 9.82432H5.66428Z"/>
    <path d="M7.19997 17.2503C8.44755 16.0263 10.1429 15.2968 12 15.2968C13.857 15.2968 15.5524 16.0263 16.8 17.2503L17.1683 17.6116L16.7661 17.9348C15.4588 18.9853 13.7996 19.6167 12 19.6167C10.2004 19.6167 8.54117 18.9853 7.23386 17.9348L6.83172 17.6116L7.19997 17.2503ZM8.24517 17.5435C9.3193 18.2733 10.6123 18.7001 12 18.7001C13.3878 18.7001 14.6807 18.2733 15.7548 17.5435C14.7258 16.7033 13.4194 16.2135 12 16.2135C10.5806 16.2135 9.27421 16.7033 8.24517 17.5435Z"/>
    <path d="M6.36507 8.90765H17.633L17.5708 9.42114C17.5256 9.79371 17.4152 10.5139 17.1311 11.1524C16.8536 11.776 16.3313 12.481 15.4032 12.481H12.0007L12 12.0227L12.0001 11.5643H15.4032C15.7706 11.5643 16.0606 11.3033 16.2936 10.7797C16.4308 10.4714 16.5209 10.1265 16.5801 9.82432H7.42161C7.48089 10.1227 7.57065 10.4648 7.70678 10.7722C7.94104 11.3012 8.23176 11.5643 8.59683 11.5643H12.0001L12 12.0227L12.0007 12.481H8.59683C7.66649 12.481 7.14485 11.7671 6.86862 11.1434C6.585 10.503 6.47453 9.78334 6.42946 9.42284L6.36507 8.90765Z"/>
</svg>