<svg role="img" viewBox="0 0 24 24" xmlns="http://www.w3.org/2000/svg">
    <title>Amazon</title>
    <path fill-rule="evenodd" d="M13.7676 10.5881C13.7676 10.5416 13.7675 10.4948 13.7675 10.4476V9.87449C11.8546 9.87449 9.83397 10.2838 9.83397 12.539C9.83397 13.6814 10.4257 14.4555 11.4416 14.4555C12.1859 14.4555 12.852 13.9978 13.2726 13.2535C13.7697 12.3799 13.7688 11.5572 13.7676 10.5881ZM16.4357 16.8968C16.4357 16.8968 16.4357 16.8968 16.4357 16.8968H16.4357L16.4357 16.8968ZM15.8105 16.96C16.0077 17.0643 16.2608 17.053 16.4357 16.8968L16.4431 16.9042C16.9715 16.4353 17.9316 15.5979 18.4712 15.1477C18.6871 14.9692 18.6498 14.6825 18.4787 14.4444C18.4268 14.3725 18.3746 14.3021 18.3227 14.2322C17.8907 13.6499 17.4814 13.0983 17.4814 11.992V7.86865C17.4814 7.72776 17.4822 7.5878 17.483 7.44889C17.492 5.86699 17.5003 4.42238 16.3166 3.31744C15.3006 2.3424 13.6186 2 12.3309 2C9.8153 2 7.00573 2.93785 6.41405 6.04887C6.35451 6.38013 6.59266 6.55498 6.80845 6.60346L9.37626 6.87879C9.61441 6.86765 9.78925 6.63318 9.83397 6.39496C10.0535 5.3232 10.9541 4.80595 11.9626 4.80595C12.5059 4.80595 13.1237 5.00692 13.4475 5.49444C13.7781 5.98202 13.7731 6.63148 13.7685 7.21418C13.768 7.28075 13.7675 7.34645 13.7675 7.41094V7.75334C13.5199 7.78157 13.26 7.80816 12.9922 7.83556C11.6013 7.97782 9.99648 8.14198 8.79194 8.67252C7.13603 9.38697 5.97116 10.8495 5.97116 12.9967C5.97116 15.7468 7.70536 17.12 9.93076 17.12C11.8138 17.12 12.8409 16.6772 14.2922 15.1961C14.3687 15.3062 14.4371 15.4073 14.5013 15.5024C14.8435 16.0089 15.0712 16.346 15.8105 16.96ZM2.83878 17.2177C6.12474 19.2211 11.2111 22.3221 19.318 18.4639H19.318C19.6673 18.3181 19.9115 18.5616 19.5658 19.003C19.2178 19.4481 16.4355 22 11.7587 22C7.08514 22 3.50465 18.807 2.41211 17.4823C2.11285 17.1386 2.45776 16.9833 2.66069 17.1091C2.71946 17.1449 2.77882 17.1811 2.83878 17.2177ZM19.5796 16.9282C20.2884 16.8411 21.4147 16.8949 21.6364 17.1836C21.8049 17.4034 21.6307 18.3913 21.3453 19.0994C21.0579 19.8038 20.6296 20.3015 20.393 20.4937C20.1531 20.6859 19.9766 20.6115 20.1043 20.3228C20.2365 20.0342 20.9602 18.2443 20.6734 17.8685C20.4077 17.5212 19.2025 17.647 18.6426 17.7054C18.601 17.7097 18.5629 17.7137 18.5291 17.7171C18.4108 17.7277 18.3155 17.7383 18.2383 17.7469C17.9972 17.7738 17.9328 17.781 17.8968 17.7071C17.8042 17.4466 18.8697 17.0127 19.5796 16.9282Z"/>
</svg>