<svg role="img" viewBox="0 0 24 24" xmlns="http://www.w3.org/2000/svg">
    <title>Cameo</title>
    <path d="M5.646 21.167a1.4 1.4 0 0 1-.22-.11c-.138-.091-2.08-1.997-2.209-2.18-.174-.238-.229-.43-.183-.633.046-.155.128-.274.303-.44.155-.146.164-.146 2.034-1.337 2.098-1.338 2.4-1.512 2.694-1.594a.82.82 0 0 1 .494.036c.138.064.733.65.798.779.055.12.073.32.036.458-.073.312-.21.55-1.558 2.63l-.916 1.411c-.385.623-.568.843-.788.944a.68.68 0 0 1-.485.036M15.88 9.311c-.138-.046-.275-.156-.56-.45a1.8 1.8 0 0 1-.293-.347.73.73 0 0 1-.055-.44c.064-.321.202-.55 1.521-2.575q.693-1.05 1.375-2.107c.366-.468.751-.514 1.218-.147.083.064.56.54 1.073 1.044.953.953 1.062 1.082 1.145 1.302a.64.64 0 0 1-.018.485c-.11.23-.33.413-.917.788l-1.448.917a30 30 0 0 1-2.382 1.456c-.247.11-.476.138-.66.074m-5.232 13.67q-.62-.098-.688-.622c-.027-.211.01-.468.184-1.247l.32-1.456c.55-2.557.633-2.804.898-3.043.165-.146.238-.164.76-.164.33 0 .468 0 .541.027a.7.7 0 0 1 .358.275c.183.275.247.54.806 3.088q.213 1.01.44 2.016c.037.183.046.513.009.632a.6.6 0 0 1-.366.412c-.202.092-.285.101-1.769.101-.76 0-1.43-.01-1.493-.018M8.083 9.275c-.312-.064-.568-.21-2.593-1.503l-1.42-.907c-.688-.43-.89-.586-1.008-.815-.092-.211-.064-.458.1-.715a55 55 0 0 1 2.126-2.126c.348-.265.642-.284.935-.073.165.128.339.339.595.733l.917 1.439C9.072 7.369 9.21 7.598 9.302 7.91a.73.73 0 0 1-.019.531 4.2 4.2 0 0 1-.806.78.9.9 0 0 1-.394.045zM18.08 20.93c-.239-.119-.394-.311-.798-.934l-.953-1.466-1.246-1.97c-.275-.468-.32-.77-.183-1.027.092-.155.623-.687.77-.751a.8.8 0 0 1 .531-.018c.302.091.522.22 2.584 1.53q.959.623 1.924 1.237c.495.366.578.733.275 1.154-.119.147-2.052 2.062-2.18 2.144-.248.175-.505.202-.724.092zM1.521 14.14c-.293-.082-.458-.302-.504-.696C1 13.343 1 12.82 1 11.903c.01-1.53 0-1.474.137-1.722.101-.183.257-.293.504-.32.184-.028.422 0 .825.091l1.686.357c1.576.34 2.327.514 2.566.578.485.137.723.284.824.531.046.074.046.12.046.587v.494l-.055.11c-.092.202-.32.367-.669.459-.311.1-.889.229-2.675.613q-1.06.223-2.117.459a1.9 1.9 0 0 1-.55 0m10.043-6.624c-.275-.092-.422-.284-.55-.706q-.124-.37-.577-2.474l-.367-1.667a3.5 3.5 0 0 1-.156-1.008c.037-.34.211-.532.55-.623C10.585 1 10.695 1 12.07 1c1.594 0 1.585 0 1.823.11.147.064.275.21.33.348.027.083.027.156.027.367 0 .238 0 .311-.073.577l-.366 1.677c-.568 2.584-.614 2.758-.76 3.051a.82.82 0 0 1-.349.357c-.092.046-.11.046-.577.055-.367 0-.504 0-.55-.027z"/>
</svg>