<svg role="img" viewBox="0 0 24 24" xmlns="http://www.w3.org/2000/svg">
    <title>Lemon8</title>
    <path fill-rule="evenodd" d="M3.75 1A2.75 2.75 0 0 0 1 3.75v16.5A2.75 2.75 0 0 0 3.75 23h16.5A2.75 2.75 0 0 0 23 20.25V3.75A2.75 2.75 0 0 0 20.25 1zm14.939 8.506c.112-.367.371-.596.786-.695.272-.065.885-.052 1.127.017.786.233.885 1.097.194 1.62l-.229.176.134.117c.078.06.194.19.26.285.107.142.125.211.125.432-.005.591-.376.945-1.08 1.023-.855.1-1.576-.194-1.667-.678-.073-.402.095-.781.462-1.019.117-.073.212-.143.212-.155 0-.009-.06-.095-.134-.19-.25-.311-.298-.562-.19-.933m1.39.721c.458-.246.579-.6.277-.803-.272-.181-.721-.112-.885.134-.139.211-.048.457.246.66l.168.117zm.22 1.347c.022-.19-.073-.315-.37-.496-.143-.087-.286-.156-.316-.156-.12.005-.41.242-.488.406-.164.333.048.557.549.579.272.013.332.004.462-.087.112-.077.155-.138.164-.246M16 9.458c-.164.048-.25.208-.38.696-.082.31-.104.332-.475.393-.125.025-.134.013-.255-.264-.267-.613-.69-.89-1.235-.79-.306.052-.652.229-.803.415-.194.228-.358.634-.397.988-.022.182-.03.372-.017.42.026.098-.16.388-.316.491-.15.1-.306.082-.345-.034-.022-.052-.034-.518-.034-1.036-.005-.941-.005-.946-.109-1.028-.276-.225-.82.039-1.118.535-.078.13-.207.389-.29.57l-.142.333-.017-.57c-.013-.54-.017-.575-.116-.652-.147-.121-.385-.104-.614.039-.298.19-.548.565-.777 1.157l-.13.341.03-.7c.022-.652.022-.695-.055-.72-.095-.03-.328.03-.471.125-.147.095-.186.297-.216 1.13l-.03.748-.294.28c-.32.311-.66.497-.915.497-.164 0-.419-.1-.419-.164 0-.022.138-.13.302-.242.605-.414.838-.825.739-1.317-.052-.259-.134-.401-.324-.54-.173-.13-.708-.125-.954.005a1.5 1.5 0 0 0-.63.682c-.117.242-.126.294-.126.79v.527l-.307.199q-.73.467-.824.371c-.082-.082-.057-.397.112-1.43.177-1.048.19-1.411.073-1.666-.147-.324-.462-.5-.768-.436-.16.039-.389.242-.423.384-.018.06.03.402.107.769.126.596.143.781.177 1.766.018.604.052 1.157.074 1.226.052.19.216.29.47.294.294 0 .406-.065.99-.592.276-.25.522-.453.552-.453s.1.052.16.112c.056.06.19.164.298.225.173.103.237.116.583.112.535-.004.859-.134 1.381-.553.147-.12.165-.125.203-.052q.196.344.527.195c.13-.06.173-.173.285-.795.138-.768.372-1.377.518-1.351.052.013.074.103.095.423.091 1.14.151 1.412.363 1.507.16.069.26.06.384-.052.091-.078.13-.186.216-.613.126-.609.246-1.015.38-1.248.09-.164.22-.28.264-.242.008.013.03.341.047.734.017.389.052.777.078.86.073.22.29.35.57.35.285 0 .449-.07.794-.329l.268-.203.117.112c.198.186.401.26.747.281.418.026.6-.034.867-.28.234-.225.393-.471.463-.735.06-.216.069-.224.345-.259l.211-.026.03.341c.057.696.122.83.424.899.194.047.332-.134.522-.683.311-.902.721-1.558.817-1.308.021.052.008.177-.096 1.175-.06.574-.004.764.242.811.139.026.376-.039.44-.116.031-.035.079-.38.117-.765.035-.388.091-.937.13-1.217.034-.28.052-.553.034-.605-.133-.445-.734-.367-1.209.156-.116.13-.276.35-.358.488l-.117.196-.112.188-.078.13.022-.13c.013-.073.06-.341.108-.596.047-.255.086-.514.086-.566 0-.155-.168-.194-.466-.108m-2.15.912c.026.272.155.544.323.699a.3.3 0 0 1 .091.186c0 .138-.151.423-.268.505-.138.1-.388.086-.53-.026-.173-.134-.238-.332-.238-.717 0-.388.125-.712.332-.837.216-.134.255-.108.29.19m-7.449.794c.121.155.112.315-.03.527-.143.216-.458.457-.548.423-.048-.017-.065-.09-.065-.25q0-.473.216-.691c.155-.156.31-.156.427-.009m.328 3.8c1.948-.488 4.975-.916 7.168-1.02.954-.042 4.128-.008 4.391.048.225.052.424.207.424.333 0 .043-.052.125-.113.185l-.112.104-1.321.009c-3.649.03-5.877.254-9.12.92-.583.116-1.127.215-1.209.215-.38 0-.734-.211-.734-.436 0-.168.104-.224.626-.358"/>
</svg>