<svg role="img" viewBox="0 0 24 24" xmlns="http://www.w3.org/2000/svg">
    <title>Payment</title>
    <path fill-rule="evenodd" d="M11 22.002c6.075 0 11-4.925 11-11s-4.925-11-11-11-11 4.924-11 11 4.925 11 11 11M9.836 5.922c-.8 0-1.577.303-2.154.853a2.9 2.9 0 0 0-.913 2.108c0 .8.333 1.559.913 2.109.579.55 1.355.854 2.154.854h2.328c.378 0 .732.143.986.385a1.22 1.22 0 0 1 .39.883c0 .323-.136.642-.39.884a1.43 1.43 0 0 1-.986.385h-2.31a1.45 1.45 0 0 1-.755-.258l-.693-.488-.975 1.382.69.488a3.14 3.14 0 0 0 1.682.568h.352v3.387h1.69v-3.387h.32c.799 0 1.576-.302 2.153-.852a2.9 2.9 0 0 0 .913-2.109c0-.799-.333-1.558-.913-2.108a3.13 3.13 0 0 0-2.154-.854H9.836a1.43 1.43 0 0 1-.986-.385 1.22 1.22 0 0 1-.39-.884c0-.323.137-.642.39-.882.267-.25.62-.388.986-.387h2.31c.27.014.533.104.755.259l.693.488.976-1.383-.692-.487a3.14 3.14 0 0 0-1.68-.569h-.353V2.538h-1.69v3.384z"/>
</svg>