<svg role="img" viewBox="0 0 24 24" xmlns="http://www.w3.org/2000/svg">
    <title>Phone</title>
    <path d="M4.487 3c-.81 0-1.507.657-1.47 1.507a17.3 17.3 0 0 0 2.302 7.891 17.3 17.3 0 0 0 6.283 6.284c2.423 1.406 5.111 2.145 7.872 2.291.856.045 1.526-.652 1.526-1.473v-3.698a1.5 1.5 0 0 0-1.174-1.464l-3.18-.707a1.5 1.5 0 0 0-1.388.404l-.843.845a.454.454 0 0 1-.545.09 12.96 12.96 0 0 1-4.839-4.84.454.454 0 0 1 .09-.544l.844-.844a1.5 1.5 0 0 0 .404-1.387l-.706-3.18A1.5 1.5 0 0 0 8.198 3z"/>
</svg>