<svg role="img" viewBox="0 0 24 24" xmlns="http://www.w3.org/2000/svg">
    <title>Poshmark</title>
    <path fill-rule="evenodd" d="M21.776 7.139C21.713 3.703 18.869.939 15.42 1c-3.471 0-6.273 2.828-6.273 6.284v9.887h2.321V7.285a3.952 3.952 0 1 1 7.904 0 3.965 3.965 0 0 1-3.722 3.96v2.324a6.27 6.27 0 0 0 6.126-6.43m-7.004-.315H12.45v9.888a3.952 3.952 0 1 1-7.904 0 3.965 3.965 0 0 1 3.722-3.96v-2.325c-3.47.126-6.168 3.038-6.043 6.515a6.274 6.274 0 0 0 6.503 6.054c3.366-.126 6.043-2.912 6.043-6.284z"/>
</svg>