<svg role="img" viewBox="0 0 24 24" xmlns="http://www.w3.org/2000/svg">
    <title>RedNote</title>
    <path fill-rule="evenodd" d="M3.75 1A2.75 2.75 0 0 0 1 3.75v16.5A2.75 2.75 0 0 0 3.75 23h16.5A2.75 2.75 0 0 0 23 20.25V3.75A2.75 2.75 0 0 0 20.25 1zm6.961 9.453.601-1.633a4 4 0 0 1-.265-.034c-.312-.047-.669-.1-.923.077-.176.123-.293.469-.385.744-.032.093-.06.179-.088.245a4 4 0 0 1-.132.264c-.247.471-.643 1.225-.097 1.426.132.048.297.04.45.033q.078-.004.151-.005c-.06.284-.188.56-.313.83q-.069.144-.13.287c-.075.174-.207.413-.115.602.161.332.682.297 1.075.27.095-.006.184-.012.257-.012.165 0 .36.032.487-.1.173-.18.287-.615.372-.845l-.773-.086.86-2.063zM4.657 14.24q-.07-.005-.134-.005c.047.223.183.76.373.903.432.324 1.302-.052 1.49-.473.152-.343.137-.75.122-1.136q-.007-.166-.008-.325v-2.75c0-.126.012-.275.024-.431.028-.358.06-.758-.038-1.03-.086-.238-.896-.268-1.089-.129-.182.131-.142.65-.115 1 .008.1.015.187.015.246v2.836c0 .08.008.178.016.285.024.291.052.644-.06.832-.117.2-.376.187-.596.177m12.929-4.99v-.43h-1.203v.43h-.774v1.203h.774v1.031H15.18v1.204h1.203v2.492h1.203v-2.492h1.289q.066 0 .143-.006c.157-.009.332-.018.459.048.314.167.422 1.14.157 1.39-.175.164-.523.142-.802.124a4 4 0 0 0-.215-.01c.047.258.147.74.373.903.092.066.247.056.377.048l.11-.005h.139c.408.006.844.01 1.12-.344.231-.295.219-.688.207-1.055q-.005-.12-.006-.234l.003-.25c.012-.743.025-1.562-.862-1.784a1.6 1.6 0 0 0-.415-.03l-.1.001V11.3c.006-.833.012-1.728-.946-2.02-.22-.068-.49-.053-.743-.04q-.15.01-.288.01m-3.437 1.204h.687V9.25h-2.664v1.203h.687v3.61l-1.088.042-.459 1.075h3.954v-1.117h-1.117zm5.579-.205q.005.106.006.205l.167.003c.175.005.354.01.52-.032.112-.027.251-.07.33-.157.698-.767-.7-1.515-.988-.587-.053.172-.044.375-.035.568M4.165 13.633l.358-3.18H3.32l-.257 2.836.515 1.375zm4.57-.344-.258-2.836H7.273c0 .404.052.814.104 1.22q.04.295.068.585l.009.085c.077.803.147 1.53.593 2.235h.172zm8.851-1.805v-1.03h.773v1.03zm-6.875 3.696.43-1.117-1.203-.03-.66-.013-.458 1.16z"/>
</svg>