<svg xmlns="http://www.w3.org/2000/svg" xmlns:xlink="http://www.w3.org/1999/xlink" width="280" zoomAndPan="magnify" viewBox="0 0 210 89.999999" height="120" preserveAspectRatio="xMidYMid meet" version="1.0"><defs><g/></defs><g fill="#000000" fill-opacity="1"><g transform="translate(-3.011204, 80.999998)"><g><path d="M 30.703125 1.078125 C 25.203125 1.078125 20.484375 -0.128906 16.546875 -2.546875 C 12.617188 -4.960938 9.59375 -8.300781 7.46875 -12.5625 C 5.351562 -16.832031 4.296875 -21.753906 4.296875 -27.328125 C 4.296875 -32.921875 5.375 -37.863281 7.53125 -42.15625 C 9.6875 -46.445312 12.726562 -49.789062 16.65625 -52.1875 C 20.59375 -54.59375 25.25 -55.796875 30.625 -55.796875 C 35.09375 -55.796875 39.050781 -54.976562 42.5 -53.34375 C 45.957031 -51.707031 48.710938 -49.398438 50.765625 -46.421875 C 52.828125 -43.441406 54.003906 -39.96875 54.296875 -36 L 41.890625 -36 C 41.378906 -38.65625 40.1875 -40.875 38.3125 -42.65625 C 36.4375 -44.4375 33.929688 -45.328125 30.796875 -45.328125 C 28.148438 -45.328125 25.820312 -44.613281 23.8125 -43.1875 C 21.800781 -41.769531 20.238281 -39.734375 19.125 -37.078125 C 18.019531 -34.421875 17.46875 -31.242188 17.46875 -27.546875 C 17.46875 -23.785156 18.015625 -20.5625 19.109375 -17.875 C 20.210938 -15.1875 21.757812 -13.117188 23.75 -11.671875 C 25.75 -10.222656 28.097656 -9.5 30.796875 -9.5 C 32.710938 -9.5 34.429688 -9.863281 35.953125 -10.59375 C 37.472656 -11.320312 38.742188 -12.378906 39.765625 -13.765625 C 40.796875 -15.148438 41.503906 -16.835938 41.890625 -18.828125 L 54.296875 -18.828125 C 53.984375 -14.929688 52.832031 -11.484375 50.84375 -8.484375 C 48.863281 -5.484375 46.164062 -3.140625 42.75 -1.453125 C 39.332031 0.234375 35.316406 1.078125 30.703125 1.078125 Z M 30.703125 1.078125 "/></g></g></g><g fill="#000000" fill-opacity="1"><g transform="translate(49.640794, 80.999998)"><g><path d="M 27.109375 0.96875 C 22.785156 0.96875 18.910156 -0.140625 15.484375 -2.359375 C 12.066406 -4.585938 9.363281 -7.816406 7.375 -12.046875 C 5.394531 -16.273438 4.40625 -21.414062 4.40625 -27.46875 C 4.40625 -33.59375 5.414062 -38.765625 7.4375 -42.984375 C 9.457031 -47.203125 12.1875 -50.390625 15.625 -52.546875 C 19.070312 -54.710938 22.910156 -55.796875 27.140625 -55.796875 C 30.367188 -55.796875 33.023438 -55.25 35.109375 -54.15625 C 37.191406 -53.070312 38.84375 -51.769531 40.0625 -50.25 C 41.28125 -48.738281 42.222656 -47.3125 42.890625 -45.96875 L 43.421875 -45.96875 L 43.421875 -73.4375 L 56.4375 -73.4375 L 56.4375 0 L 43.671875 0 L 43.671875 -8.671875 L 42.890625 -8.671875 C 42.222656 -7.335938 41.253906 -5.921875 39.984375 -4.421875 C 38.710938 -2.929688 37.035156 -1.660156 34.953125 -0.609375 C 32.878906 0.441406 30.265625 0.96875 27.109375 0.96875 Z M 30.734375 -9.6875 C 33.484375 -9.6875 35.828125 -10.429688 37.765625 -11.921875 C 39.703125 -13.421875 41.171875 -15.507812 42.171875 -18.1875 C 43.171875 -20.863281 43.671875 -23.984375 43.671875 -27.546875 C 43.671875 -31.109375 43.175781 -34.203125 42.1875 -36.828125 C 41.195312 -39.460938 39.738281 -41.507812 37.8125 -42.96875 C 35.882812 -44.425781 33.523438 -45.15625 30.734375 -45.15625 C 27.835938 -45.15625 25.421875 -44.398438 23.484375 -42.890625 C 21.546875 -41.378906 20.085938 -39.296875 19.109375 -36.640625 C 18.128906 -33.992188 17.640625 -30.960938 17.640625 -27.546875 C 17.640625 -24.097656 18.132812 -21.03125 19.125 -18.34375 C 20.125 -15.65625 21.597656 -13.539062 23.546875 -12 C 25.492188 -10.457031 27.890625 -9.6875 30.734375 -9.6875 Z M 30.734375 -9.6875 "/></g></g></g><g fill="#000000" fill-opacity="1"><g transform="translate(107.635855, 80.999998)"><g><path d="M 14.671875 0.78125 C 12.492188 0.78125 10.625 0.0195312 9.0625 -1.5 C 7.507812 -3.03125 6.75 -4.894531 6.78125 -7.09375 C 6.75 -9.25 7.507812 -11.09375 9.0625 -12.625 C 10.625 -14.15625 12.492188 -14.921875 14.671875 -14.921875 C 16.773438 -14.921875 18.609375 -14.15625 20.171875 -12.625 C 21.734375 -11.09375 22.53125 -9.25 22.5625 -7.09375 C 22.53125 -5.632812 22.148438 -4.304688 21.421875 -3.109375 C 20.691406 -1.921875 19.734375 -0.972656 18.546875 -0.265625 C 17.367188 0.429688 16.078125 0.78125 14.671875 0.78125 Z M 14.671875 0.78125 "/></g></g></g><g fill="#000000" fill-opacity="1"><g transform="translate(131.313359, 80.999998)"><g><path d="M 19.65625 -73.4375 L 19.65625 0 L 6.671875 0 L 6.671875 -73.4375 Z M 19.65625 -73.4375 "/></g></g></g><g fill="#000000" fill-opacity="1"><g transform="translate(151.978663, 80.999998)"><g><path d="M 18.5 -17.28125 L 18.46875 -32.953125 L 20.546875 -32.953125 L 40.34375 -55.078125 L 55.515625 -55.078125 L 31.15625 -27.96875 L 28.46875 -27.96875 Z M 6.671875 0 L 6.671875 -73.4375 L 19.65625 -73.4375 L 19.65625 0 Z M 41.234375 0 L 23.3125 -25.0625 L 32.0625 -34.21875 L 56.765625 0 Z M 41.234375 0 "/></g></g></g></svg>