<svg xmlns="http://www.w3.org/2000/svg" xmlns:xlink="http://www.w3.org/1999/xlink" width="360" zoomAndPan="magnify" viewBox="0 0 270 112.499997" height="150" preserveAspectRatio="xMidYMid meet" version="1.0"><defs><g/></defs><g fill="#000000" fill-opacity="1"><g transform="translate(-2.3775, 82.86513)"><g><path d="M 31.46875 1.109375 C 25.832031 1.109375 21 -0.128906 16.96875 -2.609375 C 12.9375 -5.085938 9.832031 -8.515625 7.65625 -12.890625 C 5.488281 -17.265625 4.40625 -22.304688 4.40625 -28.015625 C 4.40625 -33.753906 5.507812 -38.820312 7.71875 -43.21875 C 9.925781 -47.613281 13.046875 -51.039062 17.078125 -53.5 C 21.109375 -55.96875 25.878906 -57.203125 31.390625 -57.203125 C 35.972656 -57.203125 40.035156 -56.363281 43.578125 -54.6875 C 47.117188 -53.007812 49.941406 -50.644531 52.046875 -47.59375 C 54.160156 -44.539062 55.363281 -40.976562 55.65625 -36.90625 L 42.9375 -36.90625 C 42.425781 -39.632812 41.207031 -41.910156 39.28125 -43.734375 C 37.351562 -45.554688 34.785156 -46.46875 31.578125 -46.46875 C 28.859375 -46.46875 26.46875 -45.738281 24.40625 -44.28125 C 22.351562 -42.820312 20.753906 -40.734375 19.609375 -38.015625 C 18.472656 -35.296875 17.90625 -32.035156 17.90625 -28.234375 C 17.90625 -24.390625 18.46875 -21.085938 19.59375 -18.328125 C 20.71875 -15.566406 22.300781 -13.445312 24.34375 -11.96875 C 26.394531 -10.488281 28.804688 -9.75 31.578125 -9.75 C 33.535156 -9.75 35.289062 -10.117188 36.84375 -10.859375 C 38.40625 -11.609375 39.710938 -12.691406 40.765625 -14.109375 C 41.828125 -15.535156 42.550781 -17.265625 42.9375 -19.296875 L 55.65625 -19.296875 C 55.34375 -15.304688 54.164062 -11.769531 52.125 -8.6875 C 50.09375 -5.613281 47.320312 -3.210938 43.8125 -1.484375 C 40.3125 0.242188 36.195312 1.109375 31.46875 1.109375 Z M 31.46875 1.109375 "/></g></g></g><g fill="#000000" fill-opacity="1"><g transform="translate(51.605138, 82.86513)"><g><path d="M 20.140625 -75.296875 L 20.140625 0 L 6.84375 0 L 6.84375 -75.296875 Z M 20.140625 -75.296875 "/></g></g></g><g fill="#000000" fill-opacity="1"><g transform="translate(72.792848, 82.86513)"><g><path d="M 18.96875 -17.71875 L 18.9375 -33.78125 L 21.0625 -33.78125 L 41.359375 -56.46875 L 56.90625 -56.46875 L 31.953125 -28.671875 L 29.1875 -28.671875 Z M 6.84375 0 L 6.84375 -75.296875 L 20.140625 -75.296875 L 20.140625 0 Z M 42.28125 0 L 23.890625 -25.703125 L 32.875 -35.078125 L 58.203125 0 Z M 42.28125 0 "/></g></g></g><g fill="#000000" fill-opacity="1"><g transform="translate(125.893109, 82.86513)"><g><path d="M 15.03125 0.8125 C 12.800781 0.8125 10.890625 0.03125 9.296875 -1.53125 C 7.703125 -3.101562 6.921875 -5.019531 6.953125 -7.28125 C 6.921875 -9.488281 7.703125 -11.375 9.296875 -12.9375 C 10.890625 -14.507812 12.800781 -15.296875 15.03125 -15.296875 C 17.1875 -15.296875 19.066406 -14.507812 20.671875 -12.9375 C 22.285156 -11.375 23.101562 -9.488281 23.125 -7.28125 C 23.101562 -5.78125 22.71875 -4.414062 21.96875 -3.1875 C 21.21875 -1.96875 20.234375 -0.992188 19.015625 -0.265625 C 17.804688 0.453125 16.476562 0.8125 15.03125 0.8125 Z M 15.03125 0.8125 "/></g></g></g><g fill="#000000" fill-opacity="1"><g transform="translate(150.169129, 82.86513)"><g><path d="M 31.390625 22.359375 C 26.617188 22.359375 22.515625 21.710938 19.078125 20.421875 C 15.648438 19.140625 12.894531 17.414062 10.8125 15.25 C 8.726562 13.09375 7.28125 10.707031 6.46875 8.09375 L 18.453125 5.1875 C 18.992188 6.289062 19.78125 7.382812 20.8125 8.46875 C 21.84375 9.5625 23.234375 10.46875 24.984375 11.1875 C 26.734375 11.914062 28.945312 12.28125 31.625 12.28125 C 35.394531 12.28125 38.515625 11.363281 40.984375 9.53125 C 43.460938 7.707031 44.703125 4.710938 44.703125 0.546875 L 44.703125 -10.140625 L 44.046875 -10.140625 C 43.359375 -8.773438 42.359375 -7.367188 41.046875 -5.921875 C 39.734375 -4.472656 38.003906 -3.257812 35.859375 -2.28125 C 33.710938 -1.300781 31.023438 -0.8125 27.796875 -0.8125 C 23.453125 -0.8125 19.519531 -1.832031 16 -3.875 C 12.488281 -5.925781 9.695312 -8.988281 7.625 -13.0625 C 5.550781 -17.144531 4.515625 -22.265625 4.515625 -28.421875 C 4.515625 -34.617188 5.550781 -39.851562 7.625 -44.125 C 9.695312 -48.40625 12.5 -51.65625 16.03125 -53.875 C 19.5625 -56.09375 23.492188 -57.203125 27.828125 -57.203125 C 31.140625 -57.203125 33.867188 -56.644531 36.015625 -55.53125 C 38.160156 -54.414062 39.867188 -53.078125 41.140625 -51.515625 C 42.410156 -49.960938 43.378906 -48.503906 44.046875 -47.140625 L 44.78125 -47.140625 L 44.78125 -56.46875 L 57.90625 -56.46875 L 57.90625 0.921875 C 57.90625 5.742188 56.753906 9.734375 54.453125 12.890625 C 52.148438 16.054688 49 18.425781 45 20 C 41.007812 21.570312 36.472656 22.359375 31.390625 22.359375 Z M 31.515625 -11.25 C 34.328125 -11.25 36.722656 -11.9375 38.703125 -13.3125 C 40.691406 -14.6875 42.203125 -16.660156 43.234375 -19.234375 C 44.265625 -21.804688 44.78125 -24.894531 44.78125 -28.5 C 44.78125 -32.050781 44.269531 -35.160156 43.25 -37.828125 C 42.238281 -40.503906 40.742188 -42.582031 38.765625 -44.0625 C 36.796875 -45.539062 34.378906 -46.28125 31.515625 -46.28125 C 28.546875 -46.28125 26.066406 -45.507812 24.078125 -43.96875 C 22.097656 -42.425781 20.601562 -40.3125 19.59375 -37.625 C 18.59375 -34.945312 18.09375 -31.90625 18.09375 -28.5 C 18.09375 -25.039062 18.597656 -22.015625 19.609375 -19.421875 C 20.628906 -16.835938 22.140625 -14.828125 24.140625 -13.390625 C 26.140625 -11.960938 28.597656 -11.25 31.515625 -11.25 Z M 31.515625 -11.25 "/></g></g></g><g fill="#000000" fill-opacity="1"><g transform="translate(209.11512, 82.86513)"><g><path d="M 31.390625 22.359375 C 26.617188 22.359375 22.515625 21.710938 19.078125 20.421875 C 15.648438 19.140625 12.894531 17.414062 10.8125 15.25 C 8.726562 13.09375 7.28125 10.707031 6.46875 8.09375 L 18.453125 5.1875 C 18.992188 6.289062 19.78125 7.382812 20.8125 8.46875 C 21.84375 9.5625 23.234375 10.46875 24.984375 11.1875 C 26.734375 11.914062 28.945312 12.28125 31.625 12.28125 C 35.394531 12.28125 38.515625 11.363281 40.984375 9.53125 C 43.460938 7.707031 44.703125 4.710938 44.703125 0.546875 L 44.703125 -10.140625 L 44.046875 -10.140625 C 43.359375 -8.773438 42.359375 -7.367188 41.046875 -5.921875 C 39.734375 -4.472656 38.003906 -3.257812 35.859375 -2.28125 C 33.710938 -1.300781 31.023438 -0.8125 27.796875 -0.8125 C 23.453125 -0.8125 19.519531 -1.832031 16 -3.875 C 12.488281 -5.925781 9.695312 -8.988281 7.625 -13.0625 C 5.550781 -17.144531 4.515625 -22.265625 4.515625 -28.421875 C 4.515625 -34.617188 5.550781 -39.851562 7.625 -44.125 C 9.695312 -48.40625 12.5 -51.65625 16.03125 -53.875 C 19.5625 -56.09375 23.492188 -57.203125 27.828125 -57.203125 C 31.140625 -57.203125 33.867188 -56.644531 36.015625 -55.53125 C 38.160156 -54.414062 39.867188 -53.078125 41.140625 -51.515625 C 42.410156 -49.960938 43.378906 -48.503906 44.046875 -47.140625 L 44.78125 -47.140625 L 44.78125 -56.46875 L 57.90625 -56.46875 L 57.90625 0.921875 C 57.90625 5.742188 56.753906 9.734375 54.453125 12.890625 C 52.148438 16.054688 49 18.425781 45 20 C 41.007812 21.570312 36.472656 22.359375 31.390625 22.359375 Z M 31.515625 -11.25 C 34.328125 -11.25 36.722656 -11.9375 38.703125 -13.3125 C 40.691406 -14.6875 42.203125 -16.660156 43.234375 -19.234375 C 44.265625 -21.804688 44.78125 -24.894531 44.78125 -28.5 C 44.78125 -32.050781 44.269531 -35.160156 43.25 -37.828125 C 42.238281 -40.503906 40.742188 -42.582031 38.765625 -44.0625 C 36.796875 -45.539062 34.378906 -46.28125 31.515625 -46.28125 C 28.546875 -46.28125 26.066406 -45.507812 24.078125 -43.96875 C 22.097656 -42.425781 20.601562 -40.3125 19.59375 -37.625 C 18.59375 -34.945312 18.09375 -31.90625 18.09375 -28.5 C 18.09375 -25.039062 18.597656 -22.015625 19.609375 -19.421875 C 20.628906 -16.835938 22.140625 -14.828125 24.140625 -13.390625 C 26.140625 -11.960938 28.597656 -11.25 31.515625 -11.25 Z M 31.515625 -11.25 "/></g></g></g></svg>