<svg xmlns="http://www.w3.org/2000/svg" xmlns:xlink="http://www.w3.org/1999/xlink" width="380" zoomAndPan="magnify" viewBox="0 0 285 89.999999" height="120" preserveAspectRatio="xMidYMid meet" version="1.0"><defs><g/></defs><g fill="#000000" fill-opacity="1"><g transform="translate(-2.039742, 75.275022)"><g><path d="M 25.234375 0.890625 C 20.710938 0.890625 16.832031 -0.101562 13.59375 -2.09375 C 10.363281 -4.082031 7.878906 -6.828125 6.140625 -10.328125 C 4.398438 -13.835938 3.53125 -17.882812 3.53125 -22.46875 C 3.53125 -27.0625 4.414062 -31.125 6.1875 -34.65625 C 7.957031 -38.1875 10.457031 -40.9375 13.6875 -42.90625 C 16.925781 -44.882812 20.753906 -45.875 25.171875 -45.875 C 28.847656 -45.875 32.101562 -45.195312 34.9375 -43.84375 C 37.78125 -42.5 40.046875 -40.601562 41.734375 -38.15625 C 43.429688 -35.707031 44.394531 -32.851562 44.625 -29.59375 L 34.4375 -29.59375 C 34.019531 -31.78125 33.039062 -33.601562 31.5 -35.0625 C 29.957031 -36.53125 27.898438 -37.265625 25.328125 -37.265625 C 23.140625 -37.265625 21.21875 -36.675781 19.5625 -35.5 C 17.914062 -34.332031 16.632812 -32.65625 15.71875 -30.46875 C 14.8125 -28.289062 14.359375 -25.679688 14.359375 -22.640625 C 14.359375 -19.554688 14.804688 -16.90625 15.703125 -14.6875 C 16.609375 -12.476562 17.878906 -10.78125 19.515625 -9.59375 C 21.160156 -8.40625 23.097656 -7.8125 25.328125 -7.8125 C 26.898438 -7.8125 28.304688 -8.109375 29.546875 -8.703125 C 30.796875 -9.304688 31.84375 -10.175781 32.6875 -11.3125 C 33.539062 -12.457031 34.125 -13.847656 34.4375 -15.484375 L 44.625 -15.484375 C 44.375 -12.273438 43.429688 -9.4375 41.796875 -6.96875 C 40.171875 -4.5 37.953125 -2.570312 35.140625 -1.1875 C 32.328125 0.195312 29.023438 0.890625 25.234375 0.890625 Z M 25.234375 0.890625 "/></g></g></g><g fill="#000000" fill-opacity="1"><g transform="translate(41.245564, 75.275022)"><g><path d="M 16.15625 -60.375 L 16.15625 0 L 5.484375 0 L 5.484375 -60.375 Z M 16.15625 -60.375 "/></g></g></g><g fill="#000000" fill-opacity="1"><g transform="translate(58.23473, 75.275022)"><g><path d="M 15.21875 -14.203125 L 15.1875 -27.09375 L 16.890625 -27.09375 L 33.171875 -45.28125 L 45.640625 -45.28125 L 25.625 -23 L 23.40625 -23 Z M 5.484375 0 L 5.484375 -60.375 L 16.15625 -60.375 L 16.15625 0 Z M 33.90625 0 L 19.15625 -20.609375 L 26.359375 -28.125 L 46.671875 0 Z M 33.90625 0 "/></g></g></g><g fill="#000000" fill-opacity="1"><g transform="translate(100.812517, 75.275022)"><g><path d="M 22.28125 0.796875 C 18.726562 0.796875 15.546875 -0.113281 12.734375 -1.9375 C 9.921875 -3.769531 7.695312 -6.425781 6.0625 -9.90625 C 4.4375 -13.382812 3.625 -17.609375 3.625 -22.578125 C 3.625 -27.609375 4.453125 -31.859375 6.109375 -35.328125 C 7.773438 -38.796875 10.019531 -41.421875 12.84375 -43.203125 C 15.675781 -44.984375 18.832031 -45.875 22.3125 -45.875 C 24.96875 -45.875 27.148438 -45.425781 28.859375 -44.53125 C 30.566406 -43.632812 31.921875 -42.5625 32.921875 -41.3125 C 33.929688 -40.0625 34.710938 -38.890625 35.265625 -37.796875 L 35.703125 -37.796875 L 35.703125 -60.375 L 46.40625 -60.375 L 46.40625 0 L 35.90625 0 L 35.90625 -7.140625 L 35.265625 -7.140625 C 34.710938 -6.035156 33.914062 -4.867188 32.875 -3.640625 C 31.832031 -2.410156 30.453125 -1.363281 28.734375 -0.5 C 27.023438 0.363281 24.875 0.796875 22.28125 0.796875 Z M 25.265625 -7.953125 C 27.523438 -7.953125 29.453125 -8.566406 31.046875 -9.796875 C 32.640625 -11.023438 33.847656 -12.738281 34.671875 -14.9375 C 35.492188 -17.144531 35.90625 -19.710938 35.90625 -22.640625 C 35.90625 -25.566406 35.492188 -28.109375 34.671875 -30.265625 C 33.859375 -32.429688 32.660156 -34.113281 31.078125 -35.3125 C 29.503906 -36.507812 27.566406 -37.109375 25.265625 -37.109375 C 22.890625 -37.109375 20.90625 -36.488281 19.3125 -35.25 C 17.71875 -34.019531 16.515625 -32.3125 15.703125 -30.125 C 14.898438 -27.945312 14.5 -25.453125 14.5 -22.640625 C 14.5 -19.804688 14.90625 -17.285156 15.71875 -15.078125 C 16.539062 -12.867188 17.75 -11.128906 19.34375 -9.859375 C 20.945312 -8.585938 22.921875 -7.953125 25.265625 -7.953125 Z M 25.265625 -7.953125 "/></g></g></g><g fill="#000000" fill-opacity="1"><g transform="translate(148.490341, 75.275022)"><g><path d="M 12.0625 0.65625 C 10.269531 0.65625 8.734375 0.0234375 7.453125 -1.234375 C 6.179688 -2.492188 5.554688 -4.03125 5.578125 -5.84375 C 5.554688 -7.601562 6.179688 -9.113281 7.453125 -10.375 C 8.734375 -11.632812 10.269531 -12.265625 12.0625 -12.265625 C 13.789062 -12.265625 15.296875 -11.632812 16.578125 -10.375 C 17.867188 -9.113281 18.523438 -7.601562 18.546875 -5.84375 C 18.523438 -4.632812 18.210938 -3.539062 17.609375 -2.5625 C 17.015625 -1.582031 16.226562 -0.800781 15.25 -0.21875 C 14.28125 0.363281 13.21875 0.65625 12.0625 0.65625 Z M 12.0625 0.65625 "/></g></g></g><g fill="#000000" fill-opacity="1"><g transform="translate(167.955824, 75.275022)"><g><path d="M 5.484375 0 L 5.484375 -45.28125 L 15.6875 -45.28125 L 15.6875 -37.59375 L 16.21875 -37.59375 C 17.15625 -40.1875 18.710938 -42.210938 20.890625 -43.671875 C 23.078125 -45.140625 25.6875 -45.875 28.71875 -45.875 C 31.78125 -45.875 34.367188 -45.128906 36.484375 -43.640625 C 38.597656 -42.160156 40.085938 -40.144531 40.953125 -37.59375 L 41.421875 -37.59375 C 42.421875 -40.101562 44.113281 -42.109375 46.5 -43.609375 C 48.894531 -45.117188 51.734375 -45.875 55.015625 -45.875 C 59.179688 -45.875 62.578125 -44.554688 65.203125 -41.921875 C 67.835938 -39.285156 69.15625 -35.441406 69.15625 -30.390625 L 69.15625 0 L 58.453125 0 L 58.453125 -28.75 C 58.453125 -31.550781 57.707031 -33.601562 56.21875 -34.90625 C 54.726562 -36.21875 52.898438 -36.875 50.734375 -36.875 C 48.160156 -36.875 46.148438 -36.070312 44.703125 -34.46875 C 43.265625 -32.875 42.546875 -30.796875 42.546875 -28.234375 L 42.546875 0 L 32.078125 0 L 32.078125 -29.1875 C 32.078125 -31.519531 31.375 -33.382812 29.96875 -34.78125 C 28.5625 -36.175781 26.726562 -36.875 24.46875 -36.875 C 22.9375 -36.875 21.539062 -36.484375 20.28125 -35.703125 C 19.019531 -34.929688 18.015625 -33.84375 17.265625 -32.4375 C 16.523438 -31.03125 16.15625 -29.394531 16.15625 -27.53125 L 16.15625 0 Z M 5.484375 0 "/></g></g></g><g fill="#000000" fill-opacity="1"><g transform="translate(237.832072, 75.275022)"><g><path d="M 25.53125 0.890625 C 20.988281 0.890625 17.070312 -0.0546875 13.78125 -1.953125 C 10.488281 -3.859375 7.957031 -6.550781 6.1875 -10.03125 C 4.414062 -13.519531 3.53125 -17.632812 3.53125 -22.375 C 3.53125 -27.03125 4.421875 -31.125 6.203125 -34.65625 C 7.984375 -38.1875 10.472656 -40.9375 13.671875 -42.90625 C 16.878906 -44.882812 20.644531 -45.875 24.96875 -45.875 C 27.757812 -45.875 30.394531 -45.425781 32.875 -44.53125 C 35.363281 -43.632812 37.566406 -42.253906 39.484375 -40.390625 C 41.398438 -38.523438 42.910156 -36.148438 44.015625 -33.265625 C 45.117188 -30.390625 45.671875 -26.96875 45.671875 -23 L 45.671875 -19.71875 L 8.546875 -19.71875 L 8.546875 -26.921875 L 35.4375 -26.921875 C 35.414062 -28.960938 34.972656 -30.78125 34.109375 -32.375 C 33.242188 -33.976562 32.039062 -35.242188 30.5 -36.171875 C 28.957031 -37.097656 27.160156 -37.5625 25.109375 -37.5625 C 22.929688 -37.5625 21.015625 -37.035156 19.359375 -35.984375 C 17.710938 -34.929688 16.429688 -33.550781 15.515625 -31.84375 C 14.609375 -30.144531 14.144531 -28.285156 14.125 -26.265625 L 14.125 -19.984375 C 14.125 -17.347656 14.601562 -15.09375 15.5625 -13.21875 C 16.53125 -11.34375 17.878906 -9.90625 19.609375 -8.90625 C 21.335938 -7.914062 23.359375 -7.421875 25.671875 -7.421875 C 27.222656 -7.421875 28.628906 -7.640625 29.890625 -8.078125 C 31.148438 -8.523438 32.238281 -9.179688 33.15625 -10.046875 C 34.082031 -10.910156 34.785156 -11.984375 35.265625 -13.265625 L 45.21875 -12.140625 C 44.59375 -9.515625 43.398438 -7.222656 41.640625 -5.265625 C 39.878906 -3.304688 37.632812 -1.789062 34.90625 -0.71875 C 32.175781 0.351562 29.050781 0.890625 25.53125 0.890625 Z M 25.53125 0.890625 "/></g></g></g></svg>