<svg xmlns="http://www.w3.org/2000/svg" xmlns:xlink="http://www.w3.org/1999/xlink" width="380" zoomAndPan="magnify" viewBox="0 0 285 89.999999" height="120" preserveAspectRatio="xMidYMid meet" version="1.0"><defs><g/></defs><g fill="#000000" fill-opacity="1"><g transform="translate(-3.888881, 83.025225)"><g><path d="M 31.3125 1.09375 C 25.695312 1.09375 20.882812 -0.132812 16.875 -2.59375 C 12.863281 -5.0625 9.78125 -8.46875 7.625 -12.8125 C 5.46875 -17.164062 4.390625 -22.1875 4.390625 -27.875 C 4.390625 -33.582031 5.484375 -38.625 7.671875 -43 C 9.867188 -47.375 12.972656 -50.785156 16.984375 -53.234375 C 20.992188 -55.679688 25.742188 -56.90625 31.234375 -56.90625 C 35.796875 -56.90625 39.835938 -56.070312 43.359375 -54.40625 C 46.878906 -52.738281 49.6875 -50.382812 51.78125 -47.34375 C 53.882812 -44.3125 55.082031 -40.769531 55.375 -36.71875 L 42.71875 -36.71875 C 42.207031 -39.425781 40.992188 -41.6875 39.078125 -43.5 C 37.171875 -45.320312 34.617188 -46.234375 31.421875 -46.234375 C 28.710938 -46.234375 26.332031 -45.503906 24.28125 -44.046875 C 22.238281 -42.597656 20.648438 -40.519531 19.515625 -37.8125 C 18.378906 -35.113281 17.8125 -31.875 17.8125 -28.09375 C 17.8125 -24.257812 18.367188 -20.972656 19.484375 -18.234375 C 20.609375 -15.492188 22.1875 -13.382812 24.21875 -11.90625 C 26.257812 -10.425781 28.660156 -9.6875 31.421875 -9.6875 C 33.367188 -9.6875 35.113281 -10.054688 36.65625 -10.796875 C 38.207031 -11.546875 39.507812 -12.628906 40.5625 -14.046875 C 41.613281 -15.460938 42.332031 -17.179688 42.71875 -19.203125 L 55.375 -19.203125 C 55.0625 -15.222656 53.890625 -11.703125 51.859375 -8.640625 C 49.835938 -5.585938 47.082031 -3.203125 43.59375 -1.484375 C 40.113281 0.234375 36.019531 1.09375 31.3125 1.09375 Z M 31.3125 1.09375 "/></g></g></g><g fill="#000000" fill-opacity="1"><g transform="translate(49.814726, 83.025225)"><g><path d="M 20.046875 -74.90625 L 20.046875 0 L 6.796875 0 L 6.796875 -74.90625 Z M 20.046875 -74.90625 "/></g></g></g><g fill="#000000" fill-opacity="1"><g transform="translate(70.893151, 83.025225)"><g><path d="M 18.875 -17.625 L 18.84375 -33.609375 L 20.953125 -33.609375 L 41.15625 -56.1875 L 56.625 -56.1875 L 31.78125 -28.53125 L 29.046875 -28.53125 Z M 6.796875 0 L 6.796875 -74.90625 L 20.046875 -74.90625 L 20.046875 0 Z M 42.0625 0 L 23.78125 -25.5625 L 32.703125 -34.890625 L 57.90625 0 Z M 42.0625 0 "/></g></g></g><g fill="#000000" fill-opacity="1"><g transform="translate(123.71895, 83.025225)"><g><path d="M 27.65625 0.984375 C 23.238281 0.984375 19.285156 -0.144531 15.796875 -2.40625 C 12.316406 -4.675781 9.5625 -7.96875 7.53125 -12.28125 C 5.507812 -16.601562 4.5 -21.847656 4.5 -28.015625 C 4.5 -34.253906 5.53125 -39.523438 7.59375 -43.828125 C 9.65625 -48.140625 12.441406 -51.394531 15.953125 -53.59375 C 19.460938 -55.800781 23.375 -56.90625 27.6875 -56.90625 C 30.976562 -56.90625 33.679688 -56.347656 35.796875 -55.234375 C 37.921875 -54.128906 39.601562 -52.800781 40.84375 -51.25 C 42.09375 -49.707031 43.0625 -48.253906 43.75 -46.890625 L 44.296875 -46.890625 L 44.296875 -74.90625 L 57.578125 -74.90625 L 57.578125 0 L 44.546875 0 L 44.546875 -8.859375 L 43.75 -8.859375 C 43.0625 -7.484375 42.070312 -6.035156 40.78125 -4.515625 C 39.488281 -2.992188 37.78125 -1.695312 35.65625 -0.625 C 33.539062 0.445312 30.875 0.984375 27.65625 0.984375 Z M 31.34375 -9.875 C 34.144531 -9.875 36.535156 -10.632812 38.515625 -12.15625 C 40.492188 -13.6875 41.992188 -15.816406 43.015625 -18.546875 C 44.035156 -21.273438 44.546875 -24.457031 44.546875 -28.09375 C 44.546875 -31.726562 44.039062 -34.882812 43.03125 -37.5625 C 42.019531 -40.25 40.53125 -42.332031 38.5625 -43.8125 C 36.601562 -45.300781 34.195312 -46.046875 31.34375 -46.046875 C 28.394531 -46.046875 25.929688 -45.273438 23.953125 -43.734375 C 21.984375 -42.203125 20.5 -40.082031 19.5 -37.375 C 18.5 -34.675781 18 -31.582031 18 -28.09375 C 18 -24.582031 18.503906 -21.453125 19.515625 -18.703125 C 20.523438 -15.960938 22.023438 -13.804688 24.015625 -12.234375 C 26.003906 -10.660156 28.445312 -9.875 31.34375 -9.875 Z M 31.34375 -9.875 "/></g></g></g><g fill="#000000" fill-opacity="1"><g transform="translate(182.872278, 83.025225)"><g><path d="M 14.953125 0.8125 C 12.734375 0.8125 10.832031 0.03125 9.25 -1.53125 C 7.664062 -3.09375 6.882812 -5 6.90625 -7.25 C 6.882812 -9.4375 7.664062 -11.3125 9.25 -12.875 C 10.832031 -14.4375 12.734375 -15.21875 14.953125 -15.21875 C 17.097656 -15.21875 18.96875 -14.4375 20.5625 -12.875 C 22.164062 -11.3125 22.976562 -9.4375 23 -7.25 C 22.976562 -5.757812 22.59375 -4.40625 21.84375 -3.1875 C 21.101562 -1.96875 20.128906 -0.992188 18.921875 -0.265625 C 17.722656 0.453125 16.398438 0.8125 14.953125 0.8125 Z M 14.953125 0.8125 "/></g></g></g><g fill="#000000" fill-opacity="1"><g transform="translate(207.023019, 83.025225)"><g><path d="M 6.796875 0 L 6.796875 -56.1875 L 20.046875 -56.1875 L 20.046875 0 Z M 13.453125 -64.15625 C 11.359375 -64.15625 9.554688 -64.851562 8.046875 -66.25 C 6.535156 -67.65625 5.78125 -69.347656 5.78125 -71.328125 C 5.78125 -73.328125 6.535156 -75.023438 8.046875 -76.421875 C 9.554688 -77.828125 11.359375 -78.53125 13.453125 -78.53125 C 15.578125 -78.53125 17.390625 -77.828125 18.890625 -76.421875 C 20.390625 -75.023438 21.140625 -73.328125 21.140625 -71.328125 C 21.140625 -69.347656 20.390625 -67.65625 18.890625 -66.25 C 17.390625 -64.851562 15.578125 -64.15625 13.453125 -64.15625 Z M 13.453125 -64.15625 "/></g></g></g><g fill="#000000" fill-opacity="1"><g transform="translate(228.101456, 83.025225)"><g><path d="M 20.046875 -32.921875 L 20.046875 0 L 6.796875 0 L 6.796875 -56.1875 L 19.453125 -56.1875 L 19.453125 -46.640625 L 20.125 -46.640625 C 21.414062 -49.785156 23.476562 -52.28125 26.3125 -54.125 C 29.15625 -55.976562 32.675781 -56.90625 36.875 -56.90625 C 40.75 -56.90625 44.128906 -56.078125 47.015625 -54.421875 C 49.910156 -52.765625 52.15625 -50.363281 53.75 -47.21875 C 55.34375 -44.070312 56.128906 -40.253906 56.109375 -35.765625 L 56.109375 0 L 42.875 0 L 42.875 -33.71875 C 42.875 -37.476562 41.898438 -40.414062 39.953125 -42.53125 C 38.015625 -44.65625 35.34375 -45.71875 31.9375 -45.71875 C 29.613281 -45.71875 27.554688 -45.210938 25.765625 -44.203125 C 23.972656 -43.191406 22.570312 -41.734375 21.5625 -39.828125 C 20.550781 -37.929688 20.046875 -35.628906 20.046875 -32.921875 Z M 20.046875 -32.921875 "/></g></g></g></svg>