<svg xmlns="http://www.w3.org/2000/svg" xmlns:xlink="http://www.w3.org/1999/xlink" width="380" zoomAndPan="magnify" viewBox="0 0 285 89.999999" height="120" preserveAspectRatio="xMidYMid meet" version="1.0"><defs><g/></defs><g fill="#000000" fill-opacity="1"><g transform="translate(-4.987663, 62.399852)"><g><path d="M 6.546875 20.25 L 6.546875 -54 L 19.0625 -54 L 19.0625 -45.078125 L 19.796875 -45.078125 C 20.453125 -46.390625 21.375 -47.785156 22.5625 -49.265625 C 23.757812 -50.753906 25.378906 -52.03125 27.421875 -53.09375 C 29.460938 -54.164062 32.066406 -54.703125 35.234375 -54.703125 C 39.398438 -54.703125 43.164062 -53.640625 46.53125 -51.515625 C 49.894531 -49.398438 52.566406 -46.273438 54.546875 -42.140625 C 56.523438 -38.003906 57.515625 -32.9375 57.515625 -26.9375 C 57.515625 -21 56.539062 -15.957031 54.59375 -11.8125 C 52.65625 -7.664062 50.007812 -4.5 46.65625 -2.3125 C 43.300781 -0.132812 39.503906 0.953125 35.265625 0.953125 C 32.171875 0.953125 29.601562 0.4375 27.5625 -0.59375 C 25.519531 -1.625 23.882812 -2.875 22.65625 -4.34375 C 21.425781 -5.8125 20.472656 -7.203125 19.796875 -8.515625 L 19.265625 -8.515625 L 19.265625 20.25 Z M 19.015625 -27 C 19.015625 -23.507812 19.515625 -20.453125 20.515625 -17.828125 C 21.515625 -15.203125 22.957031 -13.15625 24.84375 -11.6875 C 26.726562 -10.226562 29.019531 -9.5 31.71875 -9.5 C 34.53125 -9.5 36.882812 -10.253906 38.78125 -11.765625 C 40.675781 -13.273438 42.109375 -15.347656 43.078125 -17.984375 C 44.054688 -20.617188 44.546875 -23.625 44.546875 -27 C 44.546875 -30.351562 44.0625 -33.328125 43.09375 -35.921875 C 42.132812 -38.523438 40.707031 -40.566406 38.8125 -42.046875 C 36.914062 -43.523438 34.550781 -44.265625 31.71875 -44.265625 C 29 -44.265625 26.6875 -43.546875 24.78125 -42.109375 C 22.882812 -40.679688 21.445312 -38.675781 20.46875 -36.09375 C 19.5 -33.519531 19.015625 -30.488281 19.015625 -27 Z M 19.015625 -27 "/></g></g></g><g fill="#000000" fill-opacity="1"><g transform="translate(51.301038, 62.399852)"><g><path d="M 30.03125 21.375 C 25.457031 21.375 21.53125 20.757812 18.25 19.53125 C 14.96875 18.300781 12.328125 16.65625 10.328125 14.59375 C 8.335938 12.53125 6.957031 10.242188 6.1875 7.734375 L 17.65625 4.953125 C 18.164062 6.015625 18.910156 7.066406 19.890625 8.109375 C 20.878906 9.148438 22.210938 10.015625 23.890625 10.703125 C 25.566406 11.398438 27.679688 11.75 30.234375 11.75 C 33.847656 11.75 36.835938 10.875 39.203125 9.125 C 41.566406 7.375 42.75 4.507812 42.75 0.53125 L 42.75 -9.703125 L 42.125 -9.703125 C 41.46875 -8.390625 40.507812 -7.039062 39.25 -5.65625 C 38 -4.28125 36.347656 -3.125 34.296875 -2.1875 C 32.242188 -1.25 29.671875 -0.78125 26.578125 -0.78125 C 22.429688 -0.78125 18.675781 -1.753906 15.3125 -3.703125 C 11.945312 -5.660156 9.273438 -8.59375 7.296875 -12.5 C 5.316406 -16.40625 4.328125 -21.296875 4.328125 -27.171875 C 4.328125 -33.109375 5.316406 -38.117188 7.296875 -42.203125 C 9.273438 -46.296875 11.953125 -49.398438 15.328125 -51.515625 C 18.703125 -53.640625 22.460938 -54.703125 26.609375 -54.703125 C 29.773438 -54.703125 32.382812 -54.164062 34.4375 -53.09375 C 36.488281 -52.03125 38.125 -50.753906 39.34375 -49.265625 C 40.5625 -47.785156 41.488281 -46.390625 42.125 -45.078125 L 42.828125 -45.078125 L 42.828125 -54 L 55.375 -54 L 55.375 0.875 C 55.375 5.5 54.269531 9.320312 52.0625 12.34375 C 49.863281 15.363281 46.851562 17.625 43.03125 19.125 C 39.207031 20.625 34.875 21.375 30.03125 21.375 Z M 30.125 -10.765625 C 32.820312 -10.765625 35.117188 -11.421875 37.015625 -12.734375 C 38.921875 -14.046875 40.363281 -15.929688 41.34375 -18.390625 C 42.332031 -20.847656 42.828125 -23.800781 42.828125 -27.25 C 42.828125 -30.644531 42.335938 -33.617188 41.359375 -36.171875 C 40.390625 -38.734375 38.960938 -40.722656 37.078125 -42.140625 C 35.191406 -43.554688 32.875 -44.265625 30.125 -44.265625 C 27.289062 -44.265625 24.925781 -43.523438 23.03125 -42.046875 C 21.132812 -40.566406 19.703125 -38.546875 18.734375 -35.984375 C 17.773438 -33.421875 17.296875 -30.507812 17.296875 -27.25 C 17.296875 -23.945312 17.78125 -21.054688 18.75 -18.578125 C 19.726562 -16.109375 21.171875 -14.1875 23.078125 -12.8125 C 24.992188 -11.445312 27.34375 -10.765625 30.125 -10.765625 Z M 30.125 -10.765625 "/></g></g></g><g fill="#000000" fill-opacity="1"><g transform="translate(107.66004, 62.399852)"><g><path d="M 16.953125 -54 L 27.84375 -34.0625 L 38.921875 -54 L 52.390625 -54 L 36.109375 -27 L 52.671875 0 L 39.265625 0 L 27.84375 -19.4375 L 16.53125 0 L 3.03125 0 L 19.484375 -27 L 3.453125 -54 Z M 16.953125 -54 "/></g></g></g><g fill="#000000" fill-opacity="1"><g transform="translate(157.797119, 62.399852)"><g><path d="M 14.375 0.78125 C 12.25 0.78125 10.421875 0.03125 8.890625 -1.46875 C 7.367188 -2.976562 6.617188 -4.8125 6.640625 -6.96875 C 6.617188 -9.070312 7.367188 -10.875 8.890625 -12.375 C 10.421875 -13.875 12.25 -14.625 14.375 -14.625 C 16.4375 -14.625 18.234375 -13.875 19.765625 -12.375 C 21.304688 -10.875 22.085938 -9.070312 22.109375 -6.96875 C 22.085938 -5.53125 21.71875 -4.222656 21 -3.046875 C 20.289062 -1.878906 19.351562 -0.945312 18.1875 -0.25 C 17.03125 0.4375 15.757812 0.78125 14.375 0.78125 Z M 14.375 0.78125 "/></g></g></g><g fill="#000000" fill-opacity="1"><g transform="translate(181.007658, 62.399852)"><g><path d="M 30.453125 1.0625 C 25.035156 1.0625 20.363281 -0.0664062 16.4375 -2.328125 C 12.507812 -4.597656 9.488281 -7.8125 7.375 -11.96875 C 5.269531 -16.132812 4.21875 -21.039062 4.21875 -26.6875 C 4.21875 -32.238281 5.273438 -37.117188 7.390625 -41.328125 C 9.515625 -45.535156 12.488281 -48.816406 16.3125 -51.171875 C 20.132812 -53.523438 24.625 -54.703125 29.78125 -54.703125 C 33.101562 -54.703125 36.25 -54.164062 39.21875 -53.09375 C 42.1875 -52.03125 44.8125 -50.382812 47.09375 -48.15625 C 49.375 -45.9375 51.171875 -43.109375 52.484375 -39.671875 C 53.796875 -36.242188 54.453125 -32.160156 54.453125 -27.421875 L 54.453125 -23.515625 L 10.203125 -23.515625 L 10.203125 -32.09375 L 42.265625 -32.09375 C 42.234375 -34.53125 41.703125 -36.703125 40.671875 -38.609375 C 39.640625 -40.523438 38.203125 -42.035156 36.359375 -43.140625 C 34.523438 -44.242188 32.390625 -44.796875 29.953125 -44.796875 C 27.347656 -44.796875 25.0625 -44.164062 23.09375 -42.90625 C 21.125 -41.65625 19.59375 -40.015625 18.5 -37.984375 C 17.414062 -35.960938 16.863281 -33.742188 16.84375 -31.328125 L 16.84375 -23.84375 C 16.84375 -20.695312 17.414062 -18.003906 18.5625 -15.765625 C 19.707031 -13.523438 21.3125 -11.8125 23.375 -10.625 C 25.4375 -9.445312 27.851562 -8.859375 30.625 -8.859375 C 32.476562 -8.859375 34.15625 -9.117188 35.65625 -9.640625 C 37.15625 -10.171875 38.453125 -10.953125 39.546875 -11.984375 C 40.648438 -13.015625 41.484375 -14.296875 42.046875 -15.828125 L 53.9375 -14.484375 C 53.1875 -11.347656 51.757812 -8.613281 49.65625 -6.28125 C 47.5625 -3.945312 44.882812 -2.140625 41.625 -0.859375 C 38.363281 0.421875 34.640625 1.0625 30.453125 1.0625 Z M 30.453125 1.0625 "/></g></g></g><g fill="#000000" fill-opacity="1"><g transform="translate(234.132664, 62.399852)"><g><path d="M 49.21875 -39.734375 L 37.625 -38.46875 C 37.289062 -39.632812 36.71875 -40.734375 35.90625 -41.765625 C 35.101562 -42.796875 34.019531 -43.628906 32.65625 -44.265625 C 31.300781 -44.898438 29.640625 -45.21875 27.671875 -45.21875 C 25.023438 -45.21875 22.800781 -44.640625 21 -43.484375 C 19.207031 -42.335938 18.328125 -40.851562 18.359375 -39.03125 C 18.328125 -37.457031 18.90625 -36.175781 20.09375 -35.1875 C 21.28125 -34.207031 23.242188 -33.398438 25.984375 -32.765625 L 35.1875 -30.796875 C 40.300781 -29.691406 44.101562 -27.941406 46.59375 -25.546875 C 49.09375 -23.160156 50.351562 -20.035156 50.375 -16.171875 C 50.351562 -12.773438 49.363281 -9.78125 47.40625 -7.1875 C 45.445312 -4.601562 42.734375 -2.582031 39.265625 -1.125 C 35.796875 0.332031 31.8125 1.0625 27.3125 1.0625 C 20.707031 1.0625 15.390625 -0.328125 11.359375 -3.109375 C 7.328125 -5.890625 4.925781 -9.765625 4.15625 -14.734375 L 16.5625 -15.921875 C 17.125 -13.484375 18.316406 -11.644531 20.140625 -10.40625 C 21.972656 -9.164062 24.351562 -8.546875 27.28125 -8.546875 C 30.300781 -8.546875 32.734375 -9.164062 34.578125 -10.40625 C 36.421875 -11.644531 37.34375 -13.179688 37.34375 -15.015625 C 37.34375 -16.554688 36.75 -17.832031 35.5625 -18.84375 C 34.375 -19.851562 32.539062 -20.628906 30.0625 -21.171875 L 20.84375 -23.09375 C 15.664062 -24.175781 11.832031 -26 9.34375 -28.5625 C 6.863281 -31.132812 5.632812 -34.390625 5.65625 -38.328125 C 5.632812 -41.648438 6.539062 -44.535156 8.375 -46.984375 C 10.21875 -49.429688 12.785156 -51.328125 16.078125 -52.671875 C 19.378906 -54.023438 23.1875 -54.703125 27.5 -54.703125 C 33.820312 -54.703125 38.804688 -53.351562 42.453125 -50.65625 C 46.097656 -47.96875 48.351562 -44.328125 49.21875 -39.734375 Z M 49.21875 -39.734375 "/></g></g></g></svg>