<svg xmlns="http://www.w3.org/2000/svg" xmlns:xlink="http://www.w3.org/1999/xlink" width="280" zoomAndPan="magnify" viewBox="0 0 210 89.999999" height="120" preserveAspectRatio="xMidYMid meet" version="1.0"><defs><g/></defs><g fill="#000000" fill-opacity="1"><g transform="translate(-0.376698, 81.749998)"><g><path d="M 17.625 -56.171875 L 28.96875 -35.4375 L 40.484375 -56.171875 L 54.484375 -56.171875 L 37.5625 -28.09375 L 54.78125 0 L 40.84375 0 L 28.96875 -20.21875 L 17.1875 0 L 3.140625 0 L 20.265625 -28.09375 L 3.578125 -56.171875 Z M 17.625 -56.171875 "/></g></g></g><g fill="#000000" fill-opacity="1"><g transform="translate(51.784531, 81.749998)"><g><path d="M 17.625 -56.171875 L 28.96875 -35.4375 L 40.484375 -56.171875 L 54.484375 -56.171875 L 37.5625 -28.09375 L 54.78125 0 L 40.84375 0 L 28.96875 -20.21875 L 17.1875 0 L 3.140625 0 L 20.265625 -28.09375 L 3.578125 -56.171875 Z M 17.625 -56.171875 "/></g></g></g><g fill="#000000" fill-opacity="1"><g transform="translate(103.94576, 81.749998)"><g><path d="M 14.953125 0.796875 C 12.734375 0.796875 10.832031 0.0195312 9.25 -1.53125 C 7.664062 -3.09375 6.882812 -4.992188 6.90625 -7.234375 C 6.882812 -9.429688 7.664062 -11.3125 9.25 -12.875 C 10.832031 -14.4375 12.734375 -15.21875 14.953125 -15.21875 C 17.097656 -15.21875 18.96875 -14.4375 20.5625 -12.875 C 22.164062 -11.3125 22.976562 -9.429688 23 -7.234375 C 22.976562 -5.753906 22.59375 -4.40625 21.84375 -3.1875 C 21.101562 -1.96875 20.128906 -1 18.921875 -0.28125 C 17.710938 0.4375 16.390625 0.796875 14.953125 0.796875 Z M 14.953125 0.796875 "/></g></g></g><g fill="#000000" fill-opacity="1"><g transform="translate(128.093445, 81.749998)"><g><path d="M 20.046875 -74.890625 L 20.046875 0 L 6.796875 0 L 6.796875 -74.890625 Z M 20.046875 -74.890625 "/></g></g></g><g fill="#000000" fill-opacity="1"><g transform="translate(149.169147, 81.749998)"><g><path d="M 18.875 -17.625 L 18.828125 -33.609375 L 20.953125 -33.609375 L 41.140625 -56.171875 L 56.609375 -56.171875 L 31.78125 -28.53125 L 29.03125 -28.53125 Z M 6.796875 0 L 6.796875 -74.890625 L 20.046875 -74.890625 L 20.046875 0 Z M 42.0625 0 L 23.765625 -25.5625 L 32.6875 -34.890625 L 57.890625 0 Z M 42.0625 0 "/></g></g></g></svg>