<svg width="2000" height="444" viewBox="0 0 2000 444" fill="none" xmlns="http://www.w3.org/2000/svg">
<path fill-rule="evenodd" clip-rule="evenodd" d="M1910.26 435.849H2000V350.527H1910.26V435.849ZM187.115 245.15H86.8266V367.375H181.057C204.383 367.375 223.124 362.263 237.259 352.017C251.393 341.778 258.46 327.281 258.46 308.502C258.46 288.025 251.947 272.347 238.941 261.468C225.921 250.597 208.653 245.15 187.115 245.15ZM158.172 69.8124H86.8266V177.959H151.442C175.672 177.959 194.623 173.593 208.316 164.84C222.002 156.102 228.845 142.344 228.845 123.566C228.845 103.095 222.556 89.0171 209.999 81.3309C197.428 73.6519 180.152 69.8124 158.172 69.8124ZM170.961 0.701068C215.384 0.701068 251.498 9.9799 279.326 28.5376C307.139 47.1024 321.056 78.3518 321.056 122.286C321.056 138.504 317.123 153.116 309.278 166.12C301.425 179.139 291.209 190.338 278.653 199.716C299.286 209.955 316.233 223.827 329.47 241.311C342.699 258.809 349.325 280.986 349.325 307.862C349.325 347.971 334.623 379.327 305.239 401.938C275.841 424.548 236.69 435.846 187.788 435.846H0V0.701068H170.961ZM614.301 249.629C609.807 228.739 601.73 213.267 590.071 203.242C578.397 193.217 563.821 188.197 546.321 188.197C528.365 188.197 513.34 193.43 501.225 203.875C489.109 214.334 481.249 229.585 477.667 249.629H614.301ZM566.513 443.532C509.975 443.532 465.432 428.807 432.908 399.377C400.368 369.941 384.11 330.479 384.11 280.985C384.11 231.505 398.805 191.83 428.196 161.96C457.58 132.104 497.628 117.173 548.34 117.173C599.494 117.173 637.066 133.277 661.08 165.487C685.079 197.696 697.089 235.778 697.089 279.705V305.302H476.994C481.033 325.78 490.897 342.105 506.609 354.263C522.314 366.422 542.955 372.494 568.532 372.494C583.34 372.494 596.689 370.688 608.58 367.061C620.464 363.442 634.262 358.209 649.974 351.383L675.551 411.536C660.287 422.628 641.778 430.733 620.022 435.846C598.252 440.965 580.416 443.532 566.513 443.532ZM877.668 69.8145H823.822V202.918H879.014C905.032 202.918 926.571 197.912 943.629 187.88C960.681 177.861 969.206 161.323 969.206 138.286C969.206 113.969 961.129 96.4778 944.975 85.8125C928.822 75.1543 906.378 69.8145 877.668 69.8145ZM1002.87 435.849L905.937 269.469C900.994 269.896 895.841 270.216 890.456 270.429C885.072 270.65 879.687 270.749 874.303 270.749H823.822V435.849H736.996V0.703201H880.36C930.168 0.703201 972.788 11.5818 1008.24 33.3391C1043.69 55.0964 1061.42 88.7988 1061.42 134.446C1061.42 161.323 1054.12 184.467 1039.54 203.878C1024.95 223.289 1006.23 238.334 983.341 248.992L1095.75 435.849H1002.87ZM1314.62 249.629C1310.13 228.739 1302.05 213.267 1290.4 203.242C1278.71 193.217 1264.14 188.197 1246.64 188.197C1228.69 188.197 1213.66 193.43 1201.55 203.875C1189.43 214.334 1181.57 229.585 1177.98 249.629H1314.62ZM1266.83 443.532C1210.3 443.532 1165.76 428.807 1133.23 399.377C1100.69 369.941 1084.44 330.479 1084.44 280.985C1084.44 231.505 1099.12 191.83 1128.51 161.96C1157.9 132.104 1197.95 117.173 1248.67 117.173C1299.82 117.173 1337.39 133.277 1361.4 165.487C1385.4 197.696 1397.41 235.778 1397.41 279.705V305.302H1177.32C1181.36 325.78 1191.21 342.105 1206.93 354.263C1222.63 366.422 1243.27 372.494 1268.86 372.494C1283.66 372.494 1297.01 370.688 1308.9 367.061C1320.78 363.442 1334.59 358.209 1350.3 351.383L1375.87 411.536C1360.61 422.628 1342.1 430.733 1320.35 435.846C1298.57 440.965 1280.74 443.532 1266.83 443.532ZM1563.79 379.37C1603.5 379.37 1632.59 355.167 1632.59 322.893V300.71L1565.61 304.734C1531.36 306.753 1513.48 320.583 1513.48 342.489V343.065C1513.48 365.825 1533.18 379.37 1563.79 379.37ZM1425.89 347.381V346.812C1425.89 290.62 1471.65 257.764 1552.28 252.865L1632.59 248.258V229.245C1632.59 201.863 1613.8 184.863 1579.24 184.863C1546.21 184.863 1526.21 199.56 1521.97 219.44L1521.35 222.035H1440.43L1440.74 218.579C1445.59 161.52 1497.11 120.601 1582.89 120.601C1666.83 120.601 1721.09 161.812 1721.09 224.047V435.846H1632.59V389.744H1630.77C1612.28 421.441 1577.73 440.745 1534.99 440.745C1469.83 440.745 1425.89 401.845 1425.89 347.381ZM1769.27 435.849H1862.03V0H1769.27V435.849Z" fill="black"/>
</svg>
