<svg xmlns:dc="http://purl.org/dc/elements/1.1/" xmlns:cc="http://creativecommons.org/ns#" xmlns:rdf="http://www.w3.org/1999/02/22-rdf-syntax-ns#" xmlns:svg="http://www.w3.org/2000/svg" xmlns="http://www.w3.org/2000/svg" viewBox="0 0 119.12 134.2" height="134.2" width="119.12" xml:space="preserve" id="svg2" version="1.1" xmlns:xlink="http://www.w3.org/1999/xlink">
 <metadata id="metadata8">
  <rdf:RDF>
   <cc:Work rdf:about="">
    <dc:format>
     image/svg+xml
    </dc:format>
    <dc:type rdf:resource="http://purl.org/dc/dcmitype/StillImage">
    </dc:type>
   </cc:Work>
  </rdf:RDF>
 </metadata>
 <defs id="defs6">
 </defs>
 <g transform="matrix(1.3333333,0,0,-1.3333333,0,134.2)" id="g10">
  <g transform="scale(0.1)" id="g12">
   <path id="path14" style="fill:#5a2530;fill-opacity:1;fill-rule:nonzero;stroke:none" d="M 605.672,1006.47 C 447.012,1006.47 317.93,877.383 317.93,718.723 V 266.457 h 106.492 l -0.027,452.266 c 0,99.945 81.328,181.269 181.277,181.269 99.941,0 181.289,-81.324 181.289,-181.269 0,-96.399 -75.652,-175.457 -170.684,-180.965 V 431.172 c 153.762,5.59 277.129,132.437 277.129,287.551 0,158.66 -129.07,287.747 -287.734,287.747">
   </path>
   <path id="path16" style="fill:#5a2530;fill-opacity:1;fill-rule:nonzero;stroke:none" d="m 287.719,0 c 158.668,0 287.75,129.09 287.75,287.734 V 739.59 l -106.465,0.035 0.019,-451.891 c 0,-99.945 -81.339,-181.25 -181.304,-181.25 -99.934,0 -181.266,81.305 -181.266,181.25 0,96.407 75.645,175.469 170.672,180.969 V 575.301 C 123.375,569.703 0,442.855 0,287.734 0,129.09 129.078,0 287.719,0">
   </path>
  </g>
 </g>
</svg>