<svg xmlns="http://www.w3.org/2000/svg" role="img" viewBox="0 0 24 24">
    <title>Whatsapp Channel</title>
    <path d="M5.811 13.94a1.076 1.076 0 0 1 1.024-1.4c.474 0 .887.31 1.028.761a4.452 4.452 0 0 0 2.914 2.914c.451.141.762.555.762 1.027 0 .728-.707 1.24-1.4 1.025A6.597 6.597 0 0 1 5.81 13.94Zm2.052-3.283a1.078 1.078 0 0 1-1.028.762c-.726 0-1.24-.707-1.024-1.4a6.597 6.597 0 0 1 4.327-4.328c.694-.216 1.4.298 1.4 1.025 0 .472-.31.886-.761 1.027a4.452 4.452 0 0 0-2.914 2.914Zm10.524-.639c.216.694-.297 1.4-1.024 1.4-.473 0-.886-.31-1.027-.761a4.452 4.452 0 0 0-2.914-2.914 1.078 1.078 0 0 1-.762-1.027c0-.728.706-1.24 1.4-1.025a6.597 6.597 0 0 1 4.327 4.327Zm-4.327 8.249a1.076 1.076 0 0 1-1.4-1.025c0-.472.31-.886.762-1.027a4.452 4.452 0 0 0 2.914-2.914 1.078 1.078 0 0 1 1.027-.762c.728 0 1.24.707 1.024 1.4a6.597 6.597 0 0 1-4.327 4.328Z" fill="#25d366"/>
    <path d="M12.074 1.05a10.854 10.854 0 0 1 7.73 3.204A10.848 10.848 0 0 1 23 11.981c-.002 6.023-4.905 10.923-10.927 10.923h-.004a10.92 10.92 0 0 1-5.22-1.33l-4.171 1.493c-1.007.359-1.973-.626-1.594-1.626l1.522-4.008a10.907 10.907 0 0 1-1.458-5.46C1.15 5.95 6.052 1.05 12.074 1.05Zm-.003 19.706h.003c4.839 0 8.777-3.936 8.778-8.775a8.72 8.72 0 0 0-2.568-6.209A8.72 8.72 0 0 0 12.078 3.2c-4.842 0-8.78 3.936-8.782 8.775a8.745 8.745 0 0 0 1.342 4.67l.208.332-.886 3.238 3.323-.872.32.191a8.755 8.755 0 0 0 4.468 1.223Z" fill="#25d366"/>
</svg>