<svg xmlns="http://www.w3.org/2000/svg" viewBox="0 11.5 254.14999389648438 36.349998474121094" data-asc="0.95" width="254.14999389648438" height="36.349998474121094"><defs/><g fill="#000000"><g transform="translate(0, 0)"><path d="M16.75 15.15L15.10 15.15L3.10 47.50L0 47.50L13.00 12.50L18.80 12.50L31.75 47.50L28.70 47.50L16.75 15.15M5.75 35.20L26.15 35.20L26.15 37.85L5.75 37.85L5.75 35.20ZM36.15 11.65L39 11.65L39 47.50L36.15 47.50L36.15 11.65ZM49.55 28.30Q50.55 25.70 53 23.92Q55.45 22.15 59.30 22.15Q62.75 22.15 65.35 23.75Q67.95 25.35 69.38 28.22Q70.80 31.10 70.80 35Q70.80 38.90 69.35 41.80Q67.90 44.70 65.33 46.27Q62.75 47.85 59.30 47.85Q55.65 47.85 53.25 46.15Q50.85 44.45 49.80 42L49.60 47.50L46.95 47.50L46.95 11.50L49.80 11.50L49.80 28.40L49.55 28.30M67.75 35Q67.75 30.30 65.30 27.55Q62.85 24.80 58.75 24.80Q56.15 24.80 54.10 26.05Q52.05 27.30 50.93 29.57Q49.80 31.85 49.80 35Q49.80 38.15 50.95 40.42Q52.10 42.70 54.13 43.95Q56.15 45.20 58.75 45.20Q62.90 45.20 65.33 42.45Q67.75 39.70 67.75 35ZM87.40 47.85Q83.90 47.85 81.23 46.17Q78.55 44.50 77.05 41.55Q75.55 38.60 75.55 34.75Q75.55 31.10 77.08 28.25Q78.60 25.40 81.25 23.77Q83.90 22.15 87.30 22.15Q90.65 22.15 93.28 23.63Q95.90 25.10 97.38 27.67Q98.85 30.25 98.80 33.55Q98.80 34.05 98.78 34.63Q98.75 35.20 98.70 35.85L78.65 35.85Q78.70 38.60 79.85 40.70Q81 42.80 82.93 43.98Q84.85 45.15 87.30 45.15Q90.40 45.15 92.63 43.88Q94.85 42.60 95.85 40.25L98.30 41.25Q96.90 44.45 94.05 46.15Q91.20 47.85 87.40 47.85M95.70 33.35Q95.75 30.85 94.70 28.95Q93.65 27.05 91.73 25.95Q89.80 24.85 87.20 24.85Q84.90 24.85 83.05 25.95Q81.20 27.05 80.03 28.97Q78.85 30.90 78.65 33.35L95.70 33.35ZM105.20 22.50L107.85 22.50L108 26.95Q108.85 25.40 110.30 24.25Q111.75 23.10 113.60 22.60Q115.45 22.10 117.65 22.50L117.65 25.35Q115.50 24.90 113.75 25.38Q112 25.85 110.73 27.05Q109.45 28.25 108.75 30.05Q108.05 31.85 108.05 34.15L108.05 47.50L105.20 47.50L105.20 22.50ZM124.60 22.50L124.60 15.50L127.45 15.50L127.45 22.50L134.45 22.50L134.45 25.15L127.45 25.15L127.45 39.90Q127.45 42.10 128.47 43.30Q129.50 44.50 131.10 44.83Q132.70 45.15 134.45 44.85L134.45 47.30Q132.65 47.75 130.88 47.55Q129.10 47.35 127.67 46.42Q126.25 45.50 125.42 43.90Q124.60 42.30 124.60 39.90L124.60 25.15L120.70 25.15L120.70 22.50L124.60 22.50ZM155.70 39.10Q156.05 40.50 157.05 41.90Q158.05 43.30 159.88 44.23Q161.70 45.15 164.65 45.15Q168.80 45.15 170.80 43.25Q172.80 41.35 172.80 38.55Q172.80 36.40 171.68 35Q170.55 33.60 168.63 32.70Q166.70 31.80 164.30 31.10Q162.25 30.55 160.33 29.88Q158.40 29.20 156.85 28.20Q155.30 27.20 154.40 25.63Q153.50 24.05 153.50 21.70Q153.50 18.80 154.85 16.67Q156.20 14.55 158.68 13.35Q161.15 12.15 164.50 12.15Q167.45 12.15 169.60 13.02Q171.75 13.90 173.15 15.42Q174.55 16.95 175.15 18.80L172.50 19.80Q172.10 18.65 171.08 17.47Q170.05 16.30 168.38 15.52Q166.70 14.75 164.40 14.75Q162.25 14.75 160.45 15.52Q158.65 16.30 157.58 17.77Q156.50 19.25 156.50 21.30Q156.50 23.50 157.70 24.77Q158.90 26.05 160.88 26.82Q162.85 27.60 165.25 28.30Q167.30 28.95 169.23 29.70Q171.15 30.45 172.63 31.55Q174.10 32.65 174.98 34.27Q175.85 35.90 175.85 38.25Q175.85 40.80 174.68 43Q173.50 45.20 171.05 46.52Q168.60 47.85 164.70 47.85Q161.35 47.85 158.93 46.83Q156.50 45.80 155 44.08Q153.50 42.35 152.95 40.20L155.70 39.10ZM198.60 47.50L198.40 42.20Q197.35 44.90 195.13 46.38Q192.90 47.85 189.50 47.85Q186.80 47.85 184.90 47.02Q183 46.20 181.97 44.65Q180.95 43.10 180.95 40.95Q180.95 37.80 183.30 35.83Q185.65 33.85 190.30 33.40L198.40 32.50L198.40 30.40Q198.40 27.80 196.68 26.32Q194.95 24.85 191.90 24.85Q189 24.85 187.07 26.20Q185.15 27.55 184.50 30.05L181.90 29.15Q182.85 25.80 185.45 23.97Q188.05 22.15 191.95 22.15Q196.35 22.15 198.80 24.35Q201.25 26.55 201.25 30.40L201.25 47.50L198.60 47.50M198.40 34.95L190.25 35.90Q187.05 36.25 185.53 37.48Q184 38.70 184 40.80Q184 42.90 185.47 44.10Q186.95 45.30 189.70 45.30Q192.60 45.30 194.53 44.13Q196.45 42.95 197.43 40.88Q198.40 38.80 198.40 36.20L198.40 34.95ZM208.85 22.50L211.50 22.50L211.65 27.05Q212.70 24.75 214.78 23.45Q216.85 22.15 219.85 22.15Q222.65 22.15 224.82 23.38Q227 24.60 228.22 27.02Q229.45 29.45 229.45 33.20L229.45 47.50L226.60 47.50L226.60 33.50Q226.60 29.25 224.70 27Q222.80 24.75 219.40 24.75Q215.80 24.75 213.75 27.15Q211.70 29.55 211.70 34.30L211.70 47.50L208.85 47.50L208.85 22.50ZM238.10 40.20Q238.45 41.85 239.28 42.95Q240.10 44.05 241.50 44.60Q242.90 45.15 244.85 45.15Q247.95 45.15 249.53 43.92Q251.10 42.70 251.10 40.85Q251.10 39.30 250.18 38.40Q249.25 37.50 247.75 36.95Q246.25 36.40 244.50 36Q243.30 35.70 241.80 35.30Q240.30 34.90 238.93 34.17Q237.55 33.45 236.68 32.27Q235.80 31.10 235.80 29.15Q235.80 27.05 236.95 25.47Q238.10 23.90 240.13 23.02Q242.15 22.15 244.75 22.15Q247.85 22.15 250.25 23.50Q252.65 24.85 253.55 27.80L250.90 28.70Q250.45 27.10 249.43 26.27Q248.40 25.45 247.15 25.15Q245.90 24.85 244.70 24.85Q242.05 24.85 240.45 25.92Q238.85 27 238.85 29Q238.85 30.15 239.40 30.90Q239.95 31.65 240.88 32.10Q241.80 32.55 243 32.85Q244.20 33.15 245.50 33.45Q246.95 33.80 248.45 34.30Q249.95 34.80 251.25 35.60Q252.55 36.40 253.35 37.65Q254.15 38.90 254.15 40.80Q254.15 42.95 252.97 44.55Q251.80 46.15 249.72 47Q247.65 47.85 244.85 47.85Q241.05 47.85 238.63 46.17Q236.20 44.50 235.40 41.10L238.10 40.20Z"/></g></g></svg>