<svg xmlns="http://www.w3.org/2000/svg" viewBox="0 12.199999809265137 355.70001220703125 40.29999923706055" data-asc="1.036" width="355.70001220703125" height="40.29999923706055"><defs/><g fill="#000000"><g transform="translate(0, 0)"><path d="M37.10 43.60L39.10 43.60L39.10 51.80L19.50 51.80L19.50 43.60L22.50 43.60L21.70 39.60L14.90 39.60L14.10 43.60L17.10 43.60L17.10 51.80L0 51.80L0 43.60L2 43.60L10.45 12.90L28.65 12.90L37.10 43.60M16 34.30L20.60 34.30L18.55 24.35L18.05 24.35L16 34.30ZM40.60 51.85L40.60 43.60L42.80 43.60L42.80 21.10L40.60 21.10L40.60 12.90L54.30 12.90L54.30 43.60L56.50 43.60L56.50 51.85L40.60 51.85ZM58.10 43.60L60.30 43.60L60.30 32.20L58.10 32.20L58.10 24.00L60.40 24.00Q60.40 17.90 63.38 15.05Q66.35 12.20 72.05 12.20Q74.80 12.20 76.98 12.60Q79.15 13 80.15 13.50L80.15 21.35Q77.50 21.10 75.25 21.10Q73.30 21.10 72.55 21.75Q71.80 22.40 71.80 24.00L75.70 24.00L75.70 32.20L71.80 32.20L71.80 43.60L75.70 43.60L75.70 51.80L58.10 51.80L58.10 43.60ZM106.45 43.60L106.45 51.80L93.25 51.80L93.25 48.40Q92.15 50.00 90.18 51.25Q88.20 52.50 85.35 52.50Q81.60 52.50 79.45 50.50Q77.30 48.50 77.30 44.85Q77.30 35.40 93.35 35.15Q93.20 33.45 92.05 32.83Q90.90 32.20 88.15 32.20Q85.90 32.20 83.33 32.68Q80.75 33.15 78.60 33.95L78.60 24.75Q81.25 24.10 84.35 23.70Q87.45 23.30 90.40 23.30Q97.85 23.30 101.05 26.00Q104.25 28.70 104.25 34.35L104.25 43.60L106.45 43.60M93.25 40.10Q91 40.10 89.78 40.70Q88.55 41.30 88.55 42.70Q88.55 43.55 89.08 44.08Q89.60 44.60 90.55 44.60Q91.85 44.60 92.55 43.50Q93.25 42.40 93.25 40.40L93.25 40.10ZM138.65 52.50Q133.85 52.50 129.58 51.68Q125.30 50.85 123 49.80L123 39.90L134 39.90Q134 41.45 134.70 42.15Q135.40 42.85 137.25 42.85Q138.80 42.85 139.47 42.38Q140.15 41.90 140.15 40.95Q140.15 40.15 139.50 39.58Q138.85 39 137.25 38.40L132.95 36.90Q127.40 34.80 124.98 31.95Q122.55 29.10 122.55 24.25Q122.55 18.35 126.43 15.28Q130.30 12.20 139.35 12.20Q143.70 12.20 147.53 13.08Q151.35 13.95 153.70 15.40L153.70 24.35L143.70 24.35Q143.70 21.85 140.60 21.85Q139.10 21.85 138.47 22.23Q137.85 22.60 137.85 23.55Q137.85 24.40 138.58 24.90Q139.30 25.40 140.95 25.95L145.30 27.45Q150.60 29.25 153.03 32.13Q155.45 35 155.45 39.65Q155.45 46 151.18 49.25Q146.90 52.50 138.65 52.50ZM156.75 51.85L156.75 43.60L158.95 43.60L158.95 21.10L156.75 21.10L156.75 12.90L170.45 12.90L170.45 43.60L172.65 43.60L172.65 51.85L156.75 51.85ZM203.40 43.60L203.40 51.80L190.20 51.80L190.20 48.40Q189.10 50.00 187.13 51.25Q185.15 52.50 182.30 52.50Q178.55 52.50 176.40 50.50Q174.25 48.50 174.25 44.85Q174.25 35.40 190.30 35.15Q190.15 33.45 189.00 32.83Q187.85 32.20 185.10 32.20Q182.85 32.20 180.28 32.68Q177.70 33.15 175.55 33.95L175.55 24.75Q178.20 24.10 181.30 23.70Q184.40 23.30 187.35 23.30Q194.80 23.30 198.00 26.00Q201.20 28.70 201.20 34.35L201.20 43.60L203.40 43.60M190.20 40.10Q187.95 40.10 186.73 40.70Q185.50 41.30 185.50 42.70Q185.50 43.55 186.03 44.08Q186.55 44.60 187.50 44.60Q188.80 44.60 189.50 43.50Q190.20 42.40 190.20 40.40L190.20 40.10ZM226.45 52.50Q223.90 52.50 221.93 51.25Q219.95 50.00 218.70 48.40L218.70 51.80L205.00 51.80L205.00 43.60L207.20 43.60L207.20 21.10L205.00 21.10L205.00 12.90L218.70 12.90L218.70 27.40Q219.95 25.80 221.93 24.55Q223.90 23.30 226.45 23.30Q231.55 23.30 234.13 27.10Q236.70 30.90 236.70 37.90Q236.70 44.90 234.13 48.70Q231.55 52.50 226.45 52.50M221.60 43.60Q223.05 43.60 223.78 42.83Q224.50 42.05 224.50 40.40L224.50 35.40Q224.50 33.75 223.78 32.98Q223.05 32.20 221.60 32.20Q220.15 32.20 219.43 32.98Q218.70 33.75 218.70 35.40L218.70 40.40Q218.70 42.05 219.43 42.83Q220.15 43.60 221.60 43.60ZM272 52.50Q262.85 52.50 257.88 47.70Q252.90 42.90 252.90 32.35Q252.90 21.80 257.88 17Q262.85 12.20 272 12.20Q281.15 12.20 286.13 17Q291.10 21.80 291.10 32.35Q291.10 42.90 286.13 47.70Q281.15 52.50 272 52.50M272 43.60Q273.70 43.60 274.55 42.70Q275.40 41.80 275.40 39.90L275.40 24.80Q275.40 22.90 274.55 22.00Q273.70 21.10 272 21.10Q270.30 21.10 269.45 22.00Q268.60 22.90 268.60 24.80L268.60 39.90Q268.60 41.85 269.45 42.73Q270.30 43.60 272 43.60ZM325.90 43.60L325.90 51.80L310.10 51.80L310.10 43.60L312.20 43.60L312.20 35.40Q312.20 33.75 311.50 32.98Q310.80 32.20 309.40 32.20Q306.40 32.20 306.40 35.40L306.40 43.60L308.50 43.60L308.50 51.80L292.70 51.80L292.70 43.60L294.90 43.60L294.90 32.20L292.70 32.20L292.70 24.00L306.40 24.00L306.40 27.90Q310 23.30 315.40 23.30Q319.55 23.30 321.63 25.90Q323.70 28.50 323.70 33.05L323.70 43.60L325.90 43.60ZM342.40 52.50Q335.30 52.50 331.30 48.78Q327.30 45.05 327.30 37.90Q327.30 30.75 331.30 27.03Q335.30 23.30 342.40 23.30Q349.45 23.30 352.58 26.98Q355.70 30.65 355.70 36.10L355.70 39.70L339.50 39.70L339.50 40Q339.50 41.85 340.60 42.73Q341.70 43.60 344.25 43.60Q347.30 43.60 350.05 43.15Q352.80 42.70 354.85 42L354.85 50.00Q353.10 50.95 349.73 51.73Q346.35 52.50 342.40 52.50M345.30 34.20L345.30 33.60Q345.30 31.90 344.58 31.15Q343.85 30.40 342.40 30.40Q340.95 30.40 340.23 31.18Q339.50 31.95 339.50 33.60L339.50 34.20L345.30 34.20Z"/></g></g></svg>