<svg xmlns="http://www.w3.org/2000/svg" viewBox="0 9.149999618530273 264 38.44999694824219" data-asc="0.942" width="264" height="38.44999694824219"><defs/><g><g fill="#000000"><g transform="translate(0, 0)"><path d="M0.20 47.35L0 45.00L4.80 43.65L2.80 44.90Q3.15 44.15 3.63 43.22Q4.10 42.30 4.57 41.22Q5.05 40.15 5.40 39.10L14.25 11.85L17 11.35L27.35 39.55Q27.80 40.95 28.48 42.30Q29.15 43.65 29.70 44.85L27.60 43.60L32.45 44.45L32.20 47.10L27.10 47.10Q26.50 47.10 25.30 47.15Q24.10 47.20 22.73 47.25Q21.35 47.30 20.15 47.35L20 45.00L25.30 43.40L23.90 45.05Q23.60 43.25 23.25 41.62Q22.90 40.00 22.25 38.35L14.80 17.45L15.85 17.45L8.40 40.70Q8.05 41.75 7.95 42.87Q7.85 44.00 7.75 45.00L6.20 43.70L11.45 44.45L11.20 47.10L6.95 47.10Q6.35 47.10 5.18 47.15Q4 47.20 2.68 47.25Q1.35 47.30 0.20 47.35M8.80 35.85L8.80 33.30L22.95 33.30L22.95 35.85L8.80 35.85ZM36.80 47.35L36.55 44.95L42.15 43.80L40.15 45.65Q40.25 45.25 40.43 44.25Q40.60 43.25 40.78 42.12Q40.95 41.00 40.95 40.40L40.95 29.30Q40.95 28.65 40.80 27.52Q40.65 26.40 40.45 25.27Q40.25 24.15 40.15 23.65L42.15 25.95L36.65 25.00L36.90 22.40L43.10 22.40L44.05 23.30L44.75 30.80L43.65 27.90Q44.40 26.00 45.58 24.70Q46.75 23.40 48.35 22.70Q49.95 22.00 51.85 22.00Q55.40 22.00 57.20 23.42Q59.00 24.85 59.65 27.45Q60.30 30.05 60.30 33.55L60.30 38.90Q60.30 40.75 60.48 42.55Q60.65 44.35 60.80 45.35L59.00 44.00L64.65 44.50L64.30 47.10L57.90 47.10Q57.70 47.10 56.80 47.15Q55.90 47.20 54.83 47.25Q53.75 47.30 52.90 47.35L52.65 44.95L57.65 43.75L55.80 44.90Q55.95 44.40 56.13 43.67Q56.30 42.95 56.43 42.10Q56.55 41.25 56.55 40.40L56.55 33.50Q56.55 31.30 56.15 29.32Q55.75 27.35 54.60 26.10Q53.45 24.85 51.25 24.85Q48.20 24.85 46.48 27.25Q44.75 29.65 44.75 33.35L44.75 38.90Q44.75 40.85 44.90 42.90Q45.05 44.95 45.20 45.85L43.35 44.00L49.00 44.50L48.65 47.10L42.30 47.10Q41.80 47.10 40.85 47.15Q39.90 47.20 38.83 47.25Q37.75 47.30 36.80 47.35ZM78.25 47.60Q73.60 47.60 70.88 44.15Q68.15 40.70 68.15 34.70Q68.15 28.85 70.92 25.42Q73.70 22.00 78.40 22.00Q79.65 22.00 80.70 22.12Q81.75 22.25 83 22.62Q84.25 23.00 86 23.75L85.65 27.35Q83.90 25.95 82.28 25.37Q80.65 24.80 78.90 24.80Q75.85 24.80 74.08 27.47Q72.30 30.15 72.30 34.85Q72.30 39.40 73.95 42.05Q75.60 44.70 78.35 44.70Q81.45 44.70 83.20 42.65Q84.95 40.60 84.95 36.95L84.95 16.15Q84.95 15.50 84.80 14.45Q84.65 13.40 84.45 12.42Q84.25 11.45 84.15 11.05L86.05 12.70L79.95 11.65L80.20 9.15L85.30 9.30L88.10 9.30L89 10.20Q88.95 11.25 88.88 12.65Q88.80 14.05 88.75 15.40Q88.70 16.75 88.70 17.65L88.70 38.95Q88.70 40.90 89 42.90Q89.30 44.90 89.50 45.75L87.55 43.95L92.70 44.50L92.40 47.10L86.15 47.10L85.15 41.45L85.50 42.30Q85.55 43.15 84.85 44.07Q84.15 45.00 83 45.80Q81.85 46.60 80.60 47.10Q79.35 47.60 78.25 47.60ZM103.25 47.60Q99.90 47.60 97.95 45.87Q96 44.15 96 41.25Q96 38.65 97.67 36.92Q99.35 35.20 102.70 34.65L111.45 33.20L111.45 35.65L103.30 37.20Q101.80 37.45 100.95 38.35Q100.10 39.25 100.10 40.55Q100.10 42.45 101.08 43.52Q102.05 44.60 103.85 44.60Q106.50 44.60 108.47 42.90Q110.45 41.20 110.80 38.70L110.80 31.65Q110.80 28.05 109.60 26.27Q108.40 24.50 106 24.50Q104.95 24.50 103.75 24.70Q102.55 24.90 101.50 25.25Q100.45 25.60 99.90 26.00L101.45 23.85L100.85 27.60L100.90 29.65L98 29.80L97.50 23.15Q99 22.75 100.50 22.50Q102 22.25 103.50 22.12Q105 22.00 106.50 22.00Q110.95 22.00 112.75 24.42Q114.55 26.85 114.55 32.75L114.55 38.90Q114.55 41.15 114.83 42.82Q115.10 44.50 115.30 45.45L113.65 43.95L118.55 44.50L118.25 47.10L112 47.10L111 41.45L111.90 41.30Q111.80 42.70 110.58 44.17Q109.35 45.65 107.42 46.62Q105.50 47.60 103.25 47.60ZM132.15 47.60Q127.50 47.60 124.78 44.15Q122.05 40.70 122.05 34.70Q122.05 28.85 124.83 25.42Q127.60 22.00 132.30 22.00Q133.55 22.00 134.60 22.12Q135.65 22.25 136.90 22.62Q138.15 23.00 139.90 23.75L139.55 27.35Q137.80 25.95 136.18 25.37Q134.55 24.80 132.80 24.80Q129.75 24.80 127.98 27.47Q126.20 30.15 126.20 34.85Q126.20 39.40 127.85 42.05Q129.50 44.70 132.25 44.70Q135.35 44.70 137.10 42.65Q138.85 40.60 138.85 36.95L138.85 16.15Q138.85 15.50 138.70 14.45Q138.55 13.40 138.35 12.42Q138.15 11.45 138.05 11.05L139.95 12.70L133.85 11.65L134.10 9.15L139.20 9.30L142 9.30L142.90 10.20Q142.85 11.25 142.78 12.65Q142.70 14.05 142.65 15.40Q142.60 16.75 142.60 17.65L142.60 38.95Q142.60 40.90 142.90 42.90Q143.20 44.90 143.40 45.75L141.45 43.95L146.60 44.50L146.30 47.10L140.05 47.10L139.05 41.45L139.40 42.30Q139.45 43.15 138.75 44.07Q138.05 45.00 136.90 45.80Q135.75 46.60 134.50 47.10Q133.25 47.60 132.15 47.60ZM157.15 47.60Q153.80 47.60 151.85 45.87Q149.90 44.15 149.90 41.25Q149.90 38.65 151.58 36.92Q153.25 35.20 156.60 34.65L165.35 33.20L165.35 35.65L157.20 37.20Q155.70 37.45 154.85 38.35Q154.00 39.25 154.00 40.55Q154.00 42.45 154.98 43.52Q155.95 44.60 157.75 44.60Q160.40 44.60 162.38 42.90Q164.35 41.20 164.70 38.70L164.70 31.65Q164.70 28.05 163.50 26.27Q162.30 24.50 159.90 24.50Q158.85 24.50 157.65 24.70Q156.45 24.90 155.40 25.25Q154.35 25.60 153.80 26.00L155.35 23.85L154.75 27.60L154.80 29.65L151.90 29.80L151.40 23.15Q152.90 22.75 154.40 22.50Q155.90 22.25 157.40 22.12Q158.90 22.00 160.40 22.00Q164.85 22.00 166.65 24.42Q168.45 26.85 168.45 32.75L168.45 38.90Q168.45 41.15 168.73 42.82Q169.00 44.50 169.20 45.45L167.55 43.95L172.45 44.50L172.15 47.10L165.90 47.10L164.90 41.45L165.80 41.30Q165.70 42.70 164.48 44.17Q163.25 45.65 161.33 46.62Q159.40 47.60 157.15 47.60ZM187.80 47.35L187.55 44.90L193.25 43.75L191.30 45.70Q191.40 45.25 191.55 44.17Q191.70 43.10 191.85 41.97Q192 40.85 192 40.35L192 18.60Q192 18.05 191.88 16.97Q191.75 15.90 191.57 14.80Q191.40 13.70 191.30 13.20L193.25 15.10L187.65 14.20L187.90 11.60Q188.85 11.65 190 11.70Q191.15 11.75 192.18 11.80Q193.20 11.85 193.65 11.85L196.85 13.20Q196.80 13.60 196.68 14.75Q196.55 15.90 196.43 17.35Q196.30 18.80 196.30 20.10L196.30 38.85Q196.30 40.15 196.40 41.47Q196.50 42.80 196.65 43.92Q196.80 45.05 196.90 45.70L194.95 43.95L201.75 44.45L201.40 47.10L194.50 47.10Q193.90 47.10 192.75 47.15Q191.60 47.20 190.28 47.25Q188.95 47.30 187.80 47.35M200.90 32.45Q198.80 32.45 196.93 32.37Q195.05 32.30 192.85 32.20L192.85 29.40Q194.60 29.60 196.40 29.85Q198.20 30.10 199.95 30.10Q203.90 30.10 206.28 28.10Q208.65 26.10 208.65 22.00Q208.65 18.10 206.28 16.05Q203.90 14.00 199.95 14.00Q198.90 14.00 197.85 14.05Q196.80 14.10 195.78 14.17Q194.75 14.25 193.65 14.35L193.65 11.85Q195.70 11.85 197.82 11.72Q199.95 11.60 202 11.60Q207.20 11.60 210.15 14.20Q213.10 16.80 213.10 22.00Q213.10 25.35 211.43 27.67Q209.75 30.00 207 31.22Q204.25 32.45 200.90 32.45ZM218.10 47.35L217.85 44.95L223.45 43.80L221.45 45.65Q221.55 45.25 221.72 44.25Q221.90 43.25 222.07 42.12Q222.25 41.00 222.25 40.40L222.25 29.30Q222.25 28.65 222.10 27.52Q221.95 26.40 221.75 25.27Q221.55 24.15 221.45 23.65L223.45 25.95L217.95 25.00L218.20 22.40L224.40 22.40L225.35 23.30L226.05 30.80L224.55 29.20Q225.10 27.85 225.80 26.57Q226.50 25.30 227.53 24.25Q228.55 23.20 230.07 22.57Q231.60 21.95 233.80 21.95Q234.65 21.95 235.47 22.07Q236.30 22.20 237.10 22.45L236.65 30.50L233.80 30.35L233.80 27.75Q233.80 27.50 233.60 26.80Q233.40 26.10 233.13 25.27Q232.85 24.45 232.60 23.90L234.95 25.20Q234.45 25.25 233.92 25.25Q233.40 25.25 232.90 25.25Q229.30 25.25 227.67 27.40Q226.05 29.55 226.05 33.10L226.05 38.90Q226.05 40.85 226.20 42.90Q226.35 44.95 226.50 45.85L224.65 44.00L231.35 44.50L231.05 47.10L223.60 47.10Q223.10 47.10 222.15 47.15Q221.20 47.20 220.13 47.25Q219.05 47.30 218.10 47.35ZM252.65 47.60Q248.85 47.60 246.30 45.95Q243.75 44.30 242.47 41.42Q241.20 38.55 241.20 34.80Q241.20 31.00 242.47 28.12Q243.75 25.25 246.30 23.60Q248.85 21.95 252.65 21.95Q258.35 21.95 261.18 25.47Q264 29.00 264 34.80Q264 38.55 262.73 41.45Q261.45 44.35 258.93 45.97Q256.40 47.60 252.65 47.60M252.65 44.90Q255.35 44.90 256.90 43.40Q258.45 41.90 259.07 39.57Q259.70 37.25 259.70 34.80Q259.70 32.30 259.07 29.97Q258.45 27.65 256.90 26.15Q255.35 24.65 252.65 24.65Q249.95 24.65 248.40 26.12Q246.85 27.60 246.17 29.92Q245.50 32.25 245.50 34.80Q245.50 37.30 246.17 39.62Q246.85 41.95 248.40 43.42Q249.95 44.90 252.65 44.90Z"/></g></g></g></svg>