<svg xmlns="http://www.w3.org/2000/svg" viewBox="0 15.84000015258789 111.81999969482422 43.36000061035156" data-asc="1.17626953125" width="111.81999969482422" height="43.36000061035156"><defs/><g fill="#000000"><g transform="translate(0, 0)"><path d="M0 58.81L4.15 15.84L18.73 15.84L22.80 58.81L14.67 58.81L14.06 51.88L8.89 51.88L8.35 58.81L0 58.81M9.50 45.02L13.40 45.02L11.52 23.17L11.13 23.17L9.50 45.02ZM25.29 58.81L25.29 22.19L34.03 22.19L34.03 26.86Q34.52 24.76 35.85 23.28Q37.18 21.80 39.55 21.80Q43.36 21.80 45.08 24.15Q46.80 26.49 46.80 30.57L46.80 58.81L38.18 58.81L38.18 31.47Q38.18 30.40 37.74 29.48Q37.30 28.56 36.23 28.56Q35.23 28.56 34.75 29.26Q34.28 29.96 34.16 30.99Q34.03 32.03 34.03 33.06L34.03 58.81L25.29 58.81ZM57.74 59.20Q54.20 59.20 52.97 57.70Q51.73 56.20 51.73 53.10L51.73 30.27L49.27 30.27L49.27 23.61L51.73 23.61L51.73 15.84L60.23 15.84L60.23 23.61L62.70 23.61L62.70 30.27L60.23 30.27L60.23 51.05Q60.23 51.95 60.52 52.32Q60.82 52.69 61.65 52.69Q62.23 52.69 62.70 52.59L62.70 58.54Q62.40 58.64 60.86 58.92Q59.33 59.20 57.74 59.20ZM76.12 59.20Q65.19 59.20 65.19 47.85L65.19 33.15Q65.19 27.98 68.09 24.89Q71.00 21.80 76.12 21.80Q81.27 21.80 84.18 24.89Q87.08 27.98 87.08 33.15L87.08 47.85Q87.08 59.20 76.12 59.20M76.12 52.47Q77.22 52.47 77.70 51.67Q78.17 50.88 78.17 49.66L78.17 31.76Q78.17 28.56 76.12 28.56Q74.07 28.56 74.07 31.76L74.07 49.66Q74.07 50.88 74.55 51.67Q75.02 52.47 76.12 52.47ZM90.31 58.81L90.31 22.19L99.05 22.19L99.05 26.86Q99.54 24.76 100.87 23.28Q102.20 21.80 104.57 21.80Q108.37 21.80 110.10 24.15Q111.82 26.49 111.82 30.57L111.82 58.81L103.20 58.81L103.20 31.47Q103.20 30.40 102.76 29.48Q102.32 28.56 101.25 28.56Q100.24 28.56 99.77 29.26Q99.29 29.96 99.17 30.99Q99.05 32.03 99.05 33.06L99.05 58.81L90.31 58.81Z"/></g></g></svg>