<svg xmlns="http://www.w3.org/2000/svg" viewBox="0 13.649999618530273 261.3500061035156 36.80000686645508" data-asc="0.998" width="261.3500061035156" height="36.80000686645508"><defs/><g><g fill="#000000"><g transform="translate(0, 0)"><path d="M0 50.05L0 48.80L1 48.70Q2.75 48.50 3.68 48.17Q4.60 47.85 4.95 46.77Q5.30 45.70 5.30 43.25L5.30 21.05Q5.30 18.55 4.95 17.50Q4.60 16.45 3.68 16.13Q2.75 15.80 1 15.60L0 15.50L0 14.25L7.40 14.40L13.50 14.40Q14.85 14.40 16.65 14.50Q18.45 14.60 20.28 14.97Q22.10 15.35 23.68 16.22Q25.25 17.10 26.23 18.62Q27.20 20.15 27.20 22.55Q27.20 24.85 26.13 26.50Q25.05 28.15 23.43 29.22Q21.80 30.30 20.05 30.90Q22.45 31.10 24.55 32.00Q26.65 32.90 27.98 34.77Q29.30 36.65 29.30 39.80Q29.30 42.70 28.18 44.67Q27.05 46.65 25.15 47.77Q23.25 48.90 20.95 49.40Q18.65 49.90 16.30 49.90L7.40 49.90L0 50.05M15 15.80L9.35 15.80L9.35 30.55L16 30.55Q19.10 30.55 20.83 28.55Q22.55 26.55 22.55 22.55Q22.55 19.70 21.65 18.25Q20.75 16.80 19.08 16.30Q17.40 15.80 15 15.80M13.50 48.50L16.30 48.50Q18.80 48.50 20.68 47.80Q22.55 47.10 23.58 45.23Q24.60 43.35 24.60 39.85Q24.60 36.45 23.45 34.75Q22.30 33.05 19.95 32.50Q17.60 31.95 14 31.95L9.35 31.95L9.35 43.45Q9.35 46.45 10.38 47.48Q11.40 48.50 13.50 48.50ZM40.35 50.45Q37.95 50.45 36.38 49.23Q34.80 48 34.80 45.80Q34.80 43.60 36.75 41.88Q38.70 40.15 41.30 38.75Q43.25 37.65 45.20 36.85Q47.15 36.05 48.55 35.50L48.55 33.90Q48.55 31.15 47.53 29.80Q46.50 28.45 43.65 28.45Q42.30 28.45 41.00 28.80Q39.70 29.15 39.70 30.10Q39.70 30.30 39.78 30.55Q39.85 30.80 39.90 31.05Q40.15 31.70 40.15 32.40Q40.15 33.35 39.48 33.88Q38.80 34.40 37.85 34.40Q36.95 34.40 36.35 33.72Q35.75 33.05 35.75 32.10Q35.75 30.30 37.13 29.22Q38.50 28.15 40.50 27.67Q42.50 27.20 44.35 27.20Q48.35 27.20 50.20 29.05Q52.05 30.90 52.05 35.10L52.05 44.10Q52.05 46.30 52.38 47.50Q52.70 48.70 53.85 48.70Q54.60 48.70 55.15 48.15Q55.70 47.60 55.90 46.95L56.80 47.30Q56.40 48.75 55.38 49.60Q54.35 50.45 52.55 50.45Q50.35 50.45 49.53 49.17Q48.70 47.90 48.60 45.80Q47.20 48.05 45.05 49.25Q42.90 50.45 40.35 50.45M38.70 45.55Q38.70 46.95 39.53 47.77Q40.35 48.60 41.95 48.60Q43.40 48.60 44.73 47.90Q46.05 47.20 47.05 46.13Q48.05 45.05 48.55 43.80L48.55 36.50Q46.90 37.20 45.18 38.13Q43.45 39.05 41.98 40.20Q40.50 41.35 39.60 42.67Q38.70 44 38.70 45.55ZM67.40 50.45Q65.50 50.45 64.18 50.02Q62.85 49.60 62.10 49.25Q61.30 48.85 61.10 48.85Q60.90 48.85 60.78 49.02Q60.65 49.20 60.50 49.90L59.35 49.90L59.55 46.60L59.70 42.35L60.80 42.35L60.85 43.20Q60.95 44.60 61.78 46Q62.60 47.40 64.05 48.35Q65.50 49.30 67.40 49.30Q69.45 49.30 70.70 48.25Q71.95 47.20 71.95 45.35Q71.95 43.75 70.68 42.65Q69.40 41.55 67.15 40.70L65.35 40Q62.75 39 61.43 37.50Q60.10 36 60.10 33.65Q60.10 31.65 61.03 30.22Q61.95 28.80 63.48 28.00Q65 27.20 66.75 27.20Q68 27.20 68.88 27.50Q69.75 27.80 70.35 28.10Q70.85 28.35 71.20 28.35Q71.70 28.35 72 27.30L73.10 27.35L72.90 30.60L72.90 34.10L71.75 34.10Q71.40 31.75 70.15 30.02Q68.90 28.30 66.55 28.30Q64.90 28.30 63.78 29.35Q62.65 30.40 62.65 32.00Q62.65 33.55 63.83 34.57Q65 35.60 67.05 36.40L69 37.15Q72.05 38.30 73.23 39.92Q74.40 41.55 74.40 43.80Q74.40 46.45 72.60 48.45Q70.80 50.45 67.40 50.45ZM76.85 50.05L76.85 48.90L77.65 48.80Q79.10 48.60 79.88 48.32Q80.65 48.05 80.95 47.07Q81.25 46.10 81.25 43.85L81.25 19.45Q81.25 16.85 80.18 16.13Q79.10 15.40 77.20 15.40L76.85 15.40L76.85 14.25Q78.90 14.25 80.80 14.13Q82.70 14 84.75 13.65L84.75 40.40L92.15 31.55Q92.80 30.75 92.80 30.15Q92.80 29.40 91.60 29.25L90.80 29.15L90.80 28.00L95.60 28.10L99.80 28.00L99.80 29.15L99.00 29.25Q96.75 29.55 95.23 30.60Q93.70 31.65 92.45 33.15L89.55 36.60L98.05 46.10Q98.80 46.95 99.70 47.82Q100.60 48.70 101.50 48.80L102.30 48.90L102.30 50.05L96.75 49.90L87.30 39.25L84.75 42.30L84.75 43.85Q84.75 46.10 85.05 47.07Q85.35 48.05 86.13 48.32Q86.90 48.60 88.35 48.80L89.15 48.90L89.15 50.05L83.00 49.90L76.85 50.05ZM114.50 50.45Q111.20 50.45 108.75 49.02Q106.30 47.60 104.93 45.07Q103.55 42.55 103.55 39.30Q103.55 35.80 105.05 33.08Q106.55 30.35 109.08 28.77Q111.60 27.20 114.65 27.20Q118.50 27.20 120.68 29.65Q122.85 32.10 122.85 36.10Q122.85 36.70 122.80 37.10Q122.75 37.50 122.70 37.65L107.60 37.65Q107.55 38.35 107.55 39.05Q107.55 41.70 108.40 43.97Q109.25 46.25 110.98 47.60Q112.70 48.95 115.20 48.95Q117.55 48.95 119.38 47.63Q121.20 46.30 122.20 43.70L123.40 44.15Q121.30 50.45 114.50 50.45M114.65 28.45Q111.55 28.45 109.83 30.65Q108.10 32.85 107.70 36.50L114.05 36.50Q116.30 36.50 117.48 35.97Q118.65 35.45 119.08 34.67Q119.50 33.90 119.50 33.15Q119.50 30.95 118.00 29.70Q116.50 28.45 114.65 28.45ZM126.55 50.05L126.55 48.90L127.35 48.80Q128.80 48.60 129.58 48.32Q130.35 48.05 130.65 47.07Q130.95 46.10 130.95 43.85L130.95 33.45Q130.95 31.50 130.43 30.60Q129.90 29.70 128.90 29.47Q127.90 29.25 126.55 29.25L126.55 28.10Q128.60 28.10 130.50 27.95Q132.40 27.80 134.45 27.50L133.90 33.25L134.10 33.25Q135.20 29.90 136.80 28.55Q138.40 27.20 140.25 27.20Q142.35 27.20 143.05 28.22Q143.75 29.25 143.75 30.20Q143.75 31.30 143.10 32.00Q142.45 32.70 141.35 32.70Q140.30 32.70 139.75 32.20Q139.20 31.70 139.20 31.05Q139.20 30.55 139.33 30.10Q139.45 29.65 139.45 29.40Q139.45 28.90 138.75 28.90Q138.05 28.90 137.28 29.55Q136.50 30.20 135.95 31.35Q135.50 32.30 135.10 33.45Q134.70 34.60 134.45 35.95L134.45 43.85Q134.45 46.10 134.75 47.07Q135.05 48.05 135.83 48.32Q136.60 48.60 138.05 48.80L138.85 48.90L138.85 50.05L132.70 49.90L126.55 50.05ZM158.20 49.90L150.05 31.90Q149.60 30.90 148.95 30.20Q148.30 29.50 147 29.35L146.10 29.25L146.10 28.10L151.25 28.25L156.35 28.10L156.35 29.25L155.55 29.35Q154.45 29.50 154 29.87Q153.55 30.25 153.55 30.90Q153.55 31.45 153.95 32.40L160.25 46.30L166.10 32.60Q166.55 31.60 166.55 30.95Q166.55 29.65 164.25 29.35L163.40 29.25L163.40 28.10L167.90 28.25L172.10 28.10L172.10 29.25L170.95 29.40Q169.55 29.60 168.80 30.47Q168.05 31.35 167.30 33.10L160.10 49.90L158.20 49.90ZM183.55 49.90L175.40 31.90Q174.95 30.90 174.30 30.20Q173.65 29.50 172.35 29.35L171.45 29.25L171.45 28.10L176.60 28.25L181.70 28.10L181.70 29.25L180.90 29.35Q179.80 29.50 179.35 29.87Q178.90 30.25 178.90 30.90Q178.90 31.45 179.30 32.40L185.60 46.30L191.45 32.60Q191.90 31.60 191.90 30.95Q191.90 29.65 189.60 29.35L188.75 29.25L188.75 28.10L193.25 28.25L197.45 28.10L197.45 29.25L196.30 29.40Q194.90 29.60 194.15 30.47Q193.40 31.35 192.65 33.10L185.45 49.90L183.55 49.90ZM198.85 50.05L198.85 48.90L199.65 48.80Q201.10 48.60 201.88 48.32Q202.65 48.05 202.95 47.07Q203.25 46.10 203.25 43.85L203.25 33.30Q203.25 30.70 202.17 29.97Q201.10 29.25 199.20 29.25L198.85 29.25L198.85 28.10Q200.90 28.10 202.80 27.97Q204.70 27.85 206.75 27.50L206.75 43.85Q206.75 46.10 207.05 47.07Q207.35 48.05 208.13 48.32Q208.90 48.60 210.35 48.80L211.15 48.90L211.15 50.05L205 49.90L198.85 50.05M204.40 21.65Q203.10 21.65 202.35 20.75Q201.60 19.85 201.60 18.60Q201.60 17.30 202.35 16.42Q203.10 15.55 204.40 15.55Q205.85 15.55 206.52 16.42Q207.20 17.30 207.20 18.60Q207.20 19.85 206.52 20.75Q205.85 21.65 204.40 21.65ZM212.40 50.05L212.40 48.90L213.20 48.80Q214.65 48.60 215.42 48.32Q216.20 48.05 216.50 47.07Q216.80 46.10 216.80 43.85L216.80 19.45Q216.80 16.85 215.72 16.13Q214.65 15.40 212.75 15.40L212.40 15.40L212.40 14.25Q214.45 14.25 216.35 14.13Q218.25 14 220.30 13.65L220.30 43.85Q220.30 46.10 220.60 47.07Q220.90 48.05 221.67 48.32Q222.45 48.60 223.90 48.80L224.70 48.90L224.70 50.05L218.55 49.90L212.40 50.05ZM226.20 50.05L226.20 48.90L227 48.80Q228.45 48.60 229.22 48.32Q230 48.05 230.30 47.07Q230.60 46.10 230.60 43.85L230.60 19.45Q230.60 16.85 229.52 16.13Q228.45 15.40 226.55 15.40L226.20 15.40L226.20 14.25Q228.25 14.25 230.15 14.13Q232.05 14 234.10 13.65L234.10 43.85Q234.10 46.10 234.40 47.07Q234.70 48.05 235.47 48.32Q236.25 48.60 237.70 48.80L238.50 48.90L238.50 50.05L232.35 49.90L226.20 50.05ZM252.45 50.45Q249.15 50.45 246.70 49.02Q244.25 47.60 242.88 45.07Q241.50 42.55 241.50 39.30Q241.50 35.80 243 33.08Q244.50 30.35 247.03 28.77Q249.55 27.20 252.60 27.20Q256.45 27.20 258.63 29.65Q260.80 32.10 260.80 36.10Q260.80 36.70 260.75 37.10Q260.70 37.50 260.65 37.65L245.55 37.65Q245.50 38.35 245.50 39.05Q245.50 41.70 246.35 43.97Q247.20 46.25 248.93 47.60Q250.65 48.95 253.15 48.95Q255.50 48.95 257.32 47.63Q259.15 46.30 260.15 43.70L261.35 44.15Q259.25 50.45 252.45 50.45M252.60 28.45Q249.50 28.45 247.78 30.65Q246.05 32.85 245.65 36.50L252 36.50Q254.25 36.50 255.43 35.97Q256.60 35.45 257.02 34.67Q257.45 33.90 257.45 33.15Q257.45 30.95 255.95 29.70Q254.45 28.45 252.60 28.45Z"/></g></g></g></svg>