<svg xmlns="http://www.w3.org/2000/svg" viewBox="0 9.59000015258789 235.3000030517578 35.84000015258789" data-asc="0.89599609375" width="235.3000030517578" height="35.84000015258789"><defs/><g fill="#000000"><g transform="translate(0, 0)"><path d="M0.02 11.60Q0.02 10.57 1.03 10.57L10.91 10.57Q13.06 10.57 15.32 10.94Q17.58 11.30 19.49 12.24Q21.41 13.18 22.60 14.88Q23.78 16.58 23.78 19.21Q23.78 21.61 22.77 23.40Q21.75 25.20 19.80 26.51Q19.73 26.56 19.63 26.62Q19.53 26.68 19.53 26.81Q19.53 26.90 19.64 26.98Q19.75 27.05 19.82 27.10Q22.31 28.34 24.00 30.18Q25.68 32.01 25.68 34.99Q25.68 37.79 24.51 39.69Q23.34 41.58 21.40 42.70Q19.46 43.82 17.10 44.31Q14.75 44.80 12.38 44.80L1.00 44.80Q0 44.80 0 43.77Q0 42.41 0.05 41.03Q0.10 39.65 0.12 38.28Q0.20 32.79 0.20 27.29Q0.20 22.17 0.12 17.04Q0.10 15.67 0.06 14.31Q0.02 12.94 0.02 11.60M6.30 24.88L11.99 24.88Q13.33 24.88 14.59 24.43Q15.84 23.97 16.65 23.00Q17.46 22.02 17.46 20.51Q17.46 18.82 16.46 17.96Q15.45 17.09 14.01 16.77Q12.57 16.46 11.23 16.46L6.27 16.46Q6.30 18.55 6.30 20.67Q6.30 22.78 6.30 24.88M6.27 39.11L12.23 39.11Q13.26 39.11 14.48 38.94Q15.70 38.77 16.81 38.31Q17.92 37.84 18.64 37.00Q19.36 36.16 19.36 34.84Q19.36 33.47 18.55 32.65Q17.75 31.84 16.52 31.42Q15.28 31.01 13.96 30.87Q12.65 30.74 11.65 30.74L6.30 30.74Q6.30 32.81 6.30 34.91Q6.30 37.01 6.27 39.11ZM40.70 45.39Q37.13 45.39 34.48 43.97Q31.84 42.55 30.37 39.94Q28.91 37.33 28.91 33.74Q28.91 30.40 30.30 27.73Q31.69 25.07 34.23 23.52Q36.77 21.97 40.19 21.97Q44.41 21.97 46.81 24.34Q49.22 26.71 50.07 30.64Q50.10 30.71 50.10 30.88Q50.10 31.25 49.91 31.43Q49.73 31.62 49.44 31.74Q48.61 32.13 47.68 32.42Q46.75 32.71 45.87 33.06Q43.31 34.01 40.72 34.92Q38.13 35.84 35.60 36.87Q35.40 36.96 35.40 37.11Q35.40 37.18 35.45 37.28Q36.43 39.04 38.13 39.89Q39.84 40.75 41.80 40.75Q43.33 40.75 44.67 40.26Q46.00 39.77 47.29 39.04Q47.46 38.94 47.63 38.87Q47.80 38.79 47.97 38.79Q48.32 38.79 48.50 39.00Q48.68 39.21 48.80 39.48Q48.90 39.65 49.18 40.25Q49.46 40.84 49.72 41.44Q49.98 42.04 49.98 42.21Q49.98 42.48 49.83 42.65Q49.68 42.82 49.49 42.97Q47.75 44.17 45.28 44.78Q42.80 45.39 40.70 45.39M34.57 33.50Q37.04 32.64 39.50 31.79Q41.97 30.93 44.41 30.08Q43.80 28.74 42.71 27.73Q41.63 26.73 40.04 26.73Q38.18 26.73 36.96 27.73Q35.74 28.74 35.16 30.29Q34.57 31.84 34.57 33.50ZM54.17 10.60Q54.17 9.59 55.18 9.59L59.03 9.59Q60.03 9.59 60.03 10.60Q60.03 14.75 60.01 18.90Q59.99 23.05 59.99 27.20Q59.99 31.35 60.01 35.50Q60.03 39.65 60.03 43.80Q60.03 44.80 59.03 44.80L55.18 44.80Q54.17 44.80 54.17 43.80Q54.17 39.65 54.20 35.50Q54.22 31.35 54.22 27.20Q54.22 23.05 54.20 18.90Q54.17 14.75 54.17 10.60ZM73.66 45.26Q70.48 45.26 68.33 43.75Q66.19 42.24 65.10 39.73Q64.01 37.23 64.01 34.30L64.01 33.91Q64.06 30.83 65.30 28.13Q66.53 25.42 68.87 23.74Q71.22 22.07 74.54 22.07Q76.59 22.07 78.36 22.84Q80.13 23.61 81.67 24.93Q81.84 25.10 81.96 25.10Q82.25 25.10 82.24 24.49Q82.23 23.88 82.41 23.27Q82.59 22.66 83.37 22.66L86.82 22.66Q87.82 22.66 87.82 23.66Q87.82 24.71 87.81 25.76Q87.79 26.81 87.79 27.86Q87.79 30.54 87.83 33.25Q87.87 35.96 87.89 38.65Q87.92 39.92 87.95 41.20Q87.99 42.48 87.99 43.77Q87.99 44.80 86.99 44.80L83.15 44.80Q82.50 44.80 82.30 44.37Q82.10 43.95 82.13 43.36Q82.15 42.77 82.13 42.31Q82.13 42.24 82.10 42.07Q82.08 41.89 81.96 41.89Q81.86 41.89 81.77 41.97Q81.69 42.04 81.62 42.09Q79.91 43.53 77.93 44.40Q75.95 45.26 73.66 45.26M76.15 40.06Q77.88 40.06 79.36 39.34Q80.83 38.62 81.67 37.06Q81.71 36.96 81.90 36.56Q82.08 36.16 82.08 36.06Q82.08 35.21 82.07 34.35Q82.06 33.50 82.06 32.67Q82.06 32.28 82.08 31.80Q82.10 31.32 82.06 30.96Q82.03 30.79 81.87 30.44Q81.71 30.10 81.64 29.96Q80.79 28.42 79.22 27.66Q77.66 26.90 75.95 26.90Q74.15 26.90 72.78 27.81Q71.41 28.71 70.64 30.19Q69.87 31.67 69.87 33.42Q69.87 35.18 70.68 36.69Q71.48 38.21 72.91 39.14Q74.34 40.06 76.15 40.06ZM97.09 22.66Q98.00 22.66 98.10 23.54Q98.17 24.02 98.22 24.51Q98.27 25 98.32 25.49Q98.32 25.54 98.36 25.77Q98.41 26.00 98.54 26.00Q98.66 26.00 98.77 25.85Q98.88 25.71 98.93 25.63Q100.39 23.75 102.49 22.92Q104.59 22.09 106.91 22.09Q108.81 22.09 110.41 22.89Q112.01 23.68 112.99 25.13Q113.96 26.59 113.96 28.59Q113.96 32.37 114.05 36.18Q114.14 39.99 114.14 43.77Q114.14 44.80 113.13 44.80L109.30 44.80Q108.37 44.80 108.30 43.80Q108.23 42.75 108.25 41.69Q108.28 40.63 108.25 39.58Q108.23 37.33 108.23 35.11Q108.23 32.89 108.23 30.66Q108.23 28.93 107.23 28.06Q106.23 27.20 104.57 27.20Q102.49 27.20 101.16 28.47Q99.83 29.74 99.18 31.59Q98.54 33.45 98.54 35.23Q98.54 37.38 98.51 39.51Q98.49 41.65 98.46 43.80Q98.46 44.80 97.46 44.80L93.63 44.80Q92.63 44.80 92.63 43.77Q92.63 42.41 92.66 41.05Q92.70 39.70 92.72 38.35Q92.80 32.64 92.80 26.93L92.80 23.66Q92.80 22.66 93.80 22.66L97.09 22.66ZM117.87 33.84Q117.87 30.44 119.32 27.78Q120.78 25.12 123.39 23.57Q126.00 22.02 129.42 22.02Q132.79 22.02 135.30 23.55Q137.82 25.07 139.22 27.71Q140.63 30.35 140.63 33.64Q140.63 37.04 139.23 39.66Q137.84 42.29 135.31 43.77Q132.79 45.26 129.32 45.26Q125.88 45.26 123.30 43.84Q120.73 42.41 119.30 39.84Q117.87 37.28 117.87 33.84M129.30 26.95Q127.44 26.95 126.20 27.94Q124.95 28.93 124.32 30.47Q123.68 32.01 123.68 33.69Q123.68 35.28 124.35 36.74Q125.02 38.21 126.27 39.14Q127.51 40.06 129.22 40.06Q131.08 40.06 132.31 39.12Q133.54 38.18 134.17 36.69Q134.79 35.21 134.79 33.52Q134.79 31.88 134.17 30.38Q133.54 28.88 132.32 27.92Q131.10 26.95 129.30 26.95ZM148.97 45.43Q147.58 45.43 146.07 44.92Q144.56 44.41 143.55 43.38Q143.26 43.09 143.26 42.75Q143.26 42.60 143.42 42.00Q143.58 41.41 143.77 40.77Q143.97 40.14 144.02 39.94Q144.12 39.65 144.29 39.37Q144.46 39.09 144.82 39.09Q145.29 39.09 146.26 39.70Q147.24 40.31 148.51 40.31Q150.73 40.31 150.73 38.16Q150.73 36.77 149.84 36.23Q148.95 35.69 147.92 35.16Q145.87 34.06 144.80 32.47Q143.73 30.88 143.73 28.52Q143.73 25.51 145.50 23.83Q147.27 22.14 150.22 22.14Q150.59 22.14 151.35 22.24Q152.12 22.34 152.95 22.55Q153.78 22.75 154.37 23.11Q154.96 23.46 154.96 23.95Q154.96 24.41 154.76 24.96Q154.57 25.51 154.44 25.98Q154.35 26.29 154.17 26.59Q154.00 26.88 153.59 26.88Q153.08 26.88 152.49 26.61Q151.90 26.34 151.22 26.34Q150.29 26.34 149.58 26.89Q148.88 27.44 148.88 28.44Q148.88 29.59 149.57 30.22Q150.27 30.86 151.29 31.35Q152.32 31.84 153.34 32.54Q154.37 33.25 155.07 34.51Q155.76 35.77 155.76 37.96Q155.76 41.09 154.02 43.26Q152.27 45.43 148.97 45.43ZM159.20 14.33Q159.20 12.99 160.21 12.02Q161.21 11.06 162.55 11.06Q163.92 11.06 164.95 12.05Q165.99 13.04 165.99 14.43Q165.99 15.77 165.00 16.76Q164.01 17.75 162.65 17.75Q161.25 17.75 160.23 16.74Q159.20 15.72 159.20 14.33M159.57 29.05L159.57 23.66Q159.57 22.66 160.57 22.66L164.33 22.66Q165.33 22.66 165.33 23.66Q165.33 28.69 165.36 33.73Q165.38 38.77 165.38 43.80Q165.38 44.80 164.38 44.80L160.52 44.80Q159.52 44.80 159.52 43.80Q159.52 40.11 159.55 36.43Q159.57 32.74 159.57 29.05ZM171.58 22.66L174.90 22.66Q175.73 22.66 175.88 23.54Q175.93 23.73 175.98 24.32Q176.03 24.90 176.11 25.42Q176.20 25.93 176.34 25.93Q176.46 25.93 176.56 25.82Q176.66 25.71 176.71 25.63Q178.32 23.71 180.41 22.89Q182.50 22.07 184.96 22.07Q186.96 22.07 188.85 22.80Q190.75 23.54 191.65 25.49Q191.70 25.56 191.75 25.68Q191.80 25.81 191.92 25.81Q192.02 25.81 192.09 25.72Q192.16 25.63 192.21 25.59Q193.73 23.93 195.73 23.01Q197.73 22.09 199.98 22.09Q202.95 22.09 205.11 23.74Q207.28 25.39 207.28 28.59Q207.28 31.15 207.32 33.73Q207.37 36.30 207.42 38.87Q207.47 40.09 207.53 41.32Q207.59 42.55 207.59 43.77Q207.59 44.80 206.59 44.80L202.78 44.80Q202.25 44.80 202.04 44.56Q201.83 44.31 201.78 43.82Q201.68 42.80 201.71 41.74Q201.73 40.67 201.68 39.65Q201.66 37.45 201.62 35.25Q201.59 33.06 201.59 30.86Q201.59 29.15 200.77 28.19Q199.95 27.22 198.19 27.22Q196.17 27.22 194.75 28.47Q193.33 29.71 192.59 31.56Q191.85 33.40 191.85 35.18Q191.85 37.33 191.87 39.48Q191.89 41.63 191.89 43.80Q191.89 44.80 190.89 44.80L187.04 44.80Q186.04 44.80 186.04 43.80Q186.04 40.55 186.08 37.33Q186.13 34.11 186.08 30.86Q186.06 29.22 185.27 28.22Q184.47 27.22 182.74 27.22Q180.66 27.22 179.25 28.45Q177.83 29.69 177.10 31.54Q176.37 33.40 176.32 35.23Q176.29 36.72 176.27 38.21Q176.25 39.70 176.20 41.21Q176.20 41.85 176.21 42.52Q176.22 43.19 176.15 43.82Q176.10 44.31 175.89 44.56Q175.68 44.80 175.15 44.80L171.31 44.80Q170.31 44.80 170.31 43.75Q170.31 42.48 170.37 41.22Q170.43 39.97 170.46 38.70Q170.61 33.35 170.61 28.03Q170.61 27.03 170.56 25.83Q170.51 24.63 170.58 23.66Q170.65 22.66 171.58 22.66ZM220.97 45.26Q217.80 45.26 215.65 43.75Q213.50 42.24 212.41 39.73Q211.33 37.23 211.33 34.30L211.33 33.91Q211.38 30.83 212.61 28.13Q213.84 25.42 216.19 23.74Q218.53 22.07 221.85 22.07Q223.90 22.07 225.67 22.84Q227.44 23.61 228.98 24.93Q229.15 25.10 229.27 25.10Q229.57 25.10 229.55 24.49Q229.54 23.88 229.72 23.27Q229.91 22.66 230.69 22.66L234.13 22.66Q235.13 22.66 235.13 23.66Q235.13 24.71 235.12 25.76Q235.11 26.81 235.11 27.86Q235.11 30.54 235.14 33.25Q235.18 35.96 235.21 38.65Q235.23 39.92 235.27 41.20Q235.30 42.48 235.30 43.77Q235.30 44.80 234.30 44.80L230.47 44.80Q229.81 44.80 229.61 44.37Q229.42 43.95 229.44 43.36Q229.47 42.77 229.44 42.31Q229.44 42.24 229.42 42.07Q229.39 41.89 229.27 41.89Q229.17 41.89 229.09 41.97Q229.00 42.04 228.93 42.09Q227.22 43.53 225.24 44.40Q223.27 45.26 220.97 45.26M223.46 40.06Q225.20 40.06 226.67 39.34Q228.15 38.62 228.98 37.06Q229.03 36.96 229.21 36.56Q229.39 36.16 229.39 36.06Q229.39 35.21 229.38 34.35Q229.37 33.50 229.37 32.67Q229.37 32.28 229.39 31.80Q229.42 31.32 229.37 30.96Q229.35 30.79 229.19 30.44Q229.03 30.10 228.96 29.96Q228.10 28.42 226.54 27.66Q224.98 26.90 223.27 26.90Q221.46 26.90 220.09 27.81Q218.73 28.71 217.96 30.19Q217.19 31.67 217.19 33.42Q217.19 35.18 217.99 36.69Q218.80 38.21 220.23 39.14Q221.66 40.06 223.46 40.06Z"/></g></g></svg>