<svg xmlns="http://www.w3.org/2000/svg" viewBox="0 21.549999237060547 267.75 46.70000076293945" data-asc="1.127" width="267.75" height="46.70000076293945"><defs/><g fill="#000000"><g transform="translate(0, 0)"><path d="M0 56.35L0 52.15L19.85 52.15Q23.70 52.15 25.98 50.88Q28.25 49.60 28.25 46.60Q28.25 44.60 27.20 43.35Q26.15 42.10 24.25 41.55Q22.35 41 19.85 41L9.85 41L9.85 37.15L18.30 37.15Q21.65 37.15 23.70 35.80Q25.75 34.45 25.75 31.55Q25.75 29.60 24.85 28.45Q23.95 27.30 22.45 26.77Q20.95 26.25 19.20 26.25L0 26.25L0 22.05L19.55 22.05Q23.30 22.05 25.82 23.17Q28.35 24.30 29.65 26.32Q30.95 28.35 30.95 30.95Q30.95 33.20 30 34.88Q29.05 36.55 27.45 37.67Q25.85 38.80 23.82 39.33Q21.80 39.85 19.65 39.85L19.65 37.95Q22.20 37.95 24.63 38.35Q27.05 38.75 29.05 39.73Q31.05 40.70 32.25 42.50Q33.45 44.30 33.45 47Q33.45 51.50 30.05 53.93Q26.65 56.35 20.35 56.35L0 56.35M6.45 54L6.45 24.40L11.55 24.40L11.55 54L6.45 54ZM42.75 55.25L42.75 32.80L47.70 32.80L47.70 55.25L42.75 55.25M37.45 56.35L37.45 52.40L53.05 52.40L53.05 56.35L37.45 56.35M37.45 36.75L37.45 32.80L46.55 32.80L46.55 36.75L37.45 36.75M44.60 27.65Q43.05 27.65 41.93 26.80Q40.80 25.95 40.80 24.70Q40.80 23.30 41.93 22.42Q43.05 21.55 44.60 21.55Q46.35 21.55 47.45 22.42Q48.55 23.30 48.55 24.70Q48.55 25.95 47.45 26.80Q46.35 27.65 44.60 27.65ZM68.55 57.05Q65.95 57.05 63.63 56.18Q61.30 55.30 59.48 53.68Q57.65 52.05 56.60 49.77Q55.55 47.50 55.55 44.65Q55.55 41.80 56.60 39.50Q57.65 37.20 59.48 35.58Q61.30 33.95 63.63 33.08Q65.95 32.20 68.55 32.20Q71.05 32.20 73.40 33.08Q75.75 33.95 77.58 35.58Q79.40 37.20 80.45 39.50Q81.50 41.80 81.50 44.65Q81.50 47.50 80.48 49.77Q79.45 52.05 77.65 53.68Q75.85 55.30 73.50 56.18Q71.15 57.05 68.55 57.05M68.55 53.15Q70.80 53.15 72.55 52.10Q74.30 51.05 75.35 49.15Q76.40 47.25 76.40 44.65Q76.40 42.05 75.35 40.15Q74.30 38.25 72.55 37.20Q70.80 36.15 68.55 36.15Q66.30 36.15 64.50 37.20Q62.70 38.25 61.68 40.15Q60.65 42.05 60.65 44.65Q60.65 47.25 61.68 49.15Q62.70 51.05 64.50 52.10Q66.30 53.15 68.55 53.15ZM94.30 41.80L94.30 37.90L104.40 37.90Q106.45 37.90 108.13 37.20Q109.80 36.50 110.80 35.15Q111.80 33.80 111.80 31.95Q111.80 30.15 110.85 28.88Q109.90 27.60 108.23 26.90Q106.55 26.20 104.40 26.20L84.35 26.20L84.35 22.05L104.25 22.05Q108.15 22.05 111.00 23.27Q113.85 24.50 115.40 26.73Q116.95 28.95 116.95 31.95Q116.95 34.80 115.43 37.05Q113.90 39.30 111.08 40.55Q108.25 41.80 104.35 41.80L94.30 41.80M84.35 56.35L84.35 52.20L102.30 52.20L102.30 56.35L84.35 56.35M90.80 54L90.80 24.45L96.00 24.45L96.00 54L90.80 54M116.40 57.05Q114.10 57 112.15 56.13Q110.20 55.25 108.58 53.13Q106.95 51 105.60 47.20L103.45 41.10L107.70 40.55L109.90 46Q111.00 48.65 112.15 50.02Q113.30 51.40 114.53 51.90Q115.75 52.40 116.90 52.40Q117.95 52.40 118.63 52.20Q119.30 52 119.90 51.80L121.00 56Q120.15 56.45 118.98 56.75Q117.80 57.05 116.40 57.05ZM147.45 56.35L147.45 42.65Q147.45 41.20 147.13 40.08Q146.80 38.95 146.13 38.17Q145.45 37.40 144.45 37Q143.45 36.60 142.15 36.60Q140.80 36.60 139.43 37.17Q138.05 37.75 136.68 38.78Q135.30 39.80 133.93 41.27Q132.55 42.75 131.15 44.55L131.15 40.55Q132.75 38.60 134.28 37.05Q135.80 35.50 137.35 34.40Q138.90 33.30 140.55 32.75Q142.20 32.20 144.10 32.20Q146.10 32.20 147.65 32.83Q149.20 33.45 150.25 34.75Q151.30 36.05 151.85 37.98Q152.40 39.90 152.40 42.50L152.40 56.35L147.45 56.35M122.95 56.35L122.95 52.40L137.45 52.40L137.45 56.35L122.95 56.35M143.15 56.35L143.15 52.40L157.05 52.40L157.05 56.35L143.15 56.35M133.15 22.05L133.15 56.35L128.25 56.35L128.25 26L122.95 26L122.95 22.05L133.15 22.05ZM164.05 68.25Q162.55 68.25 161.38 67.92Q160.20 67.60 159.15 67.03Q158.10 66.45 157.10 65.80L159.10 62.05Q160.05 62.70 161.28 63.30Q162.50 63.90 164.05 63.90Q165.45 63.90 166.68 63.30Q167.90 62.70 168.95 61.45Q170 60.20 170.90 58.15L181.60 33.65L186.20 33.65L174.90 58.95Q173.50 62 171.90 64.05Q170.30 66.10 168.35 67.17Q166.40 68.25 164.05 68.25M172.10 59.10L160.25 34.90L165.70 34.90L175.40 56.40L172.10 59.10M157.25 36.75L157.25 32.80L170.45 32.80L170.45 36.40L162.95 36.40L162.65 36.75L157.25 36.75M176.55 36.40L176.55 32.80L188.50 32.80L188.50 36.75L183.25 36.75L183 36.40L176.55 36.40ZM190.45 36.75L190.45 32.80L199.30 32.80L199.30 36.75L190.45 36.75M195.75 55.25L195.75 32.80L200.70 32.80L200.70 55.25L195.75 55.25M190.45 56.35L190.45 52.40L205 52.40L205 56.35L190.45 56.35M213.80 55.25L213.80 42.35Q213.80 40.65 213.28 39.42Q212.75 38.20 211.72 37.50Q210.70 36.80 209.15 36.80Q207.45 36.80 205.65 37.73Q203.85 38.65 202.15 40.40Q200.45 42.15 198.80 44.55L198.80 40.55Q200.40 38 202.30 36.13Q204.20 34.25 206.38 33.23Q208.55 32.20 210.85 32.20Q212.70 32.20 214.13 32.83Q215.55 33.45 216.60 34.73Q217.65 36 218.18 37.85Q218.70 39.70 218.70 42.20L218.70 55.25L213.80 55.25M209.50 56.35L209.50 52.40L223 52.40L223 56.35L209.50 56.35M231.70 55.25L231.70 42.35Q231.70 41.10 231.43 40.08Q231.15 39.05 230.57 38.33Q230 37.60 229.13 37.20Q228.25 36.80 227.10 36.80Q225.40 36.80 223.60 37.73Q221.80 38.65 220.10 40.40Q218.40 42.15 216.80 44.55L216.80 40.55Q218.40 38 220.28 36.13Q222.15 34.25 224.30 33.23Q226.45 32.20 228.80 32.20Q230.60 32.20 232.05 32.83Q233.50 33.45 234.53 34.73Q235.55 36 236.07 37.85Q236.60 39.70 236.60 42.20L236.60 55.25L231.70 55.25M227.45 56.35L227.45 52.40L241.25 52.40L241.25 56.35L227.45 56.35ZM256.80 57.05Q254.35 57.05 252.02 56.27Q249.70 55.50 247.82 54Q245.95 52.50 244.85 50.27Q243.75 48.05 243.75 45.15Q243.75 42.05 244.88 39.65Q246 37.25 247.90 35.60Q249.80 33.95 252.15 33.08Q254.50 32.20 257 32.20Q260 32.20 262.30 33.13Q264.60 34.05 265.93 35.73Q267.25 37.40 267.25 39.65Q267.25 41.95 265.88 43.50Q264.50 45.05 262.30 45.83Q260.10 46.60 257.65 46.60Q254.60 46.60 252.17 45.88Q249.75 45.15 247.45 44.10L247.40 41.10Q250.05 42.25 252.27 42.70Q254.50 43.15 256.60 43.15Q258.20 43.15 259.47 42.75Q260.75 42.35 261.55 41.55Q262.35 40.75 262.35 39.65Q262.35 38.05 260.95 37.08Q259.55 36.10 257.35 36.10Q255.70 36.10 254.13 36.73Q252.55 37.35 251.27 38.50Q250 39.65 249.22 41.27Q248.45 42.90 248.45 45Q248.45 47.45 249.65 49.23Q250.85 51 252.77 51.93Q254.70 52.85 256.95 52.85Q259.75 52.85 261.88 51.93Q264 51 265.65 49.60L267.75 52.85Q266.35 54.05 264.72 55Q263.10 55.95 261.13 56.50Q259.15 57.05 256.80 57.05Z"/></g></g></svg>