<svg xmlns="http://www.w3.org/2000/svg" viewBox="0 9.199999809265137 129.60000610351562 38" data-asc="0.935" width="129.60000610351562" height="38"><defs/><g fill="#000000"><g transform="translate(0, 0)"><path d="M15.85 29.15L16.15 28.70Q19.55 28.75 21.90 29.77Q24.25 30.80 25.43 32.70Q26.60 34.60 26.60 37.30Q26.60 40.10 25.28 42.23Q23.95 44.35 21.13 45.55Q18.30 46.75 13.90 46.75L0 46.75L0 44.60L4.95 43.55L4.30 44.45L4.30 14.25L5.10 15.20L0 14.25L0 12.10L8.25 11.85L14.45 11.85Q18.05 11.85 20.45 12.85Q22.85 13.85 24.05 15.75Q25.25 17.65 25.25 20.40Q25.25 24 23.05 26.25Q20.85 28.50 15.85 29.15M13.60 14.85L7.65 14.85L8.40 14.10L8.40 28.15L7.65 27.45L12.35 27.45Q15.30 27.45 17.25 26.70Q19.20 25.95 20.15 24.50Q21.10 23.05 21.10 20.95Q21.10 18.90 20.25 17.55Q19.40 16.20 17.75 15.52Q16.10 14.85 13.60 14.85M13.60 43.75Q16.55 43.75 18.50 42.95Q20.45 42.15 21.43 40.67Q22.40 39.20 22.40 37.05Q22.40 34.95 21.53 33.48Q20.65 32 18.98 31.20Q17.30 30.40 14.95 30.40L7.65 30.40L8.40 29.60L8.40 44.45L7.65 43.75L13.60 43.75ZM39.60 44.20L39.15 43.65L43.50 44.60L43.50 46.75L31.70 46.75L31.70 44.60L36.05 43.65L35.60 44.20L35.60 23.10L36 23.55L31.70 22.65L31.70 20.50L39.60 20.20L39.60 44.20M37.30 14.80Q36.15 14.80 35.40 14.05Q34.65 13.30 34.65 12Q34.65 10.65 35.42 9.92Q36.20 9.20 37.35 9.20Q38.55 9.20 39.30 9.90Q40.05 10.60 40.05 12Q40.05 13.35 39.25 14.07Q38.45 14.80 37.30 14.80ZM55.45 47.20Q52.85 47.20 51.35 45.58Q49.85 43.95 49.85 40.65L49.85 22.50L50.50 23.15L45.35 23.15L45.35 20.95L50.55 20.20L49.85 21L49.85 14.40L53.85 13.75L53.85 21L53.30 20.35L61.15 20.35L61 23.15L53.30 23.15L53.85 22.50L53.85 40.10Q53.85 42.20 54.68 43.15Q55.50 44.10 57 44.10Q57.90 44.10 58.95 43.80Q60 43.50 61.20 42.95L62.05 45.25Q58.50 47.20 55.45 47.20ZM73.55 47.20Q70.95 47.20 69.45 45.58Q67.95 43.95 67.95 40.65L67.95 22.50L68.60 23.15L63.45 23.15L63.45 20.95L68.65 20.20L67.95 21L67.95 14.40L71.95 13.75L71.95 21L71.40 20.35L79.25 20.35L79.10 23.15L71.40 23.15L71.95 22.50L71.95 40.10Q71.95 42.20 72.78 43.15Q73.60 44.10 75.10 44.10Q76 44.10 77.05 43.80Q78.10 43.50 79.30 42.95L80.15 45.25Q76.60 47.20 73.55 47.20ZM94.70 47.20Q91.35 47.20 88.78 45.67Q86.20 44.15 84.75 41.20Q83.30 38.25 83.30 34Q83.30 29.65 84.80 26.50Q86.30 23.35 89.05 21.63Q91.80 19.90 95.50 19.90Q99 19.90 101.28 21.38Q103.55 22.85 104.68 25.45Q105.80 28.05 105.80 31.40Q105.80 31.95 105.75 32.50Q105.70 33.05 105.60 33.85L86.35 33.85L86.35 31L102.10 31L101.65 31.30Q101.70 29.05 101.10 27.15Q100.50 25.25 99.05 24.10Q97.60 22.95 95.20 22.95Q92.65 22.95 90.90 24.30Q89.15 25.65 88.30 28Q87.45 30.35 87.45 33.45Q87.45 36.75 88.40 39.13Q89.35 41.50 91.18 42.80Q93 44.10 95.65 44.10Q97.50 44.10 99.70 43.38Q101.90 42.65 104.25 41.15L105.70 43.40Q102.90 45.30 100.10 46.25Q97.30 47.20 94.70 47.20ZM110.15 46.75L110.15 44.60L114.55 43.65L114.05 44.40L114.05 22.85L114.60 23.60L110.15 22.65L110.15 20.50L117.15 20.15L117.70 25.05L117.15 24.85Q119.40 22.50 121.55 21.20Q123.70 19.90 126.25 19.90Q127.85 19.90 129.60 20.40L129.30 27.70L126.80 27.70L126.20 22.45L126.65 23.35Q126.30 23.25 125.90 23.20Q125.50 23.15 125.10 23.15Q123.10 23.15 121.22 24.35Q119.35 25.55 117.65 27.45L118.05 26.25L118.05 44.40L117.45 43.65L122.90 44.60L122.90 46.75L110.15 46.75Z"/></g></g></svg>