<svg xmlns="http://www.w3.org/2000/svg" viewBox="0 11.449999809265137 466 43.70000076293945" data-asc="0.93" width="466" height="43.70000076293945"><defs/><g fill="#000000"><g transform="translate(0, 0)"><path d="M0 46.50L0 13.50L11.55 13.50Q14.25 13.50 16.48 13.98Q18.70 14.45 20.28 15.50Q21.85 16.55 22.70 18.17Q23.55 19.80 23.55 22.10Q23.55 24 22.80 25.42Q22.05 26.85 20.48 27.77Q18.90 28.70 16.30 29.20L16.30 29.75Q20.85 30.15 22.85 32.25Q24.85 34.35 24.85 37.75Q24.85 40.55 23.60 42.50Q22.35 44.45 19.68 45.48Q17 46.50 12.75 46.50L0 46.50M3.60 43.20L13.40 43.20Q17.30 43.20 19.25 41.83Q21.20 40.45 21.20 37.65Q21.20 34.35 18.48 32.70Q15.75 31.05 10.25 31.05L3.60 31.05L3.60 43.20M3.60 28.05L9.35 28.05Q14.65 28.05 17.25 26.65Q19.85 25.25 19.85 22.35Q19.85 19.55 17.63 18.15Q15.40 16.75 10.95 16.75L3.60 16.75L3.60 28.05ZM32.05 46.50L32.05 32.05L32.05 20.75L35.55 20.75L35 29.80L35.80 29.80Q36.30 27 37.23 24.82Q38.15 22.65 39.70 21.40Q41.25 20.15 43.45 20.15Q44 20.15 44.70 20.22Q45.40 20.30 46.25 20.60L46 24.45Q45.30 24.20 44.58 24.05Q43.85 23.90 43.20 23.90Q41.20 23.90 39.80 25.27Q38.40 26.65 37.42 28.93Q36.45 31.20 35.75 33.95L35.75 46.50L32.05 46.50ZM51.45 46.50L51.45 20.75L55.15 20.75L55.15 46.50L51.45 46.50M53.30 16.05Q51.90 16.05 51.20 15.47Q50.50 14.90 50.50 13.75Q50.50 12.65 51.20 12.05Q51.90 11.45 53.25 11.45Q54.65 11.45 55.38 12.02Q56.10 12.60 56.10 13.75Q56.10 14.90 55.38 15.47Q54.65 16.05 53.30 16.05ZM74.20 47.10Q70.80 47.10 68.50 46Q66.20 44.90 64.80 43Q63.40 41.10 62.75 38.75Q62.10 36.40 62.10 33.90Q62.10 31.10 62.82 28.63Q63.55 26.15 65.02 24.22Q66.50 22.30 68.70 21.22Q70.90 20.15 73.90 20.15Q76.75 20.15 78.97 21.17Q81.20 22.20 82.60 24.02Q84 25.85 84.35 28.40L80.80 29.30Q80.70 28 79.95 26.63Q79.20 25.25 77.72 24.35Q76.25 23.45 73.90 23.45Q71.85 23.45 70.35 24.25Q68.85 25.05 67.85 26.47Q66.85 27.90 66.35 29.80Q65.85 31.70 65.85 33.90Q65.85 36.80 66.72 39.05Q67.60 41.30 69.45 42.60Q71.30 43.90 74.25 43.90Q76.35 43.90 77.90 43.17Q79.45 42.45 80.38 41.10Q81.30 39.75 81.60 37.75L85.05 38.55Q84.65 40.80 83.67 42.40Q82.70 44 81.28 45.05Q79.85 46.10 78.08 46.60Q76.30 47.10 74.20 47.10ZM101.55 47.10Q97.90 47.10 95.13 45.48Q92.35 43.85 90.83 40.83Q89.30 37.80 89.30 33.50Q89.30 29 90.92 26.05Q92.55 23.10 95.30 21.63Q98.05 20.15 101.40 20.15Q104.85 20.15 107.63 21.72Q110.40 23.30 112.03 26.32Q113.65 29.35 113.65 33.75Q113.65 38.15 112.05 41.13Q110.45 44.10 107.70 45.60Q104.95 47.10 101.55 47.10M101.70 43.90Q104.25 43.90 106.10 42.65Q107.95 41.40 108.95 39.13Q109.95 36.85 109.95 33.80Q109.95 30.65 108.90 28.32Q107.85 26 105.92 24.72Q104 23.45 101.30 23.45Q98.80 23.45 96.95 24.63Q95.10 25.80 94.05 28.02Q93 30.25 93 33.40Q93 38.25 95.35 41.08Q97.70 43.90 101.70 43.90ZM120.60 46.50L120.60 11.75L124.30 11.75L124.30 46.50L120.60 46.50ZM138.50 47.10Q136.40 47.10 134.70 46.33Q133 45.55 132 43.90Q131 42.25 131 39.80Q131 38.05 131.63 36.65Q132.25 35.25 133.60 34.23Q134.95 33.20 137.20 32.50Q139.45 31.80 142.70 31.40Q144.70 31.15 145.90 30.88Q147.10 30.60 147.67 30.02Q148.25 29.45 148.25 28.25Q148.25 26.20 146.85 24.77Q145.45 23.35 142.45 23.35Q141 23.35 139.40 23.85Q137.80 24.35 136.60 25.60Q135.40 26.85 135.10 29.15L131.65 27.90Q132 26.15 132.85 24.75Q133.70 23.35 135.10 22.30Q136.50 21.25 138.38 20.70Q140.25 20.15 142.55 20.15Q145.70 20.15 147.77 21.20Q149.85 22.25 150.88 24.42Q151.90 26.60 151.90 30L151.90 36.15Q151.90 37.65 151.97 39.48Q152.05 41.30 152.20 43.13Q152.35 44.95 152.50 46.50L149.05 46.50Q148.90 44.80 148.80 43.20Q148.70 41.60 148.65 40L148.05 40Q147.35 41.85 146.10 43.48Q144.85 45.10 142.97 46.10Q141.10 47.10 138.50 47.10M139.30 43.95Q140.40 43.95 141.60 43.58Q142.80 43.20 144 42.38Q145.20 41.55 146.27 40.17Q147.35 38.80 148.30 36.85L148.30 31.60L149.70 31.85Q148.90 32.70 147.52 33.13Q146.15 33.55 144.45 33.80Q142.75 34.05 141.02 34.35Q139.30 34.65 137.88 35.23Q136.45 35.80 135.57 36.83Q134.70 37.85 134.70 39.65Q134.70 41.80 135.97 42.88Q137.25 43.95 139.30 43.95ZM169.40 55.15Q165.40 55.15 162.82 54.52Q160.25 53.90 159 52.63Q157.75 51.35 157.75 49.45Q157.75 47.15 159.55 45.67Q161.35 44.20 165.05 43.60L165.05 42.70Q162.35 42.75 161.07 42.08Q159.80 41.40 159.80 40.15Q159.80 38.80 161.13 37.90Q162.45 37 165.35 36.20L165.35 35.30Q162.35 35.30 160.80 33.50Q159.25 31.70 159.25 28.90Q159.25 26.30 160.63 24.45Q162 22.60 164.57 21.63Q167.15 20.65 170.65 20.65L182.45 20.65L182.45 23.95L174.60 22.70L174.60 23.60Q177.40 24.25 178.97 25.77Q180.55 27.30 180.55 29.80Q180.55 31.95 179.32 33.58Q178.10 35.20 175.68 36.08Q173.25 36.95 169.70 36.95Q169 36.95 168.22 36.88Q167.45 36.80 166.35 36.60Q164.85 37.50 163.95 38.23Q163.05 38.95 163.05 39.60Q163.05 40.20 163.92 40.55Q164.80 40.90 166.07 41.02Q167.35 41.15 168.40 41.15L173.70 41.15Q174.70 41.15 176.20 41.35Q177.70 41.55 179.20 42.20Q180.70 42.85 181.72 44.17Q182.75 45.50 182.75 47.80Q182.75 50.45 181.15 52.08Q179.55 53.70 176.60 54.42Q173.65 55.15 169.40 55.15M169.30 52.05Q172.70 52.05 174.90 51.60Q177.10 51.15 178.18 50.17Q179.25 49.20 179.25 47.70Q179.25 46.30 178.50 45.52Q177.75 44.75 176.65 44.42Q175.55 44.10 174.42 44.02Q173.30 43.95 172.50 43.95L166.85 43.95Q163.65 44.75 162.53 45.95Q161.40 47.15 161.40 48.50Q161.40 50 162.47 50.75Q163.55 51.50 165.38 51.77Q167.20 52.05 169.30 52.05M170.10 34.30Q173.50 34.30 175.25 32.95Q177 31.60 177 29.25Q177 26.80 175.22 25.20Q173.45 23.60 169.90 23.60Q166.50 23.60 164.70 25.13Q162.90 26.65 162.90 29.05Q162.90 30.65 163.72 31.82Q164.55 33 166.15 33.65Q167.75 34.30 170.10 34.30ZM199.55 47.10Q196.55 47.10 194.30 46.17Q192.05 45.25 190.50 43.50Q188.95 41.75 188.20 39.35Q187.45 36.95 187.45 34.05Q187.45 31.05 188.22 28.52Q189 26 190.50 24.10Q192 22.20 194.18 21.17Q196.35 20.15 199.20 20.15Q201.60 20.15 203.60 20.97Q205.60 21.80 207.05 23.50Q208.50 25.20 209.25 27.82Q210 30.45 209.90 34.05L189.70 34.20L189.70 31.35L207.60 31.20L206.35 33.35Q206.55 30.05 205.68 27.85Q204.80 25.65 203.13 24.55Q201.45 23.45 199.15 23.45Q196.70 23.45 194.88 24.70Q193.05 25.95 192.05 28.32Q191.05 30.70 191.05 34Q191.05 38.75 193.18 41.33Q195.30 43.90 199.65 43.90Q201.30 43.90 202.55 43.52Q203.80 43.15 204.68 42.45Q205.55 41.75 206.15 40.80Q206.75 39.85 207.05 38.70L210.30 39.50Q209.80 41.30 208.88 42.73Q207.95 44.15 206.60 45.13Q205.25 46.10 203.50 46.60Q201.75 47.10 199.55 47.10ZM242.90 47.10Q238.85 47.10 235.70 45.23Q232.55 43.35 230.78 39.60Q229.00 35.85 229.00 30.10Q229.00 26.10 229.95 22.92Q230.90 19.75 232.78 17.50Q234.65 15.25 237.38 14.07Q240.10 12.90 243.70 12.90Q246.35 12.90 248.50 13.57Q250.65 14.25 252.28 15.55Q253.90 16.85 254.90 18.77Q255.90 20.70 256.20 23.15L252.60 24.15Q252.40 21.20 251.05 19.47Q249.70 17.75 247.75 17Q245.80 16.25 243.65 16.25Q240.50 16.25 238.08 17.65Q235.65 19.05 234.25 22.07Q232.85 25.10 232.85 30.05Q232.85 33.90 233.73 36.52Q234.60 39.15 236.03 40.73Q237.45 42.30 239.35 42.98Q241.25 43.65 243.25 43.65Q246.05 43.65 248.05 42.58Q250.05 41.50 251.30 39.30Q252.55 37.10 252.90 33.75L244.95 33.75L244.95 30.60L256.60 30.60L256.60 35.20L256.60 46.50L253.25 46.50L254.50 37.30L253.80 37.30Q253.20 40.65 251.83 42.83Q250.45 45 248.23 46.05Q246.00 47.10 242.90 47.10ZM264.30 46.50L264.30 32.05L264.30 20.75L267.80 20.75L267.25 29.80L268.05 29.80Q268.55 27 269.48 24.82Q270.40 22.65 271.95 21.40Q273.50 20.15 275.70 20.15Q276.25 20.15 276.95 20.22Q277.65 20.30 278.50 20.60L278.25 24.45Q277.55 24.20 276.83 24.05Q276.10 23.90 275.45 23.90Q273.45 23.90 272.05 25.27Q270.65 26.65 269.68 28.93Q268.70 31.20 268.00 33.95L268.00 46.50L264.30 46.50ZM294.55 47.10Q290.90 47.10 288.13 45.48Q285.35 43.85 283.83 40.83Q282.30 37.80 282.30 33.50Q282.30 29 283.93 26.05Q285.55 23.10 288.30 21.63Q291.05 20.15 294.40 20.15Q297.85 20.15 300.63 21.72Q303.40 23.30 305.03 26.32Q306.65 29.35 306.65 33.75Q306.65 38.15 305.05 41.13Q303.45 44.10 300.70 45.60Q297.95 47.10 294.55 47.10M294.70 43.90Q297.25 43.90 299.10 42.65Q300.95 41.40 301.95 39.13Q302.95 36.85 302.95 33.80Q302.95 30.65 301.90 28.32Q300.85 26 298.93 24.72Q297.00 23.45 294.30 23.45Q291.80 23.45 289.95 24.63Q288.10 25.80 287.05 28.02Q286.00 30.25 286.00 33.40Q286.00 38.25 288.35 41.08Q290.70 43.90 294.70 43.90ZM321.10 47Q317.75 47 316.13 45.15Q314.50 43.30 314.50 39.65L314.50 23.95L310.60 23.95L310.60 20.75L312.95 20.75Q314.10 20.75 314.63 20.32Q315.15 19.90 315.25 18.90L315.70 14.95L318.05 14.95L318.05 20.75L325.75 20.75L325.75 24L318.05 24L318.05 39.65Q318.05 41.70 319.00 42.63Q319.95 43.55 321.70 43.55Q322.65 43.55 323.70 43.27Q324.75 43 325.90 42.15L325.90 46Q324.50 46.50 323.30 46.75Q322.10 47 321.10 47ZM342.50 47.10Q339.50 47.10 337.25 46.17Q335 45.25 333.45 43.50Q331.90 41.75 331.15 39.35Q330.40 36.95 330.40 34.05Q330.40 31.05 331.18 28.52Q331.95 26 333.45 24.10Q334.95 22.20 337.13 21.17Q339.30 20.15 342.15 20.15Q344.55 20.15 346.55 20.97Q348.55 21.80 350 23.50Q351.45 25.20 352.20 27.82Q352.95 30.45 352.85 34.05L332.65 34.20L332.65 31.35L350.55 31.20L349.30 33.35Q349.50 30.05 348.63 27.85Q347.75 25.65 346.08 24.55Q344.40 23.45 342.10 23.45Q339.65 23.45 337.83 24.70Q336 25.95 335 28.32Q334 30.70 334 34Q334 38.75 336.13 41.33Q338.25 43.90 342.60 43.90Q344.25 43.90 345.50 43.52Q346.75 43.15 347.63 42.45Q348.50 41.75 349.10 40.80Q349.70 39.85 350 38.70L353.25 39.50Q352.75 41.30 351.83 42.73Q350.90 44.15 349.55 45.13Q348.20 46.10 346.45 46.60Q344.70 47.10 342.50 47.10ZM369 47.10Q366.30 47.10 364.23 46.50Q362.15 45.90 360.78 44.80Q359.40 43.70 358.73 42.15Q358.05 40.60 358.10 38.75L361.40 38.15Q361.20 40 362.13 41.30Q363.05 42.60 364.85 43.27Q366.65 43.95 369.20 43.95Q372.40 43.95 374.15 42.85Q375.90 41.75 375.90 39.80Q375.90 38.30 374.93 37.45Q373.95 36.60 372.28 36.10Q370.60 35.60 368.40 35.20Q366.60 34.80 364.85 34.27Q363.10 33.75 361.68 32.95Q360.25 32.15 359.40 30.88Q358.55 29.60 358.55 27.65Q358.55 25.30 359.75 23.65Q360.95 22 363.20 21.07Q365.45 20.15 368.55 20.15Q371.70 20.15 373.88 21.15Q376.05 22.15 377.25 23.95Q378.45 25.75 378.55 28.15L375.20 28.85Q375.20 27 374.35 25.77Q373.50 24.55 371.95 23.95Q370.40 23.35 368.30 23.35Q365.45 23.35 363.78 24.45Q362.10 25.55 362.10 27.45Q362.10 28.90 363.07 29.77Q364.05 30.65 365.70 31.13Q367.35 31.60 369.35 32Q371.35 32.40 373.15 32.90Q374.95 33.40 376.38 34.20Q377.80 35 378.63 36.30Q379.45 37.60 379.45 39.60Q379.45 42.15 378.13 43.83Q376.80 45.50 374.45 46.30Q372.10 47.10 369 47.10ZM403.75 54.50L403.75 47.65Q403.75 46.35 403.88 44.88Q404 43.40 404.20 41.92Q404.40 40.45 404.55 39.15L403.80 39.15Q403.30 41.05 402.28 42.90Q401.25 44.75 399.48 45.92Q397.70 47.10 394.90 47.10Q391.60 47.10 389.30 45.35Q387 43.60 385.82 40.55Q384.65 37.50 384.65 33.65Q384.65 29.90 385.78 26.85Q386.90 23.80 389.25 21.97Q391.60 20.15 395.10 20.15Q397.70 20.15 399.38 21.13Q401.05 22.10 402.07 23.70Q403.10 25.30 403.60 27.25L404.35 27.25L404 20.80L407.45 20.80L407.45 33.55L407.45 54.50L403.75 54.50M395.70 43.75Q397.40 43.75 398.70 43.08Q400 42.40 400.98 41.27Q401.95 40.15 402.57 38.80Q403.20 37.45 403.48 36.13Q403.75 34.80 403.75 33.80L403.75 33.30Q403.75 31.55 403.18 29.82Q402.60 28.10 401.53 26.67Q400.45 25.25 398.93 24.40Q397.40 23.55 395.50 23.55Q393.30 23.55 391.70 24.77Q390.10 26 389.28 28.22Q388.45 30.45 388.45 33.50Q388.45 36.40 389.25 38.73Q390.05 41.05 391.68 42.40Q393.30 43.75 395.70 43.75ZM423.90 47.10Q419.70 47.10 417.53 44.17Q415.35 41.25 415.35 35.40L415.35 20.75L419.10 20.75L419.10 35.15Q419.10 39.50 420.45 41.63Q421.80 43.75 424.75 43.75Q426.35 43.75 427.65 42.95Q428.95 42.15 429.95 40.73Q430.95 39.30 431.60 37.30Q432.25 35.30 432.55 32.90L432.55 20.75L436.20 20.75L436.20 35.65L436.20 46.50L432.75 46.50L433.30 38.15L432.55 38.15Q432 41.25 430.78 43.23Q429.55 45.20 427.80 46.15Q426.05 47.10 423.90 47.10ZM455.25 47.10Q452.25 47.10 450 46.17Q447.75 45.25 446.20 43.50Q444.65 41.75 443.90 39.35Q443.15 36.95 443.15 34.05Q443.15 31.05 443.93 28.52Q444.70 26 446.20 24.10Q447.70 22.20 449.88 21.17Q452.05 20.15 454.90 20.15Q457.30 20.15 459.30 20.97Q461.30 21.80 462.75 23.50Q464.20 25.20 464.95 27.82Q465.70 30.45 465.60 34.05L445.40 34.20L445.40 31.35L463.30 31.20L462.05 33.35Q462.25 30.05 461.38 27.85Q460.50 25.65 458.83 24.55Q457.15 23.45 454.85 23.45Q452.40 23.45 450.58 24.70Q448.75 25.95 447.75 28.32Q446.75 30.70 446.75 34Q446.75 38.75 448.88 41.33Q451 43.90 455.35 43.90Q457 43.90 458.25 43.52Q459.50 43.15 460.38 42.45Q461.25 41.75 461.85 40.80Q462.45 39.85 462.75 38.70L466 39.50Q465.50 41.30 464.58 42.73Q463.65 44.15 462.30 45.13Q460.95 46.10 459.20 46.60Q457.45 47.10 455.25 47.10Z"/></g></g></svg>