<svg xmlns="http://www.w3.org/2000/svg" viewBox="0 13.940000534057617 171.19000244140625 36.6200065612793" data-asc="0.9931640625" width="171.19000244140625" height="36.6200065612793"><defs/><g fill="#000000"><g transform="translate(0, 0)"><path d="M19.07 50.56Q11.57 50.56 5.79 45.78Q0 40.99 0 32.54Q0 24.32 5.63 19.35Q11.25 14.38 19.07 14.38Q21.88 14.38 25.04 15.00Q28.20 15.63 31.05 17.46L30.47 22.58Q30.37 23.02 29.98 23.02L29.91 23.02Q29.61 23.00 29.27 22.34Q27.86 19.29 25.02 17.85Q22.39 16.55 19.41 16.55L18.90 16.55Q12.30 16.85 8.59 21.83Q5.25 26.29 5.25 31.71Q5.25 32.32 5.30 32.93Q5.64 38.55 9.25 43.16Q12.87 47.78 19.07 48.07Q19.65 48.10 20.19 48.10Q23.32 48.10 25.34 47.14Q27.69 46.02 29.27 42.63Q29.59 41.94 30.05 41.94Q30.15 41.94 30.25 41.97Q30.64 42.11 30.64 42.53Q30.64 42.72 30.54 42.97L28.42 48.90Q26.07 49.88 23.66 50.22Q21.24 50.56 19.07 50.56ZM52.12 47.53L45.41 50Q44.63 50.27 44.12 50.27L43.12 50.27Q39.65 50.10 37.13 47.44Q34.62 44.78 34.28 40.89Q34.18 39.87 34.18 38.92Q34.18 37.65 34.35 36.45Q34.64 34.38 35.96 32.30Q36.60 31.23 38.13 30.05Q38.67 29.69 39.33 29.39Q41.28 28.66 43.25 27.93Q45.21 27.20 47.19 26.46Q47.61 26.32 47.97 26.32L48.10 26.32Q49.66 26.39 51.88 27.10Q52.08 27.17 52.12 27.20Q52.66 27.42 53.44 27.69Q53.76 27.78 54.03 27.78Q54.42 27.78 54.71 27.56Q55.22 27.12 55.44 26.83Q55.57 26.66 55.76 26.66Q55.88 26.66 56.01 26.71Q56.54 26.90 56.54 27.20L56.54 46.09Q56.54 47.68 57.76 48.11Q58.98 48.54 58.98 49.15Q58.98 49.66 58.47 49.66L52.54 49.66Q52.12 49.66 52.12 49.34L52.12 47.53M52.12 30.88Q51.12 29.96 49.49 29.16Q47.85 28.37 46.58 28.32L46.48 28.32Q46.00 28.32 45.51 28.52Q44.63 28.83 43.76 29.16Q42.90 29.49 42.02 29.81Q41.41 30.05 41.04 30.44Q39.53 32.06 39.01 34.35Q38.60 36.08 38.60 37.79Q38.60 38.33 38.65 38.89Q38.92 42.41 40.55 44.60Q42.19 46.88 44.65 47.56Q45.58 47.83 46.53 47.83Q46.83 47.83 47.14 47.80Q47.68 47.75 48.41 47.49Q48.97 47.29 50.17 46.84Q51.37 46.39 52.12 46.09L52.12 30.88ZM86.25 46.09Q86.25 47.68 87.48 48.11Q88.70 48.54 88.70 49.15Q88.70 49.66 88.18 49.66L82.25 49.66Q81.84 49.66 81.84 49.34L81.84 47.75Q80.49 48.27 79.46 48.67Q78.42 49.07 77.54 49.37Q75.27 50.12 72.88 50.37Q72.53 50.39 72.22 50.39Q70.19 50.39 68.36 49.02Q65.38 46.78 65.38 39.28L65.38 30.47Q65.38 28.93 64.16 28.49Q62.94 28.05 62.94 27.42Q62.94 26.90 63.45 26.90Q65.06 26.83 66.64 26.40Q68.21 25.98 69.80 25.44L69.80 39.28Q69.80 44.65 72.02 46.80Q73.44 48.19 75.49 48.19Q76.66 48.19 78.05 47.73Q78.56 47.56 79.39 47.24Q80.22 46.92 80.81 46.70Q80.93 46.66 81.21 46.56Q81.49 46.46 81.84 46.31L81.84 30.47Q81.84 28.93 80.62 28.49Q79.39 28.05 79.39 27.42Q79.39 26.90 79.91 26.90Q81.52 26.83 83.09 26.40Q84.67 25.98 86.25 25.44L86.25 46.09ZM111.06 47.53L104.35 50Q103.56 50.27 103.05 50.27L102.05 50.27Q98.58 50.10 96.07 47.44Q93.55 44.78 93.21 40.89Q93.12 39.87 93.12 38.92Q93.12 37.65 93.29 36.45Q93.58 34.38 94.90 32.30Q95.53 31.23 97.07 30.05Q97.61 29.69 98.27 29.39Q100.22 28.66 102.19 27.93Q104.15 27.20 106.13 26.46Q106.54 26.32 106.91 26.32L107.03 26.32Q108.59 26.39 110.82 27.10Q111.01 27.17 111.06 27.20L111.06 18.97Q111.06 17.41 109.84 16.97Q108.62 16.53 108.62 15.89Q108.62 15.38 109.13 15.38Q110.74 15.31 112.32 14.89Q113.89 14.48 115.48 13.94L115.48 46.09Q115.48 47.68 116.70 48.11Q117.92 48.54 117.92 49.15Q117.92 49.66 117.41 49.66L111.47 49.66Q111.06 49.66 111.06 49.34L111.06 47.53M111.06 30.86Q109.96 29.86 108.36 29.11Q106.76 28.37 105.52 28.32L105.42 28.32Q104.93 28.32 104.44 28.52Q103.56 28.83 102.70 29.16Q101.83 29.49 100.95 29.81Q100.34 30.05 99.98 30.44Q98.46 32.06 97.95 34.35Q97.53 36.08 97.53 37.79Q97.53 38.33 97.58 38.89Q97.85 42.41 99.49 44.60Q101.12 46.88 103.59 47.56Q104.52 47.83 105.47 47.83Q105.76 47.83 106.08 47.80Q106.62 47.75 107.35 47.49Q107.91 47.29 109.11 46.84Q110.30 46.39 111.06 46.09L111.06 30.86ZM122.90 36.21Q123.58 31.69 126.50 28.98Q129.42 26.27 134.18 26.22L134.28 26.22Q139.09 26.22 141.63 28.96Q144.17 31.74 144.17 36.21Q144.14 37.18 144.09 37.59Q144.04 37.99 143.09 37.99L127.54 37.99Q127.61 41.94 129.54 44.54Q131.47 47.14 134.40 47.73Q135.25 47.92 136.13 47.92Q138.45 47.92 140.94 46.58Q142.33 45.83 142.82 45.83Q142.94 45.83 143.02 45.87Q143.09 45.95 143.09 46.09Q143.09 46.41 142.77 47.00Q142.48 47.58 142.30 47.78Q142.11 47.97 141.97 48.12Q139.31 50.42 134.74 50.42Q128.34 50.37 125.15 46.31Q122.68 43.19 122.68 38.89Q122.68 37.60 122.90 36.21M127.54 36.21L140.41 36.21Q140.41 33.23 139.06 30.74Q137.77 28.37 134.33 28.37L134.06 28.37Q130.62 28.47 129.13 30.86Q127.64 33.25 127.54 36.21ZM149.66 47.29L156.64 38.75L150.17 29.35Q149.78 28.76 148.85 28.27Q148.39 28.03 147.95 27.87Q147.51 27.71 147.24 27.54Q146.68 27.22 146.68 27.10Q146.68 26.98 147.05 26.98L154.91 26.98Q155.27 26.98 155.52 27.32Q155.59 27.42 155.59 27.54Q155.59 27.69 155.37 27.81Q155.00 28.03 154.98 28.47Q154.98 28.83 155.27 29.25L159.45 35.33L163.60 30.22Q165.82 27.51 166.43 26.98Q166.65 26.78 167.04 26.78Q167.63 26.78 168.55 27.27L170.12 28.10Q170.34 28.22 170.34 28.44Q170.34 28.56 170.26 28.71L169.02 31.25Q168.12 30.76 167.36 30.40Q167.16 30.30 166.97 30.30Q166.38 30.30 165.70 31.15L160.74 37.21L167.70 47.29Q168.14 48.00 169.14 48.41Q169.51 48.58 169.89 48.74Q170.26 48.90 170.63 49.10Q171.19 49.41 171.19 49.54Q171.19 49.66 170.83 49.66L162.96 49.66Q162.60 49.66 162.35 49.34Q162.28 49.22 162.28 49.12Q162.28 48.97 162.50 48.83Q162.84 48.63 162.89 48.19L162.89 48.14Q162.89 47.80 162.60 47.39L157.96 40.63L152.49 47.29Q152.03 47.92 152.03 48.32L152.03 48.39Q152.03 48.71 152.15 48.88Q152.17 48.95 152.17 49.02Q152.17 49.17 152.05 49.32Q151.83 49.66 151.59 49.66L146.51 49.66Q146.26 49.66 146.26 49.54Q146.26 49.44 146.36 49.32Q146.68 48.93 147.73 48.66Q148.78 48.39 149.66 47.29Z"/></g></g></svg>