<svg xmlns="http://www.w3.org/2000/svg" viewBox="0.03863637149333954 13.996268272399902 113.90227508544922 36.89988327026367" data-asc="0.96" width="113.90227508544922" height="36.89988327026367"><defs/><g><g fill="#000000"><g transform="translate(0, 0)"><path d="M5.00 50.80Q4.25 50.50 3.48 50.15Q2.70 49.80 2.03 49.13Q1.35 48.45 0.85 47.25Q0.35 45.80 0.17 44.40Q0 43 0.05 41.15Q0.05 38.55 0.42 36.63Q0.80 34.70 1.60 32.70Q1.70 32.55 1.98 31.82Q2.25 31.10 2.63 30.25Q3.00 29.40 3.20 28.95Q3.60 28.10 4.42 26.67Q5.25 25.25 6.20 23.90Q7.65 21.75 8.60 20.50Q9.55 19.25 10.40 18.40Q11.25 17.55 12.33 16.77Q13.40 16 15.10 14.85Q16.20 14.05 17.53 14Q18.85 13.95 20.00 14.57Q21.15 15.20 21.70 16.40Q22.25 17.45 22.25 18.92Q22.25 20.40 21.80 22.02Q21.35 23.65 20.55 25.10Q19.75 26.55 18.70 27.50Q18.05 28.10 17.53 27.95Q17.00 27.80 16.30 27.15Q15.85 26.30 15.83 26.15Q15.80 26 16.00 25.95Q16.30 25.60 16.80 24.75Q17.30 23.90 17.80 22.92Q18.30 21.95 18.50 21.35Q18.90 19.25 19.05 18.38Q19.20 17.50 18.75 17.05Q18.55 16.85 18.18 16.90Q17.80 16.95 16.95 17.40Q15.80 17.90 13.95 19.63Q12.10 21.35 10.55 23.45Q8.55 26.10 7.20 28.15Q5.85 30.20 5.15 32.35Q5.05 32.55 4.83 33.10Q4.60 33.65 4.60 33.65Q4.65 33.85 4.45 34.63Q4.25 35.40 4.00 35.95Q3.45 38.25 3.35 40.73Q3.25 43.20 3.63 45.10Q4.00 47 4.75 47.75Q5.40 48.20 6.53 48.05Q7.65 47.90 9.10 47.35Q10.55 46.80 12.05 46.15Q13.25 45.65 14.25 45.05Q15.25 44.45 15.75 44Q16.15 43.70 16.78 43.38Q17.40 43.05 17.85 43.05Q18.55 42.80 18.65 42.85Q18.75 42.90 18.75 43.30Q18.75 44 17.98 44.85Q17.20 45.70 16.00 46.40Q15.60 46.80 14.95 47.25Q14.30 47.70 13.60 47.95Q12.55 48.75 11 49.50Q9.45 50.25 7.88 50.65Q6.30 51.05 5.00 50.80ZM23.25 46.20Q23.05 45.80 22.75 45.58Q22.45 45.35 22.45 45.15Q22.45 44.95 22.43 44.73Q22.40 44.50 22.20 44.30Q21.95 44 22.25 42.92Q22.55 41.85 23.25 40.27Q23.95 38.70 24.90 36.95Q25.30 36.55 25.70 35.90Q26.10 35.25 26.30 35.05Q26.30 34.85 26.45 34.67Q26.60 34.50 26.80 34.50L26.80 34.20Q26.80 33.95 27.28 33.35Q27.75 32.75 28.45 32.02Q29.15 31.30 29.90 30.63Q30.65 29.95 31.15 29.65Q32.20 28.95 33.33 28.80Q34.45 28.65 35.25 29.30Q35.40 29.45 35.75 29.80Q36.10 30.15 36.58 30.57Q37.05 31 37.55 31.45L39.40 33.10L38.50 35.60Q37.85 37.60 38.18 39.10Q38.50 40.60 39.15 41.70Q39.40 42.25 40.18 42.75Q40.95 43.25 41.65 43.35Q42.05 43.40 42.40 43.65Q42.75 43.90 42.75 44.45Q42.75 44.95 42.55 45.25Q42.35 45.55 41.85 45.65Q40.20 45.85 38.78 44.85Q37.35 43.85 36.15 41.55Q35.95 41.25 35.63 40.42Q35.30 39.60 35.25 39.35Q35.05 39.60 34.50 40.27Q33.95 40.95 33.65 41.25Q30.10 44.85 27.53 46.08Q24.95 47.30 23.25 46.20M25.05 43.40Q25.05 43.75 26.13 43.38Q27.20 43 28.45 42Q30.15 40.55 31.88 38.80Q33.60 37.05 34.65 35.55L35.75 33.75Q35.25 32.60 34.68 32.17Q34.10 31.75 33.70 31.75Q33.05 31.75 31.78 32.95Q30.50 34.15 29.05 36.15Q27.60 38.15 26.30 40.55Q25.80 41.55 25.43 42.48Q25.05 43.40 25.05 43.40ZM47.90 44.95Q47.55 44.65 47.02 43.15Q46.50 41.65 46.02 39.63Q45.55 37.60 45.25 35.90Q45.05 34.90 44.83 34.20Q44.60 33.50 44.45 33.05Q44.20 32.15 44.30 31.55Q44.40 30.95 45 30.60Q45.25 30.45 45.63 30.38Q46 30.30 46.20 30.35Q46.80 30.55 47.30 32.17Q47.80 33.80 48.20 36.45Q48.40 38 48.70 39.10Q49 40.20 49 40.40Q49.20 40.80 49.48 41.17Q49.75 41.55 50.15 41.15Q50.35 40.95 50.98 40.25Q51.60 39.55 52.20 38.75Q53.25 37.35 53.88 36.45Q54.50 35.55 55.30 34.55Q55.65 34.05 56.10 33.45Q56.55 32.85 57.03 32.33Q57.50 31.80 57.90 31.70Q59.10 31.50 59.20 32.20Q59.30 32.90 58.30 34.30Q57.90 34.90 57.67 35.42Q57.45 35.95 57.25 36.15Q56.85 36.95 56 38.17Q55.15 39.40 54.35 40.42Q53.55 41.45 53.25 41.75Q53.05 41.95 52.38 42.50Q51.70 43.05 51.10 43.90Q49.90 45.05 49.20 45.30Q48.50 45.55 47.90 44.95ZM69.10 46.25Q68.05 47.15 66.67 47.30Q65.30 47.45 64 46.88Q62.70 46.30 61.85 45.10Q61 44 60.75 42.58Q60.50 41.15 60.70 38.85Q60.85 36.90 61.95 34.92Q63.05 32.95 64.63 31.40Q66.20 29.85 67.75 29.25Q68.50 28.75 69.03 28.77Q69.55 28.80 70.65 28.90Q71.80 29.05 72.38 29.35Q72.95 29.65 73.30 30.15Q74.05 30.90 74.30 31.63Q74.55 32.35 74.55 33.05Q74.35 34.15 73.08 35.73Q71.80 37.30 69.75 38.30Q68.65 38.65 67.35 38.60Q66.05 38.55 65.20 37.95Q64.25 37.55 63.95 38.08Q63.65 38.60 63.40 40.60Q63.20 42.50 63.70 43.38Q64.20 44.25 65.05 44.40Q66.05 44.60 66.63 44.67Q67.20 44.75 68.05 44.25Q68.85 43.75 69.05 43.67Q69.25 43.60 69.38 43.48Q69.50 43.35 70 42.85Q70.35 42.50 70.55 42.33Q70.75 42.15 71 42.15Q71.25 42.15 71.45 42.38Q71.65 42.60 71.85 42.70Q72.35 42.70 72.08 43.30Q71.80 43.90 71 44.73Q70.20 45.55 69.10 46.25M69.05 35.65Q69.60 35.40 70.20 34.92Q70.80 34.45 71.22 33.88Q71.65 33.30 71.65 32.90Q71.65 32.20 71 31.72Q70.35 31.25 69.05 31.60Q68.50 31.75 67.80 32.33Q67.10 32.90 66.47 33.60Q65.85 34.30 65.47 34.85Q65.10 35.40 65.20 35.50Q65.35 35.75 66.05 35.88Q66.75 36 67.63 35.95Q68.50 35.90 69.05 35.65ZM76.90 46.20Q76.70 45.80 76.40 45.58Q76.10 45.35 76.10 45.15Q76.10 44.95 76.08 44.73Q76.05 44.50 75.85 44.30Q75.60 44 75.90 42.92Q76.20 41.85 76.90 40.27Q77.60 38.70 78.55 36.95Q78.95 36.55 79.35 35.90Q79.75 35.25 79.95 35.05Q79.95 34.85 80.10 34.67Q80.25 34.50 80.45 34.50L80.45 34.20Q80.45 33.95 80.92 33.35Q81.40 32.75 82.10 32.02Q82.80 31.30 83.55 30.63Q84.30 29.95 84.80 29.65Q85.85 28.95 86.97 28.80Q88.10 28.65 88.90 29.30Q89.05 29.45 89.40 29.80Q89.75 30.15 90.22 30.57Q90.70 31 91.20 31.45L93.05 33.10L92.15 35.60Q91.50 37.60 91.83 39.10Q92.15 40.60 92.80 41.70Q93.05 42.25 93.83 42.75Q94.60 43.25 95.30 43.35Q95.70 43.40 96.05 43.65Q96.40 43.90 96.40 44.45Q96.40 44.95 96.20 45.25Q96 45.55 95.50 45.65Q93.85 45.85 92.42 44.85Q91 43.85 89.80 41.55Q89.60 41.25 89.28 40.42Q88.95 39.60 88.90 39.35Q88.70 39.60 88.15 40.27Q87.60 40.95 87.30 41.25Q83.75 44.85 81.17 46.08Q78.60 47.30 76.90 46.20M78.70 43.40Q78.70 43.75 79.77 43.38Q80.85 43 82.10 42Q83.80 40.55 85.53 38.80Q87.25 37.05 88.30 35.55L89.40 33.75Q88.90 32.60 88.33 32.17Q87.75 31.75 87.35 31.75Q86.70 31.75 85.42 32.95Q84.15 34.15 82.70 36.15Q81.25 38.15 79.95 40.55Q79.45 41.55 79.08 42.48Q78.70 43.40 78.70 43.40ZM102.35 47.65Q101.80 47.55 101.23 47.08Q100.65 46.60 100.23 45.98Q99.80 45.35 99.65 44.85Q99.65 44.75 99.53 44.60Q99.40 44.45 99.40 44.45Q99.20 44.30 99.18 43.13Q99.15 41.95 99.30 40.50Q99.45 39.05 99.65 38.20Q99.90 37.40 100.40 36.02Q100.90 34.65 101.25 33.55L102.60 30.65L100.60 30.10Q100.25 30 100.03 29.70Q99.80 29.40 99.80 29.20Q99.80 28.80 100.25 28.22Q100.70 27.65 100.90 27.65Q101.15 27.70 101.83 27.70Q102.50 27.70 103.15 27.65Q103.80 27.60 103.95 27.55Q104.15 27.45 104.35 27.27Q104.55 27.10 104.65 26.75Q104.90 26.20 105.10 25.72Q105.30 25.25 105.65 24.65Q106 24 106.23 23.55Q106.45 23.10 106.95 22.30Q107.20 21.95 107.50 21.45Q107.80 20.95 108.25 20.60Q108.70 20.20 109.18 20.22Q109.65 20.25 110.40 20.90Q110.80 21.40 110.85 21.65Q110.90 21.90 110.45 22.60Q110.05 23.45 109.53 24.30Q109 25.15 108.55 26Q107.75 27.10 108.25 27.25Q108.75 27.40 111.05 27.05Q112.50 26.80 113.15 27.17Q113.80 27.55 113.90 28.40Q114.05 29.60 113.65 29.85Q113.25 30.10 111.35 30.10Q110.15 30.30 109.30 30.32Q108.45 30.35 108.05 30.35Q107.40 30.40 107.20 30.40Q107 30.40 106.60 30.50Q106.20 30.60 106.03 30.82Q105.85 31.05 105.65 31.45Q105.45 31.65 105.05 32.50Q104.65 33.35 104.05 34.35Q103.35 36.45 102.85 38.52Q102.35 40.60 102.05 42.55Q101.85 43.80 102.10 44.27Q102.35 44.75 103.40 44.85Q103.95 44.90 105.18 44.83Q106.40 44.75 107.10 44.55Q107.65 44.30 108.25 44.02Q108.85 43.75 109.35 43.45Q109.80 43.20 110.25 42.92Q110.70 42.65 110.70 42.65Q110.95 42.25 111.25 42.40Q111.55 42.55 111.75 43.15Q111.75 43.75 111.50 44.40Q111.25 45.05 109.65 45.95Q107.40 47.35 105.53 47.63Q103.65 47.90 102.35 47.65Z"/></g></g></g></svg>