<svg xmlns="http://www.w3.org/2000/svg" viewBox="0 13.199999809265137 246.25 46.70000076293945" data-asc="0.995" width="246.25" height="46.70000076293945"><defs/><g fill="#000000"><g transform="translate(0, 0)"><path d="M19.45 50.75Q10.45 50.75 5.23 46.17Q0 41.60 0 33.25Q0 28.15 1.67 24.30Q3.35 20.45 6.40 18.15Q12.45 13.60 22.35 13.60Q28.75 13.60 35.15 15.35Q37.60 16.15 37.60 19.30Q37.60 23.60 34.90 23.60Q34.45 23.60 31.95 23.20Q29.45 22.80 28.45 22.80Q24.90 22.80 22.98 25.27Q21.05 27.75 21.05 31.18Q21.05 34.60 22.85 37.20Q24.65 39.80 27.75 39.90Q29.85 40 35.20 40Q37.80 40 38.05 42.45Q38.20 43.35 38.20 44.27Q38.20 45.20 38.05 46.15Q37.75 47.95 35.25 48.77Q32.75 49.60 28.05 50.17Q23.35 50.75 19.45 50.75ZM43.25 47.40L43.15 31.05Q43.15 23.55 43.30 16.45Q43.35 14.80 43.92 14Q44.50 13.20 46.15 13.20L55.75 13.20Q57.40 13.20 57.97 13.98Q58.55 14.75 58.67 16.77Q58.80 18.80 58.90 27.60Q62.80 23.65 68.28 23.65Q73.75 23.65 76.90 26.35Q80.05 29.05 80.13 33.80Q80.20 38.55 80.20 42.30Q80.20 46.05 80.15 47.35Q80.10 48.65 79.47 49.23Q78.85 49.80 77.05 49.80L67.45 49.90Q65.85 49.90 65.22 49.33Q64.60 48.75 64.60 47.60L64.65 35.40Q64.65 33.90 63.90 33.15Q63.15 32.40 62.02 32.40Q60.90 32.40 60 33.17Q59.10 33.95 59.05 35.35L58.75 47.40Q58.70 48.35 57.85 49Q57 49.65 55.77 49.75Q54.55 49.85 53.05 49.85L46.05 49.75Q45.10 49.75 44.17 49.08Q43.25 48.40 43.25 47.40ZM103.30 23.50Q119.60 23.50 119.75 34.10Q119.85 38.60 119.85 42.35Q119.85 46.10 119.80 47.40Q119.75 48.70 119.13 49.27Q118.50 49.85 116.70 49.85L106.10 49.85Q104.50 49.85 103.90 49.27Q103.30 48.70 103.25 47.55Q103.25 47.50 103.23 47.38Q103.20 47.25 103.20 47.15Q99.90 50.55 94.20 50.55Q90.25 50.55 87.48 48.58Q84.70 46.60 84.70 43.13Q84.70 39.65 86.67 37.58Q88.65 35.50 91.38 34.75Q94.10 34 97.23 34Q100.35 34 103.35 34.60L103.35 34.40Q103.35 31.90 102.38 30.80Q101.40 29.70 99.23 29.70Q97.05 29.70 95.60 30.07Q94.15 30.45 93.40 30.85Q91.35 32.05 90.55 32.05Q89.75 32.05 89.13 31.30Q88.50 30.55 88.50 28.97Q88.50 27.40 89.08 26.80Q89.65 26.20 90.90 25.60Q95.25 23.50 103.30 23.50M100.95 43.95Q103.15 43.95 103.20 43.10Q103.30 41.45 103.30 38.75Q103.30 37.70 101.70 37.70Q100.10 37.70 99.10 38.48Q98.10 39.25 98.10 40.75Q98.10 42.25 98.93 43.10Q99.75 43.95 100.95 43.95ZM147.55 47.60L147.60 35.40Q147.60 33.90 146.85 33.15Q146.10 32.40 144.98 32.40Q143.85 32.40 142.93 33.17Q142 33.95 142 35.35L142 38.40Q142 45 141.70 47.40Q141.55 48.25 140.85 48.90Q140.15 49.55 138.38 49.67Q136.60 49.80 134.85 49.80Q133.10 49.80 128.90 49.60Q127.70 49.55 127.00 48.90Q126.30 48.25 126.20 47.40Q125.85 44.15 125.85 37.45Q125.85 30.75 126.05 28.27Q126.25 25.80 126.80 25.05Q127.35 24.30 129.05 24.30L138.80 24.30Q140.50 24.30 141.08 25.05Q141.65 25.80 141.80 27.60L141.80 27.65Q145.65 23.65 151.18 23.65Q156.70 23.65 159.85 26.35Q163 29.05 163.08 33.80Q163.15 38.55 163.15 42.30Q163.15 46.05 163.10 47.35Q163.05 48.65 162.43 49.23Q161.80 49.80 160 49.80L150.40 49.90Q148.80 49.90 148.18 49.33Q147.55 48.75 147.55 47.60ZM185.05 31.95Q182.10 31.95 182.10 36.27Q182.10 40.60 184.95 40.60Q186.20 40.60 187.13 39.92Q188.05 39.25 188.05 38L188.05 34.55Q188.05 33.35 187.13 32.65Q186.20 31.95 185.05 31.95M203.85 26.70L203.95 42.05Q203.95 47.05 203.90 49.65Q203.85 52.25 202.40 54.35Q200.95 56.45 198.45 57.65Q193.55 59.90 185.40 59.90Q177.25 59.90 172.05 57.70Q170.80 57.15 170.22 56.52Q169.65 55.90 169.65 54.33Q169.65 52.75 170.28 52Q170.90 51.25 171.75 51.25Q172.60 51.25 173.85 51.85Q177.70 53.75 181.55 53.75Q183.30 53.75 184.70 53.38Q186.10 53 187.18 51.85Q188.25 50.70 188.25 48.90L188.20 46.25Q188.20 45.75 187.90 45.75Q187.75 45.75 187.60 45.90Q183.60 49.75 178.80 49.75Q174 49.75 170.78 46.70Q167.55 43.65 167.55 37.05Q167.55 30.45 171.35 27.07Q175.15 23.70 180.65 23.70Q186.15 23.70 188.80 27.15Q188.85 25.85 189.75 25.15Q190.65 24.45 191.75 24.35Q192.85 24.25 195.75 24.25L201.05 24.35Q202 24.35 202.93 25.02Q203.85 25.70 203.85 26.70ZM224.65 37.25Q224.65 42.85 227.60 42.85Q230.55 42.85 230.55 37.25Q230.55 34.70 229.95 33.33Q229.35 31.95 227.60 31.95Q225.85 31.95 225.25 33.33Q224.65 34.70 224.65 37.25M246.25 37.25Q246.25 50.85 227.60 50.85Q208.95 50.85 208.95 37.25Q208.95 30.80 213.70 27.25Q218.45 23.70 227.60 23.70Q236.75 23.70 241.50 27.25Q246.25 30.80 246.25 37.25Z"/></g></g></svg>