<svg xmlns="http://www.w3.org/2000/svg" viewBox="0 32.810001373291016 168.85000610351562 36.869998931884766" data-asc="1.3798828125" width="168.85000610351562" height="36.869998931884766"><defs/><g fill="#000000"><g transform="translate(0, 0)"><path d="M5.62 51.05Q5.62 54.32 6.81 57.09Q8.01 59.86 10.11 61.77Q14.55 65.80 21.51 65.80Q28.47 65.80 33.76 60.50Q34.35 59.91 34.80 59.91Q35.25 59.91 35.66 60.25Q36.06 60.60 36.06 61.08Q36.06 61.57 35.79 62.18L35.82 62.18Q33.98 65.41 29.70 67.54Q25.42 69.68 20.92 69.68Q16.43 69.68 12.74 68.53Q9.06 67.38 6.21 65.26Q3.37 63.13 1.68 59.83Q0 56.52 0 52.38Q0 48.24 1.59 44.81Q3.17 41.38 5.96 39.14Q11.67 34.50 20.53 34.50Q25.24 34.50 29.44 35.96Q31.59 36.72 32.95 38.12Q34.30 39.53 34.30 41.33Q34.30 43.14 33.18 44.02Q32.06 44.90 30.54 44.90Q29.03 44.90 28.32 44.65Q28.05 40.84 26.12 38.99Q24.19 37.13 20.31 37.13Q13.70 37.13 9.66 40.98Q5.62 44.82 5.62 51.05ZM48.95 69.60Q43.43 69.60 40.06 66.13Q36.69 62.65 36.69 57.30Q36.69 53.74 38.48 50.95Q40.26 48.17 43.30 46.69Q46.34 45.21 50.07 45.21Q55.44 45.21 58.94 48.56Q62.43 51.90 62.43 57.20Q62.43 60.86 60.63 63.71Q58.84 66.55 55.79 68.08Q52.73 69.60 48.95 69.60M49.95 66.89Q49.95 66.89 51.77 66.89Q53.59 66.89 55.63 64.43Q57.67 61.96 57.67 57.86Q57.67 53.76 55.32 50.78Q52.98 47.80 49.30 47.80Q45.63 47.80 43.65 50.32Q41.67 52.83 41.67 56.91Q41.67 60.99 43.99 63.94Q46.31 66.89 49.95 66.89ZM71.78 68.99L69.68 69.02Q66.48 69.02 65.72 68.04Q65.38 67.60 65.38 66.98Q65.38 66.36 65.87 66.11Q66.36 65.87 66.96 65.84Q67.55 65.82 68.04 65.47Q68.53 65.11 68.53 64.33L68.53 52.27Q68.53 50.10 68.01 49.58Q67.48 49.07 67.13 48.93Q66.77 48.78 66.02 48.56Q65.26 48.34 64.78 48.12Q64.31 47.90 64.31 47.46Q64.31 45.51 69.56 45.51Q71.78 45.51 72.38 46.28Q72.97 47.05 72.97 49.83Q73.80 47.73 75.72 46.53Q77.64 45.34 79.65 45.34Q81.67 45.34 82.97 46.20Q84.28 47.07 84.28 48.40Q84.28 49.73 83.42 50.52Q82.57 51.32 81.32 51.32Q80.08 51.32 79.19 50.66Q78.30 50 78.03 48.95Q77.39 48.85 76.98 48.85Q73.17 48.85 73.17 57.62L73.17 64.33Q73.17 65.75 74.74 65.83Q76.32 65.92 76.32 67.09Q76.32 68.43 74.85 68.75Q73.73 68.99 71.78 68.99ZM106.76 58.42Q106.76 55.93 105.83 53.63Q104.91 51.32 103.11 49.78Q101.32 48.24 99.10 48.24Q96.04 48.24 93.46 50.63L93.46 64.09Q96.36 66.38 99.71 66.38Q103.05 66.38 104.91 64.18Q106.76 61.99 106.76 58.42M89.77 69.19Q88.82 69.19 88.82 66.97L88.82 38.55Q88.82 36.33 87.06 36.16Q86.89 36.13 86.62 36.11Q86.35 36.08 86.23 36.07Q86.11 36.06 85.93 36.02Q85.74 35.99 85.66 35.94Q85.57 35.89 85.50 35.82Q85.33 35.67 85.33 35.11Q85.33 34.55 86.08 33.94Q87.45 32.81 89.77 32.81Q92.24 32.81 92.65 33.11Q93.48 33.69 93.48 34.64L93.48 48.14Q97.12 45.04 101.76 45.04Q106.40 45.04 109.22 48.28Q112.04 51.51 112.04 56.74Q112.04 60.01 110.61 62.92Q109.18 65.82 106.60 67.63Q104.03 69.43 100.95 69.43Q96.56 69.43 92.43 66.67Q92.38 66.72 91.77 67.55Q90.58 69.19 89.77 69.19ZM118.03 66.33Q118.03 66.33 116.34 64.67Q114.65 63.01 114.65 57.52Q114.65 52.03 118.05 48.60Q121.46 45.17 126.73 45.17Q130.91 45.17 133.78 47.86Q136.65 50.56 136.65 54.64Q136.65 56.62 133.52 56.62L119.38 56.62Q119.43 60.57 121.95 63.28Q124.46 65.99 128.30 65.99Q130.83 65.99 133.23 64.50Q134.50 63.72 134.85 63.72Q135.21 63.72 135.66 64.07Q136.11 64.43 136.11 64.94Q136.11 66.28 134.39 67.42Q132.67 68.55 130.59 69.10Q128.52 69.65 126.95 69.65Q121.41 69.65 118.03 66.33M132.15 54.05Q132.10 51.25 130.69 49.49Q129.27 47.73 126.55 47.73Q123.83 47.73 121.79 49.68Q119.75 51.64 119.63 54.15L125.34 54.15Q129.15 54.15 132.15 54.05ZM146.58 68.99L144.48 69.02Q141.28 69.02 140.53 68.04Q140.19 67.60 140.19 66.98Q140.19 66.36 140.67 66.11Q141.16 65.87 141.76 65.84Q142.36 65.82 142.85 65.47Q143.33 65.11 143.33 64.33L143.33 50.39Q143.33 48.97 141.58 48.68Q140.36 48.49 140.10 48.25Q139.84 48.02 139.84 47.42Q139.84 46.83 140.70 46.34Q142.14 45.46 144.32 45.46Q146.51 45.46 147.13 46.08Q147.75 46.70 147.75 48.85Q151.10 45.07 156.96 45.07Q161.72 45.07 163.71 47.67Q165.70 50.27 165.70 55.54L165.70 64.33Q165.70 65.75 167.27 65.83Q168.85 65.92 168.85 67.09Q168.85 68.41 167.33 68.75Q166.21 68.99 164.23 68.99L162.13 69.02Q158.94 69.02 158.18 68.04Q157.84 67.60 157.84 66.98Q157.84 66.36 158.33 66.11Q158.81 65.87 159.41 65.84Q160.01 65.82 160.50 65.47Q160.99 65.11 160.99 64.33L160.99 57.23Q160.99 52.69 159.94 50.59Q158.76 48.22 155.22 48.22Q150.95 48.22 149.41 50.49Q147.97 52.64 147.97 57.35L147.97 64.33Q147.97 65.75 149.55 65.83Q151.12 65.92 151.12 67.09Q151.12 68.43 149.63 68.75Q148.56 68.99 146.58 68.99Z"/></g></g></svg>