<svg xmlns="http://www.w3.org/2000/svg" viewBox="0 10 266.20001220703125 50" data-asc="0.92" width="266.20001220703125" height="50"><defs/><g><g fill="#000000"><g transform="translate(0, 0)"><path d="M5.35 50.35Q3.80 50.35 2.40 49.92Q1 49.50 0 48.10Q0.50 45.70 1.23 42.92Q1.95 40.15 2.80 37.23Q3.65 34.30 4.53 31.48Q5.40 28.65 6.20 26.20Q7 23.75 7.65 21.90Q8.30 20.05 8.65 19.10Q8.80 18.70 9.15 17.92Q9.50 17.15 10 16.35Q10.50 15.55 11.15 14.97Q11.80 14.40 12.55 14.40Q13.25 14.40 13.95 14.90Q12.40 18.50 10.82 22.85Q9.25 27.20 7.80 31.82Q6.35 36.45 5.15 40.85Q3.95 45.25 3.15 48.85Q3.85 48.95 4.32 49Q4.80 49.05 5.30 49.05Q8.50 49.05 11.47 47.58Q14.45 46.10 17.03 43.52Q19.60 40.95 21.55 37.63Q23.50 34.30 24.57 30.57Q25.65 26.85 25.65 23.15Q25.65 19.10 24.35 16.47Q23.05 13.85 20.75 12.60Q18.45 11.35 15.40 11.35Q12.15 11.35 9.55 12.65Q6.95 13.95 5.45 16.15Q3.95 18.35 3.95 21.10Q3.95 21.70 4.03 22.15Q4.10 22.60 4.20 22.95Q2.55 22.95 1.87 22.13Q1.20 21.30 1.20 20.15Q1.20 18.40 2.43 16.63Q3.65 14.85 5.82 13.35Q8 11.85 10.85 10.92Q13.70 10 16.90 10Q21.40 10 24.13 11.82Q26.85 13.65 28.10 16.75Q29.35 19.85 29.35 23.70Q29.35 28.05 28 32.02Q26.65 36 24.28 39.33Q21.90 42.65 18.85 45.13Q15.80 47.60 12.32 48.98Q8.85 50.35 5.35 50.35ZM31.75 48.35Q30.20 48.35 29.12 47.33Q28.05 46.30 28.05 44.20Q28.05 42.40 28.85 40.33Q29.65 38.25 31.05 36.23Q32.45 34.20 34.22 32.52Q36 30.85 37.97 29.85Q39.95 28.85 41.90 28.85Q43.85 28.85 45.15 29.88Q46.45 30.90 46.45 32.60Q46.45 33.85 45.77 34.30Q45.10 34.75 44 34.75Q44.10 34.35 44.17 33.88Q44.25 33.40 44.25 33Q44.25 31.85 43.70 31.02Q43.15 30.20 41.80 30.20Q40.40 30.20 38.95 31.17Q37.50 32.15 36.15 33.77Q34.80 35.40 33.75 37.30Q32.70 39.20 32.10 41.05Q31.50 42.90 31.50 44.35Q31.50 46.30 32.85 46.30Q34 46.30 35.35 45.23Q36.70 44.15 38.13 42.48Q39.55 40.80 40.85 39Q42.15 37.20 43.15 35.70Q43.35 35.40 43.40 35.40Q43.70 35.45 44.17 35.60Q44.65 35.75 45 36Q45.35 36.25 45.35 36.65Q45.35 37.10 44.90 37.88Q44.45 38.65 43.90 39.65Q43.35 40.65 42.90 41.67Q42.45 42.70 42.45 43.60Q42.45 44.35 42.85 45.08Q43.25 45.80 44.15 45.80Q45.50 45.80 47.70 43.83Q49.90 41.85 52.15 37.90L52.65 38.40Q51.60 41.10 49.95 43.15Q48.30 45.20 46.42 46.35Q44.55 47.50 42.75 47.50Q40.90 47.50 40.02 46.40Q39.15 45.30 39.15 44Q39.15 43.70 39.20 43.33Q39.25 42.95 39.30 42.55Q37.15 45.45 35.38 46.90Q33.60 48.35 31.75 48.35ZM67.30 47Q65.55 47 64.67 46.10Q63.80 45.20 63.80 43.80Q63.80 42.75 64.17 41.60Q64.55 40.45 64.90 39.23Q65.25 38 65.25 36.85Q65.25 35.45 64.67 34.92Q64.10 34.40 63.25 34.40Q61.70 34.40 60.10 35.67Q58.50 36.95 57 38.92Q55.50 40.90 54.20 43Q52.90 45.10 51.90 46.75Q51.10 46.75 50.38 46.48Q49.65 46.20 49.25 45.65Q49.25 45.40 49.77 44.10Q50.30 42.80 51 40.90Q51.70 39 52.25 37Q52.80 35 52.80 33.35Q53.10 33 53.75 32.65Q54.40 32.30 55.10 32.30Q56.45 32.30 56.45 33.60Q56.45 34.40 56 36.27Q55.55 38.15 54.85 40.20Q56.20 38.15 57.88 36.13Q59.55 34.10 61.45 32.75Q63.35 31.40 65.25 31.40Q67.20 31.40 68.08 32.80Q68.95 34.20 68.95 35.90Q68.95 37.45 68.45 38.77Q67.95 40.10 67.42 41.33Q66.90 42.55 66.90 43.80Q66.90 44.85 67.33 45.27Q67.75 45.70 68.40 45.70Q69.65 45.70 70.90 44.52Q72.15 43.35 73.33 41.55Q74.50 39.75 75.40 37.90L75.95 38.55Q74.90 41 73.60 42.90Q72.30 44.80 70.75 45.90Q69.20 47 67.30 47ZM79.80 48.80Q77.40 48.80 75.80 47.20Q74.20 45.60 74.20 42.40Q74.20 39.90 75.17 37.52Q76.15 35.15 77.75 33.25Q79.35 31.35 81.30 30.23Q83.25 29.10 85.15 29.10Q87.20 29.10 87.95 30.30Q88.70 31.50 88.70 32.80Q88.70 34.25 88.03 35.35Q87.35 36.45 86.20 36.45Q85.35 36.45 84.75 35.70Q85.50 35.30 86.05 34.08Q86.60 32.85 86.60 31.75Q86.60 31.15 86.38 30.82Q86.15 30.50 85.50 30.50Q84.15 30.50 82.73 31.70Q81.30 32.90 80.08 34.80Q78.85 36.70 78.08 38.80Q77.30 40.90 77.30 42.75Q77.30 44.30 78.05 45.60Q78.80 46.90 80.95 46.90Q82.95 46.90 84.98 45.80Q87 44.70 88.75 42.65Q90.50 40.60 91.55 37.85L92.20 38.35Q91.05 41.35 89.05 43.73Q87.05 46.10 84.65 47.45Q82.25 48.80 79.80 48.80ZM94.20 47.30Q92.25 47.30 91.30 46.08Q90.35 44.85 90.35 43.10Q90.35 41.95 90.78 40.20Q91.20 38.45 91.90 36.52Q92.60 34.60 93.53 32.90Q94.45 31.20 95.50 30.13Q96.55 29.05 97.55 29.05Q98.00 29.05 98.33 29.32Q98.65 29.60 98.65 30.15Q98.65 30.75 97.88 32.10Q97.10 33.45 96.05 35.20Q95.00 36.95 94.23 38.88Q93.45 40.80 93.45 42.55Q93.45 44.35 94.05 44.95Q94.65 45.55 95.90 45.55Q97.60 45.55 99.53 43.85Q101.45 42.15 103.60 37.90L104.05 38.40Q102.60 42.70 99.88 45Q97.15 47.30 94.20 47.30M100.20 24.40Q99.40 24.40 98.78 24Q98.15 23.60 98.15 22.75Q98.15 21.70 99.38 20.92Q100.60 20.15 101.80 20.15Q102.55 20.15 103.00 20.50Q103.45 20.85 103.45 21.70Q103.45 22.65 102.43 23.52Q101.40 24.40 100.20 24.40ZM118.80 47Q117.05 47 116.18 46.10Q115.30 45.20 115.30 43.80Q115.30 42.75 115.68 41.60Q116.05 40.45 116.40 39.23Q116.75 38 116.75 36.85Q116.75 35.45 116.18 34.92Q115.60 34.40 114.75 34.40Q113.20 34.40 111.60 35.67Q110 36.95 108.50 38.92Q107 40.90 105.70 43Q104.40 45.10 103.40 46.75Q102.60 46.75 101.88 46.48Q101.15 46.20 100.75 45.65Q100.75 45.40 101.28 44.10Q101.80 42.80 102.50 40.90Q103.20 39 103.75 37Q104.30 35 104.30 33.35Q104.60 33 105.25 32.65Q105.90 32.30 106.60 32.30Q107.95 32.30 107.95 33.60Q107.95 34.40 107.50 36.27Q107.05 38.15 106.35 40.20Q107.70 38.15 109.38 36.13Q111.05 34.10 112.95 32.75Q114.85 31.40 116.75 31.40Q118.70 31.40 119.58 32.80Q120.45 34.20 120.45 35.90Q120.45 37.45 119.95 38.77Q119.45 40.10 118.93 41.33Q118.40 42.55 118.40 43.80Q118.40 44.85 118.83 45.27Q119.25 45.70 119.90 45.70Q121.15 45.70 122.40 44.52Q123.65 43.35 124.83 41.55Q126 39.75 126.90 37.90L127.45 38.55Q126.40 41 125.10 42.90Q123.80 44.80 122.25 45.90Q120.70 47 118.80 47ZM127.85 60Q126.75 60 125.85 59.33Q124.95 58.65 124.95 57.10Q124.95 55.60 125.88 54.33Q126.80 53.05 128.25 51.98Q129.70 50.90 131.43 50Q133.15 49.10 134.70 48.30Q135.40 46.55 136.03 44.52Q136.65 42.50 137.25 40.05Q135.35 42.80 133.28 44.63Q131.20 46.45 129.10 46.45Q127.30 46.45 126.33 45.10Q125.35 43.75 125.35 41.60Q125.35 39 126.63 36.65Q127.90 34.30 129.95 32.50Q132 30.70 134.30 29.68Q136.60 28.65 138.60 28.65Q140.05 28.65 140.68 29.13Q141.30 29.60 141.30 30.25Q141.30 30.70 141.05 30.95Q140.80 31.20 140.70 31.25Q140.45 30.85 139.95 30.67Q139.45 30.50 138.70 30.50Q136.75 30.50 134.93 31.65Q133.10 32.80 131.70 34.60Q130.30 36.40 129.47 38.33Q128.65 40.25 128.65 41.85Q128.65 43.05 129.13 43.67Q129.60 44.30 130.40 44.30Q131.85 44.30 133.88 42.38Q135.90 40.45 137.80 37.70Q137.95 37 138.07 36.45Q138.20 35.90 138.40 35.05Q138.55 34.35 139.13 33.42Q139.70 32.50 140.95 32.50Q141.20 32.50 141.45 32.52Q141.70 32.55 142 32.65Q142 33.45 141.53 35.58Q141.05 37.70 140.18 40.52Q139.30 43.35 138.15 46.35Q139.80 45.55 141.38 44.30Q142.95 43.05 144.25 41.42Q145.55 39.80 146.30 37.90L146.95 38.40Q146.20 40.65 144.55 42.50Q142.90 44.35 141.03 45.70Q139.15 47.05 137.60 47.80Q136.20 51.15 134.65 53.92Q133.10 56.70 131.43 58.35Q129.75 60 127.85 60M127.70 58.40Q128.70 58.40 130.43 56.42Q132.15 54.45 134.15 49.65Q132.15 50.65 130.43 51.73Q128.70 52.80 127.60 54Q126.50 55.20 126.50 56.65Q126.50 57.45 126.85 57.92Q127.20 58.40 127.70 58.40ZM168.55 50.35Q165.85 50.35 163.45 49.38Q161.05 48.40 159.58 46.40Q158.10 44.40 158.10 41.40Q158.10 38.80 159.13 37.35Q160.15 35.90 161.65 35.30Q163.15 34.70 164.50 34.70Q163.15 36.15 162.45 37.90Q161.75 39.65 161.75 41.40Q161.75 43.25 162.58 44.85Q163.40 46.45 165.10 47.42Q166.80 48.40 169.40 48.40Q171.65 48.40 173.80 47.58Q175.95 46.75 177.33 45.13Q178.70 43.50 178.70 41.10Q178.70 38.95 177.60 37.40Q176.50 35.85 174.78 34.65Q173.05 33.45 171.10 32.35Q169.15 31.25 167.43 30.02Q165.70 28.80 164.60 27.20Q163.50 25.60 163.50 23.35Q163.50 21.25 164.50 18.95Q165.50 16.65 167.38 14.60Q169.25 12.55 171.88 11.27Q174.50 10 177.75 10Q180.70 10 181.85 11.42Q183 12.85 183 15Q183 16.80 182.38 18.88Q181.75 20.95 180.85 22.82Q179.95 24.70 179.15 26Q178.25 25.80 177.88 25.22Q177.50 24.65 177.50 23.85Q177.50 22.80 177.95 21.45Q178.40 20.10 178.98 18.65Q179.55 17.20 180 15.82Q180.45 14.45 180.45 13.35Q180.45 12.35 179.85 11.77Q179.25 11.20 177.65 11.20Q175.30 11.20 173.30 12.30Q171.30 13.40 169.80 15.13Q168.30 16.85 167.47 18.75Q166.65 20.65 166.65 22.20Q166.65 24.05 167.72 25.38Q168.80 26.70 170.50 27.77Q172.20 28.85 174.13 29.93Q176.05 31 177.75 32.30Q179.45 33.60 180.53 35.38Q181.60 37.15 181.60 39.70Q181.60 42.30 180.45 44.27Q179.30 46.25 177.38 47.60Q175.45 48.95 173.15 49.65Q170.85 50.35 168.55 50.35ZM190.55 48.80Q188.15 48.80 186.55 47.20Q184.95 45.60 184.95 42.40Q184.95 39.90 185.93 37.52Q186.90 35.15 188.50 33.25Q190.10 31.35 192.05 30.23Q194.00 29.10 195.90 29.10Q197.95 29.10 198.70 30.30Q199.45 31.50 199.45 32.80Q199.45 34.25 198.78 35.35Q198.10 36.45 196.95 36.45Q196.10 36.45 195.50 35.70Q196.25 35.30 196.80 34.08Q197.35 32.85 197.35 31.75Q197.35 31.15 197.13 30.82Q196.90 30.50 196.25 30.50Q194.90 30.50 193.48 31.70Q192.05 32.90 190.83 34.80Q189.60 36.70 188.83 38.80Q188.05 40.90 188.05 42.75Q188.05 44.30 188.80 45.60Q189.55 46.90 191.70 46.90Q193.70 46.90 195.73 45.80Q197.75 44.70 199.50 42.65Q201.25 40.60 202.30 37.85L202.95 38.35Q201.80 41.35 199.80 43.73Q197.80 46.10 195.40 47.45Q193.00 48.80 190.55 48.80ZM210.00 47.30Q208.30 47.30 207.33 46.40Q206.35 45.50 206.35 44.05Q206.35 42.55 207.05 40.90Q207.75 39.25 208.43 37.63Q209.10 36 209.10 34.70Q209.10 33.10 208.18 32.33Q207.25 31.55 206.30 30.90Q205.15 33.85 203.90 36.50Q202.65 39.15 201.85 40.50L201.40 39.65Q202.10 38.35 203.23 35.85Q204.35 33.35 205.45 30.15Q204.95 29.65 204.95 28.95Q204.95 27.45 205.80 26.50Q206.65 25.55 207.05 25.55Q207.60 25.55 207.68 26.02Q207.75 26.50 207.75 26.75Q207.75 27 207.48 27.72Q207.20 28.45 207.20 28.60Q207.20 29.30 207.98 29.88Q208.75 30.45 209.75 31.17Q210.75 31.90 211.53 32.92Q212.30 33.95 212.30 35.55Q212.30 37.05 211.68 38.60Q211.05 40.15 210.43 41.55Q209.80 42.95 209.80 44Q209.80 44.90 210.25 45.20Q210.70 45.50 211.30 45.50Q212.50 45.50 213.78 44.75Q215.05 44 216.25 42.85Q217.45 41.70 218.40 40.42Q219.35 39.15 219.80 38.05L220.45 38.55Q219.50 40.65 217.85 42.67Q216.20 44.70 214.18 46Q212.15 47.30 210.00 47.30ZM222.35 47.30Q220.40 47.30 219.45 46.08Q218.50 44.85 218.50 43.10Q218.50 41.95 218.93 40.20Q219.35 38.45 220.05 36.52Q220.75 34.60 221.68 32.90Q222.60 31.20 223.65 30.13Q224.70 29.05 225.70 29.05Q226.15 29.05 226.48 29.32Q226.80 29.60 226.80 30.15Q226.80 30.75 226.03 32.10Q225.25 33.45 224.20 35.20Q223.15 36.95 222.38 38.88Q221.60 40.80 221.60 42.55Q221.60 44.35 222.20 44.95Q222.80 45.55 224.05 45.55Q225.75 45.55 227.68 43.85Q229.60 42.15 231.75 37.90L232.20 38.40Q230.75 42.70 228.03 45Q225.30 47.30 222.35 47.30M228.35 24.40Q227.55 24.40 226.93 24Q226.30 23.60 226.30 22.75Q226.30 21.70 227.53 20.92Q228.75 20.15 229.95 20.15Q230.70 20.15 231.15 20.50Q231.60 20.85 231.60 21.70Q231.60 22.65 230.58 23.52Q229.55 24.40 228.35 24.40ZM227.65 60Q227.25 60 226.88 59.58Q226.50 59.15 226.30 58.67Q226.10 58.20 226.10 58.10Q226.80 55.65 227.48 53.73Q228.15 51.80 228.83 49.77Q229.50 47.75 230.15 45.02Q230.80 42.30 231.50 38.25Q232.20 34.20 232.90 28.20Q232.95 27.75 233.10 27.55Q233.25 27.35 233.85 27.35Q235.15 27.35 235.70 28.07Q236.25 28.80 236.25 29.65Q236.25 30.35 235.95 32.15Q235.65 33.95 235.10 36.40Q235.95 34.75 237.23 33.05Q238.50 31.35 240.15 30.20Q241.80 29.05 243.75 29.05Q245.95 29.05 247.38 30.63Q248.80 32.20 248.80 34.75Q248.80 36.70 247.93 38.88Q247.05 41.05 245.48 42.98Q243.90 44.90 241.75 46.10Q239.60 47.30 237.00 47.30Q235.70 47.30 234.90 47Q234.10 46.70 234.10 46.40Q234.10 46.20 234.48 46.17Q234.85 46.15 235.35 46.15Q237.35 46.15 239.18 45.17Q241.00 44.20 242.45 42.60Q243.90 41 244.73 39.05Q245.55 37.10 245.55 35.20Q245.55 33.60 244.88 32.48Q244.20 31.35 242.70 31.35Q241.40 31.35 240.13 32.17Q238.85 33 237.73 34.27Q236.60 35.55 235.73 36.92Q234.85 38.30 234.40 39.40Q233.50 43.15 232.60 46.63Q231.70 50.10 230.88 52.92Q230.05 55.75 229.38 57.55Q228.70 59.35 228.25 59.75Q228.00 60 227.65 60ZM254.60 48.30Q252.45 48.30 251.30 47.05Q250.15 45.80 250.15 43.35Q250.15 41.15 250.98 37.92Q251.80 34.70 253.05 31.30Q252.55 31.20 252.10 31.13Q251.65 31.05 251.25 30.90L251.25 30Q251.65 30.05 252.20 30.10Q252.75 30.15 253.45 30.20Q254.50 27.50 255.70 24.97Q256.90 22.45 258.08 20.47Q259.25 18.50 260.33 17.32Q261.40 16.15 262.15 16.15Q262.55 16.15 262.88 16.42Q263.20 16.70 263.20 17.25Q263.20 18.10 262.15 20.02Q261.10 21.95 259.55 24.60Q258.00 27.25 256.55 30.35Q257.00 30.35 257.48 30.35Q257.95 30.35 258.40 30.35Q260.05 30.35 261.88 30.30Q263.70 30.25 265.55 30.05L265.55 30.95Q262.80 31.25 260.63 31.40Q258.45 31.55 256.75 31.55Q256.55 31.55 256.38 31.55Q256.20 31.55 256.00 31.55Q254.85 34.20 254.05 37Q253.25 39.80 253.25 42.45Q253.25 44.60 253.90 45.52Q254.55 46.45 256.05 46.45Q258.65 46.45 261.15 44.15Q263.65 41.85 265.55 37.90L266.20 38.40Q265.00 41.20 263.18 43.45Q261.35 45.70 259.15 47Q256.95 48.30 254.60 48.30Z"/></g></g></g></svg>