<svg xmlns="http://www.w3.org/2000/svg" viewBox="0 14 191.30209350585938 36.20000076293945" data-asc="0.992" width="191.30209350585938" height="36.20000076293945"><defs/><g fill="#000000"><g transform="translate(0, 0)"><path d="M0 49.60L0 14.60L9.90 14.60Q16.10 14.60 20.08 16.70Q24.05 18.80 25.98 22.75Q27.90 26.70 27.90 32.20Q27.90 37.60 25.98 41.50Q24.05 45.40 20.08 47.50Q16.10 49.60 9.90 49.60L0 49.60M3.50 46.70L9.90 46.70Q15.20 46.70 18.35 44.95Q21.50 43.20 22.90 39.95Q24.30 36.70 24.30 32.20Q24.30 27.65 22.90 24.35Q21.50 21.05 18.35 19.27Q15.20 17.50 9.90 17.50L3.50 17.50L3.50 46.70ZM34.25 49.60L34.25 14.60L38.25 14.60L51.15 39.85L51.15 39.85L64 14.60L68.05 14.60L68.05 49.60L64.55 49.60L64.55 21L64.55 21L52.45 44.70L49.85 44.70L37.75 21.10L37.75 21.10L37.75 49.60L34.25 49.60ZM100.50 50.20Q96.65 50.20 93.83 48.80Q91 47.40 89.50 44.88Q88 42.35 88 39.10L91.65 39.10Q91.65 41.30 92.65 43.15Q93.65 45 95.60 46.13Q97.55 47.25 100.50 47.25Q103.10 47.25 104.88 46.38Q106.65 45.50 107.60 44.05Q108.55 42.60 108.55 40.75Q108.55 38.55 107.63 37.20Q106.70 35.85 105.10 35Q103.50 34.15 101.48 33.53Q99.45 32.90 97.20 32.15Q93.15 30.75 91.25 28.70Q89.35 26.65 89.30 23.45Q89.30 20.70 90.58 18.57Q91.85 16.45 94.30 15.23Q96.75 14 100.10 14Q103.35 14 105.78 15.23Q108.20 16.45 109.55 18.63Q110.90 20.80 110.90 23.60L107.30 23.60Q107.30 22 106.48 20.48Q105.65 18.95 104.03 17.98Q102.40 17 99.90 17Q97.85 17 96.28 17.73Q94.70 18.45 93.80 19.82Q92.90 21.20 92.90 23.05Q92.90 24.85 93.70 26Q94.50 27.15 95.95 27.90Q97.40 28.65 99.35 29.27Q101.30 29.90 103.70 30.70Q106.15 31.55 108.05 32.75Q109.95 33.95 111.05 35.83Q112.15 37.70 112.15 40.55Q112.15 43 110.88 45.20Q109.60 47.40 107 48.80Q104.40 50.20 100.50 50.20ZM126.10 50.20Q123.05 50.20 121.03 49.10Q119 48 118.03 46.25Q117.05 44.50 117.05 42.40Q117.05 39.80 118.38 38Q119.70 36.20 122.13 35.30Q124.55 34.40 127.70 34.40L134.50 34.40Q134.50 31.95 133.75 30.25Q133 28.55 131.57 27.68Q130.15 26.80 127.95 26.80Q125.35 26.80 123.50 28.10Q121.65 29.40 121.20 31.90L117.55 31.90Q117.85 29.25 119.38 27.45Q120.90 25.65 123.17 24.73Q125.45 23.80 127.95 23.80Q131.40 23.80 133.63 25.13Q135.85 26.45 136.93 28.75Q138 31.05 138 34.05L138 49.60L134.80 49.60L134.65 45L134.65 45Q134.15 46.05 133.38 47Q132.60 47.95 131.57 48.65Q130.55 49.35 129.20 49.77Q127.85 50.20 126.10 50.20M126.50 47.10Q128.40 47.10 129.85 46.35Q131.30 45.60 132.35 44.35Q133.40 43.10 133.95 41.50Q134.50 39.90 134.50 38.25L134.50 37.35L127.95 37.35Q125.30 37.35 123.70 38Q122.10 38.65 121.40 39.75Q120.70 40.85 120.70 42.30Q120.70 43.75 121.38 44.83Q122.05 45.90 123.35 46.50Q124.65 47.10 126.50 47.10ZM144.60 49.60L144.60 24.40L147.80 24.40L148 28.90L148 28.90Q149.20 26.50 151.48 25.15Q153.75 23.80 156.55 23.80Q159.45 23.80 161.60 24.95Q163.75 26.10 164.95 28.43Q166.15 30.75 166.15 34.35L166.15 49.60L162.65 49.60L162.65 34.75Q162.65 30.75 160.90 28.80Q159.15 26.85 155.95 26.85Q153.70 26.85 151.93 27.93Q150.15 29 149.13 31.05Q148.10 33.10 148.10 36.10L148.10 49.60L144.60 49.60ZM182.00 50.20Q179.00 50.20 176.73 49.20Q174.45 48.20 173.08 46.33Q171.70 44.45 171.40 41.85L175.05 41.85Q175.30 43.30 176.18 44.50Q177.05 45.70 178.55 46.40Q180.05 47.10 182.10 47.10Q184.00 47.10 185.23 46.55Q186.45 46 187.08 45.02Q187.70 44.05 187.70 42.85Q187.70 41.20 186.93 40.27Q186.15 39.35 184.70 38.90Q183.25 38.45 181.20 38.05Q179.50 37.75 177.98 37.25Q176.45 36.75 175.23 35.95Q174.00 35.15 173.28 33.92Q172.55 32.70 172.55 31.05Q172.55 28.90 173.63 27.27Q174.70 25.65 176.70 24.73Q178.70 23.80 181.40 23.80Q185.25 23.80 187.70 25.73Q190.15 27.65 190.55 31.35L187.05 31.35Q186.85 29.30 185.35 28.10Q183.85 26.90 181.30 26.90Q178.80 26.90 177.48 27.93Q176.15 28.95 176.15 30.70Q176.15 31.80 176.85 32.60Q177.55 33.40 178.93 33.98Q180.30 34.55 182.30 34.95Q184.70 35.40 186.73 36.13Q188.75 36.85 190.03 38.33Q191.30 39.80 191.30 42.50Q191.35 44.75 190.20 46.50Q189.05 48.25 186.98 49.23Q184.90 50.20 182.00 50.20Z"/></g></g></svg>