<svg xmlns="http://www.w3.org/2000/svg" viewBox="0 14 193.5 36.20000076293945" data-asc="0.992" width="193.5" height="36.20000076293945"><defs/><g><g fill="#000000"><g transform="translate(0, 0)"><path d="M0 49.60L0 14.60L10.30 14.60Q16.45 14.60 20.45 16.73Q24.45 18.85 26.38 22.77Q28.30 26.70 28.30 32.20Q28.30 37.60 26.38 41.50Q24.45 45.40 20.45 47.50Q16.45 49.60 10.30 49.60L0 49.60M4.20 46.10L10.20 46.10Q15.30 46.10 18.33 44.42Q21.35 42.75 22.65 39.63Q23.95 36.50 23.95 32.20Q23.95 27.80 22.65 24.65Q21.35 21.50 18.33 19.80Q15.30 18.10 10.20 18.10L4.20 18.10L4.20 46.10ZM34.40 49.60L34.40 14.60L39.30 14.60L51.70 39.05L51.70 39.05L64.05 14.60L69 14.60L69 49.60L64.80 49.60L64.80 22.10L64.80 22.10L53.25 44.70L50.10 44.70L38.60 22.20L38.60 22.20L38.60 49.60L34.40 49.60ZM100.95 50.20Q97.10 50.20 94.25 48.80Q91.40 47.40 89.85 44.90Q88.30 42.40 88.30 39.10L92.70 39.10Q92.70 41.15 93.65 42.88Q94.60 44.60 96.42 45.63Q98.25 46.65 100.95 46.65Q103.30 46.65 104.97 45.88Q106.65 45.10 107.53 43.75Q108.40 42.40 108.40 40.70Q108.40 38.65 107.53 37.38Q106.65 36.10 105.15 35.30Q103.65 34.50 101.67 33.88Q99.70 33.25 97.55 32.50Q93.40 31.10 91.45 29.02Q89.50 26.95 89.50 23.60Q89.50 20.75 90.83 18.60Q92.15 16.45 94.63 15.23Q97.10 14 100.50 14Q103.85 14 106.33 15.25Q108.80 16.50 110.20 18.68Q111.60 20.85 111.60 23.70L107.20 23.70Q107.20 22.25 106.45 20.85Q105.70 19.45 104.17 18.52Q102.65 17.60 100.35 17.60Q98.45 17.55 96.97 18.23Q95.50 18.90 94.67 20.15Q93.85 21.40 93.85 23.20Q93.85 24.90 94.58 25.95Q95.30 27 96.67 27.73Q98.05 28.45 99.90 29.05Q101.75 29.65 104 30.40Q106.55 31.25 108.53 32.48Q110.50 33.70 111.63 35.60Q112.75 37.50 112.75 40.45Q112.75 42.95 111.42 45.18Q110.10 47.40 107.50 48.80Q104.90 50.20 100.95 50.20ZM126.75 50.20Q123.70 50.20 121.65 49.13Q119.60 48.05 118.60 46.27Q117.60 44.50 117.60 42.40Q117.60 39.85 118.92 38.08Q120.25 36.30 122.67 35.38Q125.10 34.45 128.40 34.45L135.05 34.45Q135.05 32.10 134.32 30.53Q133.60 28.95 132.22 28.15Q130.85 27.35 128.80 27.35Q126.40 27.35 124.65 28.55Q122.90 29.75 122.50 32.10L118.20 32.10Q118.50 29.40 120.02 27.57Q121.55 25.75 123.90 24.77Q126.25 23.80 128.80 23.80Q132.30 23.80 134.63 25.07Q136.95 26.35 138.10 28.63Q139.25 30.90 139.25 34L139.25 49.60L135.50 49.60L135.25 45.15L135.25 45.15Q134.75 46.20 133.97 47.13Q133.20 48.05 132.18 48.73Q131.15 49.40 129.80 49.80Q128.45 50.20 126.75 50.20M127.40 46.65Q129.15 46.65 130.57 45.93Q132 45.20 133 43.92Q134 42.65 134.53 41.10Q135.05 39.55 135.05 37.85L135.05 37.70L128.75 37.70Q126.30 37.70 124.80 38.27Q123.30 38.85 122.65 39.88Q122 40.90 122 42.20Q122 43.55 122.63 44.55Q123.25 45.55 124.47 46.10Q125.70 46.65 127.40 46.65ZM145.75 49.60L145.75 24.40L149.55 24.40L149.75 28.80L149.75 28.80Q150.95 26.45 153.18 25.13Q155.40 23.80 158.25 23.80Q161.20 23.80 163.35 24.98Q165.50 26.15 166.70 28.52Q167.90 30.90 167.90 34.55L167.90 49.60L163.70 49.60L163.70 35Q163.70 31.20 162.03 29.30Q160.35 27.40 157.30 27.40Q155.20 27.40 153.55 28.43Q151.90 29.45 150.93 31.38Q149.95 33.30 149.95 36.15L149.95 49.60L145.75 49.60ZM183.95 50.20Q180.85 50.20 178.50 49.15Q176.15 48.10 174.77 46.23Q173.40 44.35 173.10 41.80L177.40 41.80Q177.65 43.10 178.45 44.20Q179.25 45.30 180.63 45.98Q182 46.65 184 46.65Q185.75 46.65 186.90 46.13Q188.05 45.60 188.63 44.70Q189.20 43.80 189.20 42.75Q189.20 41.20 188.47 40.40Q187.75 39.60 186.35 39.13Q184.95 38.65 182.95 38.30Q181.30 38 179.70 37.50Q178.10 37 176.85 36.17Q175.60 35.35 174.88 34.15Q174.15 32.95 174.15 31.20Q174.15 29.05 175.27 27.38Q176.40 25.70 178.45 24.75Q180.50 23.80 183.25 23.80Q187.30 23.80 189.80 25.75Q192.30 27.70 192.75 31.40L188.60 31.40Q188.35 29.50 186.97 28.43Q185.60 27.35 183.20 27.35Q180.85 27.35 179.63 28.30Q178.40 29.25 178.40 30.80Q178.40 31.80 179.07 32.58Q179.75 33.35 181.10 33.90Q182.45 34.45 184.35 34.80Q186.85 35.25 188.90 36Q190.95 36.75 192.22 38.23Q193.50 39.70 193.50 42.40Q193.50 44.75 192.32 46.50Q191.15 48.25 189 49.23Q186.85 50.20 183.95 50.20Z"/></g></g></g></svg>