<svg xmlns="http://www.w3.org/2000/svg" viewBox="0 6.800000190734863 187.10000610351562 38.70000076293945" data-asc="0.9" width="187.10000610351562" height="38.70000076293945"><defs/><g fill="#000000"><g transform="translate(0, 0)"><path d="M9.20 42L16.95 42Q19.65 42 21.58 41.20Q23.50 40.40 24.75 38.70Q26.15 36.95 26.83 34.10Q27.50 31.25 27.50 27.30Q27.50 19.50 24.75 15.70Q23.45 13.80 21.40 12.90Q19.35 12 16.45 12L9.20 12L9.20 42M0 9L16.80 9Q24.25 9 28.40 13.20Q30.75 15.60 32 19.10Q33.25 22.60 33.25 26.60Q33.25 30.80 31.93 34.48Q30.60 38.15 28.25 40.65Q24.10 45 16.35 45L0 45L0 42.85L4.20 41.80L4.20 12.20L0 11.15L0 9ZM62.70 31.25Q62.70 34.50 61.73 37.42Q60.75 40.35 59.00 42.25Q57.50 43.90 55.30 44.70Q53.10 45.50 50.30 45.50Q47.55 45.50 45.40 44.73Q43.25 43.95 41.75 42.35Q40.05 40.50 39.13 37.77Q38.20 35.05 38.20 31.85Q38.20 28.60 39.15 25.63Q40.10 22.65 41.90 20.75Q43.50 19.05 45.63 18.27Q47.75 17.50 50.50 17.50Q53.25 17.50 55.45 18.27Q57.65 19.05 59.15 20.65Q60.90 22.50 61.80 25.27Q62.70 28.05 62.70 31.25M43.55 31.30Q43.55 34.35 44.03 36.58Q44.50 38.80 45.35 40.25Q46.20 41.50 47.38 42.20Q48.55 42.90 50.45 42.90Q53.90 42.90 55.60 40.55Q56.50 39.25 56.93 36.95Q57.35 34.65 57.35 31.65Q57.35 28.65 56.88 26.40Q56.40 24.15 55.55 22.75Q54.75 21.45 53.53 20.77Q52.30 20.10 50.40 20.10Q46.90 20.10 45.35 22.40Q43.55 25.20 43.55 31.30ZM70.65 42L70.65 21L66.80 20.05L66.80 18L74 18L75.10 23L75.30 23Q76.75 20.50 79.17 19Q81.60 17.50 84.35 17.50Q86.40 17.50 88 18.27Q89.60 19.05 90.35 20.20Q91.15 21.45 91.65 23.50Q93.25 20.70 95.80 19.10Q98.35 17.50 101.25 17.50Q103.25 17.50 104.85 18.27Q106.45 19.05 107.30 20.40Q107.90 21.35 108.25 22.85Q108.60 24.35 108.75 26.72Q108.90 29.10 108.90 32.75L108.90 42L112.75 42.95L112.75 45L100.70 45L100.70 42.95L104.05 42L104.05 30.85Q104.05 27.60 103.88 26Q103.70 24.40 103.25 23.50Q102.65 22.30 101.58 21.67Q100.50 21.05 99.05 21.05Q97.80 21.05 96.60 21.55Q95.40 22.05 94.45 22.90Q93.35 23.90 92.83 25.25Q92.30 26.60 92.20 28.65L92.20 42L95.55 42.95L95.55 45L84 45L84 42.95L87.35 42L87.35 30.85Q87.35 27.60 87.17 26Q87 24.40 86.55 23.50Q85.95 22.30 84.88 21.67Q83.80 21.05 82.35 21.05Q81.10 21.05 79.90 21.55Q78.70 22.05 77.75 22.90Q76.65 23.90 76.13 25.25Q75.60 26.60 75.50 28.65L75.50 42L78.85 42.95L78.85 45L66.80 45L66.80 42.95L70.65 42ZM119.40 21L115.55 20.05L115.55 18L124.25 18L124.25 42L128.10 42.95L128.10 45L115.55 45L115.55 42.95L119.40 42L119.40 21M118.70 9.95Q118.70 8.50 119.55 7.65Q120.40 6.80 121.80 6.80Q123.25 6.80 124.10 7.65Q124.95 8.50 124.95 9.95Q124.95 11.35 124.10 12.20Q123.25 13.05 121.80 13.05Q120.35 13.05 119.53 12.23Q118.70 11.40 118.70 9.95ZM135 42L135 21L131.15 20.05L131.15 18L138.35 18L139.45 23L139.65 23Q141.15 20.45 143.70 18.97Q146.25 17.50 149.15 17.50Q153.30 17.50 155.30 20.20Q156.30 21.60 156.72 24.13Q157.15 26.65 157.15 30.95L157.15 42L161 42.95L161 45L148.95 45L148.95 42.95L152.30 42L152.30 30.85Q152.30 27.60 152.13 26Q151.95 24.40 151.50 23.50Q150.90 22.30 149.78 21.67Q148.65 21.05 147.10 21.05Q144.20 21.05 142.10 22.90Q140.05 24.75 139.85 28.65L139.85 42L143.20 42.95L143.20 45L131.15 45L131.15 42.95L135 42ZM186.95 31.80L169.50 31.80Q169.50 35.45 170.50 37.85Q171.50 40.15 173.35 41.15Q175.20 42.15 177.35 42.15Q179.70 42.15 181.65 41.17Q183.60 40.20 185.15 38.50L186.75 39.70Q185 42.10 182.50 43.80Q180 45.50 176.05 45.50Q172.60 45.50 169.95 44.02Q167.30 42.55 165.90 39.70Q165.15 38.15 164.80 36.25Q164.45 34.35 164.45 32.20Q164.45 25.20 167.67 21.35Q170.90 17.50 176.45 17.50Q181.55 17.50 184.32 20.67Q187.10 23.85 187.10 29.45Q187.10 29.95 187.07 30.38Q187.05 30.80 186.95 31.80M176.15 20.20Q170.15 20.20 169.55 29.35L182.05 29.35L182.05 27.70Q182.05 24.10 180.53 22.15Q179 20.20 176.15 20.20Z"/></g></g></svg>