<svg xmlns="http://www.w3.org/2000/svg" viewBox="0 0.42000001668930054 200.0800018310547 50.35000228881836" data-asc="0.79" width="200.0800018310547" height="50.35000228881836"><defs/><g fill="#000000"><g transform="translate(0, 0)"><path d="M1.70 5.35L3.10 3.63L3.10 20.72L2.30 19.63L17.13 19.63L17.13 22.38L2.30 22.38L3.10 21.27L3.10 38.50L1.70 36.77L19.40 36.77L19.40 39.50L0 39.50L0 2.63L19.40 2.63L19.40 5.35L1.70 5.35ZM27.45 50.42L27.45 12.95L30.55 12.95L30.55 50.42L27.45 50.42M39.70 39.98Q36.65 39.98 34.05 38.50Q31.45 37.02 29.86 34.50Q28.27 31.98 28.27 28.82Q28.27 28.75 28.27 28.70Q28.27 28.65 28.27 28.60L30.55 28.55Q30.55 28.60 30.55 28.65Q30.55 28.70 30.55 28.75Q30.55 31 31.77 32.90Q33 34.80 34.99 35.92Q36.98 37.05 39.30 37.05Q43.15 37.05 45.64 34.31Q48.13 31.57 48.13 26.23Q48.13 20.85 45.64 18.13Q43.15 15.40 39.30 15.40Q36.98 15.40 34.99 16.52Q33 17.65 31.77 19.52Q30.55 21.40 30.55 23.67L28.27 23.60Q28.27 20.45 29.86 17.95Q31.45 15.45 34.05 14.01Q36.65 12.57 39.70 12.57Q42.92 12.57 45.55 14.16Q48.17 15.75 49.74 18.80Q51.30 21.85 51.30 26.23Q51.30 30.65 49.76 33.73Q48.23 36.80 45.59 38.39Q42.95 39.98 39.70 39.98ZM58.83 39.50L58.83 12.95L61.88 12.95L61.88 39.50L58.83 39.50M60.38 6.25Q59.40 6.25 58.70 5.69Q58 5.13 58 4.17Q58 3.25 58.70 2.69Q59.40 2.13 60.38 2.13Q61.33 2.13 62.03 2.69Q62.73 3.25 62.73 4.17Q62.73 5.13 62.03 5.69Q61.33 6.25 60.38 6.25ZM74.05 0.42L74.05 39.50L71 39.50L71 0.42L74.05 0.42ZM94.80 39.95Q90.90 39.95 87.90 38.16Q84.90 36.38 83.20 33.25Q81.50 30.13 81.50 26.20Q81.50 22.25 83.20 19.17Q84.90 16.10 87.90 14.35Q90.90 12.60 94.80 12.60Q98.70 12.60 101.70 14.35Q104.70 16.10 106.40 19.17Q108.10 22.25 108.10 26.20Q108.10 30.13 106.40 33.25Q104.70 36.38 101.70 38.16Q98.70 39.95 94.80 39.95M94.80 37.13Q97.80 37.13 100.09 35.73Q102.38 34.33 103.68 31.85Q104.98 29.38 104.98 26.20Q104.98 23 103.68 20.57Q102.38 18.15 100.09 16.79Q97.80 15.42 94.80 15.42Q91.83 15.42 89.53 16.79Q87.23 18.15 85.92 20.57Q84.63 23 84.63 26.20Q84.63 29.38 85.92 31.85Q87.23 34.33 89.53 35.73Q91.83 37.13 94.80 37.13ZM131.68 38.38Q133.73 38.52 135.30 39.13Q136.88 39.73 137.76 40.86Q138.65 42 138.65 43.80Q138.65 45.80 137.28 47.38Q135.90 48.95 133.05 49.86Q130.20 50.77 125.78 50.77Q119.63 50.77 116.58 48.92Q113.53 47.08 113.53 44.05Q113.53 43 113.76 42.24Q114 41.48 114.30 41.02L117.25 41.48Q117.03 41.80 116.83 42.41Q116.63 43.02 116.63 43.85Q116.63 46.08 119.04 47.15Q121.45 48.23 125.98 48.23Q129.40 48.23 131.54 47.66Q133.68 47.10 134.70 46.13Q135.73 45.15 135.73 43.98Q135.73 42.17 134.26 41.61Q132.80 41.05 130.63 40.88L120.50 40.15Q118.05 39.95 116.55 38.74Q115.05 37.52 115.05 35.67Q115.05 34.55 115.61 33.58Q116.18 32.60 116.94 31.95Q117.70 31.30 118.30 31.15L120.78 32.35Q120.10 32.48 119.13 33.25Q118.15 34.02 118.15 35.15Q118.15 36.15 118.99 36.80Q119.83 37.45 122.05 37.63L131.68 38.38M135.60 12.95L138.53 12.95L137.43 23.47Q137.13 26.42 135.75 28.82Q134.38 31.23 131.93 32.64Q129.47 34.05 125.93 34.05Q122.25 34.05 119.66 32.63Q117.08 31.20 115.71 28.79Q114.35 26.38 114.35 23.40Q114.35 20.38 115.80 17.92Q117.25 15.47 119.83 14.02Q122.40 12.57 125.78 12.57Q128.90 12.57 131.15 13.70Q133.40 14.82 134.69 16.47Q135.98 18.13 136.15 19.72L135.03 19.72L135.60 12.95M125.93 31.27Q128.60 31.27 130.50 30.29Q132.40 29.30 133.41 27.51Q134.43 25.73 134.43 23.30Q134.43 20.97 133.41 19.19Q132.40 17.40 130.50 16.38Q128.60 15.35 125.95 15.35Q123.43 15.35 121.49 16.40Q119.55 17.45 118.48 19.26Q117.40 21.07 117.40 23.38Q117.40 25.73 118.41 27.51Q119.43 29.30 121.34 30.29Q123.25 31.27 125.93 31.27ZM155.05 39.95Q152.20 39.95 150.34 38.95Q148.48 37.95 147.43 36.36Q146.38 34.77 145.96 32.95Q145.55 31.13 145.55 29.52Q145.55 28.57 145.55 27.55Q145.55 26.52 145.55 25.50L145.55 12.95L148.68 12.95L148.68 25.20Q148.68 26.15 148.68 27.07Q148.68 28 148.68 28.85Q148.68 30.98 149.30 32.86Q149.93 34.75 151.45 35.92Q152.98 37.10 155.60 37.10Q158.08 37.10 159.95 35.75Q161.83 34.40 162.89 32.31Q163.95 30.23 163.95 28.02L165.85 28.80Q165.85 30.80 165.11 32.76Q164.38 34.73 162.99 36.36Q161.60 38 159.59 38.98Q157.58 39.95 155.05 39.95M163.95 39.50L163.95 12.95L167.05 12.95L167.05 39.50L163.95 39.50ZM175.90 27.52L175.90 24.75L197.40 24.75L196.80 25.60Q196.80 25.45 196.80 25.34Q196.80 25.23 196.80 25.10Q196.80 22.52 195.70 20.30Q194.60 18.07 192.51 16.72Q190.43 15.38 187.43 15.38Q184.38 15.38 182.05 16.76Q179.73 18.15 178.43 20.59Q177.13 23.02 177.13 26.25Q177.13 29.50 178.41 31.96Q179.70 34.42 182.03 35.79Q184.35 37.15 187.45 37.15Q189.73 37.15 191.41 36.59Q193.10 36.02 194.21 35.10Q195.33 34.17 195.91 33.14Q196.50 32.10 196.60 31.17L199.68 31.17Q199.58 32.65 198.74 34.19Q197.90 35.73 196.36 37.05Q194.83 38.38 192.56 39.19Q190.30 40 187.35 40Q183.50 40 180.51 38.25Q177.53 36.50 175.81 33.41Q174.10 30.32 174.10 26.30Q174.10 22.25 175.83 19.16Q177.55 16.07 180.55 14.32Q183.55 12.57 187.38 12.57Q191.28 12.57 194.13 14.35Q196.98 16.13 198.53 19.16Q200.08 22.20 200.08 25.98Q200.08 26.30 200.06 26.80Q200.05 27.30 200.03 27.52L175.90 27.52Z"/></g></g></svg>