<svg xmlns="http://www.w3.org/2000/svg" viewBox="0 20.562963485717773 211.88571166992188 37.78703308105469" data-asc="1.16" width="211.88571166992188" height="37.78703308105469"><defs/><g fill="#000000"><g transform="translate(0, 0)"><path d="M6 58.00L6 21.05L9.95 21.05L9.95 58.00L6 58.00M6 37.65Q9.55 37.80 13.15 37.87Q16.75 37.95 20.35 37.95Q23.95 37.95 27.55 37.87Q31.15 37.80 34.70 37.65L34.70 40.00Q31.15 40.20 27.55 40.27Q23.95 40.35 20.35 40.35Q16.75 40.35 13.15 40.27Q9.55 40.20 6 40.00L6 37.65M30.75 58.00L30.75 21.05L34.70 21.05L34.70 58.00L30.75 58.00M25.15 58.00Q24.75 58.00 24.75 57.55L24.75 57.00Q24.75 56.55 25.20 56.50L29.90 55.85Q30.40 55.75 30.58 55.50Q30.75 55.25 30.75 54.70L30.75 47.15L34.70 47.15L34.70 54.80Q34.70 55.35 34.95 55.57Q35.20 55.80 35.70 55.85L40.40 56.50Q40.85 56.60 40.85 57.05L40.85 57.60Q40.85 58.00 40.40 58.00L25.15 58.00M0.40 58.00Q0 58.00 0 57.55L0 57.00Q0 56.55 0.40 56.50L5.10 55.85Q5.60 55.75 5.80 55.50Q6 55.25 6 54.70L6 47.15L9.95 47.15L9.95 54.80Q9.95 55.35 10.18 55.57Q10.40 55.80 10.90 55.85L15.65 56.50Q16.05 56.60 16.05 57.05L16.05 57.60Q16.05 58.00 15.60 58.00L0.40 58.00M24.75 21.50Q24.75 21.05 25.15 21.05L40.40 21.05Q40.85 21.05 40.85 21.45L40.85 22.00Q40.85 22.40 40.40 22.55L35.70 23.20Q35.20 23.25 34.95 23.47Q34.70 23.70 34.70 24.25L34.70 31.90L30.75 31.90L30.75 24.35Q30.75 23.80 30.58 23.55Q30.40 23.30 29.90 23.20L25.20 22.55Q24.75 22.50 24.75 22.05L24.75 21.50M0 21.50Q0 21.05 0.40 21.05L15.60 21.05Q16.05 21.05 16.05 21.45L16.05 22.00Q16.05 22.40 15.65 22.55L10.90 23.20Q10.40 23.25 10.18 23.47Q9.95 23.70 9.95 24.25L9.95 31.90L6 31.90L6 24.35Q6 23.80 5.80 23.55Q5.60 23.30 5.10 23.20L0.40 22.55Q0 22.50 0 22.05L0 21.50ZM51.80 58.35Q48.80 58.35 46.92 56.65Q45.05 54.95 45.05 52.20Q45.05 49.15 47.23 47.47Q49.40 45.80 54.10 45.25L61.40 44.40L61.30 46.40L54.75 47.25Q51.45 47.70 50.05 48.75Q48.65 49.80 48.65 51.80Q48.65 53.55 49.80 54.57Q50.95 55.60 52.95 55.60Q55 55.60 56.65 54.90Q58.30 54.20 59.42 53.30Q60.55 52.40 61 51.80L61.55 52.45Q61.35 53.25 60.55 54.25Q59.75 55.25 58.42 56.20Q57.10 57.15 55.40 57.75Q53.70 58.35 51.80 58.35M60.90 41.50Q60.90 38.60 59.40 37.02Q57.90 35.45 55.05 35.45Q53.70 35.45 52.60 35.75Q51.50 36.05 50.73 36.85Q49.95 37.65 49.65 39.25L49.30 41.20Q49.20 41.60 48.80 41.60L48.25 41.60Q47.85 41.60 47.80 41.15Q47.50 39.85 47.25 38.52Q47 37.20 46.80 35.90Q46.70 35.55 47.10 35.30Q48.30 34.70 50.50 33.92Q52.70 33.15 55.40 33.15Q59.70 33.15 62.15 35.32Q64.60 37.50 64.60 41.35L64.60 49.90L60.90 49.90L60.90 41.50M64.60 49.90L64.60 56.80L63.65 55.35L68.30 56.25Q68.70 56.40 68.70 56.80L68.70 57.30Q68.70 57.70 68.30 57.75L65.60 58.00Q63.55 58.20 62.55 58.12Q61.55 58.05 61.25 57.55Q60.95 57.05 60.95 56.10L60.95 53.10L60.90 52.75L60.90 49.90L64.60 49.90ZM75.10 58.00L75.10 29.45L78.80 29.45L78.80 58.00L75.10 58.00M93 41.55Q93 38.90 91.70 37.55Q90.40 36.20 87.85 36.20Q85.55 36.20 83.08 37.45Q80.60 38.70 78.35 41.00L78 39.80Q79.35 37.85 81.25 36.35Q83.15 34.85 85.30 34.00Q87.45 33.15 89.40 33.15Q93 33.15 94.85 35.17Q96.70 37.20 96.70 41.10L96.70 58.00L93 58.00L93 41.55M71.75 58.00Q71.35 58.00 71.35 57.55L71.35 57.10Q71.35 56.65 71.75 56.60L74.20 56.15Q74.80 56.05 74.95 55.85Q75.10 55.65 75.10 55.05L75.10 49.00L78.80 49.00L78.80 55.15Q78.80 55.70 78.97 55.87Q79.15 56.05 79.80 56.15L83.30 56.65Q83.70 56.70 83.70 57.15L83.70 57.60Q83.70 58.00 83.30 58.00L71.75 58.00M75.10 29.45L75.10 22.20L76 23.65L71.35 23.00Q70.95 22.95 70.95 22.50L70.95 22.00Q70.95 21.60 71.40 21.55L77.60 20.60Q78.25 20.50 78.53 20.67Q78.80 20.85 78.80 21.40L78.80 29.45L75.10 29.45M89.65 58.00Q89.25 58.00 89.25 57.55L89.25 57.10Q89.25 56.65 89.65 56.60L92.10 56.15Q92.70 56.05 92.85 55.85Q93 55.65 93 55.05L93 49.00L96.70 49.00L96.70 55.15Q96.70 55.70 96.88 55.87Q97.05 56.05 97.70 56.15L101.20 56.65Q101.60 56.70 101.60 57.15L101.60 57.60Q101.60 58.00 101.15 58.00L89.65 58.00ZM138.50 58.00Q138.10 58.00 138.10 57.55L138.10 57.10Q138.10 56.65 138.55 56.60L141.60 56.15Q142.20 56.05 142.35 55.85Q142.50 55.65 142.50 55.05L142.50 41.55Q142.50 38.90 141.35 37.55Q140.20 36.20 137.95 36.20Q133.40 36.20 129 41.00L128.60 39.80Q129.90 37.85 131.68 36.35Q133.45 34.85 135.47 34.00Q137.50 33.15 139.45 33.15Q142.75 33.15 144.48 35.17Q146.20 37.20 146.20 41.10L146.20 55.15Q146.20 55.70 146.38 55.87Q146.55 56.05 147.20 56.15L150.75 56.65Q151.15 56.70 151.15 57.15L151.15 57.60Q151.15 58.00 150.70 58.00L138.50 58.00M105.45 58.00Q105.05 58.00 105.05 57.55L105.05 57.10Q105.05 56.65 105.50 56.60L107.95 56.15Q108.55 56.05 108.70 55.85Q108.85 55.65 108.85 55.05L108.85 42.05L112.55 42.05L112.55 55.15Q112.55 55.70 112.73 55.87Q112.90 56.05 113.55 56.20L116.50 56.60Q116.90 56.75 116.90 57.15L116.90 57.60Q116.90 58.00 116.50 58.00L105.45 58.00M121.80 58.00Q121.40 58.00 121.40 57.55L121.40 57.10Q121.40 56.65 121.85 56.60L124.65 56.15Q125.25 56.05 125.38 55.85Q125.50 55.65 125.50 55.05L125.50 41.55Q125.50 38.90 124.38 37.55Q123.25 36.20 120.95 36.20Q116.50 36.20 112 41.00L111.65 39.80Q113.65 36.80 116.60 34.97Q119.55 33.15 122.50 33.15Q125.85 33.15 127.55 35.17Q129.25 37.20 129.25 41.10L129.25 55.15Q129.25 55.70 129.43 55.87Q129.60 56.05 130.20 56.20L132.95 56.60Q133.35 56.75 133.35 57.15L133.35 57.60Q133.35 58.00 132.90 58.00L121.80 58.00M108.85 42.05L108.85 34.75L109.75 36.20L105.10 35.55Q104.70 35.50 104.70 35.05L104.70 34.55Q104.70 34.20 105.15 34.05L111.15 33.20Q111.80 33.10 112.08 33.25Q112.35 33.40 112.35 33.95L112.35 38.75L112.55 39.60L112.55 42.05L108.85 42.05ZM157.30 58.00L157.30 29.45L161 29.45L161 58.00L157.30 58.00M153.95 58.00Q153.55 58.00 153.55 57.55L153.55 57.10Q153.55 56.65 153.95 56.60L156.40 56.15Q157 56.05 157.15 55.85Q157.30 55.65 157.30 55.05L157.30 49.00L161 49.00L161 55.15Q161 55.70 161.17 55.87Q161.35 56.05 162 56.15L165.50 56.65Q165.90 56.70 165.90 57.15L165.90 57.60Q165.90 58.00 165.50 58.00L153.95 58.00M157.30 29.45L157.30 22.20L158.20 23.65L153.55 23.00Q153.15 22.95 153.15 22.50L153.15 22.00Q153.15 21.60 153.60 21.55L159.80 20.60Q160.45 20.50 160.72 20.67Q161 20.85 161 21.40L161 29.45L157.30 29.45ZM180.80 58.35Q177.50 58.35 174.88 56.82Q172.25 55.30 170.72 52.45Q169.20 49.60 169.20 45.65Q169.20 41.65 170.78 38.87Q172.35 36.10 175 34.62Q177.65 33.15 180.95 33.15Q183.75 33.15 186.05 34.47Q188.35 35.80 189.70 38.22Q191.05 40.65 191.05 43.95Q191.05 44.15 191.05 44.40Q191.05 44.65 191 44.85Q190.90 45.25 190.50 45.25L172.25 45.25L172.25 43.25L188.60 43.25L187.60 44.30Q187.60 44.10 187.60 43.90Q187.60 43.70 187.60 43.50Q187.60 41.20 186.70 39.40Q185.80 37.60 184.22 36.57Q182.65 35.55 180.65 35.55Q177 35.55 175 38.12Q173 40.70 173 45.45Q173 48.40 174.13 50.75Q175.25 53.10 177.20 54.45Q179.15 55.80 181.65 55.80Q185.70 55.80 188.30 53.60Q188.65 53.30 188.85 53.65L189.25 54.20Q189.45 54.55 189.20 54.90Q187.70 56.55 185.50 57.45Q183.30 58.35 180.80 58.35ZM205.20 58.35Q201.90 58.35 200.22 56.50Q198.55 54.65 198.55 51.05L198.55 33.85L198.65 33.50L198.65 28.75Q198.65 28.35 199.05 28.20Q199.45 28.15 199.92 28.07Q200.40 28.00 200.92 27.95Q201.45 27.90 201.85 27.90Q202.25 27.90 202.25 28.35L202.25 51.00Q202.25 53.50 203.42 54.62Q204.60 55.75 207.25 55.75Q208.10 55.75 209 55.65Q209.90 55.55 210.90 55.25Q211.30 55.15 211.35 55.60L211.40 56.20Q211.45 56.55 211.10 56.85Q210.35 57.30 209.35 57.62Q208.35 57.95 207.28 58.15Q206.20 58.35 205.20 58.35M195.20 35.65Q194.85 35.65 194.90 35.20L195.10 34.35Q195.15 33.95 195.60 33.90L198.65 33.50L208.65 33.50L211.45 33.35Q211.85 33.35 211.85 33.80Q211.90 34.15 211.88 34.52Q211.85 34.90 211.75 35.25Q211.65 35.65 211.25 35.65L195.20 35.65Z"/></g></g></svg>