<svg xmlns="http://www.w3.org/2000/svg" viewBox="0 13.25 320.54998779296875 38.599998474121094" data-asc="1.025" width="320.54998779296875" height="38.599998474121094"><defs/><g fill="#000000"><g transform="translate(0, 0)"><path d="M0 49.50L3.95 49.50L3.95 18.10L0 18.10L0 16.35L10.95 16.35L10.95 18.10L7 18.10L7 49.50L10.95 49.50L10.95 51.25L0 51.25L0 49.50ZM16.25 49.50L20.20 49.50L20.20 18.10L16.25 18.10L16.25 16.35L32.80 16.35Q36.95 16.35 39.27 18.57Q41.60 20.80 41.60 24.70Q41.60 28.25 39.85 30.25Q38.10 32.25 35.65 32.85L35.65 32.95Q37.10 33.15 38.43 33.77Q39.75 34.40 40.77 35.50Q41.80 36.60 42.43 38.12Q43.05 39.65 43.05 41.65Q43.05 46.05 40.60 48.65Q38.15 51.25 34.05 51.25L16.25 51.25L16.25 49.50M23.25 49.40L33.10 49.40Q34.75 49.40 36 48.87Q37.25 48.35 38.10 47.45Q38.95 46.55 39.38 45.35Q39.80 44.15 39.80 42.80L39.80 40.60Q39.80 39.25 39.38 38.05Q38.95 36.85 38.10 35.95Q37.25 35.05 36 34.52Q34.75 34.00 33.10 34.00L23.25 34.00L23.25 49.40M23.25 32.15L32.30 32.15Q35.30 32.15 36.83 30.45Q38.35 28.75 38.35 26.30L38.35 24.05Q38.35 21.60 36.83 19.90Q35.30 18.20 32.30 18.20L23.25 18.20L23.25 32.15ZM49 49.50L52.95 49.50L52.95 18.10L49 18.10L49 16.35L56.70 16.35L67.90 37.75L68.05 37.75L79.55 16.35L86.90 16.35L86.90 18.10L82.95 18.10L82.95 49.50L86.90 49.50L86.90 51.25L75.95 51.25L75.95 49.50L79.90 49.50L79.90 19.85L79.75 19.85L76.50 25.95L67.35 43.05L58.80 26.70L55.25 19.85L55.05 19.85L55.05 49.50L59 49.50L59 51.25L49 51.25L49 49.50ZM103.80 49.50L107.75 49.50L107.75 18.10L103.80 18.10L103.80 16.35L119.95 16.35Q124.50 16.35 126.93 18.75Q129.35 21.15 129.35 25.60Q129.35 30.05 126.90 32.52Q124.45 35.00 119.90 35.00L110.80 35.00L110.80 49.50L115.75 49.50L115.75 51.25L103.80 51.25L103.80 49.50M110.80 33.15L119.75 33.15Q121.30 33.15 122.48 32.62Q123.65 32.10 124.45 31.22Q125.25 30.35 125.68 29.20Q126.10 28.05 126.10 26.75L126.10 24.60Q126.10 23.30 125.68 22.15Q125.25 21.00 124.45 20.12Q123.65 19.25 122.48 18.72Q121.30 18.20 119.75 18.20L110.80 18.20L110.80 33.15ZM133.30 49.50L137.20 49.50L137.20 16.25L133.30 15.75L133.30 14.45L140.10 13.35L140.10 49.50L144 49.50L144 51.25L133.30 51.25L133.30 49.50ZM159.55 51.85Q154.35 51.85 151.30 48.35Q148.25 44.85 148.25 38.45Q148.25 35.40 149.08 32.90Q149.90 30.40 151.40 28.67Q152.90 26.95 154.95 26.00Q157.00 25.05 159.45 25.05Q161.85 25.05 163.78 25.95Q165.70 26.85 167.05 28.42Q168.40 30.00 169.13 32.22Q169.85 34.45 169.85 37.05L169.85 37.90L151.45 37.90L151.45 39.50Q151.45 44.35 153.80 46.95Q156.15 49.55 159.95 49.55Q163.10 49.55 165.08 48.15Q167.05 46.75 168.10 44.70L169.35 45.45Q168.85 46.65 168.00 47.80Q167.15 48.95 165.93 49.85Q164.70 50.75 163.13 51.30Q161.55 51.85 159.55 51.85M151.45 36.20L166.80 36.20L166.80 35.90Q166.80 33.95 166.35 32.30Q165.90 30.65 164.98 29.42Q164.05 28.20 162.68 27.52Q161.30 26.85 159.45 26.85Q157.60 26.85 156.13 27.50Q154.65 28.15 153.60 29.35Q152.55 30.55 152.00 32.20Q151.45 33.85 151.45 35.85L151.45 36.20ZM173.05 49.50L175.95 49.50L184 38.60L175.95 27.40L173.20 27.40L173.20 25.65L182.90 25.65L182.90 27.40L179.45 27.40L186 36.70L186.20 36.70L192.45 27.40L188.90 27.40L188.90 25.65L197.65 25.65L197.65 27.40L194.75 27.40L187.10 38.10L195.20 49.50L197.95 49.50L197.95 51.25L188.20 51.25L188.20 49.50L191.65 49.50L185.10 40.05L184.95 40.05L178.30 49.50L181.85 49.50L181.85 51.25L173.05 51.25L173.05 49.50ZM225.30 51.85Q221.60 51.85 219.63 50.70Q217.65 49.55 216.80 47.90L216.60 47.90L216.60 51.25L214 51.25L214 40.80L216.60 40.80L216.60 43.45Q216.60 44.80 217.03 46.00Q217.45 47.20 218.43 48.05Q219.40 48.90 220.95 49.40Q222.50 49.90 224.80 49.90Q229.50 49.90 231.65 47.92Q233.80 45.95 233.80 42.50Q233.80 40.90 233.30 39.72Q232.80 38.55 231.90 37.70Q231 36.85 229.73 36.27Q228.45 35.70 226.90 35.30L223.90 34.50Q219 33.20 216.73 30.87Q214.45 28.55 214.45 24.80Q214.45 22.65 215.23 20.97Q216 19.30 217.43 18.12Q218.85 16.95 220.85 16.35Q222.85 15.75 225.30 15.75Q228.70 15.75 230.63 16.85Q232.55 17.95 233.30 19.40L233.55 19.40L233.55 16.35L236.15 16.35L236.15 26.30L233.55 26.30L233.55 23.55Q233.55 20.90 231.55 19.30Q229.55 17.70 225.30 17.70Q221.40 17.70 219.35 19.45Q217.30 21.20 217.30 24.30Q217.30 27.40 219.25 28.97Q221.20 30.55 224.50 31.45L227.40 32.20Q232.25 33.50 234.45 35.85Q236.65 38.20 236.65 41.80Q236.65 44.00 235.93 45.85Q235.20 47.70 233.78 49.02Q232.35 50.35 230.23 51.10Q228.10 51.85 225.30 51.85ZM253.85 51.85Q248.65 51.85 245.60 48.35Q242.55 44.85 242.55 38.45Q242.55 35.40 243.38 32.90Q244.20 30.40 245.70 28.67Q247.20 26.95 249.25 26.00Q251.30 25.05 253.75 25.05Q256.15 25.05 258.07 25.95Q260 26.85 261.35 28.42Q262.70 30.00 263.43 32.22Q264.15 34.45 264.15 37.05L264.15 37.90L245.75 37.90L245.75 39.50Q245.75 44.35 248.10 46.95Q250.45 49.55 254.25 49.55Q257.40 49.55 259.38 48.15Q261.35 46.75 262.40 44.70L263.65 45.45Q263.15 46.65 262.30 47.80Q261.45 48.95 260.23 49.85Q259 50.75 257.43 51.30Q255.85 51.85 253.85 51.85M245.75 36.20L261.10 36.20L261.10 35.90Q261.10 33.95 260.65 32.30Q260.20 30.65 259.27 29.42Q258.35 28.20 256.98 27.52Q255.60 26.85 253.75 26.85Q251.90 26.85 250.43 27.50Q248.95 28.15 247.90 29.35Q246.85 30.55 246.30 32.20Q245.75 33.85 245.75 35.85L245.75 36.20ZM268.90 49.50L272.80 49.50L272.80 28.05L268.90 27.55L268.90 26.25L275.65 25.15L275.65 29.90L275.85 29.90Q276.20 29.05 276.78 28.17Q277.35 27.30 278.18 26.60Q279 25.90 280.10 25.47Q281.20 25.05 282.60 25.05Q284.45 25.05 285.53 25.87Q286.60 26.70 286.60 28.30Q286.60 29.45 286 30.10Q285.40 30.75 284.45 30.75Q283.35 30.75 282.73 30.17Q282.10 29.60 282.10 28.65Q282.10 27.90 282.45 27.40Q282.80 26.90 283.20 26.80L283.20 26.70Q282.80 26.65 282.55 26.65Q282.30 26.65 282 26.65Q280.90 26.65 279.78 27.20Q278.65 27.75 277.75 28.65Q276.85 29.55 276.28 30.70Q275.70 31.85 275.70 33.05L275.70 49.50L280.65 49.50L280.65 51.25L268.90 51.25L268.90 49.50ZM294.95 18.85Q293.95 18.85 293.40 18.22Q292.85 17.60 292.85 16.75L292.85 16.55Q292.85 15.70 293.40 15.07Q293.95 14.45 294.95 14.45Q295.95 14.45 296.50 15.07Q297.05 15.70 297.05 16.55L297.05 16.75Q297.05 17.60 296.50 18.22Q295.95 18.85 294.95 18.85M289.60 49.50L293.50 49.50L293.50 28.05L289.60 27.55L289.60 26.25L296.40 25.15L296.40 49.50L300.30 49.50L300.30 51.25L289.60 51.25L289.60 49.50ZM304.35 49.50L308.25 49.50L308.25 27.50L304.35 27.50L304.35 25.65L308.25 25.65L308.25 20.65Q308.25 18.95 308.80 17.57Q309.35 16.20 310.32 15.25Q311.30 14.30 312.63 13.77Q313.95 13.25 315.50 13.25Q317.95 13.25 319.25 14.20Q320.55 15.15 320.55 16.65Q320.55 17.65 319.98 18.27Q319.40 18.90 318.45 18.90Q317.55 18.90 317 18.35Q316.45 17.80 316.45 16.95Q316.45 15.50 317.70 15.00L317.70 14.90Q317.30 14.80 316.80 14.75Q316.30 14.70 315.75 14.70Q313.60 14.70 312.38 16.17Q311.15 17.65 311.15 20.30L311.15 25.65L316.65 25.65L316.65 27.50L311.15 27.50L311.15 49.50L316.05 49.50L316.05 51.25L304.35 51.25L304.35 49.50Z"/></g></g></svg>