<svg xmlns="http://www.w3.org/2000/svg" viewBox="0 14.25 381.8999938964844 37.599998474121094" data-asc="1.025" width="381.8999938964844" height="37.599998474121094"><defs/><g fill="#000000"><g transform="translate(0, 0)"><path d="M0 51.25L0 48.85L9.15 48.85L9.15 18.75L0 18.75L0 16.35L21.30 16.35L21.30 18.75L12.15 18.75L12.15 48.85L21.30 48.85L21.30 51.25L0 51.25ZM30.25 16.35L41.80 16.35Q46.05 16.35 48.45 18.70Q50.85 21.05 50.85 25.30Q50.85 28.55 49.45 30.42Q48.05 32.30 45.65 33.05L45.65 33.15Q48.70 33.80 50.48 35.87Q52.25 37.95 52.25 41.55Q52.25 43.65 51.60 45.42Q50.95 47.20 49.75 48.50Q48.55 49.80 46.88 50.52Q45.20 51.25 43.15 51.25L30.25 51.25L30.25 16.35M42.40 48.65Q45.70 48.65 47.40 47.00Q49.10 45.35 49.10 42.65L49.10 40.60Q49.10 37.90 47.40 36.25Q45.70 34.60 42.40 34.60L33.25 34.60L33.25 48.65L42.40 48.65M41.55 32.10Q44.55 32.10 46.13 30.60Q47.70 29.10 47.70 26.55L47.70 24.55Q47.70 22.00 46.13 20.47Q44.55 18.95 41.55 18.95L33.25 18.95L33.25 32.10L41.55 32.10ZM79.15 20.85L78.85 20.85L70.65 40.00L62.45 20.85L62.15 20.85L62.15 51.25L59.40 51.25L59.40 16.35L63.30 16.35L70.60 33.60L70.85 33.60L78.10 16.35L81.90 16.35L81.90 51.25L79.15 51.25L79.15 20.85ZM120.50 51.25L120.50 16.35L133 16.35Q137.65 16.35 140.05 18.97Q142.45 21.60 142.45 26.15Q142.45 30.70 140.05 33.32Q137.65 35.95 133 35.95L123.50 35.95L123.50 51.25L120.50 51.25M123.50 33.35L132.95 33.35Q136.10 33.35 137.70 31.65Q139.30 29.95 139.30 27.35L139.30 24.95Q139.30 22.35 137.70 20.65Q136.10 18.95 132.95 18.95L123.50 18.95L123.50 33.35ZM149.85 48.80L159.25 48.80L159.25 16.70L149.85 16.70L149.85 14.25L162.10 14.25L162.10 48.80L171.45 48.80L171.45 51.25L149.85 51.25L149.85 48.80ZM191.05 51.85Q185.65 51.85 182.58 48.32Q179.50 44.80 179.50 38.40Q179.50 35.20 180.30 32.67Q181.10 30.15 182.58 28.42Q184.05 26.70 186.15 25.77Q188.25 24.85 190.80 24.85Q193.40 24.85 195.45 25.77Q197.50 26.70 198.93 28.40Q200.35 30.10 201.10 32.45Q201.85 34.80 201.85 37.65L201.85 38.90L182.50 38.90L182.50 40.15Q182.50 44.30 184.75 46.82Q187 49.35 191.05 49.35Q193.90 49.35 195.93 48.05Q197.95 46.75 199.05 44.20L201.20 45.55Q200.05 48.40 197.45 50.12Q194.85 51.85 191.05 51.85M190.80 27.25Q188.90 27.25 187.38 27.92Q185.85 28.60 184.78 29.80Q183.70 31.00 183.10 32.70Q182.50 34.40 182.50 36.45L182.50 36.75L198.80 36.75L198.80 36.35Q198.80 32.15 196.68 29.70Q194.55 27.25 190.80 27.25ZM209.25 51.25L218.95 38.20L209.45 25.45L212.90 25.45L220.70 36.05L220.85 36.05L228.60 25.45L231.85 25.45L222.30 38.15L232.10 51.25L228.65 51.25L220.60 40.30L220.45 40.30L212.55 51.25L209.25 51.25ZM289.15 20.85L288.85 20.85L280.65 40.00L272.45 20.85L272.15 20.85L272.15 51.25L269.40 51.25L269.40 16.35L273.30 16.35L280.60 33.60L280.85 33.60L288.10 16.35L291.90 16.35L291.90 51.25L289.15 51.25L289.15 20.85ZM310.65 51.85Q305.35 51.85 302.38 48.30Q299.40 44.75 299.40 38.35Q299.40 31.95 302.38 28.40Q305.35 24.85 310.65 24.85Q315.95 24.85 318.92 28.40Q321.90 31.95 321.90 38.35Q321.90 44.75 318.92 48.30Q315.95 51.85 310.65 51.85M310.65 49.35Q314.45 49.35 316.65 46.95Q318.85 44.55 318.85 39.95L318.85 36.75Q318.85 32.15 316.65 29.75Q314.45 27.35 310.65 27.35Q306.85 27.35 304.65 29.75Q302.45 32.15 302.45 36.75L302.45 39.95Q302.45 44.55 304.65 46.95Q306.85 49.35 310.65 49.35ZM331.10 51.25L331.10 25.45L333.95 25.45L333.95 29.45L334.15 29.45Q334.90 27.65 336.67 26.25Q338.45 24.85 341.70 24.85Q345.90 24.85 348.22 27.37Q350.55 29.90 350.55 34.60L350.55 51.25L347.70 51.25L347.70 35.10Q347.70 31.10 345.97 29.25Q344.25 27.40 340.95 27.40Q339.60 27.40 338.35 27.75Q337.10 28.10 336.13 28.80Q335.15 29.50 334.55 30.57Q333.95 31.65 333.95 33.10L333.95 51.25L331.10 51.25ZM370.65 51.85Q365.35 51.85 362.38 48.30Q359.40 44.75 359.40 38.35Q359.40 31.95 362.38 28.40Q365.35 24.85 370.65 24.85Q375.95 24.85 378.92 28.40Q381.90 31.95 381.90 38.35Q381.90 44.75 378.92 48.30Q375.95 51.85 370.65 51.85M370.65 49.35Q374.45 49.35 376.65 46.95Q378.85 44.55 378.85 39.95L378.85 36.75Q378.85 32.15 376.65 29.75Q374.45 27.35 370.65 27.35Q366.85 27.35 364.65 29.75Q362.45 32.15 362.45 36.75L362.45 39.95Q362.45 44.55 364.65 46.95Q366.85 49.35 370.65 49.35Z"/></g></g></svg>