<svg xmlns="http://www.w3.org/2000/svg" viewBox="0 14.25 310.45001220703125 37.599998474121094" data-asc="1.025" width="310.45001220703125" height="37.599998474121094"><defs/><g fill="#000000"><g transform="translate(0, 0)"><path d="M0 51.25L0 48.75L5.10 48.75L5.10 18.85L0 18.85L0 16.35L13.20 16.35L13.20 18.85L8.10 18.85L8.10 48.75L13.20 48.75L13.20 51.25L0 51.25ZM21.30 16.35L34.95 16.35Q39.05 16.35 41.38 18.67Q43.70 21.00 43.70 25.15Q43.70 26.95 43.23 28.30Q42.75 29.65 42 30.55Q41.25 31.45 40.28 32.00Q39.30 32.55 38.35 32.75L38.35 32.95Q39.55 33.10 40.75 33.67Q41.95 34.25 42.90 35.27Q43.85 36.30 44.45 37.82Q45.05 39.35 45.05 41.40Q45.05 43.55 44.43 45.35Q43.80 47.15 42.63 48.47Q41.45 49.80 39.83 50.52Q38.20 51.25 36.20 51.25L21.30 51.25L21.30 16.35M24.30 48.60L35.40 48.60Q38.55 48.60 40.20 46.87Q41.85 45.15 41.85 42.40L41.85 40.55Q41.85 37.85 40.20 36.12Q38.55 34.40 35.40 34.40L24.30 34.40L24.30 48.60M24.30 31.80L34.65 31.80Q37.50 31.80 39 30.27Q40.50 28.75 40.50 26.35L40.50 24.45Q40.50 22.05 39 20.52Q37.50 19.00 34.65 19.00L24.30 19.00L24.30 31.80ZM80.60 20.20L80.40 20.20L68.35 41.55L56.30 20.20L56.10 20.20L56.10 51.25L53.20 51.25L53.20 16.35L57.30 16.35L68.35 36.00L68.50 36.00L79.55 16.35L83.50 16.35L83.50 51.25L80.60 51.25L80.60 20.20ZM105.20 51.25L105.20 16.35L118.90 16.35Q123.45 16.35 125.85 18.97Q128.25 21.60 128.25 26.10Q128.25 30.65 125.85 33.27Q123.45 35.90 118.90 35.90L108.20 35.90L108.20 51.25L105.20 51.25M108.20 33.25L118.90 33.25Q121.90 33.25 123.47 31.57Q125.05 29.90 125.05 27.30L125.05 24.90Q125.05 22.35 123.47 20.67Q121.90 19.00 118.90 19.00L108.20 19.00L108.20 33.25ZM138.10 51.25Q136.55 51.25 135.75 50.40Q134.95 49.55 134.95 48.15L134.95 14.25L137.80 14.25L137.80 48.75L141.75 48.75L141.75 51.25L138.10 51.25ZM157.30 51.85Q154.75 51.85 152.68 50.95Q150.60 50.05 149.13 48.32Q147.65 46.60 146.88 44.10Q146.10 41.60 146.10 38.45Q146.10 35.30 146.88 32.82Q147.65 30.35 149.13 28.62Q150.60 26.90 152.65 25.97Q154.70 25.05 157.25 25.05Q159.70 25.05 161.70 25.97Q163.70 26.90 165.10 28.55Q166.50 30.20 167.28 32.52Q168.05 34.85 168.05 37.65L168.05 39.00L149.10 39.00L149.10 40.25Q149.10 42.25 149.68 43.92Q150.25 45.60 151.32 46.80Q152.40 48.00 153.95 48.67Q155.50 49.35 157.45 49.35Q163.05 49.35 165.20 44.20L167.30 45.60Q166.10 48.45 163.53 50.15Q160.95 51.85 157.30 51.85M157.25 27.45Q155.40 27.45 153.90 28.12Q152.40 28.80 151.32 30.00Q150.25 31.20 149.68 32.87Q149.10 34.55 149.10 36.55L149.10 36.80L164.95 36.80L164.95 36.40Q164.95 34.40 164.40 32.72Q163.85 31.05 162.82 29.90Q161.80 28.75 160.38 28.10Q158.95 27.45 157.25 27.45ZM171.40 51.25L180.90 38.35L171.75 25.65L175.10 25.65L182.40 36.10L182.55 36.10L190 25.65L193.20 25.65L184.10 38.15L193.45 51.25L190.10 51.25L182.55 40.45L182.45 40.45L174.60 51.25L171.40 51.25ZM220.75 51.85Q216.45 51.85 213.58 50.22Q210.70 48.60 208.65 45.90L210.90 44.05Q212.75 46.50 215.08 47.85Q217.40 49.20 220.85 49.20Q224.90 49.20 227.08 47.27Q229.25 45.35 229.25 41.90Q229.25 38.70 227.40 37.20Q225.55 35.70 222.20 35.00L219.10 34.35Q214.10 33.35 211.85 31.00Q209.60 28.65 209.60 25.00Q209.60 22.70 210.40 20.97Q211.20 19.25 212.68 18.10Q214.15 16.95 216.23 16.35Q218.30 15.75 220.80 15.75Q224.70 15.75 227.40 17.15Q230.10 18.55 231.85 21.10L229.60 22.75Q228.15 20.65 225.98 19.52Q223.80 18.40 220.65 18.40Q216.90 18.40 214.73 20.02Q212.55 21.65 212.55 24.90Q212.55 28.00 214.50 29.45Q216.45 30.90 219.70 31.55L222.80 32.20Q228 33.35 230.10 35.75Q232.20 38.15 232.20 41.75Q232.20 46.55 229.15 49.20Q226.10 51.85 220.75 51.85ZM257.20 51.25Q255.55 51.25 254.80 50.40Q254.05 49.55 253.95 48.10L253.95 47.20L253.70 47.20Q252.85 49.35 250.90 50.60Q248.95 51.85 245.95 51.85Q241.90 51.85 239.70 49.87Q237.50 47.90 237.50 44.30Q237.50 40.90 239.93 38.90Q242.35 36.90 247.90 36.90L253.80 36.90L253.80 33.90Q253.80 27.55 247.25 27.55Q244.70 27.55 243.00 28.62Q241.30 29.70 240.25 31.70L238.45 30.20Q239.50 27.95 241.68 26.50Q243.85 25.05 247.35 25.05Q251.85 25.05 254.25 27.30Q256.65 29.55 256.65 33.60L256.65 48.75L260.10 48.75L260.10 51.25L257.20 51.25M246.35 49.40Q247.90 49.40 249.25 49.00Q250.60 48.60 251.63 47.87Q252.65 47.15 253.23 46.12Q253.80 45.10 253.80 43.80L253.80 39.05L247.80 39.05Q243.95 39.05 242.23 40.27Q240.50 41.50 240.50 43.65L240.50 44.85Q240.50 47.10 242.10 48.25Q243.70 49.40 246.35 49.40ZM265.95 51.25L265.95 25.65L268.80 25.65L268.80 29.70L268.95 29.70Q269.80 27.70 271.60 26.37Q273.40 25.05 276.50 25.05Q280.60 25.05 282.88 27.57Q285.15 30.10 285.15 34.80L285.15 51.25L282.30 51.25L282.30 35.30Q282.30 31.40 280.63 29.50Q278.95 27.60 275.75 27.60Q274.40 27.60 273.15 27.95Q271.90 28.30 270.93 29.00Q269.95 29.70 269.38 30.77Q268.80 31.85 268.80 33.25L268.80 51.25L265.95 51.25ZM301.35 51.85Q298 51.85 295.63 50.60Q293.25 49.35 291.50 46.95L293.60 45.30Q295.20 47.40 297.10 48.40Q299 49.40 301.55 49.40Q304.50 49.40 306.10 48.15Q307.70 46.90 307.70 44.55Q307.70 42.50 306.47 41.32Q305.25 40.15 302.45 39.75L300.35 39.40Q298.60 39.15 297.15 38.65Q295.70 38.15 294.68 37.30Q293.65 36.45 293.07 35.22Q292.50 34.00 292.50 32.25Q292.50 30.45 293.18 29.10Q293.85 27.75 295 26.85Q296.15 25.95 297.75 25.50Q299.35 25.05 301.20 25.05Q304.40 25.05 306.45 26.15Q308.50 27.25 309.95 29.00L308.05 30.75Q307.05 29.55 305.38 28.52Q303.70 27.50 301.05 27.50Q298.30 27.50 296.77 28.70Q295.25 29.90 295.25 32.10Q295.25 34.35 296.63 35.35Q298 36.35 300.75 36.80L302.80 37.10Q306.70 37.70 308.57 39.42Q310.45 41.15 310.45 44.25Q310.45 47.85 308.02 49.85Q305.60 51.85 301.35 51.85Z"/></g></g></svg>