<svg xmlns="http://www.w3.org/2000/svg" viewBox="0 12.069999694824219 100.66999816894531 36.939998626708984" data-asc="0.96875" width="100.66999816894531" height="36.939998626708984"><defs/><g fill="#000000"><g transform="translate(0, 0)"><path d="M3.32 12.07L3.32 48.44L0 48.44L0 12.07L3.32 12.07ZM15.48 31.39L15.48 48.44L12.32 48.44L12.32 21.16L15.39 21.16L15.39 25.44L15.68 25.44Q16.64 23.35 18.67 22.08Q20.70 20.81 23.70 20.81Q26.46 20.81 28.54 21.95Q30.63 23.10 31.79 25.32Q32.95 27.54 32.95 30.77L32.95 48.44L29.79 48.44L29.79 30.97Q29.79 27.61 27.92 25.66Q26.05 23.70 22.90 23.70Q20.76 23.70 19.09 24.63Q17.42 25.55 16.45 27.28Q15.48 29.01 15.48 31.39ZM52.04 21.16L52.04 23.92L39.03 23.92L39.03 21.16L52.04 21.16M43.09 14.63L46.27 14.63L46.27 41.32Q46.27 43.02 46.86 43.99Q47.44 44.96 48.38 45.36Q49.33 45.76 50.39 45.76Q51.01 45.76 51.46 45.68Q51.90 45.60 52.24 45.51L52.91 48.37Q52.45 48.54 51.78 48.69Q51.10 48.85 50.11 48.85Q48.37 48.85 46.76 48.08Q45.15 47.32 44.12 45.81Q43.09 44.30 43.09 42.06L43.09 14.63ZM70.24 49.01Q66.42 49.01 63.64 47.22Q60.85 45.44 59.33 42.27Q57.81 39.10 57.81 34.96Q57.81 30.84 59.33 27.64Q60.85 24.43 63.54 22.61Q66.23 20.79 69.76 20.79Q71.98 20.79 74.04 21.60Q76.10 22.41 77.74 24.07Q79.39 25.73 80.34 28.24Q81.30 30.75 81.30 34.18L81.30 35.74L60.00 35.74L60.00 32.95L78.07 32.95Q78.07 30.33 77.02 28.22Q75.96 26.12 74.09 24.89Q72.21 23.67 69.76 23.67Q67.17 23.67 65.20 25.05Q63.23 26.44 62.12 28.71Q61.01 30.98 60.99 33.68L60.99 35.35Q60.99 38.60 62.12 41.02Q63.25 43.45 65.32 44.78Q67.40 46.11 70.24 46.11Q72.18 46.11 73.64 45.51Q75.11 44.90 76.11 43.88Q77.11 42.86 77.63 41.64L80.63 42.61Q80.01 44.34 78.60 45.79Q77.18 47.25 75.08 48.13Q72.98 49.01 70.24 49.01ZM88.25 48.44L88.25 21.16L91.32 21.16L91.32 25.36L91.55 25.36Q92.37 23.30 94.40 22.03Q96.43 20.76 99.01 20.76Q99.40 20.76 99.88 20.77Q100.36 20.79 100.67 20.81L100.67 24.02Q100.46 23.99 99.93 23.92Q99.40 23.85 98.77 23.85Q96.64 23.85 94.98 24.74Q93.32 25.64 92.37 27.22Q91.41 28.80 91.41 30.82L91.41 48.44L88.25 48.44Z"/></g></g></svg>