<svg xmlns="http://www.w3.org/2000/svg" viewBox="0 12.069999694824219 102.83999633789062 36.939998626708984" data-asc="0.96875" width="102.83999633789062" height="36.939998626708984"><defs/><g><g fill="#000000"><g transform="translate(0, 0)"><path d="M4.40 12.07L4.40 48.44L0 48.44L0 12.07L4.40 12.07ZM16.83 32.03L16.83 48.44L12.64 48.44L12.64 21.16L16.69 21.16L16.69 25.43L17.05 25.43Q18.00 23.35 19.96 22.08Q21.91 20.81 25 20.81Q27.77 20.81 29.85 21.94Q31.92 23.06 33.08 25.35Q34.23 27.63 34.23 31.11L34.23 48.44L30.04 48.44L30.04 31.39Q30.04 28.18 28.37 26.38Q26.70 24.57 23.79 24.57Q21.79 24.57 20.21 25.44Q18.64 26.31 17.74 27.98Q16.83 29.65 16.83 32.03ZM53.76 21.16L53.76 24.72L39.63 24.72L39.63 21.16L53.76 21.16M43.75 14.63L47.94 14.63L47.94 40.63Q47.94 42.40 48.46 43.28Q48.99 44.16 49.81 44.45Q50.64 44.74 51.56 44.74Q52.25 44.74 52.70 44.66Q53.14 44.58 53.41 44.53L54.26 48.30Q53.84 48.46 53.07 48.62Q52.31 48.79 51.14 48.79Q49.36 48.79 47.67 48.03Q45.97 47.27 44.86 45.70Q43.75 44.14 43.75 41.76L43.75 14.63ZM71.52 49.01Q67.58 49.01 64.73 47.26Q61.88 45.51 60.34 42.36Q58.81 39.20 58.81 35.01Q58.81 30.82 60.34 27.62Q61.88 24.41 64.64 22.61Q67.40 20.81 71.09 20.81Q73.22 20.81 75.30 21.52Q77.38 22.23 79.08 23.82Q80.79 25.41 81.80 28.02Q82.81 30.63 82.81 34.45L82.81 36.22L61.79 36.22L61.79 32.60L78.55 32.60Q78.55 30.29 77.64 28.48Q76.72 26.67 75.04 25.62Q73.37 24.57 71.09 24.57Q68.59 24.57 66.77 25.81Q64.95 27.04 63.97 29.01Q63.00 30.98 63.00 33.24L63.00 35.65Q63.00 38.74 64.07 40.88Q65.15 43.02 67.06 44.13Q68.98 45.24 71.52 45.24Q73.17 45.24 74.51 44.77Q75.85 44.30 76.83 43.35Q77.81 42.40 78.34 40.98L82.39 42.12Q81.75 44.18 80.24 45.73Q78.73 47.28 76.51 48.14Q74.29 49.01 71.52 49.01ZM89.20 48.44L89.20 21.16L93.25 21.16L93.25 25.28L93.54 25.28Q94.28 23.26 96.24 22.00Q98.19 20.74 100.64 20.74Q101.10 20.74 101.79 20.76Q102.49 20.77 102.84 20.81L102.84 25.07Q102.63 25.02 101.87 24.90Q101.12 24.79 100.28 24.79Q98.30 24.79 96.74 25.61Q95.19 26.44 94.29 27.89Q93.39 29.33 93.39 31.18L93.39 48.44L89.20 48.44Z"/></g></g></g></svg>