<svg xmlns="http://www.w3.org/2000/svg" viewBox="0 0 233.14999389648438 44.650001525878906" data-asc="0.75" width="233.14999389648438" height="44.650001525878906"><defs/><g><g fill="#000000"><g transform="translate(0, 0)"><path d="M7.35 41.55Q8.75 40.05 9.55 37.92Q10.35 35.80 10.35 33L10.35 2.50L0 2.50L0 4.45L8.30 4.45L8.30 32.85Q8.30 35.15 7.68 36.92Q7.05 38.70 5.95 39.90Q4.85 41.20 3.33 41.88Q1.80 42.55 0 42.65L0 44.65Q2.15 44.60 4.05 43.80Q5.95 43 7.35 41.55ZM30.75 35Q32.05 33.65 32.83 31.90Q33.60 30.15 33.60 28.10Q33.60 26.10 32.83 24.30Q32.05 22.50 30.75 21.15Q29.40 19.85 27.58 19.07Q25.75 18.30 23.70 18.30Q21.65 18.30 19.85 19.07Q18.05 19.85 16.75 21.15Q15.40 22.50 14.65 24.30Q13.90 26.10 13.90 28.10Q13.90 30.15 14.65 31.93Q15.40 33.70 16.75 35Q18.05 36.35 19.83 37.10Q21.60 37.85 23.70 37.85Q25.75 37.85 27.58 37.10Q29.40 36.35 30.75 35M18.20 33.55Q17.15 32.55 16.55 31.15Q15.95 29.75 15.95 28.10Q15.95 26.50 16.55 25.10Q17.15 23.70 18.20 22.60Q19.25 21.55 20.65 20.95Q22.05 20.35 23.65 20.35Q25.25 20.35 26.68 20.95Q28.10 21.55 29.15 22.60Q30.25 23.70 30.85 25.10Q31.45 26.50 31.45 28.10Q31.45 29.75 30.85 31.15Q30.25 32.55 29.15 33.55Q28.10 34.65 26.68 35.25Q25.25 35.85 23.65 35.85Q22.05 35.85 20.65 35.25Q19.25 34.65 18.20 33.55ZM48.55 35.90Q49.25 35.10 49.58 34.13Q49.90 33.15 49.90 32.25Q49.90 30.65 49.23 29.70Q48.55 28.75 47.55 28.15Q46.50 27.55 45.33 27.17Q44.15 26.80 43.10 26.35Q42.10 25.95 41.38 25.32Q40.65 24.70 40.65 23.60Q40.65 22.75 40.95 22.15Q41.25 21.55 41.70 21.15Q42.20 20.80 42.88 20.63Q43.55 20.45 44.20 20.45Q45.05 20.45 45.80 20.65Q46.55 20.85 47.25 21.25L47.25 23.85L49.15 23.85L49.15 20.20Q48.65 19.75 48.05 19.43Q47.45 19.10 46.80 18.85Q46 18.60 45.40 18.52Q44.80 18.45 44.15 18.45Q43.25 18.45 42.20 18.77Q41.15 19.10 40.35 19.75Q39.55 20.40 39.08 21.35Q38.60 22.30 38.60 23.65Q38.60 25.30 39.27 26.23Q39.95 27.15 41 27.65Q42.05 28.15 43.25 28.50Q44.45 28.85 45.45 29.30Q46.50 29.70 47.15 30.40Q47.80 31.10 47.80 32.40Q47.80 33.30 47.48 33.92Q47.15 34.55 46.60 35Q46 35.45 45.30 35.67Q44.60 35.90 43.85 35.90Q42.75 35.90 41.75 35.73Q40.75 35.55 39.80 34.95L39.80 32.40L37.95 32.40L37.95 36.05Q39.10 37.15 40.63 37.52Q42.15 37.90 43.75 37.90Q45.45 37.90 46.63 37.35Q47.80 36.80 48.55 35.90ZM63 20.35Q64.95 20.35 66.53 21.43Q68.10 22.50 69 24.20Q65.60 25.55 62.23 26.88Q58.85 28.20 55.45 29.55Q55.10 27.85 55.50 26.23Q55.90 24.60 56.90 23.30Q57.95 21.95 59.53 21.15Q61.10 20.35 63 20.35M69.55 35.25L68.30 33.75Q67.25 34.75 65.90 35.30Q64.55 35.85 63 35.85Q60.65 35.85 58.80 34.65Q56.95 33.45 56.05 31.50Q59.95 29.90 63.83 28.40Q67.70 26.90 71.60 25.35Q71.10 23.85 70.30 22.57Q69.50 21.30 68.45 20.40Q67.35 19.40 65.95 18.88Q64.55 18.35 63 18.35Q60.95 18.35 59.18 19.13Q57.40 19.90 56.05 21.20Q54.70 22.50 53.95 24.30Q53.20 26.10 53.20 28.10Q53.20 30.15 53.95 31.90Q54.70 33.65 56.05 35Q57.40 36.35 59.18 37.10Q60.95 37.85 63 37.85Q64.95 37.85 66.60 37.15Q68.25 36.45 69.55 35.25ZM84.90 37.50L84.90 35.55L80.35 35.55L80.35 20.75L86.60 20.75L86.60 18.75L80.35 18.75L80.35 11.55Q80.35 9.30 81 7.55Q81.65 5.80 82.80 4.55Q83.90 3.30 85.42 2.65Q86.95 2 88.65 1.95L88.65 0Q86.45 0.10 84.58 0.88Q82.70 1.65 81.30 3.10Q79.90 4.55 79.10 6.70Q78.30 8.85 78.30 11.60L78.30 18.75L75.25 18.75L75.25 20.75L78.30 20.75L78.30 35.55L75.25 35.55L75.25 37.50L84.90 37.50ZM100.05 37.50L100.05 35.55L96.30 35.55L96.30 18.75L90.40 18.75L90.40 20.70L94.25 20.70L94.25 35.55L90.40 35.55L90.40 37.50L100.05 37.50M96.95 12.10Q96.95 11.40 96.45 10.92Q95.95 10.45 95.30 10.45Q94.70 10.45 94.20 10.92Q93.70 11.40 93.70 12.10Q93.70 12.80 94.20 13.27Q94.70 13.75 95.30 13.75Q95.95 13.75 96.45 13.27Q96.95 12.80 96.95 12.10ZM113.20 37.50L113.20 35.55L109.50 35.55L109.50 27.25Q109.50 25.75 110.13 24.50Q110.75 23.25 111.85 22.30Q112.85 21.40 114.25 20.90Q115.65 20.40 117.20 20.40Q119.30 20.50 120.38 21.67Q121.45 22.85 121.55 24.50L121.55 35.55L117.65 35.55L117.65 37.50L127.30 37.50L127.30 35.55L123.60 35.55L123.60 23.95Q123.50 21.45 121.90 19.90Q120.30 18.35 117.55 18.35Q114.75 18.35 112.55 19.80Q110.35 21.25 109.35 23.60Q109.30 22.75 109.25 22.07Q109.20 21.40 109.15 20.55L109.10 18.75L103.85 18.75L103.85 20.70L107.45 20.70L107.45 35.55L103.55 35.55L103.55 37.50L113.20 37.50ZM163.70 35.25Q165.10 34 165.93 32.20Q166.75 30.40 166.75 28.20Q166.70 24.75 165.33 22.85Q163.95 20.95 161.90 19.90Q159.75 18.85 157.33 18.25Q154.90 17.65 152.95 16.75Q151.25 16 150.15 14.77Q149.05 13.55 149.05 11.30Q149.05 9.95 149.48 8.70Q149.90 7.45 150.75 6.45Q151.60 5.45 152.93 4.85Q154.25 4.25 156.05 4.25Q158.10 4.25 159.63 4.73Q161.15 5.20 162.10 5.80L162.10 10.20L164.10 10.20L164.10 4.80Q163.15 4.05 162.08 3.52Q161 3 160 2.75Q158.95 2.50 157.95 2.40Q156.95 2.30 156.10 2.30Q153.60 2.30 151.85 3.13Q150.10 3.95 149 5.30Q147.90 6.65 147.43 8.32Q146.95 10 147 11.65Q147.10 14.10 148.10 15.55Q149.10 17 150.65 17.90Q152.15 18.75 153.98 19.30Q155.80 19.85 157.55 20.40Q159.05 20.95 160.38 21.52Q161.70 22.10 162.70 23.10Q163.65 23.95 164.18 25.25Q164.70 26.55 164.70 28.30Q164.70 30.05 163.95 31.48Q163.20 32.90 162.05 33.90Q160.80 34.85 159.25 35.40Q157.70 35.95 156 35.95Q153.20 35.95 151.20 35.05Q149.20 34.15 147.85 32.90L147.85 28.40L145.85 28.40L145.85 33.75Q146.40 34.40 147.35 35.13Q148.30 35.85 149.65 36.45Q150.90 37.10 152.58 37.50Q154.25 37.90 156.20 37.90Q158.35 37.90 160.30 37.23Q162.25 36.55 163.70 35.25ZM179.35 37.50L179.35 35.55L175.45 35.55L175.45 0L169.85 0L169.85 1.95L173.40 1.95L173.40 35.55L169.70 35.55L169.70 37.50L179.35 37.50ZM206.25 37.50L206.25 35.55L202.55 35.55L202.55 18.75L200.90 18.75Q200.80 19.85 200.75 20.97Q200.70 22.10 200.70 23.15Q199.85 21.20 197.75 19.77Q195.65 18.35 192.70 18.35Q190.60 18.35 188.83 19.13Q187.05 19.90 185.70 21.20Q184.35 22.55 183.60 24.35Q182.85 26.15 182.85 28.10Q182.85 30.15 183.60 31.90Q184.35 33.65 185.70 35Q187.05 36.35 188.83 37.10Q190.60 37.85 192.70 37.85Q194.20 37.85 195.53 37.45Q196.85 37.05 197.90 36.35Q198.90 35.70 199.63 34.88Q200.35 34.05 200.70 33.15Q200.70 33.80 200.70 34.33Q200.70 34.85 200.70 35.45L200.70 37.50L206.25 37.50M192.70 20.35Q194.30 20.35 195.70 20.93Q197.10 21.50 198.20 22.55Q199.25 23.60 199.88 25.02Q200.50 26.45 200.50 28.10Q200.50 29.75 199.88 31.18Q199.25 32.60 198.15 33.65Q197.10 34.70 195.70 35.27Q194.30 35.85 192.70 35.85Q191.10 35.85 189.75 35.30Q188.40 34.75 187.35 33.75Q186.20 32.70 185.55 31.25Q184.90 29.80 184.90 28.10Q184.90 26.50 185.48 25.10Q186.05 23.70 187.10 22.65Q188.10 21.55 189.55 20.95Q191.00 20.35 192.70 20.35ZM209.75 37.50L215.30 37.50L215.30 35.45Q215.30 34.85 215.30 34.33Q215.30 33.80 215.30 33.15Q215.60 34.05 216.35 34.88Q217.10 35.70 218.15 36.35Q219.15 37.05 220.48 37.45Q221.80 37.85 223.30 37.85Q225.35 37.85 227.15 37.10Q228.95 36.35 230.30 35Q231.60 33.65 232.38 31.90Q233.15 30.15 233.15 28.10Q233.15 26.10 232.38 24.30Q231.60 22.50 230.30 21.20Q228.95 19.90 227.15 19.13Q225.35 18.35 223.30 18.35Q221.85 18.35 220.55 18.75Q219.25 19.15 218.20 19.80Q217.15 20.50 216.45 21.32Q215.75 22.15 215.45 23Q215.50 22.25 215.50 21.82Q215.50 21.40 215.50 20.65L215.50 0L209.95 0L209.95 1.95L213.45 1.95L213.45 35.55L209.75 35.55L209.75 37.50M223.30 20.35Q224.90 20.35 226.30 20.93Q227.70 21.50 228.75 22.50Q229.85 23.55 230.45 25Q231.05 26.45 231.05 28.10Q231.05 29.75 230.45 31.15Q229.85 32.55 228.85 33.60Q227.75 34.65 226.35 35.25Q224.95 35.85 223.30 35.85Q221.70 35.85 220.30 35.27Q218.90 34.70 217.85 33.65Q216.75 32.60 216.13 31.18Q215.50 29.75 215.50 28.10Q215.50 26.50 216.08 25.10Q216.65 23.70 217.70 22.65Q218.75 21.55 220.18 20.95Q221.60 20.35 223.30 20.35Z"/></g></g></g></svg>