<svg xmlns="http://www.w3.org/2000/svg" viewBox="0 11.75 108.16999816894531 34.70000076293945" data-asc="0.917" width="108.16999816894531" height="34.70000076293945"><defs/><g><g fill="#000000"><g transform="translate(0, 0)"><path d="M18.05 14.45L23.45 14.45L3.40 35.10L3.40 29.60L18.05 14.45M9.05 27.70L24.30 45.85L19.20 45.85L6.25 30.25L9.05 27.70M0 14.45L3.95 14.45L3.95 45.85L0 45.85L0 14.45ZM45.17 45.85L44.67 40.60L44.67 30.35Q44.67 27.13 43.30 25.71Q41.92 24.30 39.17 24.30Q37.63 24.30 36.36 24.75Q35.10 25.20 34.36 26.14Q33.63 27.07 33.63 28.55L29.27 28.55Q29.27 25.95 30.55 24.36Q31.82 22.77 34.06 22.06Q36.30 21.35 39.17 21.35Q41.92 21.35 44.05 22.27Q46.17 23.20 47.38 25.21Q48.58 27.23 48.58 30.45L48.58 45.85L45.17 45.85M37.02 46.45Q34.08 46.45 32.15 45.40Q30.23 44.35 29.27 42.68Q28.32 41 28.32 39.15Q28.32 36.73 29.54 35.20Q30.75 33.67 32.85 32.96Q34.95 32.25 37.58 32.25Q39.45 32.25 41.34 32.63Q43.23 33 45.03 33.65L45.03 36.10Q43.52 35.50 41.64 35.15Q39.75 34.80 38.17 34.80Q35.77 34.80 34.13 35.79Q32.48 36.77 32.48 39.15Q32.48 40.90 33.74 42.15Q35 43.40 37.77 43.40Q39.73 43.40 41.29 42.49Q42.85 41.58 43.76 40.20Q44.67 38.83 44.67 37.45L45.63 37.45Q45.63 39.85 44.59 41.90Q43.55 43.95 41.63 45.20Q39.70 46.45 37.02 46.45ZM57.90 45.85L57.90 21.90L61.80 21.90L61.80 45.85L57.90 45.85M60.60 35.05Q60.60 30.50 61.48 27.49Q62.35 24.48 64.04 22.99Q65.72 21.50 68.15 21.50Q68.95 21.50 69.61 21.61Q70.28 21.73 70.95 21.95L70.70 25.80Q70 25.57 69.17 25.41Q68.35 25.25 67.70 25.25Q65.58 25.25 64.28 26.46Q62.98 27.68 62.39 29.88Q61.80 32.08 61.80 35.05L60.60 35.05ZM75.97 45.85L75.97 11.75L79.88 11.75L79.88 45.85L75.97 45.85ZM104.78 45.85L104.28 40.60L104.28 30.35Q104.28 27.13 102.90 25.71Q101.53 24.30 98.78 24.30Q97.22 24.30 95.96 24.75Q94.70 25.20 93.96 26.14Q93.22 27.07 93.22 28.55L88.88 28.55Q88.88 25.95 90.15 24.36Q91.42 22.77 93.66 22.06Q95.90 21.35 98.78 21.35Q101.53 21.35 103.65 22.27Q105.78 23.20 106.97 25.21Q108.17 27.23 108.17 30.45L108.17 45.85L104.78 45.85M96.63 46.45Q93.67 46.45 91.75 45.40Q89.83 44.35 88.88 42.68Q87.92 41 87.92 39.15Q87.92 36.73 89.14 35.20Q90.35 33.67 92.45 32.96Q94.55 32.25 97.17 32.25Q99.05 32.25 100.94 32.63Q102.83 33 104.63 33.65L104.63 36.10Q103.13 35.50 101.24 35.15Q99.35 34.80 97.78 34.80Q95.38 34.80 93.72 35.79Q92.08 36.77 92.08 39.15Q92.08 40.90 93.34 42.15Q94.60 43.40 97.38 43.40Q99.33 43.40 100.89 42.49Q102.45 41.58 103.36 40.20Q104.28 38.83 104.28 37.45L105.22 37.45Q105.22 39.85 104.19 41.90Q103.15 43.95 101.22 45.20Q99.30 46.45 96.63 46.45Z"/></g></g></g></svg>