<svg xmlns="http://www.w3.org/2000/svg" viewBox="0.04736846685409546 15.326885223388672 205.6193084716797 40.03717803955078" data-asc="1.065" width="205.6193084716797" height="40.03717803955078"><defs/><g fill="#000000"><g transform="translate(0, 0)"><path d="M3.25 18.55Q3.30 17.95 3.90 17.15Q4.50 16.35 5.15 15.92Q5.80 15.50 6.20 15.40Q7.10 15.15 7.05 15.95L5.20 36.80L22.90 16.80Q23.55 16.05 24.33 15.63Q25.10 15.20 25.50 15.38Q25.90 15.55 25.70 16.23Q25.50 16.90 24.80 17.70L13.70 30.25L25.10 51.60Q25.30 51.95 24.90 52.73Q24.50 53.50 23.75 54.17Q23.00 54.85 22.30 55.08Q21.60 55.30 21.40 54.90L10.30 34.10L4.90 40.20L3.85 51.95Q3.80 52.50 3.20 53.30Q2.60 54.10 1.95 54.55Q1.30 55 0.90 55.10Q0 55.35 0.05 54.55L3.25 18.55ZM52.33 49.85Q52.33 49.85 52.64 49.80Q52.95 49.75 53.05 50.23Q53.15 50.70 52.63 51.50Q52.10 52.30 50.85 53.30Q49.60 54.30 48.20 54.85Q45.45 55.95 44.80 53.85Q44.50 53 44.55 50.70Q41.95 53.85 39.30 54.80Q36.65 55.75 34.35 55.10Q27.20 53.10 30.05 38.60Q31 33.80 33.40 30.70Q37.50 25.40 43.45 26.20Q45.95 26.50 47.35 28.05Q48.50 26.50 49.75 26.20Q50.15 26.10 50.38 26.27Q50.60 26.45 50.55 26.85Q47.65 48 48.50 50.65Q48.90 51.85 49.80 51.40Q50.20 51.20 50.95 50.58Q51.70 49.95 52.33 49.85M44.80 45.70Q45.15 41.70 45.30 40.60Q46.60 30.80 40.45 30Q38.95 29.80 37.85 30.05Q36.35 30.35 35.80 31Q34.55 32.60 33.75 36.70Q32.95 40.80 33.05 43.95Q33.35 50.15 37.45 51.30Q40.60 52.20 42.30 50.15Q43.55 48.65 44.80 45.70ZM56.98 28.42Q56.98 28.42 57.21 28.04Q57.45 27.65 58.20 27Q58.95 26.35 59.60 26.22Q60.25 26.10 60.40 26.50L66.40 47.90L74.45 28.85Q74.75 28.15 75.48 27.40Q76.20 26.65 76.93 26.35Q77.65 26.05 77.95 26.32Q78.25 26.60 77.95 27.35L67.35 52.50Q66.60 54.25 64.85 55Q63.85 55.45 63.70 54.80L56.60 29.65Q56.50 29.20 56.98 28.42ZM83.25 29.35Q83.30 28.80 83.90 28Q84.50 27.20 85.15 26.77Q85.80 26.35 86.25 26.25Q87.15 26.05 87.05 26.80L84.40 52Q84.35 52.60 83.75 53.38Q83.15 54.15 82.50 54.58Q81.85 55 81.40 55.10Q80.50 55.30 80.60 54.50L83.25 29.35M83.50 20.75Q83.55 20.20 84.13 19.40Q84.70 18.60 85.35 18.15Q86.00 17.70 86.45 17.60Q87.35 17.35 87.30 18.15L87.05 21.65Q87.00 22.20 86.43 23Q85.85 23.80 85.20 24.25Q84.55 24.70 84.10 24.80Q83.20 25.05 83.25 24.25L83.50 20.75ZM91.18 28.42Q91.18 28.42 91.41 28.04Q91.65 27.65 92.40 27Q93.15 26.35 93.80 26.22Q94.45 26.10 94.60 26.50L100.60 47.90L108.65 28.85Q108.95 28.15 109.68 27.40Q110.40 26.65 111.13 26.35Q111.85 26.05 112.15 26.32Q112.45 26.60 112.15 27.35L101.55 52.50Q100.80 54.25 99.05 55Q98.05 55.45 97.90 54.80L90.80 29.65Q90.70 29.20 91.18 28.42ZM136.33 49.85Q136.33 49.85 136.64 49.80Q136.95 49.75 137.05 50.23Q137.15 50.70 136.63 51.50Q136.10 52.30 134.85 53.30Q133.60 54.30 132.20 54.85Q129.45 55.95 128.80 53.85Q128.50 53 128.55 50.70Q125.95 53.85 123.30 54.80Q120.65 55.75 118.35 55.10Q111.20 53.10 114.05 38.60Q115.00 33.80 117.40 30.70Q121.50 25.40 127.45 26.20Q129.95 26.50 131.35 28.05Q132.50 26.50 133.75 26.20Q134.15 26.10 134.38 26.27Q134.60 26.45 134.55 26.85Q131.65 48 132.50 50.65Q132.90 51.85 133.80 51.40Q134.20 51.20 134.95 50.58Q135.70 49.95 136.33 49.85M128.80 45.70Q129.15 41.70 129.30 40.60Q130.60 30.80 124.45 30Q122.95 29.80 121.85 30.05Q120.35 30.35 119.80 31Q118.55 32.60 117.75 36.70Q116.95 40.80 117.05 43.95Q117.35 50.15 121.45 51.30Q124.60 52.20 126.30 50.15Q127.55 48.65 128.80 45.70ZM142.80 29.35Q142.85 28.80 143.45 28Q144.05 27.20 144.70 26.77Q145.35 26.35 145.80 26.25Q146.70 26.05 146.60 26.80L146.25 30.10Q147.65 28.50 149.65 27.35Q151.65 26.20 153.75 26.20Q162.30 26.10 161.05 37.95L159.85 51.95Q159.80 52.50 159.20 53.30Q158.60 54.10 157.95 54.55Q157.30 55 156.90 55.10Q156 55.35 156.05 54.55L157.25 40.55Q158.40 29.95 151.05 30Q149.60 30 148.90 30.40Q147.15 31.40 145.65 35.90Q145.65 35.95 145.65 36.05L143.95 52Q143.90 52.60 143.30 53.38Q142.70 54.15 142.05 54.58Q141.40 55 140.95 55.10Q140.05 55.30 140.15 54.50L142.80 29.35ZM187.22 49.85Q187.22 49.85 187.54 49.80Q187.85 49.75 187.95 50.23Q188.05 50.70 187.53 51.50Q187 52.30 185.75 53.30Q184.50 54.30 183.10 54.85Q180.35 55.95 179.70 53.85Q179.40 53 179.45 50.70Q176.85 53.85 174.20 54.80Q171.55 55.75 169.25 55.10Q162.10 53.10 164.95 38.60Q165.90 33.80 168.30 30.70Q172.40 25.40 178.35 26.20Q180.85 26.50 182.25 28.05Q183.40 26.50 184.65 26.20Q185.05 26.10 185.28 26.27Q185.50 26.45 185.45 26.85Q182.55 48 183.40 50.65Q183.80 51.85 184.70 51.40Q185.10 51.20 185.85 50.58Q186.60 49.95 187.22 49.85M179.70 45.70Q180.05 41.70 180.20 40.60Q181.50 30.80 175.35 30Q173.85 29.80 172.75 30.05Q171.25 30.35 170.70 31Q169.45 32.60 168.65 36.70Q167.85 40.80 167.95 43.95Q168.25 50.15 172.35 51.30Q175.50 52.20 177.20 50.15Q178.45 48.65 179.70 45.70ZM193.70 29.35Q193.75 28.80 194.35 28Q194.95 27.20 195.60 26.77Q196.25 26.35 196.70 26.25Q197.60 26.05 197.50 26.80L197.25 29Q201.10 25.75 205.20 26.20Q205.90 26.30 205.55 27.25Q205.05 28.55 203.90 29.30Q202.75 30.05 202.30 30Q199.75 29.70 197.95 31.05Q197.10 31.70 196.75 34.10L194.85 52Q194.80 52.60 194.20 53.38Q193.60 54.15 192.95 54.58Q192.30 55 191.85 55.10Q190.95 55.30 191.05 54.50L192.90 37Q192.90 36.90 192.95 36.60L193.70 29.35Z"/></g></g></svg>