<svg xmlns="http://www.w3.org/2000/svg" viewBox="0 13.520000457763672 91.30000305175781 36.22999954223633" data-asc="0.987" width="91.30000305175781" height="36.22999954223633"><defs/><g fill="#000000"><g transform="translate(0, 0)"><path d="M4.85 45.27L20.35 45.27L20.35 49.35L0 49.35L0 13.52L4.85 13.52L4.85 45.27ZM43.60 49.35L41.63 49.35Q40.98 49.35 40.58 49.15Q40.17 48.95 40.05 48.30L39.55 45.95Q38.55 46.85 37.60 47.56Q36.65 48.27 35.60 48.76Q34.55 49.25 33.36 49.50Q32.18 49.75 30.73 49.75Q29.25 49.75 27.96 49.34Q26.68 48.93 25.73 48.10Q24.78 47.27 24.21 46.01Q23.65 44.75 23.65 43.02Q23.65 41.52 24.48 40.14Q25.30 38.75 27.14 37.67Q28.98 36.60 31.95 35.91Q34.93 35.23 39.23 35.13L39.23 33.15Q39.23 30.20 37.96 28.69Q36.70 27.18 34.23 27.18Q32.60 27.18 31.49 27.59Q30.38 28 29.56 28.51Q28.75 29.02 28.16 29.44Q27.58 29.85 27 29.85Q26.55 29.85 26.21 29.61Q25.88 29.38 25.68 29.02L24.88 27.60Q26.98 25.57 29.40 24.57Q31.83 23.57 34.78 23.57Q36.90 23.57 38.55 24.27Q40.20 24.98 41.33 26.23Q42.45 27.48 43.03 29.25Q43.60 31.03 43.60 33.15L43.60 49.35M32.05 46.63Q33.23 46.63 34.20 46.39Q35.18 46.15 36.04 45.71Q36.90 45.27 37.69 44.65Q38.48 44.02 39.23 43.23L39.23 37.95Q36.15 38.05 34 38.44Q31.85 38.83 30.50 39.45Q29.15 40.08 28.54 40.92Q27.93 41.77 27.93 42.83Q27.93 43.83 28.25 44.55Q28.58 45.27 29.13 45.74Q29.68 46.20 30.43 46.41Q31.18 46.63 32.05 46.63ZM58.03 49.75Q55.03 49.75 53.41 48.08Q51.80 46.40 51.80 43.25L51.80 27.75L48.75 27.75Q48.35 27.75 48.08 27.51Q47.80 27.27 47.80 26.77L47.80 25L51.95 24.48L52.98 16.65Q53.03 16.27 53.30 16.04Q53.58 15.80 54 15.80L56.25 15.80L56.25 24.52L63.50 24.52L63.50 27.75L56.25 27.75L56.25 42.95Q56.25 44.55 57.03 45.33Q57.80 46.10 59.03 46.10Q59.73 46.10 60.24 45.91Q60.75 45.73 61.13 45.50Q61.50 45.27 61.76 45.09Q62.03 44.90 62.23 44.90Q62.58 44.90 62.85 45.33L64.15 47.45Q63 48.52 61.38 49.14Q59.75 49.75 58.03 49.75ZM79.25 23.63Q82.03 23.63 84.26 24.55Q86.50 25.48 88.06 27.18Q89.63 28.88 90.46 31.29Q91.30 33.70 91.30 36.67Q91.30 39.67 90.46 42.08Q89.63 44.48 88.06 46.18Q86.50 47.88 84.26 48.79Q82.03 49.70 79.25 49.70Q76.48 49.70 74.24 48.79Q72.00 47.88 70.43 46.18Q68.85 44.48 68.00 42.08Q67.15 39.67 67.15 36.67Q67.15 33.70 68.00 31.29Q68.85 28.88 70.43 27.18Q72.00 25.48 74.24 24.55Q76.48 23.63 79.25 23.63M79.25 46.23Q83.00 46.23 84.85 43.71Q86.70 41.20 86.70 36.70Q86.70 32.17 84.85 29.65Q83.00 27.13 79.25 27.13Q77.35 27.13 75.95 27.77Q74.55 28.43 73.61 29.65Q72.68 30.88 72.21 32.66Q71.75 34.45 71.75 36.70Q71.75 38.95 72.21 40.73Q72.68 42.50 73.61 43.71Q74.55 44.93 75.95 45.58Q77.35 46.23 79.25 46.23Z"/></g></g></svg>