<svg xmlns="http://www.w3.org/2000/svg" viewBox="0 15.300000190734863 101.5999984741211 35.79999923706055" data-asc="1.006" width="101.5999984741211" height="35.79999923706055"><defs/><g><g fill="#000000"><g transform="translate(0, 0)"><path d="M0 50.30L0 48.65Q1.90 48.55 2.60 47.77Q3.30 47 3.38 45.63Q3.45 44.25 3.45 42.50L3.45 20.90Q3.45 19.90 3.50 18.97Q3.55 18.05 3.60 17.30Q2.70 17.35 1.80 17.40Q0.90 17.45 0 17.50L0 15.30L11.25 15.30L11.25 16.95Q9.40 17.00 8.68 17.80Q7.95 18.60 7.88 19.95Q7.80 21.30 7.80 23.10L7.80 44.55Q7.80 45.90 7.78 46.85Q7.75 47.80 7.65 48.45L17 48.30Q20.15 48.25 21.78 46.30Q23.40 44.35 23.40 39.95L25.10 39.95L24.80 50.30L0 50.30ZM40.75 51.10Q37.25 51.10 34.40 49.47Q31.55 47.85 29.88 44.97Q28.20 42.10 28.20 38.40Q28.20 34.45 29.85 31.30Q31.50 28.15 34.35 26.32Q37.20 24.50 40.75 24.50Q44.25 24.50 47.10 26.17Q49.95 27.85 51.65 30.70Q53.35 33.55 53.35 37.20Q53.35 41.05 51.68 44.22Q50 47.40 47.15 49.25Q44.30 51.10 40.75 51.10M41.15 49.10Q43.80 49.10 45.35 47.60Q46.90 46.10 47.58 43.70Q48.25 41.30 48.25 38.65Q48.25 36.40 47.83 34.22Q47.40 32.05 46.50 30.27Q45.60 28.50 44.18 27.45Q42.75 26.40 40.75 26.40Q38.15 26.40 36.50 27.90Q34.85 29.40 34.08 31.80Q33.30 34.20 33.30 36.95Q33.30 40.05 34.15 42.82Q35 45.60 36.75 47.35Q38.50 49.10 41.15 49.10ZM57.60 48.80Q59.15 48.80 59.75 48.02Q60.35 47.25 60.45 45.88Q60.55 44.50 60.55 42.70L60.55 31.30Q60.55 30.50 60.58 29.70Q60.60 28.90 60.75 28.05Q59.85 28.10 58.98 28.12Q58.10 28.15 57.20 28.20L57.20 26.15L58.75 26.15Q60.90 26.15 61.73 25.72Q62.55 25.30 63.10 24.80L64.55 24.80Q64.65 25.60 64.70 26.77Q64.75 27.95 64.80 29.75Q65.55 28.50 66.85 27.30Q68.15 26.10 69.78 25.30Q71.40 24.50 73.20 24.50Q74.60 24.50 75.65 25.25Q76.70 26.00 76.70 27.65Q76.70 28.05 76.45 28.62Q76.20 29.20 75.65 29.62Q75.10 30.05 74.20 30.05Q73.10 30.00 72.45 29.17Q71.80 28.35 71.95 27.25Q70.70 27.20 69.38 27.90Q68.05 28.60 66.90 29.82Q65.75 31.05 64.85 32.70L64.90 45Q64.90 46 64.88 46.77Q64.85 47.55 64.70 48.40Q65.50 48.35 66.28 48.32Q67.05 48.30 67.85 48.25L67.85 50.30L57.60 50.30L57.60 48.80ZM94.45 50.30Q94.30 49.45 94.25 48.80Q94.20 48.15 94.10 47.45Q92.40 49.15 90.43 50.13Q88.45 51.10 86.25 51.10Q82.45 51.10 80.60 49.38Q78.75 47.65 78.75 45.15Q78.75 42.85 80.18 41.17Q81.60 39.50 83.88 38.42Q86.15 37.35 88.83 36.82Q91.50 36.30 94.00 36.35L94.00 33.25Q94.00 31.50 93.70 29.95Q93.40 28.40 92.40 27.40Q91.40 26.40 89.20 26.35Q87.75 26.30 86.23 26.90Q84.70 27.50 84.00 28.95Q84.40 29.35 84.53 29.87Q84.65 30.40 84.65 30.85Q84.65 31.45 84.15 32.22Q83.65 33 82.40 32.95Q81.35 32.95 80.80 32.22Q80.25 31.50 80.25 30.50Q80.25 28.80 81.53 27.45Q82.80 26.10 85.05 25.30Q87.30 24.50 90.15 24.50Q94.35 24.50 96.35 26.72Q98.35 28.95 98.30 33.75Q98.30 35.60 98.30 37.47Q98.30 39.35 98.28 41.22Q98.25 43.10 98.25 45Q98.25 45.80 98.20 46.60Q98.15 47.40 98.05 48.40Q98.95 48.35 99.83 48.30Q100.70 48.25 101.60 48.20L101.60 50.30L94.45 50.30M94.00 38.05Q92.30 38.10 90.43 38.47Q88.55 38.85 86.98 39.60Q85.40 40.35 84.43 41.57Q83.45 42.80 83.50 44.55Q83.60 46.40 84.73 47.32Q85.85 48.25 87.40 48.25Q89.45 48.25 90.98 47.47Q92.50 46.70 94.00 45.30Q93.95 44.75 93.95 44.10Q93.95 43.45 93.95 42.75Q93.95 42.50 93.98 41.15Q94.00 39.80 94.00 38.05Z"/></g></g></g></svg>