<svg xmlns="http://www.w3.org/2000/svg" viewBox="0 16.25 355.75 38" data-asc="1.075" width="355.75" height="38"><defs/><g fill="#000000"><g transform="translate(0, 0)"><path d="M3.28 53.17Q3.28 53.17 2.99 53.46Q2.70 53.75 1.90 53.75Q1.10 53.75 0.55 53.17Q0 52.60 0 51.80L0 19.30Q0 18.45 0.58 17.85Q1.15 17.25 2 17.25Q4.05 17.25 5.05 19.05L16 39.20Q16 39.25 16.10 39.25Q16.15 39.25 16.15 39.20L27.10 19.10Q28.05 17.25 30.20 17.25Q31.05 17.25 31.68 17.88Q32.30 18.50 32.30 19.35L32.30 51.75Q32.30 52.55 31.73 53.15Q31.15 53.75 30.30 53.75Q29.45 53.75 28.88 53.15Q28.30 52.55 28.30 51.75L28.30 24Q28.30 23.95 28.25 23.95Q28.20 23.95 28.20 24L18.85 41.25Q17.95 42.90 16.10 42.90Q14.25 42.90 13.35 41.25L3.95 24Q3.95 23.95 3.90 23.95Q3.85 23.95 3.85 24L3.85 51.80Q3.85 52.60 3.28 53.17ZM58.30 20.90L58.30 35.60Q58.30 36 58.75 36.10Q61.15 36.45 64.15 36.45Q69.10 36.45 71.73 34.30Q74.35 32.15 74.35 28.15Q74.35 24.15 71.78 22.07Q69.20 20 64.15 20Q61.45 20 58.75 20.40Q58.30 20.50 58.30 20.90M57.73 53.15Q57.73 53.15 57.44 53.45Q57.15 53.75 56.30 53.75Q55.45 53.75 54.88 53.15Q54.30 52.55 54.30 51.75L54.30 20.35Q54.30 19.15 55.10 18.23Q55.90 17.30 57.10 17.15Q60.95 16.75 64.45 16.75Q71.25 16.75 74.78 19.63Q78.30 22.50 78.30 27.85Q78.30 33.65 74.75 36.65Q71.20 39.65 64.45 39.65Q61.75 39.65 58.75 39.40Q58.30 39.40 58.30 39.75L58.30 51.75Q58.30 52.55 57.73 53.15ZM89.23 53.15Q89.23 53.15 88.94 53.45Q88.65 53.75 87.80 53.75Q86.95 53.75 86.38 53.15Q85.80 52.55 85.80 51.75L85.80 18.25Q85.80 17.45 86.38 16.85Q86.95 16.25 87.80 16.25Q88.65 16.25 89.23 16.85Q89.80 17.45 89.80 18.25L89.80 51.75Q89.80 52.55 89.23 53.15ZM107.45 54.25Q103.10 54.25 101.08 51.85Q99.05 49.45 99.05 43.90L99.05 29.65Q99.05 28.85 99.58 28.30Q100.10 27.75 100.90 27.75Q101.70 27.75 102.25 28.30Q102.80 28.85 102.80 29.65L102.80 43.40Q102.80 47.90 104.15 49.58Q105.50 51.25 108.45 51.25Q111.15 51.25 113.55 48.92Q115.95 46.60 115.95 43.85L115.95 29.65Q115.95 28.85 116.53 28.30Q117.10 27.75 117.90 27.75Q118.70 27.75 119.25 28.30Q119.80 28.85 119.80 29.65L119.80 51.95Q119.80 52.70 119.28 53.23Q118.75 53.75 118.00 53.75Q117.25 53.75 116.70 53.23Q116.15 52.70 116.15 51.95L116.15 49.90Q116.15 49.85 116.10 49.85Q116.05 49.85 116.00 49.90Q112.55 54.25 107.45 54.25ZM135.55 42.10Q130.70 40.95 128.63 39.13Q126.55 37.30 126.55 34.40Q126.55 31.10 129.03 29.17Q131.50 27.25 136.10 27.25Q139.55 27.25 142.95 28.15Q144.50 28.55 144.50 30.20Q144.50 30.80 144.05 31.10Q143.60 31.40 143 31.25Q139.70 30.25 136.40 30.25Q130.40 30.25 130.40 34.10Q130.40 35.80 131.60 36.92Q132.80 38.05 135.95 38.75Q141.35 39.95 143.38 41.80Q145.40 43.65 145.40 47.10Q145.40 50.45 142.83 52.35Q140.25 54.25 135.55 54.25Q131.90 54.25 128.60 53.15Q127.05 52.65 127.05 51Q127.05 50.45 127.55 50.13Q128.05 49.80 128.60 50Q131.85 51.25 135.25 51.25Q141.55 51.25 141.55 47.10Q141.55 45.30 140.28 44.10Q139 42.90 135.55 42.10ZM170.15 20.90L170.15 34.20Q170.15 34.65 170.60 34.65L174.15 34.65Q180.10 34.65 182.90 32.72Q185.70 30.80 185.70 27Q185.70 20 175.15 20Q172.90 20 170.60 20.40Q170.15 20.50 170.15 20.90M169.58 53.15Q169.58 53.15 169.29 53.45Q169 53.75 168.15 53.75Q167.30 53.75 166.72 53.15Q166.15 52.55 166.15 51.75L166.15 20.35Q166.15 19.10 166.95 18.17Q167.75 17.25 168.95 17.10Q171.90 16.75 175.50 16.75Q182.50 16.75 186.08 19.32Q189.65 21.90 189.65 26.65Q189.65 30.45 187.63 32.97Q185.60 35.50 181.85 36.45Q181.80 36.45 181.80 36.55Q181.80 36.60 181.85 36.60Q184 37.85 186.25 43.10L189.85 51.85Q190.15 52.50 189.73 53.13Q189.30 53.75 188.55 53.75Q187.60 53.75 186.83 53.20Q186.05 52.65 185.70 51.80L182.20 43.20Q180.70 39.60 179.38 38.73Q178.05 37.85 174.15 37.85L170.60 37.85Q170.15 37.85 170.15 38.25L170.15 51.75Q170.15 52.55 169.58 53.15ZM213.10 40.75Q213.10 40.75 213.10 35.50Q213.10 30.25 205.10 30.25Q197.10 30.25 197.10 40.75Q197.10 51.25 205.10 51.25Q213.10 51.25 213.10 40.75M213.85 50.70Q213.85 50.70 212.28 52.48Q210.70 54.25 205.10 54.25Q199.50 54.25 196.35 50.70Q193.20 47.15 193.20 40.75Q193.20 34.35 196.35 30.80Q199.50 27.25 205.10 27.25Q210.70 27.25 213.85 30.80Q217.00 34.35 217.00 40.75Q217.00 47.15 213.85 50.70ZM230.90 54.25Q226.55 54.25 224.53 51.85Q222.50 49.45 222.50 43.90L222.50 29.65Q222.50 28.85 223.03 28.30Q223.55 27.75 224.35 27.75Q225.15 27.75 225.70 28.30Q226.25 28.85 226.25 29.65L226.25 43.40Q226.25 47.90 227.60 49.58Q228.95 51.25 231.90 51.25Q234.60 51.25 237.00 48.92Q239.40 46.60 239.40 43.85L239.40 29.65Q239.40 28.85 239.98 28.30Q240.55 27.75 241.35 27.75Q242.15 27.75 242.70 28.30Q243.25 28.85 243.25 29.65L243.25 51.95Q243.25 52.70 242.73 53.23Q242.20 53.75 241.45 53.75Q240.70 53.75 240.15 53.23Q239.60 52.70 239.60 51.95L239.60 49.90Q239.60 49.85 239.55 49.85Q239.50 49.85 239.45 49.90Q236.00 54.25 230.90 54.25ZM254.03 53.20Q254.03 53.20 253.74 53.48Q253.45 53.75 252.65 53.75Q251.85 53.75 251.30 53.20Q250.75 52.65 250.75 51.85L250.75 29.55Q250.75 28.80 251.28 28.27Q251.80 27.75 252.55 27.75Q253.30 27.75 253.85 28.27Q254.40 28.80 254.40 29.55L254.40 31.60Q254.40 31.65 254.45 31.65Q254.50 31.65 254.55 31.60Q258.15 27.25 263.10 27.25Q267.65 27.25 269.70 29.80Q271.75 32.35 271.75 38.25L271.75 51.85Q271.75 52.65 271.23 53.20Q270.70 53.75 269.90 53.75Q269.10 53.75 268.55 53.20Q268 52.65 268 51.85L268 38.75Q268 33.80 266.65 32.02Q265.30 30.25 262.10 30.25Q259.50 30.25 257.05 32.67Q254.60 35.10 254.60 37.65L254.60 51.85Q254.60 52.65 254.03 53.20ZM288.80 30.25Q281.30 30.25 281.30 40.75Q281.30 45.95 283.27 48.60Q285.25 51.25 288.80 51.25Q291.70 51.25 294 49.23Q296.30 47.20 296.30 44.60L296.30 36.90Q296.30 34.35 294.02 32.30Q291.75 30.25 288.80 30.25M288 54.25Q283.35 54.25 280.43 50.63Q277.50 47 277.50 40.75Q277.50 34.30 280.32 30.77Q283.15 27.25 288 27.25Q292.90 27.25 296.15 31.10Q296.20 31.15 296.25 31.15Q296.30 31.15 296.30 31.10L296.30 18.15Q296.30 17.35 296.88 16.80Q297.45 16.25 298.25 16.25Q299.05 16.25 299.60 16.80Q300.15 17.35 300.15 18.15L300.15 51.95Q300.15 52.70 299.63 53.23Q299.10 53.75 298.35 53.75Q297.60 53.75 297.05 53.23Q296.50 52.70 296.50 51.95L296.50 50.10Q296.50 50.05 296.45 50.05Q296.40 50.05 296.35 50.10Q293 54.25 288 54.25ZM317.65 30.15Q310.70 30.15 310.05 38.40Q310.05 38.80 310.50 38.80L323.95 38.80Q324.35 38.80 324.35 38.40Q324.05 30.15 317.65 30.15M318.70 54.25Q312.55 54.25 309.35 50.88Q306.15 47.50 306.15 40.75Q306.15 33.80 309.22 30.52Q312.30 27.25 317.65 27.25Q327.50 27.25 328.10 38.90Q328.15 40.10 327.27 40.92Q326.40 41.75 325.20 41.75L310.40 41.75Q310 41.75 310 42.20Q310.45 51.35 319.05 51.35Q321.90 51.35 324.90 50.30Q325.45 50.10 325.95 50.42Q326.45 50.75 326.45 51.35Q326.45 53.05 324.90 53.45Q321.70 54.25 318.70 54.25ZM344.40 30.25Q336.90 30.25 336.90 40.75Q336.90 45.95 338.87 48.60Q340.85 51.25 344.40 51.25Q347.30 51.25 349.60 49.23Q351.90 47.20 351.90 44.60L351.90 36.90Q351.90 34.35 349.62 32.30Q347.35 30.25 344.40 30.25M343.60 54.25Q338.95 54.25 336.02 50.63Q333.10 47 333.10 40.75Q333.10 34.30 335.92 30.77Q338.75 27.25 343.60 27.25Q348.50 27.25 351.75 31.10Q351.80 31.15 351.85 31.15Q351.90 31.15 351.90 31.10L351.90 18.15Q351.90 17.35 352.47 16.80Q353.05 16.25 353.85 16.25Q354.65 16.25 355.20 16.80Q355.75 17.35 355.75 18.15L355.75 51.95Q355.75 52.70 355.22 53.23Q354.70 53.75 353.95 53.75Q353.20 53.75 352.65 53.23Q352.10 52.70 352.10 51.95L352.10 50.10Q352.10 50.05 352.05 50.05Q352.00 50.05 351.95 50.10Q348.60 54.25 343.60 54.25Z"/></g></g></svg>