<svg xmlns="http://www.w3.org/2000/svg" viewBox="0 17.299999237060547 197.10414123535156 48.000003814697266" data-asc="1.066" width="197.10414123535156" height="48.000003814697266"><defs/><g fill="#000000"><g transform="translate(0, 0)"><path d="M0 53.30L0 17.30L2.68 17.30L17.43 49.15L32.02 17.30L34.80 17.30L34.80 53.25L31.98 53.25L31.98 23.93L18.58 53.30L16.23 53.30L2.80 23.93L2.80 53.30L0 53.30ZM49.60 54.05Q46.48 54.05 44.41 52.95Q42.35 51.85 41.33 50.04Q40.30 48.23 40.30 46.10Q40.30 43.80 41.26 42.25Q42.23 40.70 43.84 39.75Q45.45 38.80 47.40 38.33Q49.63 37.83 52.20 37.46Q54.78 37.10 57.11 36.83Q59.45 36.55 60.93 36.35L59.88 36.98Q59.98 32.60 58.24 30.46Q56.50 28.33 52.13 28.33Q49.05 28.33 47.06 29.71Q45.08 31.10 44.28 34L41.33 33.18Q42.25 29.50 45.05 27.53Q47.85 25.55 52.23 25.55Q55.95 25.55 58.49 27.00Q61.03 28.45 62.03 31.08Q62.45 32.15 62.60 33.59Q62.75 35.03 62.75 36.48L62.75 53.30L60.13 53.30L60.13 46.20L61.10 46.45Q59.88 50.10 56.83 52.08Q53.78 54.05 49.60 54.05M49.75 51.40Q52.50 51.40 54.58 50.41Q56.65 49.43 57.94 47.64Q59.23 45.85 59.58 43.43Q59.83 42.08 59.85 40.50Q59.88 38.93 59.88 38.18L61.13 38.98Q59.50 39.18 57.24 39.40Q54.98 39.63 52.63 39.95Q50.28 40.28 48.38 40.78Q47.20 41.10 46.01 41.71Q44.83 42.33 44.04 43.40Q43.25 44.48 43.25 46.13Q43.25 47.35 43.86 48.58Q44.48 49.80 45.90 50.60Q47.33 51.40 49.75 51.40ZM89.03 53.30L89.03 39.25Q89.03 36.70 88.51 34.70Q88 32.70 86.96 31.30Q85.92 29.90 84.36 29.18Q82.80 28.45 80.67 28.45Q78.47 28.45 76.86 29.21Q75.25 29.98 74.21 31.35Q73.17 32.73 72.66 34.61Q72.15 36.50 72.15 38.73L69.88 38.45Q69.88 34.08 71.36 31.24Q72.85 28.40 75.38 27.04Q77.90 25.68 81.05 25.68Q83.28 25.68 85.04 26.33Q86.80 26.98 88.10 28.16Q89.40 29.35 90.25 30.96Q91.10 32.58 91.51 34.50Q91.92 36.43 91.92 38.53L91.92 53.30L89.03 53.30M69.25 53.30L69.25 26.30L71.88 26.30L71.88 32.38L72.15 32.38L72.15 53.30L69.25 53.30ZM98.42 53.30L98.42 26.30L101.05 26.30L101.05 32.78L100.40 31.93Q100.85 30.78 101.54 29.79Q102.22 28.80 102.95 28.18Q104.02 27.18 105.47 26.66Q106.92 26.15 108.40 26.06Q109.88 25.98 111.08 26.30L111.08 29.03Q109.47 28.65 107.67 28.88Q105.88 29.10 104.30 30.43Q102.92 31.63 102.30 33.21Q101.67 34.80 101.50 36.54Q101.33 38.28 101.33 39.93L101.33 53.30L98.42 53.30ZM126.40 54.05Q122.38 54.05 119.58 52.23Q116.78 50.40 115.30 47.18Q113.83 43.95 113.83 39.75Q113.83 35.53 115.33 32.31Q116.83 29.10 119.64 27.33Q122.45 25.55 126.40 25.55Q130.43 25.55 133.24 27.36Q136.05 29.18 137.51 32.38Q138.97 35.58 138.97 39.75Q138.97 44.03 137.50 47.24Q136.03 50.45 133.20 52.25Q130.38 54.05 126.40 54.05M126.40 51.25Q131.18 51.25 133.54 48.05Q135.90 44.85 135.90 39.75Q135.90 34.55 133.53 31.45Q131.15 28.35 126.40 28.35Q123.18 28.35 121.08 29.81Q118.98 31.28 117.94 33.84Q116.90 36.40 116.90 39.75Q116.90 44.95 119.31 48.10Q121.73 51.25 126.40 51.25ZM156.30 54.05Q152.65 54.05 150.13 52.15Q147.60 50.25 146.28 47.03Q144.95 43.80 144.95 39.75Q144.95 35.68 146.28 32.46Q147.60 29.25 150.20 27.40Q152.80 25.55 156.57 25.55Q160.25 25.55 162.85 27.43Q165.45 29.30 166.81 32.53Q168.18 35.75 168.18 39.75Q168.18 43.80 166.79 47.04Q165.40 50.28 162.76 52.16Q160.13 54.05 156.30 54.05M144.47 65.30L144.47 26.30L147.10 26.30L147.10 47.10L147.35 47.10L147.35 65.30L144.47 65.30M156.13 51.30Q159.10 51.30 161.09 49.78Q163.07 48.25 164.09 45.64Q165.10 43.03 165.10 39.75Q165.10 36.50 164.11 33.91Q163.13 31.33 161.14 29.81Q159.15 28.30 156.07 28.30Q153.10 28.30 151.10 29.76Q149.10 31.23 148.10 33.83Q147.10 36.43 147.10 39.75Q147.10 43.05 148.09 45.66Q149.07 48.28 151.09 49.79Q153.10 51.30 156.13 51.30ZM184.80 54.05Q180.93 54.05 178.10 52.31Q175.28 50.58 173.73 47.39Q172.18 44.20 172.18 39.85Q172.18 35.43 173.71 32.21Q175.25 29.00 178.06 27.28Q180.88 25.55 184.75 25.55Q188.68 25.55 191.46 27.34Q194.25 29.13 195.71 32.50Q197.18 35.88 197.10 40.63L194.10 40.63L194.10 39.63Q193.98 34.08 191.60 31.18Q189.23 28.28 184.80 28.28Q180.23 28.28 177.74 31.29Q175.25 34.30 175.25 39.80Q175.25 45.25 177.74 48.25Q180.23 51.25 184.75 51.25Q187.88 51.25 190.21 49.79Q192.55 48.33 193.93 45.60L196.53 46.75Q194.90 50.25 191.83 52.15Q188.75 54.05 184.80 54.05M174.15 40.63L174.15 38.03L195.48 38.03L195.48 40.63L174.15 40.63Z"/></g></g></svg>