<svg xmlns="http://www.w3.org/2000/svg" viewBox="0 8.25 338.3999938964844 41.5" data-asc="0.984" width="338.3999938964844" height="41.5"><defs/><g><g fill="#000000"><g transform="translate(0, 0)"><path d="M7.90 15.15L2.45 14.55L2.45 12.05L15.70 12.05L22.75 34.55L24.40 40.90L25.90 34.55L32.90 12.05L46.05 12.05L46.05 14.55L40.55 15.15L44.55 46.20L48.90 46.75L48.90 49.20L34.50 49.20L34.50 46.75L39.05 46.25L36.80 23.80L35.75 14.15L33.65 21.35L25.30 47.50L22.05 47.50L13.95 23.55L11 14.10L10.10 23.80L8.10 46.25L13.05 46.75L13.05 49.20L0 49.20L0 46.75L4.25 46.25L7.90 15.15ZM63.75 49.75Q57.70 49.75 54.53 45.80Q51.35 41.85 51.35 35.25Q51.35 30.90 53 27.60Q54.65 24.30 57.63 22.50Q60.60 20.70 64.40 20.70Q69.05 20.70 71.63 23.28Q74.20 25.85 74.35 30.65Q74.35 33.70 74 35.30L56.80 35.30Q56.90 40.25 59.10 43.28Q61.30 46.30 65.35 46.30Q67.35 46.30 69.53 45.58Q71.70 44.85 72.90 43.85L73.85 46.05Q72.40 47.55 69.55 48.65Q66.70 49.75 63.75 49.75M68.85 32.65Q69 31.60 69 30.50Q68.95 27.25 67.63 25.38Q66.30 23.50 63.45 23.50Q60.55 23.50 58.83 25.60Q57.10 27.70 56.85 32.65L68.85 32.65ZM78.75 46.75L82.50 46.45L82.50 25.30L78.90 24.40L78.90 21.70L85.80 20.80L85.90 20.80L87 21.70L87 22.60L86.85 26.50L87 26.50Q87.50 25.65 88.80 24.30Q90.10 22.95 92.15 21.83Q94.20 20.70 96.60 20.70Q97.60 20.70 98.25 20.95L98.25 26.55Q97.90 26.30 97.13 26.08Q96.35 25.85 95.40 25.85Q91.25 25.85 87.70 28.40L87.70 46.40L94.05 46.80L94.05 49.20L78.75 49.20L78.75 46.75ZM101.65 46.75L105.40 46.45L105.40 25.30L101.80 24.40L101.80 21.70L108.70 20.80L108.80 20.80L109.90 21.70L109.90 22.60L109.75 26.50L109.90 26.50Q110.40 25.65 111.70 24.30Q113.00 22.95 115.05 21.83Q117.10 20.70 119.50 20.70Q120.50 20.70 121.15 20.95L121.15 26.55Q120.80 26.30 120.03 26.08Q119.25 25.85 118.30 25.85Q114.15 25.85 110.60 28.40L110.60 46.40L116.95 46.80L116.95 49.20L101.65 49.20L101.65 46.75ZM130.35 16.45Q128.75 16.45 127.95 15.55Q127.15 14.65 127.15 13.25Q127.15 11.65 128.13 10.60Q129.10 9.55 130.80 9.55Q132.50 9.55 133.30 10.45Q134.10 11.35 134.10 12.75Q134.10 14.45 133.13 15.45Q132.15 16.45 130.40 16.45L130.35 16.45M128.35 25.30L124.55 24.40L124.55 21.75L132.30 20.80L132.40 20.80L133.55 21.70L133.55 46.35L137.55 46.75L137.55 49.20L124.30 49.20L124.30 46.75L128.35 46.30L128.35 25.30ZM138.50 21.45L150.15 21.45L150.15 23.80L146.35 24.40L150.50 39.10L151.95 45.45L153.40 39.05L158.20 21.45L163.10 21.45L168.05 39.05L169.50 45.50L171.10 39.10L175.15 24.45L171.35 23.80L171.35 21.45L181.50 21.45L181.50 23.80L178.85 24.45L171.10 49.60L166.40 49.60L161.10 31.95L159.80 25.75L158.75 31.95L153.70 49.60L149.05 49.60L141.05 24.40L138.50 23.80L138.50 21.45ZM195.35 49.75Q189.30 49.75 186.13 45.80Q182.95 41.85 182.95 35.25Q182.95 30.90 184.60 27.60Q186.25 24.30 189.23 22.50Q192.20 20.70 196 20.70Q200.65 20.70 203.23 23.28Q205.80 25.85 205.95 30.65Q205.95 33.70 205.60 35.30L188.40 35.30Q188.50 40.25 190.70 43.28Q192.90 46.30 196.95 46.30Q198.95 46.30 201.13 45.58Q203.30 44.85 204.50 43.85L205.45 46.05Q204 47.55 201.15 48.65Q198.30 49.75 195.35 49.75M200.45 32.65Q200.60 31.60 200.60 30.50Q200.55 27.25 199.23 25.38Q197.90 23.50 195.05 23.50Q192.15 23.50 190.43 25.60Q188.70 27.70 188.45 32.65L200.45 32.65ZM210.25 41.70Q210.25 37 214.95 34.78Q219.65 32.55 226.85 32.40L226.85 31.00Q226.85 28.65 226.35 27.30Q225.85 25.95 224.63 25.33Q223.40 24.70 221.15 24.70Q218.60 24.70 216.57 25.43Q214.55 26.15 212.55 27.20L211.30 24.60Q211.95 24.05 213.70 23.15Q215.45 22.25 217.75 21.55Q220.05 20.85 222.35 20.85Q225.90 20.85 227.97 21.83Q230.05 22.80 230.95 24.95Q231.85 27.10 231.85 30.70L231.85 46.75L234.80 46.75L234.80 48.95Q233.80 49.20 232.28 49.45Q230.75 49.70 229.60 49.70Q228.20 49.70 227.70 49.28Q227.20 48.85 227.20 47.40L227.20 45.75Q225.70 47.25 223.53 48.50Q221.35 49.75 218.60 49.75Q215 49.75 212.63 47.68Q210.25 45.60 210.25 41.70M220.75 46.35Q222.05 46.35 223.75 45.55Q225.45 44.75 226.85 43.65L226.85 35.05Q221.40 35.05 218.63 36.73Q215.85 38.40 215.85 41.10Q215.85 43.80 217.18 45.08Q218.50 46.35 220.75 46.35ZM246.85 49.70Q244 49.70 242.60 48.40Q241.20 47.10 241.20 43.95L241.20 24.75L237.60 24.75L237.60 22.50Q237.85 22.45 239 22.15Q240.15 21.85 240.55 21.60Q241.35 21.15 241.80 19.80Q242.20 18.85 242.75 16.75Q243.30 14.65 243.40 14.25L246.35 14.25L246.45 21.45L254.80 21.45L254.80 24.75L246.45 24.75L246.45 40.10Q246.45 42.95 246.63 44.10Q246.80 45.25 247.38 45.60Q247.95 45.95 249.35 45.95Q250.70 45.95 252.33 45.60Q253.95 45.25 254.85 44.85L255.60 47.10Q254.40 48 251.73 48.85Q249.05 49.70 246.85 49.70ZM261.35 11.90L257.15 11.35L257.15 9.20L265.30 8.25L265.40 8.25L266.50 9L266.50 20.60L266.30 24.85Q267.90 23.40 270.70 22.10Q273.50 20.80 276.35 20.80Q279.50 20.80 281.25 22Q283.00 23.20 283.70 25.68Q284.40 28.15 284.40 32.35L284.40 46.30L287.90 46.75L287.90 49.20L275.95 49.20L275.95 46.75L279.20 46.30L279.20 32.30Q279.20 29.35 278.80 27.68Q278.40 26 277.30 25.18Q276.20 24.35 274.00 24.35Q272.20 24.35 270.15 25.25Q268.10 26.15 266.55 27.35L266.55 46.30L270.00 46.75L270.00 49.20L258.35 49.20L258.35 46.75L261.35 46.35L261.35 11.90ZM303.90 49.75Q297.85 49.75 294.68 45.80Q291.50 41.85 291.50 35.25Q291.50 30.90 293.15 27.60Q294.80 24.30 297.78 22.50Q300.75 20.70 304.55 20.70Q309.20 20.70 311.78 23.28Q314.35 25.85 314.50 30.65Q314.50 33.70 314.15 35.30L296.95 35.30Q297.05 40.25 299.25 43.28Q301.45 46.30 305.50 46.30Q307.50 46.30 309.68 45.58Q311.85 44.85 313.05 43.85L314 46.05Q312.55 47.55 309.70 48.65Q306.85 49.75 303.90 49.75M309 32.65Q309.15 31.60 309.15 30.50Q309.10 27.25 307.78 25.38Q306.45 23.50 303.60 23.50Q300.70 23.50 298.98 25.60Q297.25 27.70 297 32.65L309 32.65ZM318.90 46.75L322.65 46.45L322.65 25.30L319.05 24.40L319.05 21.70L325.95 20.80L326.05 20.80L327.15 21.70L327.15 22.60L327 26.50L327.15 26.50Q327.65 25.65 328.95 24.30Q330.25 22.95 332.30 21.83Q334.35 20.70 336.75 20.70Q337.75 20.70 338.40 20.95L338.40 26.55Q338.05 26.30 337.28 26.08Q336.50 25.85 335.55 25.85Q331.40 25.85 327.85 28.40L327.85 46.40L334.20 46.80L334.20 49.20L318.90 49.20L318.90 46.75Z"/></g></g></g></svg>