<svg xmlns="http://www.w3.org/2000/svg" viewBox="0 8.25 334.45001220703125 41.5" data-asc="0.984" width="334.45001220703125" height="41.5"><defs/><g fill="#000000"><g transform="translate(0, 0)"><path d="M7.95 14.75L2.40 14.20L2.40 12.05L14.20 12.05L21.95 35.15L23.80 41.85L25.45 35.15L33.15 12.05L44.85 12.05L44.85 14.20L39.35 14.75L43.30 46.55L47.85 47.05L47.85 49.20L34.40 49.20L34.40 47.05L39.05 46.60L36.75 23.80L35.65 13.80L33.45 20.70L24.40 47.40L22.40 47.40L13.90 23.50L10.65 13.80L9.65 23.80L7.60 46.60L12.50 47.05L12.50 49.20L0 49.20L0 47.05L4.25 46.60L7.95 14.75ZM62.65 49.75Q56.85 49.75 53.73 45.78Q50.60 41.80 50.60 35.20Q50.60 30.95 52.25 27.65Q53.90 24.35 56.83 22.53Q59.75 20.70 63.40 20.70Q67.85 20.70 70.33 23.25Q72.80 25.80 73 30.60Q73 33.70 72.70 35L54.90 35Q54.90 40.25 57.28 43.58Q59.65 46.90 63.95 46.90Q66.05 46.90 68.25 46.15Q70.45 45.40 71.65 44.35L72.45 46.20Q71 47.70 68.23 48.73Q65.45 49.75 62.65 49.75M68.50 32.65Q68.65 31.60 68.65 30.45Q68.60 27.15 67.08 25.20Q65.55 23.25 62.40 23.25Q55.55 23.25 54.95 32.65L68.50 32.65ZM77.70 47.10L81.70 46.80L81.70 24.75L77.85 23.90L77.85 21.65L84.20 20.85L84.30 20.85L85.25 21.65L85.25 22.45L85.15 26.25L85.25 26.25Q85.35 26.15 86.58 24.73Q87.80 23.30 90.22 22Q92.65 20.70 95.10 20.70Q95.90 20.70 96.60 20.90L96.60 25.30Q96.40 25.15 95.72 25Q95.05 24.85 94.30 24.85Q91.45 24.85 89.45 25.70Q87.45 26.55 85.75 27.80L85.75 46.75L92.40 47.15L92.40 49.20L77.70 49.20L77.70 47.10ZM100.20 47.10L104.20 46.80L104.20 24.75L100.35 23.90L100.35 21.65L106.70 20.85L106.80 20.85L107.75 21.65L107.75 22.45L107.65 26.25L107.75 26.25Q107.85 26.15 109.08 24.73Q110.30 23.30 112.72 22Q115.15 20.70 117.60 20.70Q118.40 20.70 119.10 20.90L119.10 25.30Q118.90 25.15 118.22 25Q117.55 24.85 116.80 24.85Q113.95 24.85 111.95 25.70Q109.95 26.55 108.25 27.80L108.25 46.75L114.90 47.15L114.90 49.20L100.20 49.20L100.20 47.10ZM128.35 16.20Q125.65 16.20 125.65 13.35Q125.65 11.90 126.50 10.98Q127.35 10.05 128.80 10.05Q130.30 10.05 130.95 10.88Q131.60 11.70 131.60 12.90Q131.60 14.45 130.78 15.33Q129.95 16.20 128.40 16.20L128.35 16.20M126.75 24.75L122.85 23.90L122.85 21.65L129.70 20.85L129.80 20.85L130.80 21.65L130.80 46.70L135.15 47.05L135.15 49.20L122.35 49.20L122.35 47.05L126.75 46.65L126.75 24.75ZM136.30 21.45L147.15 21.45L147.15 23.50L143.15 24.10L147.60 39.65L149.25 46.60L150.90 39.60L155.90 21.45L160.05 21.45L165.05 39.60L166.65 46.65L168.45 39.65L172.85 24.15L169 23.50L169 21.45L178.80 21.45L178.80 23.50L176.05 24.15L168.25 49.60L164.20 49.60L158.75 31.00L157.35 24.70L156.15 31.00L150.90 49.60L146.95 49.60L138.95 24.10L136.30 23.50L136.30 21.45ZM192.75 49.75Q186.95 49.75 183.82 45.78Q180.70 41.80 180.70 35.20Q180.70 30.95 182.35 27.65Q184 24.35 186.92 22.53Q189.85 20.70 193.50 20.70Q197.95 20.70 200.43 23.25Q202.90 25.80 203.10 30.60Q203.10 33.70 202.80 35L185 35Q185 40.25 187.38 43.58Q189.75 46.90 194.05 46.90Q196.15 46.90 198.35 46.15Q200.55 45.40 201.75 44.35L202.55 46.20Q201.10 47.70 198.32 48.73Q195.55 49.75 192.75 49.75M198.60 32.65Q198.75 31.60 198.75 30.45Q198.70 27.15 197.17 25.20Q195.65 23.25 192.50 23.25Q185.65 23.25 185.05 32.65L198.60 32.65ZM207.90 41.90Q207.90 37.05 212.70 34.88Q217.50 32.70 224.65 32.55L224.65 31.00Q224.65 28.45 224.13 26.98Q223.60 25.50 222.30 24.83Q221 24.15 218.65 24.15Q216.10 24.15 214.03 24.93Q211.95 25.70 210 26.80L208.90 24.60Q209.45 24.10 211.20 23.20Q212.95 22.30 215.20 21.60Q217.45 20.90 219.55 20.90Q222.95 20.90 224.93 21.85Q226.90 22.80 227.78 24.90Q228.65 27 228.65 30.55L228.65 47.05L231.75 47.05L231.75 48.90Q229 49.65 227.10 49.65Q225.90 49.65 225.45 49.28Q225 48.90 225 47.55L225 45.70Q223.20 47.30 221.07 48.53Q218.95 49.75 216.25 49.75Q212.65 49.75 210.28 47.75Q207.90 45.75 207.90 41.90M217.75 46.80Q219.15 46.80 221.10 45.90Q223.05 45 224.65 43.75L224.65 34.90Q218.60 34.95 215.47 36.70Q212.35 38.45 212.35 41.40Q212.35 44.25 213.80 45.53Q215.25 46.80 217.75 46.80ZM244.10 49.75Q241.45 49.75 240.10 48.53Q238.75 47.30 238.75 44.15L238.75 24.40L234.95 24.40L234.95 22.45Q237.45 21.90 237.85 21.65Q238.60 21.25 238.95 20.10Q239.25 19.35 239.75 17.40Q240.25 15.45 240.50 14.35L242.80 14.35L242.80 21.45L251.65 21.45L251.65 24.40L242.80 24.40L242.80 40.60Q242.80 43.50 243 44.68Q243.20 45.85 243.80 46.20Q244.40 46.55 245.90 46.55Q247.35 46.55 249.15 46.15Q250.95 45.75 251.85 45.30L252.50 47.20Q251.35 48.10 248.70 48.93Q246.05 49.75 244.10 49.75ZM258.65 11.40L254.20 10.95L254.20 9.10L261.60 8.25L261.70 8.25L262.65 8.90L262.65 20.80L262.55 24.95Q264.15 23.50 267.05 22.15Q269.95 20.80 272.75 20.80Q275.90 20.80 277.65 22Q279.40 23.20 280.10 25.73Q280.80 28.25 280.80 32.55L280.80 46.65L284.45 47.05L284.45 49.20L273.25 49.20L273.25 47.05L276.75 46.65L276.75 32.50Q276.75 29.30 276.32 27.50Q275.90 25.70 274.65 24.80Q273.40 23.90 271 23.90Q269 23.90 266.70 24.88Q264.40 25.85 262.65 27.20L262.65 46.65L266.35 47.05L266.35 49.20L255.50 49.20L255.50 47.05L258.65 46.70L258.65 11.40ZM300.50 49.75Q294.70 49.75 291.58 45.78Q288.45 41.80 288.45 35.20Q288.45 30.95 290.10 27.65Q291.75 24.35 294.68 22.53Q297.60 20.70 301.25 20.70Q305.70 20.70 308.18 23.25Q310.65 25.80 310.85 30.60Q310.85 33.70 310.55 35L292.75 35Q292.75 40.25 295.13 43.58Q297.50 46.90 301.80 46.90Q303.90 46.90 306.10 46.15Q308.30 45.40 309.50 44.35L310.30 46.20Q308.85 47.70 306.08 48.73Q303.30 49.75 300.50 49.75M306.35 32.65Q306.50 31.60 306.50 30.45Q306.45 27.15 304.93 25.20Q303.40 23.25 300.25 23.25Q293.40 23.25 292.80 32.65L306.35 32.65ZM315.55 47.10L319.55 46.80L319.55 24.75L315.70 23.90L315.70 21.65L322.05 20.85L322.15 20.85L323.10 21.65L323.10 22.45L323 26.25L323.10 26.25Q323.20 26.15 324.43 24.73Q325.65 23.30 328.08 22Q330.50 20.70 332.95 20.70Q333.75 20.70 334.45 20.90L334.45 25.30Q334.25 25.15 333.58 25Q332.90 24.85 332.15 24.85Q329.30 24.85 327.30 25.70Q325.30 26.55 323.60 27.80L323.60 46.75L330.25 47.15L330.25 49.20L315.55 49.20L315.55 47.10Z"/></g></g></svg>