<svg xmlns="http://www.w3.org/2000/svg" viewBox="0 15.40999984741211 231.4499969482422 33.439998626708984" data-asc="0.97705078125" width="231.4499969482422" height="33.439998626708984"><defs/><g fill="#000000"><g transform="translate(0, 0)"><path d="M10.79 48.85Q7.50 48.85 5.08 47.60Q2.66 46.34 1.33 44.21Q0 42.09 0 39.55L0 24.71Q0 22.14 1.33 20.03Q2.66 17.92 5.08 16.66Q7.50 15.41 10.79 15.41L18.31 15.41Q21.61 15.41 24.04 16.66Q26.46 17.92 27.78 20.03Q29.10 22.14 29.10 24.71L29.10 39.55Q29.10 42.09 27.78 44.21Q26.46 46.34 24.04 47.60Q21.61 48.85 18.31 48.85L10.79 48.85M6.35 37.79L8.96 37.79L8.96 20.41L10.16 20.19L12.94 20.19L13.99 20.41L13.99 30.76L16.60 30.76L16.60 20.41L17.65 20.19L20.46 20.19L21.66 20.41L21.66 37.79L24.24 37.79L24.24 19.51L22.71 17.94L20.65 17.60L17.46 17.60L16.14 17.99L15.31 19.68L14.50 17.99L13.16 17.60L9.96 17.60L7.91 17.94L6.35 19.51L6.35 37.79ZM39.70 48.85Q36.40 48.85 33.98 47.60Q31.57 46.34 30.24 44.21Q28.91 42.09 28.91 39.55L28.91 24.71Q28.91 22.14 30.24 20.03Q31.57 17.92 33.98 16.66Q36.40 15.41 39.70 15.41L47.22 15.41Q50.51 15.41 52.94 16.66Q55.37 17.92 56.69 20.03Q58.01 22.14 58.01 24.71L58.01 39.55Q58.01 42.09 56.69 44.21Q55.37 46.34 52.94 47.60Q50.51 48.85 47.22 48.85L39.70 48.85M41.31 37.79L47.85 37.79L50.37 37.50L51.90 35.96L52.25 33.86L52.25 21.56L51.90 19.51L50.37 17.94L47.85 17.60L41.31 17.60L38.82 17.94L37.26 19.51L36.96 21.56L36.96 33.86L37.26 35.96L38.87 37.50L41.31 37.79M41.46 35.21L39.87 34.96L39.50 33.50L39.50 21.80L39.75 20.46L41.46 20.19L47.71 20.19L49.41 20.46L49.66 21.90L49.66 33.59L49.32 34.96L47.71 35.21L41.46 35.21ZM68.60 48.85Q65.31 48.85 62.89 47.60Q60.47 46.34 59.14 44.21Q57.81 42.09 57.81 39.55L57.81 24.71Q57.81 22.14 59.14 20.03Q60.47 17.92 62.89 16.66Q65.31 15.41 68.60 15.41L76.12 15.41Q79.42 15.41 81.85 16.66Q84.28 17.92 85.60 20.03Q86.91 22.14 86.91 24.71L86.91 39.55Q86.91 42.09 85.60 44.21Q84.28 46.34 81.85 47.60Q79.42 48.85 76.12 48.85L68.60 48.85M65.77 37.79L68.36 37.79L68.36 20.46L70.26 20.14L76.12 20.14L77.81 20.41L78.05 21.85L78.05 37.79L80.66 37.79L80.66 21.51L80.32 19.46L78.76 17.90L76.27 17.60L70.17 17.60L65.77 18.21L65.77 37.79ZM97.51 48.85Q94.21 48.85 91.80 47.60Q89.38 46.34 88.05 44.21Q86.72 42.09 86.72 39.55L86.72 24.71Q86.72 22.14 88.05 20.03Q89.38 17.92 91.80 16.66Q94.21 15.41 97.51 15.41L105.03 15.41Q108.33 15.41 110.75 16.66Q113.18 17.92 114.50 20.03Q115.82 22.14 115.82 24.71L115.82 39.55Q115.82 42.09 114.50 44.21Q113.18 46.34 110.75 47.60Q108.33 48.85 105.03 48.85L97.51 48.85M99.12 37.79L105.66 37.79L108.18 37.50L109.72 35.96L110.06 33.86L110.06 21.56L109.72 19.51L108.18 17.94L105.66 17.60L99.12 17.60L96.63 17.94L95.07 19.51L94.78 21.56L94.78 33.86L95.07 35.96L96.68 37.50L99.12 37.79M99.27 35.21L97.68 34.96L97.31 33.50L97.31 21.80L97.56 20.46L99.27 20.19L105.52 20.19L107.23 20.46L107.47 21.90L107.47 33.59L107.13 34.96L105.52 35.21L99.27 35.21ZM126.42 48.85Q123.12 48.85 120.70 47.60Q118.29 46.34 116.96 44.21Q115.63 42.09 115.63 39.55L115.63 24.71Q115.63 22.14 116.96 20.03Q118.29 17.92 120.70 16.66Q123.12 15.41 126.42 15.41L133.94 15.41Q137.23 15.41 139.66 16.66Q142.09 17.92 143.41 20.03Q144.73 22.14 144.73 24.71L144.73 39.55Q144.73 42.09 143.41 44.21Q142.09 46.34 139.66 47.60Q137.23 48.85 133.94 48.85L126.42 48.85M125.42 37.79L128.03 37.79L128.03 28.56L136.18 28.56L136.18 26.00L128.03 26.00L128.03 20.19L137.57 20.19L137.57 17.60L125.42 17.60L125.42 37.79ZM155.32 48.85Q152.03 48.85 149.61 47.60Q147.19 46.34 145.86 44.21Q144.53 42.09 144.53 39.55L144.53 24.71Q144.53 22.14 145.86 20.03Q147.19 17.92 149.61 16.66Q152.03 15.41 155.32 15.41L162.84 15.41Q166.14 15.41 168.57 16.66Q171.00 17.92 172.31 20.03Q173.63 22.14 173.63 24.71L173.63 39.55Q173.63 42.09 172.31 44.21Q171.00 46.34 168.57 47.60Q166.14 48.85 162.84 48.85L155.32 48.85M156.37 37.01L162.52 37.01L165.38 36.65L164.77 34.01L162.48 34.40L156.54 34.40L154.98 34.16L154.64 32.69L154.64 27.66L166.04 27.66L166.04 21.51L165.67 19.46L164.14 17.90L161.67 17.60L156.37 17.60L153.93 17.90L152.39 19.46L152.03 21.51L152.03 33.11L152.39 35.16L153.93 36.69L156.37 37.01M154.64 25.10L154.64 21.80L154.83 20.41L156.54 20.14L161.52 20.14L163.18 20.41L163.43 21.85L163.43 25.10L154.64 25.10ZM184.23 48.85Q180.93 48.85 178.52 47.60Q176.10 46.34 174.77 44.21Q173.44 42.09 173.44 39.55L173.44 24.71Q173.44 22.14 174.77 20.03Q176.10 17.92 178.52 16.66Q180.93 15.41 184.23 15.41L191.75 15.41Q195.04 15.41 197.47 16.66Q199.90 17.92 201.22 20.03Q202.54 22.14 202.54 24.71L202.54 39.55Q202.54 42.09 201.22 44.21Q199.90 46.34 197.47 47.60Q195.04 48.85 191.75 48.85L184.23 48.85M188.04 37.79L190.65 37.79L190.65 20.19L196.39 20.19L196.39 17.60L182.28 17.60L182.28 20.19L188.04 20.19L188.04 37.79ZM213.13 48.85Q209.84 48.85 207.42 47.60Q205.00 46.34 203.67 44.21Q202.34 42.09 202.34 39.55L202.34 24.71Q202.34 22.14 203.67 20.03Q205.00 17.92 207.42 16.66Q209.84 15.41 213.13 15.41L220.65 15.41Q223.95 15.41 226.38 16.66Q228.81 17.92 230.13 20.03Q231.45 22.14 231.45 24.71L231.45 39.55Q231.45 42.09 230.13 44.21Q228.81 46.34 226.38 47.60Q223.95 48.85 220.65 48.85L213.13 48.85M216.94 37.79L219.56 37.79L219.56 20.19L225.29 20.19L225.29 17.60L211.18 17.60L211.18 20.19L216.94 20.19L216.94 37.79Z"/></g></g></svg>