<svg xmlns="http://www.w3.org/2000/svg" viewBox="0 13.399999618530273 270.5 35.25" data-asc="0.968" width="270.5" height="35.25"><defs/><g><g fill="#000000"><g transform="translate(0, 0)"><path d="M0 48.40L0 13.40L3.05 13.40L19.05 40.70L17.45 40.70L33.30 13.40L36.35 13.40L36.35 48.40L32.80 48.40L32.80 18.95L33.65 18.95L19.05 43.95L17.30 43.95L2.60 18.95L3.55 18.95L3.55 48.40L0 48.40ZM57.70 48.65Q53.90 48.65 50.88 46.92Q47.85 45.20 46.10 42.17Q44.35 39.15 44.35 35.25Q44.35 31.30 46.10 28.30Q47.85 25.30 50.85 23.60Q53.85 21.90 57.70 21.90Q61.60 21.90 64.63 23.60Q67.65 25.30 69.38 28.30Q71.10 31.30 71.10 35.25Q71.10 39.15 69.38 42.17Q67.65 45.20 64.60 46.92Q61.55 48.65 57.70 48.65M57.70 45.50Q60.55 45.50 62.75 44.23Q64.95 42.95 66.22 40.63Q67.50 38.30 67.50 35.25Q67.50 32.15 66.22 29.85Q64.95 27.55 62.75 26.27Q60.55 25.00 57.75 25.00Q54.95 25.00 52.75 26.27Q50.55 27.55 49.25 29.85Q47.95 32.15 47.95 35.25Q47.95 38.30 49.25 40.63Q50.55 42.95 52.75 44.23Q54.95 45.50 57.70 45.50ZM91.75 21.90Q94.95 21.90 97.38 23.12Q99.80 24.35 101.18 26.85Q102.55 29.35 102.55 33.15L102.55 48.40L99 48.40L99 33.50Q99 29.35 96.93 27.22Q94.85 25.10 91.10 25.10Q88.30 25.10 86.23 26.22Q84.15 27.35 83.03 29.47Q81.90 31.60 81.90 34.60L81.90 48.40L78.35 48.40L78.35 22.15L81.75 22.15L81.75 29.35L81.20 28.00Q82.45 25.15 85.20 23.52Q87.95 21.90 91.75 21.90ZM120.45 48.65Q116.75 48.65 114.75 46.65Q112.75 44.65 112.75 41L112.75 16.35L116.30 16.35L116.30 40.80Q116.30 43.10 117.48 44.35Q118.65 45.60 120.85 45.60Q123.20 45.60 124.75 44.25L126.00 46.80Q124.95 47.75 123.48 48.20Q122.00 48.65 120.45 48.65M108.05 25.10L108.05 22.15L124.30 22.15L124.30 25.10L108.05 25.10ZM139.50 48.65Q136.25 48.65 133.35 47.73Q130.45 46.80 128.80 45.40L130.40 42.60Q132 43.80 134.50 44.67Q137 45.55 139.75 45.55Q143.50 45.55 145.15 44.38Q146.80 43.20 146.80 41.25Q146.80 39.80 145.88 38.97Q144.95 38.15 143.45 37.72Q141.95 37.30 140.10 37Q138.25 36.70 136.43 36.30Q134.60 35.90 133.10 35.13Q131.60 34.35 130.68 33Q129.75 31.65 129.75 29.40Q129.75 27.25 130.95 25.55Q132.15 23.85 134.48 22.87Q136.80 21.90 140.15 21.90Q142.70 21.90 145.25 22.57Q147.80 23.25 149.45 24.35L147.90 27.20Q146.15 26.00 144.15 25.47Q142.15 24.95 140.15 24.95Q136.60 24.95 134.93 26.17Q133.25 27.40 133.25 29.30Q133.25 30.80 134.18 31.65Q135.10 32.50 136.63 32.97Q138.15 33.45 139.98 33.75Q141.80 34.05 143.63 34.47Q145.45 34.90 146.98 35.63Q148.50 36.35 149.43 37.67Q150.35 39 150.35 41.15Q150.35 43.45 149.08 45.13Q147.80 46.80 145.38 47.73Q142.95 48.65 139.50 48.65ZM168 48.65Q163.90 48.65 160.80 46.92Q157.70 45.20 155.95 42.17Q154.20 39.15 154.20 35.25Q154.20 31.35 155.88 28.35Q157.55 25.35 160.47 23.62Q163.40 21.90 167.05 21.90Q170.75 21.90 173.63 23.57Q176.50 25.25 178.15 28.27Q179.80 31.30 179.80 35.25Q179.80 35.50 179.78 35.77Q179.75 36.05 179.75 36.35L156.90 36.35L156.90 33.70L177.85 33.70L176.45 34.75Q176.45 31.90 175.23 29.67Q174 27.45 171.90 26.20Q169.80 24.95 167.05 24.95Q164.35 24.95 162.20 26.20Q160.05 27.45 158.85 29.70Q157.65 31.95 157.65 34.85L157.65 35.40Q157.65 38.40 158.97 40.67Q160.30 42.95 162.68 44.23Q165.05 45.50 168.10 45.50Q170.50 45.50 172.58 44.65Q174.65 43.80 176.15 42.05L178.15 44.35Q176.40 46.45 173.78 47.55Q171.15 48.65 168 48.65ZM187.05 48.40L187.05 22.15L190.45 22.15L190.45 29.30L190.10 28.05Q191.20 25.05 193.80 23.47Q196.40 21.90 200.25 21.90L200.25 25.35Q200.05 25.35 199.85 25.32Q199.65 25.30 199.45 25.30Q195.30 25.30 192.95 27.82Q190.60 30.35 190.60 35L190.60 48.40L187.05 48.40ZM207.10 48.40L207.10 22.15L210.50 22.15L210.50 29.30L210.15 28.05Q211.25 25.05 213.85 23.47Q216.45 21.90 220.30 21.90L220.30 25.35Q220.10 25.35 219.90 25.32Q219.70 25.30 219.50 25.30Q215.35 25.30 213.00 27.82Q210.65 30.35 210.65 35L210.65 48.40L207.10 48.40ZM243.60 48.40L243.60 42.60L243.45 41.65L243.45 31.95Q243.45 28.60 241.58 26.80Q239.70 25.00 236.00 25.00Q233.45 25.00 231.15 25.85Q228.85 26.70 227.25 28.10L225.65 25.45Q227.65 23.75 230.45 22.82Q233.25 21.90 236.35 21.90Q241.45 21.90 244.23 24.42Q247.00 26.95 247.00 32.10L247.00 48.40L243.60 48.40M234.55 48.65Q231.60 48.65 229.43 47.67Q227.25 46.70 226.10 44.98Q224.95 43.25 224.95 41Q224.95 38.95 225.93 37.27Q226.90 35.60 229.13 34.57Q231.35 33.55 235.10 33.55L244.15 33.55L244.15 36.20L235.20 36.20Q231.40 36.20 229.93 37.55Q228.45 38.90 228.45 40.90Q228.45 43.15 230.20 44.50Q231.95 45.85 235.10 45.85Q238.10 45.85 240.28 44.48Q242.45 43.10 243.45 40.50L244.25 42.95Q243.25 45.55 240.78 47.10Q238.30 48.65 234.55 48.65ZM264.95 48.65Q261.25 48.65 259.25 46.65Q257.25 44.65 257.25 41L257.25 16.35L260.80 16.35L260.80 40.80Q260.80 43.10 261.98 44.35Q263.15 45.60 265.35 45.60Q267.70 45.60 269.25 44.25L270.50 46.80Q269.45 47.75 267.98 48.20Q266.50 48.65 264.95 48.65M252.55 25.10L252.55 22.15L268.80 22.15L268.80 25.10L252.55 25.10Z"/></g></g></g></svg>