<svg xmlns="http://www.w3.org/2000/svg" viewBox="0 13.449999809265137 141.39999389648438 37.25" data-asc="1.005" width="141.39999389648438" height="37.25"><defs/><g><g fill="#000000"><g transform="translate(0, 0)"><path d="M0 50.25L0 15.00L3.60 15.00L17.75 46.95L16.30 46.95L30.45 15.00L34.05 15.00L34.05 50.25L30.25 50.25L30.25 20.35L31.75 20.35L18.40 50.25L15.65 50.25L2.25 20.35L3.75 20.35L3.75 50.25L0 50.25ZM51.25 50.70Q46.80 50.70 44.53 48.25Q42.25 45.80 42.25 40.75L42.25 25.15L46.30 25.15L46.30 40.65Q46.30 44.10 47.70 45.72Q49.10 47.35 52.05 47.35Q55.35 47.35 57.35 45.20Q59.35 43.05 59.35 39.45L59.35 25.15L63.40 25.15L63.40 50.25L59.45 50.25L59.45 44.60L60.10 44.60Q59.05 47.50 56.73 49.10Q54.40 50.70 51.25 50.70ZM71.25 50.25L71.25 13.45L75.30 13.45L75.30 50.25L71.25 50.25ZM83.15 50.25L83.15 25.15L87.20 25.15L87.20 50.25L83.15 50.25M82.65 19.45L82.65 14.90L87.65 14.90L87.65 19.45L82.65 19.45ZM103.40 50.70Q100.40 50.70 97.80 49.87Q95.20 49.05 93.50 47.55L94.90 44.70Q96.75 46.15 98.93 46.85Q101.10 47.55 103.45 47.55Q106.45 47.55 107.98 46.47Q109.50 45.40 109.50 43.50Q109.50 42.05 108.53 41.17Q107.55 40.30 105.35 39.80L100.70 38.85Q97.50 38.15 95.90 36.47Q94.30 34.80 94.30 32.20Q94.30 30.00 95.45 28.32Q96.60 26.65 98.80 25.67Q101.00 24.70 103.95 24.70Q106.70 24.70 109.03 25.52Q111.35 26.35 112.90 27.90L111.45 30.70Q109.95 29.25 108.03 28.52Q106.10 27.80 104.05 27.80Q101.10 27.80 99.63 28.97Q98.15 30.15 98.15 32.05Q98.15 33.50 99.08 34.42Q100.00 35.35 101.95 35.80L106.60 36.75Q110.00 37.50 111.68 39.07Q113.35 40.65 113.35 43.30Q113.35 45.55 112.10 47.22Q110.85 48.90 108.63 49.80Q106.40 50.70 103.40 50.70ZM119.85 50.25L119.85 13.45L123.90 13.45L123.90 30.70L123.25 30.70Q124.30 27.75 126.78 26.22Q129.25 24.70 132.50 24.70Q137.00 24.70 139.20 27.12Q141.40 29.55 141.40 34.45L141.40 50.25L137.35 50.25L137.35 34.70Q137.35 31.20 135.98 29.60Q134.60 28.00 131.55 28.00Q128.05 28.00 125.98 30.15Q123.90 32.30 123.90 35.80L123.90 50.25L119.85 50.25Z"/></g></g></g></svg>