<svg xmlns="http://www.w3.org/2000/svg" viewBox="0 20.450000762939453 185.75 38.099998474121094" data-asc="1.16" width="185.75" height="38.099998474121094"><defs/><g fill="#000000"><g transform="translate(0, 0)"><path d="M1.60 21.60L5.90 21.60L12.25 39.85L16.70 53.45L16.80 53.45L21.30 39.85L27.65 21.60L31.90 21.60L33.50 58.00L30.25 58.00L29.60 42.20L29.00 26.35L28.95 26.35L18.10 58.00L15.25 58.00L4.55 26.35L4.45 26.35L3.85 42.20L3.15 58.00L0 58.00L1.60 21.60ZM49.35 58.55Q46.65 58.55 44.78 57.35Q42.90 56.15 41.95 53.80Q41.00 51.45 41.00 48.00L41.00 32.00L44.25 32.00L44.25 47.75Q44.25 51.65 45.73 53.72Q47.20 55.80 50.45 55.80Q52.10 55.80 53.55 55.12Q55.00 54.45 56.18 53.47Q57.35 52.50 58.20 51.55L58.20 32.00L61.45 32.00L61.45 51.20Q61.45 53.20 61.48 54.82Q61.50 56.45 61.60 58.00L59.15 58.00L58.45 53.85L58.35 53.85Q57.45 54.95 56.08 56.05Q54.70 57.15 52.98 57.85Q51.25 58.55 49.35 58.55ZM68.95 58.00L68.95 39.05Q68.95 36.85 68.90 35.20Q68.85 33.55 68.80 32.00L71.75 31.85L72.00 36.60L72.10 36.60Q73.45 34.30 75.60 32.85Q77.75 31.40 81.10 31.55L81.10 34.50Q78.05 34.35 75.85 35.57Q73.65 36.80 72.25 39.25L72.25 58.00L68.95 58.00ZM96.65 58.55Q92.45 58.55 89.70 56.77Q86.95 55.00 85.63 51.95Q84.30 48.90 84.30 45.05Q84.30 42.10 85.10 39.62Q85.90 37.15 87.40 35.32Q88.90 33.50 91.03 32.47Q93.15 31.45 95.85 31.45Q98.60 31.45 100.55 32.47Q102.50 33.50 103.70 35.35Q104.90 37.20 105.35 39.72Q105.80 42.25 105.45 45.30L86.20 45.30L87.75 44.15Q87.35 47.45 88.20 50.12Q89.05 52.80 91.25 54.37Q93.45 55.95 97.05 55.95Q99.30 55.95 101.15 55.45Q103.00 54.95 104.05 54.55L104.50 56.90Q103.20 57.50 101.08 58.02Q98.95 58.55 96.65 58.55M86.25 43.30L102.55 43.30Q102.60 43.05 102.60 42.80Q102.60 42.55 102.60 42.45Q102.60 39.75 101.83 37.85Q101.05 35.95 99.53 34.90Q98.00 33.85 95.70 33.85Q93.05 33.85 91.20 35.35Q89.35 36.85 88.43 39.25Q87.50 41.65 87.60 44.35L86.25 43.30ZM122.45 58.55Q118.55 58.55 115.75 56.90Q112.95 55.25 111.43 52.22Q109.90 49.20 109.90 45.05Q109.90 40.95 111.43 37.90Q112.95 34.85 115.80 33.17Q118.65 31.50 122.60 31.50Q124.40 31.50 126.30 31.87Q128.20 32.25 129.70 32.95L129.20 35.45Q127.95 34.85 126.23 34.47Q124.50 34.10 122.70 34.10Q119.55 34.10 117.45 35.52Q115.35 36.95 114.30 39.42Q113.25 41.90 113.25 44.95Q113.25 48.20 114.40 50.65Q115.55 53.10 117.75 54.47Q119.95 55.85 122.95 55.85Q125.10 55.85 126.88 55.37Q128.65 54.90 129.65 54.55L130.05 57.00Q128.85 57.55 126.73 58.05Q124.60 58.55 122.45 58.55ZM135.45 20.60L138.75 20.45L138.75 36.00L138.85 36.00Q139.85 34.95 141.18 33.90Q142.50 32.85 144.18 32.15Q145.85 31.45 147.85 31.45Q149.30 31.45 150.75 31.97Q152.20 32.50 153.43 33.67Q154.65 34.85 155.40 36.85Q156.15 38.85 156.15 41.80L156.15 58.00L152.85 58.00L152.85 42.00Q152.85 39.70 152.30 38.20Q151.75 36.70 150.83 35.82Q149.90 34.95 148.83 34.57Q147.75 34.20 146.70 34.20Q144.90 34.20 143.40 34.90Q141.90 35.60 140.75 36.57Q139.60 37.55 138.75 38.45L138.75 58.00L135.50 58.00L135.45 20.60ZM173.85 58.55Q171.30 58.55 169.13 57.65Q166.95 56.75 165.35 55.02Q163.75 53.30 162.85 50.77Q161.95 48.25 161.95 45.00Q161.95 41.75 162.85 39.22Q163.75 36.70 165.35 34.97Q166.95 33.25 169.13 32.35Q171.30 31.45 173.85 31.45Q176.35 31.45 178.55 32.35Q180.75 33.25 182.35 34.97Q183.95 36.70 184.85 39.22Q185.75 41.75 185.75 45.00Q185.75 48.25 184.85 50.77Q183.95 53.30 182.35 55.02Q180.75 56.75 178.55 57.65Q176.35 58.55 173.85 58.55M173.85 55.95Q176.10 55.95 177.73 55.07Q179.35 54.20 180.38 52.65Q181.40 51.10 181.90 49.12Q182.40 47.15 182.40 45.00Q182.40 42.85 181.90 40.87Q181.40 38.90 180.38 37.35Q179.35 35.80 177.73 34.92Q176.10 34.05 173.85 34.05Q171.60 34.05 169.98 34.92Q168.35 35.80 167.33 37.35Q166.30 38.90 165.80 40.87Q165.30 42.85 165.30 45.00Q165.30 47.15 165.80 49.12Q166.30 51.10 167.33 52.65Q168.35 54.20 169.98 55.07Q171.60 55.95 173.85 55.95Z"/></g></g></svg>