<svg xmlns="http://www.w3.org/2000/svg" viewBox="0 14.899999618530273 229.5500030517578 39.05000686645508" data-asc="1.069" width="229.5500030517578" height="39.05000686645508"><defs/><g fill="#000000"><g transform="translate(0, 0)"><path d="M0 53.45L0 51.85L1.35 51.85Q2.55 51.85 3.33 51.57Q4.10 51.30 4.47 50.45Q4.85 49.60 4.85 47.90L4.85 23.20Q4.85 21.50 4.47 20.67Q4.10 19.85 3.30 19.60Q2.50 19.35 1.35 19.35L0 19.35L0 17.75L7.75 17.75L26.55 47.80L26.55 23.20Q26.55 21.50 26.15 20.67Q25.75 19.85 24.98 19.60Q24.20 19.35 23.00 19.35L21.75 19.35L21.75 17.75L33.55 17.75L33.55 19.35L32.25 19.35Q31.10 19.35 30.30 19.62Q29.50 19.90 29.13 20.72Q28.75 21.55 28.75 23.30L28.75 53.45L26.25 53.45L7.10 22.90L7.10 47.90Q7.10 49.60 7.47 50.45Q7.85 51.30 8.65 51.57Q9.45 51.85 10.60 51.85L11.90 51.85L11.90 53.45L0 53.45ZM49.10 53.95Q44.05 53.95 41.15 50.52Q38.25 47.10 38.25 40.05Q38.25 33.05 41.05 29.65Q43.85 26.25 49.30 26.25Q54.40 26.25 57.25 29.60Q60.10 32.95 60.10 40.05Q60.10 47.10 57.30 50.52Q54.50 53.95 49.10 53.95M49.15 51.95Q51.95 51.95 53.65 50.55Q55.35 49.15 56.08 46.47Q56.80 43.80 56.80 40.05Q56.80 34.10 55.03 31.17Q53.25 28.25 49.25 28.25Q45.05 28.25 43.27 31.20Q41.50 34.15 41.50 40.05Q41.50 45.80 43.30 48.87Q45.10 51.95 49.15 51.95ZM74.20 53.95Q70.80 53.95 69.30 52.22Q67.80 50.50 67.80 46.30L67.80 28.75L63.95 28.75L63.95 27.25Q64.90 27.25 65.88 26.90Q66.85 26.55 67.50 25.90Q68.20 25.20 68.65 23.95Q69.10 22.70 69.30 20.55L71 20.55L71 26.65L77.45 26.65L77.45 28.75L71 28.75L71 46.60Q71 49.40 71.97 50.67Q72.95 51.95 74.85 51.95Q75.70 51.95 76.40 51.87Q77.10 51.80 77.90 51.65L77.90 53.40Q77.20 53.65 76.17 53.80Q75.15 53.95 74.20 53.95ZM93 53.95Q87.95 53.95 85.05 50.52Q82.15 47.10 82.15 40.05Q82.15 33.05 84.95 29.65Q87.75 26.25 93.20 26.25Q98.30 26.25 101.15 29.60Q104 32.95 104 40.05Q104 47.10 101.20 50.52Q98.40 53.95 93 53.95M93.05 51.95Q95.85 51.95 97.55 50.55Q99.25 49.15 99.98 46.47Q100.70 43.80 100.70 40.05Q100.70 34.10 98.93 31.17Q97.15 28.25 93.15 28.25Q88.95 28.25 87.18 31.20Q85.40 34.15 85.40 40.05Q85.40 45.80 87.20 48.87Q89 51.95 93.05 51.95ZM132.60 53.95Q130.20 53.95 128.38 53.42Q126.55 52.90 125.35 51.92Q124.15 50.95 123.55 49.70Q122.95 48.45 122.95 47.00Q122.95 46.20 123.25 45.57Q123.55 44.95 124.08 44.62Q124.60 44.30 125.40 44.30Q125.45 46.55 126.28 48.30Q127.10 50.05 128.72 51.05Q130.35 52.05 132.85 52.05Q136.40 52.05 138.25 50.17Q140.10 48.30 140.10 45.15Q140.10 43.20 139.35 41.80Q138.60 40.40 136.88 39.17Q135.15 37.95 132.25 36.60Q129.35 35.20 127.48 33.77Q125.60 32.35 124.73 30.45Q123.85 28.55 123.85 25.95Q123.85 23.35 125.10 21.40Q126.35 19.45 128.57 18.35Q130.80 17.25 133.70 17.25Q136.40 17.25 138.32 18.02Q140.25 18.80 141.32 20.05Q142.40 21.30 142.40 22.80Q142.40 24.10 141.70 24.77Q141 25.45 139.75 25.45Q139.75 23.65 139.10 22.22Q138.45 20.80 137.10 20.00Q135.75 19.20 133.60 19.20Q130.40 19.20 128.70 20.97Q127 22.75 127 25.60Q127 27.65 127.75 29.05Q128.50 30.45 130.07 31.55Q131.65 32.65 134.20 33.85Q136.85 35.15 138.90 36.52Q140.95 37.90 142.15 39.77Q143.35 41.65 143.35 44.40Q143.35 47.30 142.07 49.42Q140.80 51.55 138.40 52.75Q136 53.95 132.60 53.95ZM159.75 53.95Q154.70 53.95 151.78 50.37Q148.85 46.80 148.85 40.30Q148.85 33.25 151.58 29.75Q154.30 26.25 159.30 26.25Q163.85 26.25 166.43 29.40Q169 32.55 169 38.50L169 40.05L152.15 40.05Q152.20 46.00 154.33 48.82Q156.45 51.65 160.20 51.65Q162.90 51.65 164.68 50.50Q166.45 49.35 167.35 47.75Q167.65 47.90 167.85 48.25Q168.05 48.60 168.05 49.10Q168.05 50.00 167.15 51.15Q166.25 52.30 164.40 53.12Q162.55 53.95 159.75 53.95M165.60 38.05Q165.60 33.65 164.08 30.97Q162.55 28.30 159.20 28.30Q155.80 28.30 154.15 30.87Q152.50 33.45 152.25 38.05L165.60 38.05ZM173.60 53.45L173.60 51.85L174.20 51.85Q175.50 51.85 176.33 51.62Q177.15 51.40 177.55 50.60Q177.95 49.80 177.95 48.10L177.95 31.80Q177.95 30.15 177.55 29.42Q177.15 28.70 176.28 28.47Q175.40 28.25 173.95 28.25L173.50 28.25L173.50 26.65L180.40 26.65L180.95 31.90L181.15 31.90Q181.80 30.40 182.60 29.10Q183.40 27.80 184.70 27.00Q186.00 26.20 188.05 26.20Q190.40 26.20 191.65 27.15Q192.90 28.10 192.90 29.75Q192.90 30.85 192.20 31.62Q191.50 32.40 189.90 32.40Q189.90 31.00 189.58 30.15Q189.25 29.30 188.60 28.92Q187.95 28.55 186.90 28.55Q185.45 28.55 184.38 29.60Q183.30 30.65 182.60 32.32Q181.90 34.00 181.53 35.95Q181.15 37.90 181.15 39.75L181.15 48.25Q181.15 49.90 181.58 50.65Q182.00 51.40 182.83 51.62Q183.65 51.85 184.90 51.85L186.45 51.85L186.45 53.45L173.60 53.45ZM195.00 53.45L195.00 51.85L196.00 51.85Q197.45 51.85 198.33 51.62Q199.20 51.40 199.60 50.67Q200.00 49.95 200.00 48.35L200.00 31.90Q200.00 30.20 199.60 29.45Q199.20 28.70 198.38 28.47Q197.55 28.25 196.25 28.25L195.75 28.25L195.75 26.65L203.20 26.65L203.20 48.20Q203.20 49.85 203.60 50.62Q204.00 51.40 204.88 51.62Q205.75 51.85 207.20 51.85L208.25 51.85L208.25 53.45L195.00 53.45M201.40 21.15Q200.50 21.15 199.90 20.57Q199.30 20.00 199.30 18.55Q199.30 17.05 199.90 16.50Q200.50 15.95 201.40 15.95Q202.25 15.95 202.85 16.50Q203.45 17.05 203.45 18.55Q203.45 20.00 202.85 20.57Q202.25 21.15 201.40 21.15ZM210.30 53.45L210.30 51.85L211.40 51.85Q212.70 51.85 213.53 51.62Q214.35 51.40 214.75 50.60Q215.15 49.80 215.15 48.10L215.15 28.50L210.50 28.50L210.50 26.65L215.15 26.65L215.15 23.85Q215.15 19.55 217.35 17.22Q219.55 14.90 223.40 14.90Q225.55 14.90 226.90 15.40Q228.25 15.90 228.90 16.72Q229.55 17.55 229.55 18.50Q229.55 19.30 229.20 19.85Q228.85 20.40 228.23 20.67Q227.60 20.95 226.85 20.95Q226.85 19.80 226.53 18.85Q226.20 17.90 225.40 17.32Q224.60 16.75 223.15 16.75Q220.65 16.75 219.50 18.52Q218.35 20.30 218.35 23.60L218.35 26.65L225.45 26.65L225.45 28.50L218.35 28.50L218.35 48.10Q218.35 49.80 218.75 50.60Q219.15 51.40 219.98 51.62Q220.80 51.85 222.10 51.85L224.35 51.85L224.35 53.45L210.30 53.45Z"/></g></g></svg>