<svg xmlns="http://www.w3.org/2000/svg" viewBox="0 17.25 232.8000030517578 36.70000076293945" data-asc="1.069" width="232.8000030517578" height="36.70000076293945"><defs/><g><g fill="#000000"><g transform="translate(0, 0)"><path d="M28.30 53.45L23.05 53.45L3.95 23.80L3.75 23.80Q3.85 24.95 3.92 26.52Q4.00 28.10 4.08 29.87Q4.15 31.65 4.15 33.50L4.15 53.45L0 53.45L0 17.75L5.20 17.75L24.25 47.30L24.45 47.30Q24.40 46.50 24.32 44.90Q24.25 43.30 24.18 41.40Q24.10 39.50 24.10 37.90L24.10 17.75L28.30 17.75L28.30 53.45ZM60.70 40.00Q60.70 43.35 59.83 45.92Q58.95 48.50 57.33 50.30Q55.70 52.10 53.38 53.02Q51.05 53.95 48.20 53.95Q45.55 53.95 43.30 53.02Q41.05 52.10 39.40 50.30Q37.75 48.50 36.82 45.92Q35.90 43.35 35.90 40.00Q35.90 35.55 37.40 32.47Q38.90 29.40 41.70 27.77Q44.50 26.15 48.35 26.15Q52 26.15 54.77 27.77Q57.55 29.40 59.13 32.47Q60.70 35.55 60.70 40.00M40.45 40.00Q40.45 43.15 41.27 45.47Q42.10 47.80 43.85 49.05Q45.60 50.30 48.30 50.30Q51 50.30 52.75 49.05Q54.50 47.80 55.33 45.47Q56.15 43.15 56.15 40.00Q56.15 36.80 55.30 34.55Q54.45 32.30 52.73 31.07Q51 29.85 48.25 29.85Q44.15 29.85 42.30 32.55Q40.45 35.25 40.45 40.00ZM76.60 50.35Q77.60 50.35 78.65 50.17Q79.70 50.00 80.35 49.80L80.35 53.15Q79.65 53.50 78.35 53.72Q77.05 53.95 75.85 53.95Q73.75 53.95 71.97 53.22Q70.20 52.50 69.10 50.70Q68 48.90 68 45.65L68 30.05L64.20 30.05L64.20 27.95L68.05 26.20L69.80 20.50L72.40 20.50L72.40 26.65L80.15 26.65L80.15 30.05L72.40 30.05L72.40 45.55Q72.40 48.00 73.58 49.17Q74.75 50.35 76.60 50.35ZM109 40.00Q109 43.35 108.13 45.92Q107.25 48.50 105.63 50.30Q104 52.10 101.68 53.02Q99.35 53.95 96.50 53.95Q93.85 53.95 91.60 53.02Q89.35 52.10 87.70 50.30Q86.05 48.50 85.13 45.92Q84.20 43.35 84.20 40.00Q84.20 35.55 85.70 32.47Q87.20 29.40 90 27.77Q92.80 26.15 96.65 26.15Q100.30 26.15 103.08 27.77Q105.85 29.40 107.43 32.47Q109 35.55 109 40.00M88.75 40.00Q88.75 43.15 89.58 45.47Q90.40 47.80 92.15 49.05Q93.90 50.30 96.60 50.30Q99.30 50.30 101.05 49.05Q102.80 47.80 103.63 45.47Q104.45 43.15 104.45 40.00Q104.45 36.80 103.60 34.55Q102.75 32.30 101.03 31.07Q99.30 29.85 96.55 29.85Q92.45 29.85 90.60 32.55Q88.75 35.25 88.75 40.00ZM149.80 43.90Q149.80 47.10 148.25 49.32Q146.70 51.55 143.82 52.75Q140.95 53.95 137.05 53.95Q135.05 53.95 133.22 53.75Q131.40 53.55 129.90 53.17Q128.40 52.80 127.25 52.25L127.25 47.95Q129.05 48.75 131.72 49.40Q134.40 50.05 137.25 50.05Q139.90 50.05 141.70 49.35Q143.50 48.65 144.40 47.35Q145.30 46.05 145.30 44.30Q145.30 42.55 144.55 41.35Q143.80 40.15 141.97 39.12Q140.15 38.10 136.90 36.95Q134.60 36.10 132.88 35.13Q131.15 34.15 130 32.90Q128.85 31.65 128.28 30.05Q127.70 28.45 127.70 26.35Q127.70 23.50 129.15 21.47Q130.60 19.45 133.18 18.35Q135.75 17.25 139.10 17.25Q142.05 17.25 144.50 17.80Q146.95 18.35 148.95 19.25L147.55 23.10Q145.70 22.30 143.53 21.75Q141.35 21.20 139 21.20Q136.75 21.20 135.25 21.85Q133.75 22.50 133 23.67Q132.25 24.85 132.25 26.40Q132.25 28.20 133 29.40Q133.75 30.60 135.45 31.55Q137.15 32.50 140.05 33.60Q143.20 34.75 145.38 36.07Q147.55 37.40 148.68 39.25Q149.80 41.10 149.80 43.90ZM166.55 26.20Q171.45 26.20 173.80 28.35Q176.15 30.50 176.15 35.20L176.15 53.45L172.95 53.45L172.10 49.65L171.90 49.65Q170.75 51.10 169.53 52.07Q168.30 53.05 166.72 53.50Q165.15 53.95 162.90 53.95Q160.50 53.95 158.58 53.10Q156.65 52.25 155.55 50.47Q154.45 48.70 154.45 46.00Q154.45 42.00 157.60 39.82Q160.75 37.65 167.30 37.45L171.85 37.30L171.85 35.70Q171.85 32.35 170.40 31.05Q168.95 29.75 166.30 29.75Q164.20 29.75 162.30 30.37Q160.40 31.00 158.75 31.80L157.40 28.50Q159.15 27.55 161.55 26.87Q163.95 26.20 166.55 26.20M167.85 40.50Q162.85 40.70 160.93 42.10Q159 43.50 159 46.05Q159 48.30 160.38 49.35Q161.75 50.40 163.90 50.40Q167.30 50.40 169.55 48.52Q171.80 46.65 171.80 42.75L171.80 40.35L167.85 40.50ZM197.35 26.15Q202.15 26.15 204.60 28.47Q207.05 30.80 207.05 36L207.05 53.45L202.70 53.45L202.70 36.30Q202.70 33.05 201.25 31.45Q199.80 29.85 196.70 29.85Q192.25 29.85 190.55 32.35Q188.85 34.85 188.85 39.55L188.85 53.45L184.45 53.45L184.45 26.65L188.00 26.65L188.65 30.30L188.90 30.30Q189.80 28.90 191.13 27.97Q192.45 27.05 194.05 26.60Q195.65 26.15 197.35 26.15ZM232.80 46.05Q232.80 48.65 231.50 50.40Q230.20 52.15 227.80 53.05Q225.40 53.95 222.10 53.95Q219.30 53.95 217.28 53.50Q215.25 53.05 213.70 52.25L213.70 48.25Q215.30 49.05 217.58 49.72Q219.85 50.40 222.20 50.40Q225.55 50.40 227.05 49.32Q228.55 48.25 228.55 46.45Q228.55 45.45 228.00 44.65Q227.45 43.85 226.03 43.05Q224.60 42.25 221.95 41.25Q219.35 40.25 217.50 39.25Q215.65 38.25 214.65 36.85Q213.65 35.45 213.65 33.25Q213.65 29.85 216.43 28.00Q219.20 26.15 223.70 26.15Q226.15 26.15 228.28 26.62Q230.40 27.10 232.25 27.95L230.75 31.45Q229.05 30.75 227.20 30.25Q225.35 29.75 223.40 29.75Q220.70 29.75 219.28 30.62Q217.85 31.50 217.85 33.00Q217.85 34.10 218.50 34.88Q219.15 35.65 220.68 36.38Q222.20 37.10 224.75 38.10Q227.30 39.05 229.10 40.05Q230.90 41.05 231.85 42.47Q232.80 43.90 232.80 46.05Z"/></g></g></g></svg>