<svg xmlns="http://www.w3.org/2000/svg" viewBox="0 14.850000381469727 265.95001220703125 36.150001525878906" data-asc="1.011" width="265.95001220703125" height="36.150001525878906"><defs/><g><g fill="#000000"><g transform="translate(0, 0)"><path d="M0 50.55L0 15.30L3.20 15.30L25.65 45.25L24.45 45.25L24.45 15.30L28.25 15.30L28.25 50.55L25.15 50.55L2.70 20.60L3.85 20.60L3.85 50.55L0 50.55ZM45.05 51Q42.10 51 40.17 49.92Q38.25 48.85 37.27 46.70Q36.30 44.55 36.30 41.35L36.30 26.25L40.35 26.25L40.35 41.30Q40.35 43.45 40.92 44.88Q41.50 46.30 42.75 46.97Q44 47.65 45.85 47.65Q47.95 47.65 49.50 46.70Q51.05 45.75 51.95 44.05Q52.85 42.35 52.85 40.05L52.85 26.25L56.90 26.25L56.90 50.55L52.95 50.55L52.95 44.95L53.60 44.95Q52.60 47.90 50.33 49.45Q48.05 51 45.05 51ZM64.50 50.55L64.50 26.25L68.45 26.25L68.45 31.65L67.90 31.65Q68.95 28.75 71.33 27.27Q73.70 25.80 76.80 25.80Q79.70 25.80 81.63 26.82Q83.55 27.85 84.50 30.00Q85.45 32.15 85.45 35.40L85.45 50.55L81.40 50.55L81.40 35.65Q81.40 33.40 80.83 31.95Q80.25 30.50 79.03 29.80Q77.80 29.10 75.85 29.10Q73.65 29.10 72 30.05Q70.35 31.00 69.45 32.70Q68.55 34.40 68.55 36.70L68.55 50.55L64.50 50.55ZM92.40 20.20L92.40 15.65L97.40 15.65L97.40 20.20L92.40 20.20M92.90 50.55L92.90 26.25L96.95 26.25L96.95 50.55L92.90 50.55ZM114.25 51Q109.95 51 107.80 48.70Q105.65 46.40 105.65 42.15L105.65 29.40L100.90 29.40L100.90 26.25L105.65 26.25L105.65 18.80L109.70 18.80L109.70 26.25L117.40 26.25L117.40 29.40L109.70 29.40L109.70 41.75Q109.70 44.60 110.90 46.07Q112.10 47.55 114.80 47.55Q115.60 47.55 116.40 47.35Q117.20 47.15 117.85 46.95L118.55 50.05Q117.90 50.40 116.65 50.70Q115.40 51 114.25 51ZM131.85 51Q128.30 51 125.70 49.45Q123.10 47.90 121.68 45.07Q120.25 42.25 120.25 38.40Q120.25 34.55 121.68 31.72Q123.10 28.90 125.70 27.35Q128.30 25.80 131.85 25.80Q135.40 25.80 138.00 27.35Q140.60 28.90 142.03 31.72Q143.45 34.55 143.45 38.40Q143.45 42.25 142.03 45.07Q140.60 47.90 138.00 49.45Q135.40 51 131.85 51M131.85 47.75Q135.30 47.75 137.33 45.32Q139.35 42.90 139.35 38.35Q139.35 33.85 137.33 31.45Q135.30 29.05 131.85 29.05Q128.45 29.05 126.40 31.45Q124.35 33.85 124.35 38.35Q124.35 42.90 126.40 45.32Q128.45 47.75 131.85 47.75ZM174.35 51Q171.60 51 169.18 50.50Q166.75 50 164.73 49.07Q162.70 48.15 161.05 46.80L162.50 43.50Q164.20 44.75 165.98 45.63Q167.75 46.50 169.83 46.92Q171.90 47.35 174.35 47.35Q178.85 47.35 181.03 45.67Q183.20 44 183.20 41.25Q183.20 39.80 182.53 38.75Q181.85 37.70 180.33 36.95Q178.80 36.20 176.35 35.70L171.15 34.65Q166.45 33.65 164.13 31.37Q161.80 29.10 161.80 25.30Q161.80 22.15 163.43 19.80Q165.05 17.45 167.98 16.15Q170.90 14.85 174.65 14.85Q177.05 14.85 179.20 15.35Q181.35 15.85 183.18 16.82Q185.00 17.80 186.40 19.20L184.95 22.40Q182.70 20.35 180.20 19.42Q177.70 18.50 174.60 18.50Q171.95 18.50 170.03 19.30Q168.10 20.10 167.03 21.62Q165.95 23.15 165.95 25.15Q165.95 27.55 167.43 28.95Q168.90 30.35 172.25 31.00L177.45 32.10Q182.50 33.15 184.93 35.27Q187.35 37.40 187.35 41.05Q187.35 43.95 185.78 46.22Q184.20 48.50 181.28 49.75Q178.35 51 174.35 51ZM200.80 51Q198.30 51 196.33 50.02Q194.35 49.05 193.20 47.35Q192.05 45.65 192.05 43.55Q192.05 40.85 193.43 39.30Q194.80 37.75 197.98 37.10Q201.15 36.45 206.65 36.45L208.90 36.45L208.90 39.10L206.70 39.10Q203.65 39.10 201.60 39.30Q199.55 39.50 198.35 40Q197.15 40.50 196.65 41.30Q196.15 42.10 196.15 43.30Q196.15 45.35 197.58 46.65Q199.00 47.95 201.45 47.95Q203.45 47.95 204.98 47Q206.50 46.05 207.38 44.40Q208.25 42.75 208.25 40.60L208.25 34.90Q208.25 31.80 207.00 30.42Q205.75 29.05 202.90 29.05Q200.70 29.05 198.65 29.67Q196.60 30.30 194.45 31.70L193.05 28.75Q194.35 27.85 196.00 27.17Q197.65 26.50 199.45 26.15Q201.25 25.80 202.90 25.80Q206.05 25.80 208.10 26.82Q210.15 27.85 211.15 29.92Q212.15 32.00 212.15 35.25L212.15 50.55L208.35 50.55L208.35 44.90L208.80 44.90Q208.40 46.80 207.28 48.15Q206.15 49.50 204.50 50.25Q202.85 51 200.80 51ZM219.65 50.55L219.65 26.25L223.60 26.25L223.60 31.65L223.05 31.65Q224.10 28.75 226.48 27.27Q228.85 25.80 231.95 25.80Q234.85 25.80 236.78 26.82Q238.70 27.85 239.65 30.00Q240.60 32.15 240.60 35.40L240.60 50.55L236.55 50.55L236.55 35.65Q236.55 33.40 235.98 31.95Q235.40 30.50 234.18 29.80Q232.95 29.10 231.00 29.10Q228.80 29.10 227.15 30.05Q225.50 31.00 224.60 32.70Q223.70 34.40 223.70 36.70L223.70 50.55L219.65 50.55ZM256.25 51Q254.35 51 252.58 50.63Q250.80 50.25 249.28 49.57Q247.75 48.90 246.65 47.95L247.95 45.10Q249.15 46.05 250.55 46.67Q251.95 47.30 253.40 47.60Q254.85 47.90 256.35 47.90Q259.20 47.90 260.65 46.85Q262.10 45.80 262.10 44Q262.10 42.60 261.15 41.77Q260.20 40.95 258.15 40.50L253.60 39.50Q250.45 38.85 248.93 37.25Q247.40 35.65 247.40 33.10Q247.40 30.85 248.58 29.22Q249.75 27.60 251.90 26.70Q254.05 25.80 256.90 25.80Q258.60 25.80 260.15 26.15Q261.70 26.50 263.08 27.17Q264.45 27.85 265.45 28.85L264.10 31.70Q263.15 30.80 261.95 30.17Q260.75 29.55 259.48 29.22Q258.20 28.90 256.90 28.90Q254.10 28.90 252.65 30.00Q251.20 31.10 251.20 32.90Q251.20 34.30 252.10 35.20Q253.00 36.10 254.90 36.50L259.45 37.45Q262.70 38.15 264.33 39.67Q265.95 41.20 265.95 43.80Q265.95 46 264.75 47.63Q263.55 49.25 261.38 50.13Q259.20 51 256.25 51Z"/></g></g></g></svg>