<svg xmlns="http://www.w3.org/2000/svg" viewBox="0 1.600000023841858 365.5 37.400001525878906" data-asc="0.762" width="365.5" height="37.400001525878906"><defs/><g fill="#000000"><g transform="translate(0, 0)"><path d="M14.50 39Q10.30 39 7 36.35Q3.70 33.70 1.85 29.38Q0 25.05 0 20.30Q0 15.55 1.85 11.23Q3.70 6.90 7 4.25Q10.30 1.60 14.50 1.60Q18.70 1.60 22 4.25Q25.30 6.90 27.15 11.23Q29 15.55 29 20.30Q29 25.05 27.15 29.38Q25.30 33.70 22 36.35Q18.70 39 14.50 39M14.50 37.40Q19.40 37.40 21.55 32.92Q23.70 28.45 23.70 20.30Q23.70 12.10 21.55 7.65Q19.40 3.20 14.50 3.20Q9.60 3.20 7.45 7.65Q5.30 12.10 5.30 20.30Q5.30 28.45 7.45 32.92Q9.60 37.40 14.50 37.40ZM32.90 36.90L35.50 36.90Q36.10 36.90 36.35 36.65Q36.60 36.40 36.60 35.80L36.60 4.80Q36.60 4.20 36.35 3.95Q36.10 3.70 35.50 3.70L32.90 3.70L32.90 2.50L40.20 2.50L40.20 35.80Q40.20 36.40 40.45 36.65Q40.70 36.90 41.30 36.90L43.90 36.90L43.90 38.10L32.90 38.10L32.90 36.90ZM56.20 38.70Q53.85 38.70 51.83 37.13Q49.80 35.55 48.60 32.80Q47.40 30.05 47.40 26.70Q47.40 23.35 48.60 20.60Q49.80 17.85 51.83 16.27Q53.85 14.70 56.20 14.70Q58.15 14.70 59.70 15.98Q61.25 17.25 62 19.05L62.20 19L62.20 4.80Q62.20 4.20 61.95 3.95Q61.70 3.70 61.10 3.70L57.50 3.70L57.50 2.50L65.80 2.50L65.80 35.80Q65.80 36.40 66.05 36.65Q66.30 36.90 66.90 36.90L69.50 36.90L69.50 38.10L62.20 38.10L62.20 34.40L62 34.35Q61.05 36.35 59.58 37.52Q58.10 38.70 56.20 38.70M56.75 37.30Q58.25 37.30 59.50 36.20Q60.75 35.10 61.48 33.17Q62.20 31.25 62.20 29L62.20 24.40Q62.20 22.15 61.48 20.23Q60.75 18.30 59.50 17.20Q58.25 16.10 56.75 16.10Q54.30 16.10 53.05 18.85Q51.80 21.60 51.80 26.70Q51.80 31.80 53.05 34.55Q54.30 37.30 56.75 37.30ZM102.65 39Q100.55 39 98.52 38.08Q96.50 37.15 95 36.05Q92.90 34.45 92.50 34.45Q91.50 34.45 91.20 36.60L91 38.60L89.85 38.60L89.50 22.80L90.70 22.80Q91 26.50 92.77 29.88Q94.55 33.25 97.20 35.33Q99.85 37.40 102.65 37.40Q106.75 37.40 108.63 35.40Q110.50 33.40 110.50 30.60Q110.50 28.15 109.07 26.75Q107.65 25.35 104.90 24.25L97.30 21.20Q93.35 19.60 91.47 17.07Q89.60 14.55 89.60 11Q89.60 6.20 92.40 3.90Q95.20 1.60 99.40 1.60Q102.70 1.60 106.70 4.60Q107.20 4.95 107.70 5.23Q108.20 5.50 108.60 5.50Q109.45 5.50 109.60 4.30L109.80 2.50L111 2.50L111.50 15.50L110.30 15.50Q109.50 11.90 107.77 9.10Q106.05 6.30 103.75 4.75Q101.45 3.20 99 3.20Q96.20 3.20 94.40 5.02Q92.60 6.85 92.60 10.10Q92.60 12.35 93.75 13.60Q94.90 14.85 97.15 15.75L106.80 19.60Q110.15 20.95 111.82 23.45Q113.50 25.95 113.50 28.70Q113.50 31.35 112.32 33.70Q111.15 36.05 108.72 37.52Q106.30 39 102.65 39ZM126.40 38.70Q124.15 38.70 122.67 37.10Q121.20 35.50 121.20 32.75L121.20 16.70L117.50 16.70L117.50 15.30L118.60 15.30Q120.85 15.30 122.13 12.88Q123.40 10.45 123.40 7.50L123.40 5.70L124.80 5.70L124.80 15.30L131 15.30L131 16.70L124.80 16.70L124.80 33Q124.80 34.50 125.40 35.50Q126 36.50 127.45 36.50Q131 36.50 131 30.50L131.90 30.50Q131.90 33.85 130.92 36.27Q129.95 38.70 126.40 38.70ZM142.40 38.70Q139.75 38.70 137.82 37.40Q135.90 36.10 135.90 32.80Q135.90 30.25 137.20 28.80Q138.50 27.35 140.22 26.73Q141.95 26.10 144.40 25.65L149 24.80L149 20.55Q149 15.90 144.35 15.90Q142.65 15.90 141.25 16.77Q139.85 17.65 139.85 18.75Q139.85 19.25 140 19.50Q140.10 19.65 140.32 19.80Q140.55 19.95 140.75 20Q141.65 20.25 142.13 20.70Q142.60 21.15 142.60 21.95Q142.60 23 141.97 23.45Q141.35 23.90 140.40 23.90Q139.30 23.90 138.40 23.05Q137.50 22.20 137.50 20.60Q137.50 18.75 138.53 17.40Q139.55 16.05 141.17 15.38Q142.80 14.70 144.50 14.70Q147.80 14.70 150.20 16.43Q152.60 18.15 152.60 21.80L152.60 34.10Q152.60 36.60 154.15 36.60Q155.40 36.60 155.95 35.15Q156.50 33.70 156.50 31.60L157.40 31.60Q157.40 34.60 156.53 36.65Q155.65 38.70 153.40 38.70Q151.25 38.70 150.17 37.43Q149.10 36.15 149 33.90L148.75 33.80Q148 35.55 146.32 37.13Q144.65 38.70 142.40 38.70M143.20 36.90Q145.45 36.90 146.72 35.13Q148 33.35 149 30.60L149 25.85L144.65 26.80Q142.25 27.30 141.17 28.77Q140.10 30.25 140.10 32.95Q140.10 35.25 141.05 36.08Q142 36.90 143.20 36.90ZM160.20 36.90L162.30 36.90Q162.90 36.90 163.15 36.65Q163.40 36.40 163.40 35.80L163.40 17.60Q163.40 17 163.15 16.75Q162.90 16.50 162.30 16.50L160.20 16.50L160.20 15.30L167 15.30L167 19.40L167.20 19.45Q168.35 17.05 170.05 15.88Q171.75 14.70 173.80 14.70Q177.45 14.70 178.98 16.95Q180.50 19.20 180.50 22.35L180.50 35.80Q180.50 36.40 180.75 36.65Q181 36.90 181.60 36.90L183.70 36.90L183.70 38.10L173.70 38.10L173.70 36.90L175.80 36.90Q176.40 36.90 176.65 36.65Q176.90 36.40 176.90 35.80L176.90 21.40Q176.90 19.20 176.03 17.65Q175.15 16.10 173.05 16.10Q171.30 16.10 169.93 17.32Q168.55 18.55 167.78 20.68Q167 22.80 167 25.40L167 35.80Q167 36.40 167.25 36.65Q167.50 36.90 168.10 36.90L170.20 36.90L170.20 38.10L160.20 38.10L160.20 36.90ZM196.50 38.70Q194.15 38.70 192.13 37.13Q190.10 35.55 188.90 32.80Q187.70 30.05 187.70 26.70Q187.70 23.35 188.90 20.60Q190.10 17.85 192.13 16.27Q194.15 14.70 196.50 14.70Q198.45 14.70 200 15.98Q201.55 17.25 202.30 19.05L202.50 19L202.50 4.80Q202.50 4.20 202.25 3.95Q202 3.70 201.40 3.70L197.80 3.70L197.80 2.50L206.10 2.50L206.10 35.80Q206.10 36.40 206.35 36.65Q206.60 36.90 207.20 36.90L209.80 36.90L209.80 38.10L202.50 38.10L202.50 34.40L202.30 34.35Q201.35 36.35 199.88 37.52Q198.40 38.70 196.50 38.70M197.05 37.30Q198.55 37.30 199.80 36.20Q201.05 35.10 201.78 33.17Q202.50 31.25 202.50 29L202.50 24.40Q202.50 22.15 201.78 20.23Q201.05 18.30 199.80 17.20Q198.55 16.10 197.05 16.10Q194.60 16.10 193.35 18.85Q192.10 21.60 192.10 26.70Q192.10 31.80 193.35 34.55Q194.60 37.30 197.05 37.30ZM220.20 38.70Q217.55 38.70 215.63 37.40Q213.70 36.10 213.70 32.80Q213.70 30.25 215 28.80Q216.30 27.35 218.03 26.73Q219.75 26.10 222.20 25.65L226.80 24.80L226.80 20.55Q226.80 15.90 222.15 15.90Q220.45 15.90 219.05 16.77Q217.65 17.65 217.65 18.75Q217.65 19.25 217.80 19.50Q217.90 19.65 218.13 19.80Q218.35 19.95 218.55 20Q219.45 20.25 219.93 20.70Q220.40 21.15 220.40 21.95Q220.40 23 219.78 23.45Q219.15 23.90 218.20 23.90Q217.10 23.90 216.20 23.05Q215.30 22.20 215.30 20.60Q215.30 18.75 216.33 17.40Q217.35 16.05 218.97 15.38Q220.60 14.70 222.30 14.70Q225.60 14.70 228 16.43Q230.40 18.15 230.40 21.80L230.40 34.10Q230.40 36.60 231.95 36.60Q233.20 36.60 233.75 35.15Q234.30 33.70 234.30 31.60L235.20 31.60Q235.20 34.60 234.33 36.65Q233.45 38.70 231.20 38.70Q229.05 38.70 227.97 37.43Q226.90 36.15 226.80 33.90L226.55 33.80Q225.80 35.55 224.13 37.13Q222.45 38.70 220.20 38.70M221 36.90Q223.25 36.90 224.53 35.13Q225.80 33.35 226.80 30.60L226.80 25.85L222.45 26.80Q220.05 27.30 218.97 28.77Q217.90 30.25 217.90 32.95Q217.90 35.25 218.85 36.08Q219.80 36.90 221 36.90ZM238.00 36.90L240.10 36.90Q240.70 36.90 240.95 36.65Q241.20 36.40 241.20 35.80L241.20 17.60Q241.20 17 240.95 16.75Q240.70 16.50 240.10 16.50L238.00 16.50L238.00 15.30L244.80 15.30L244.80 20.30L245.00 20.35Q246.05 17.75 247.73 16.23Q249.40 14.70 251.30 14.70Q253.20 14.70 254.40 15.80Q255.60 16.90 255.60 18.80Q255.60 19.90 254.83 20.95Q254.05 22 252.85 22Q251.90 22 251.25 21.50Q250.60 21 250.60 20.10Q250.60 19.05 251.60 18.30Q252.05 18 252.28 17.75Q252.50 17.50 252.50 17.10Q252.50 16.65 252.08 16.38Q251.65 16.10 250.90 16.10Q249.35 16.10 247.93 17.60Q246.50 19.10 245.65 21.50Q244.80 23.90 244.80 26.50L244.80 35.80Q244.80 36.40 245.05 36.65Q245.30 36.90 245.90 36.90L248.00 36.90L248.00 38.10L238.00 38.10L238.00 36.90ZM267.80 38.70Q265.45 38.70 263.43 37.13Q261.40 35.55 260.20 32.80Q259 30.05 259 26.70Q259 23.35 260.20 20.60Q261.40 17.85 263.43 16.27Q265.45 14.70 267.80 14.70Q269.75 14.70 271.30 15.98Q272.85 17.25 273.60 19.05L273.80 19L273.80 4.80Q273.80 4.20 273.55 3.95Q273.30 3.70 272.70 3.70L269.10 3.70L269.10 2.50L277.40 2.50L277.40 35.80Q277.40 36.40 277.65 36.65Q277.90 36.90 278.50 36.90L281.10 36.90L281.10 38.10L273.80 38.10L273.80 34.40L273.60 34.35Q272.65 36.35 271.18 37.52Q269.70 38.70 267.80 38.70M268.35 37.30Q269.85 37.30 271.10 36.20Q272.35 35.10 273.08 33.17Q273.80 31.25 273.80 29L273.80 24.40Q273.80 22.15 273.08 20.23Q272.35 18.30 271.10 17.20Q269.85 16.10 268.35 16.10Q265.90 16.10 264.65 18.85Q263.40 21.60 263.40 26.70Q263.40 31.80 264.65 34.55Q265.90 37.30 268.35 37.30ZM306.60 36.50L311.40 36.50Q312.75 36.50 312.75 35.15L312.75 5.30Q312.75 4.60 312.45 4.27Q312.15 3.95 311.40 3.95L309.60 3.95Q306.45 3.95 304.15 7.15Q302.70 9.20 302.20 12.27Q301.70 15.35 301.70 16.80L300.30 16.80L300.70 2.50L329.40 2.50L329.80 16.80L328.40 16.80Q328.40 15.35 327.90 12.27Q327.40 9.20 325.95 7.15Q323.65 3.95 320.50 3.95L318.70 3.95Q317.95 3.95 317.65 4.27Q317.35 4.60 317.35 5.30L317.35 35.15Q317.35 36.50 318.70 36.50L323.50 36.50L323.50 38.10L306.60 38.10L306.60 36.50ZM342.30 36.50L347.10 36.50Q348.45 36.50 348.45 35.15L348.45 5.30Q348.45 4.60 348.15 4.27Q347.85 3.95 347.10 3.95L345.30 3.95Q342.15 3.95 339.85 7.15Q338.40 9.20 337.90 12.27Q337.40 15.35 337.40 16.80L336.00 16.80L336.40 2.50L365.10 2.50L365.50 16.80L364.10 16.80Q364.10 15.35 363.60 12.27Q363.10 9.20 361.65 7.15Q359.35 3.95 356.20 3.95L354.40 3.95Q353.65 3.95 353.35 4.27Q353.05 4.60 353.05 5.30L353.05 35.15Q353.05 36.50 354.40 36.50L359.20 36.50L359.20 38.10L342.30 38.10L342.30 36.50Z"/></g></g></svg>