<svg xmlns="http://www.w3.org/2000/svg" viewBox="0 17.190000534057617 245.61000061035156 48.220001220703125" data-asc="1.06884765625" width="245.61000061035156" height="48.220001220703125"><defs/><g><g fill="#000000"><g transform="translate(0, 0)"><path d="M32.79 35.55Q32.79 39.67 31.74 43.05Q30.69 46.44 28.63 48.86Q26.56 51.29 23.51 52.61Q20.46 53.93 16.43 53.93Q12.28 53.93 9.19 52.61Q6.10 51.29 4.06 48.85Q2.03 46.41 1.01 43.02Q0 39.62 0 35.50Q0 30.03 1.81 25.90Q3.61 21.78 7.29 19.48Q10.96 17.19 16.50 17.19Q21.80 17.19 25.43 19.46Q29.05 21.73 30.92 25.84Q32.79 29.96 32.79 35.55M4.37 35.55Q4.37 40.09 5.66 43.41Q6.96 46.73 9.63 48.54Q12.30 50.34 16.43 50.34Q20.58 50.34 23.23 48.54Q25.88 46.73 27.15 43.41Q28.42 40.09 28.42 35.55Q28.42 28.64 25.52 24.74Q22.63 20.85 16.50 20.85Q12.35 20.85 9.67 22.63Q6.98 24.41 5.68 27.70Q4.37 30.98 4.37 35.55ZM52.69 26.20Q57.69 26.20 60.67 29.64Q63.65 33.08 63.65 39.99Q63.65 44.56 62.28 47.66Q60.91 50.76 58.44 52.34Q55.96 53.93 52.59 53.93Q50.46 53.93 48.85 53.37Q47.24 52.81 46.09 51.86Q44.95 50.90 44.19 49.78L43.90 49.78Q43.97 50.73 44.08 52.08Q44.19 53.42 44.19 54.42L44.19 65.41L40.11 65.41L40.11 26.68L43.46 26.68L43.99 30.64L44.19 30.64Q44.97 29.42 46.09 28.41Q47.22 27.39 48.84 26.79Q50.46 26.20 52.69 26.20M51.98 29.61Q49.19 29.61 47.50 30.69Q45.80 31.76 45.02 33.90Q44.24 36.04 44.19 39.26L44.19 40.04Q44.19 43.43 44.93 45.78Q45.68 48.12 47.40 49.34Q49.12 50.56 52.03 50.56Q54.52 50.56 56.18 49.22Q57.84 47.88 58.65 45.47Q59.47 43.07 59.47 39.94Q59.47 35.21 57.63 32.41Q55.79 29.61 51.98 29.61ZM81.01 26.20Q84.42 26.20 86.87 27.71Q89.31 29.22 90.60 31.95Q91.89 34.67 91.89 38.31L91.89 40.82L73.41 40.82Q73.49 45.53 75.76 48.00Q78.03 50.46 82.15 50.46Q84.69 50.46 86.65 50Q88.60 49.54 90.70 48.63L90.70 52.20Q88.67 53.10 86.68 53.52Q84.69 53.93 81.98 53.93Q78.13 53.93 75.26 52.36Q72.39 50.78 70.80 47.73Q69.21 44.68 69.21 40.26Q69.21 35.94 70.67 32.78Q72.12 29.61 74.77 27.91Q77.42 26.20 81.01 26.20M80.96 29.52Q77.71 29.52 75.78 31.64Q73.85 33.76 73.49 37.57L87.65 37.57Q87.62 35.18 86.90 33.36Q86.18 31.54 84.72 30.53Q83.25 29.52 80.96 29.52ZM111.45 26.20Q116.21 26.20 118.65 28.53Q121.09 30.86 121.09 36.01L121.09 53.44L117.09 53.44L117.09 36.28Q117.09 32.93 115.56 31.27Q114.04 29.61 110.89 29.61Q106.45 29.61 104.64 32.13Q102.83 34.64 102.83 39.43L102.83 53.44L98.78 53.44L98.78 26.68L102.05 26.68L102.66 30.54L102.88 30.54Q103.74 29.13 105.05 28.16Q106.37 27.20 108.01 26.70Q109.64 26.20 111.45 26.20ZM163.18 43.95Q163.18 47.12 161.61 49.35Q160.03 51.59 157.20 52.76Q154.37 53.93 150.54 53.93Q148.51 53.93 146.70 53.74Q144.90 53.54 143.38 53.17Q141.87 52.81 140.72 52.27L140.72 48.29Q142.55 49.05 145.19 49.69Q147.83 50.34 150.71 50.34Q153.39 50.34 155.25 49.62Q157.10 48.90 158.07 47.55Q159.03 46.19 159.03 44.29Q159.03 42.46 158.23 41.22Q157.42 39.99 155.55 38.98Q153.69 37.96 150.46 36.82Q148.19 36.01 146.46 35.05Q144.73 34.08 143.55 32.86Q142.38 31.64 141.78 30.03Q141.19 28.42 141.19 26.34Q141.19 23.49 142.64 21.45Q144.09 19.41 146.67 18.32Q149.24 17.24 152.59 17.24Q155.44 17.24 157.87 17.77Q160.30 18.31 162.33 19.21L161.04 22.78Q159.11 21.97 156.95 21.44Q154.79 20.90 152.49 20.90Q150.20 20.90 148.62 21.57Q147.05 22.24 146.22 23.46Q145.39 24.68 145.39 26.37Q145.39 28.25 146.18 29.49Q146.97 30.74 148.72 31.70Q150.46 32.67 153.34 33.72Q156.49 34.86 158.69 36.15Q160.89 37.43 162.04 39.27Q163.18 41.11 163.18 43.95ZM179.86 26.25Q184.64 26.25 186.96 28.39Q189.28 30.54 189.28 35.25L189.28 53.44L186.33 53.44L185.55 49.49L185.35 49.49Q184.23 50.95 183.01 51.94Q181.79 52.93 180.19 53.43Q178.59 53.93 176.27 53.93Q173.83 53.93 171.94 53.08Q170.04 52.22 168.96 50.49Q167.87 48.75 167.87 46.09Q167.87 42.09 171.04 39.94Q174.22 37.79 180.71 37.60L185.33 37.40L185.33 35.77Q185.33 32.30 183.84 30.91Q182.35 29.52 179.64 29.52Q177.54 29.52 175.63 30.13Q173.73 30.74 172.02 31.57L170.78 28.49Q172.58 27.56 174.93 26.90Q177.27 26.25 179.86 26.25M185.28 40.26L181.20 40.43Q176.20 40.63 174.15 42.07Q172.09 43.51 172.09 46.14Q172.09 48.44 173.49 49.54Q174.88 50.63 177.17 50.63Q180.74 50.63 183.01 48.66Q185.28 46.68 185.28 42.72L185.28 40.26ZM210.30 26.20Q215.06 26.20 217.50 28.53Q219.95 30.86 219.95 36.01L219.95 53.44L215.94 53.44L215.94 36.28Q215.94 32.93 214.42 31.27Q212.89 29.61 209.74 29.61Q205.30 29.61 203.49 32.13Q201.68 34.64 201.68 39.43L201.68 53.44L197.63 53.44L197.63 26.68L200.90 26.68L201.51 30.54L201.73 30.54Q202.59 29.13 203.91 28.16Q205.22 27.20 206.86 26.70Q208.50 26.20 210.30 26.20ZM245.61 46.12Q245.61 48.68 244.32 50.43Q243.04 52.17 240.66 53.05Q238.28 53.93 234.99 53.93Q232.18 53.93 230.13 53.49Q228.08 53.05 226.54 52.25L226.54 48.51Q228.17 49.32 230.44 49.98Q232.71 50.63 235.08 50.63Q238.55 50.63 240.11 49.51Q241.67 48.39 241.67 46.46Q241.67 45.36 241.05 44.52Q240.43 43.68 238.96 42.88Q237.50 42.09 234.91 41.14Q232.35 40.16 230.48 39.20Q228.61 38.23 227.60 36.84Q226.59 35.45 226.59 33.23Q226.59 29.83 229.33 28.02Q232.08 26.20 236.55 26.20Q238.96 26.20 241.08 26.67Q243.19 27.15 245.02 27.95L243.65 31.20Q241.99 30.49 240.11 30.00Q238.23 29.52 236.28 29.52Q233.47 29.52 231.97 30.44Q230.47 31.37 230.47 32.98Q230.47 34.23 231.16 35.03Q231.86 35.84 233.40 36.55Q234.94 37.26 237.45 38.21Q239.97 39.14 241.80 40.12Q243.63 41.11 244.62 42.52Q245.61 43.92 245.61 46.12Z"/></g></g></g></svg>