<svg xmlns="http://www.w3.org/2000/svg" viewBox="0 18.799999237060547 123.6500015258789 41.29999923706055" data-asc="1.193" width="123.6500015258789" height="41.29999923706055"><defs/><g><g fill="#000000"><g transform="translate(0, 0)"><path d="M11.10 60.10Q7 60.10 4.55 58.50Q2.10 56.90 1.05 53.93Q0 50.95 0 46.95L0 31.60Q0 27.60 1.07 24.73Q2.15 21.85 4.58 20.33Q7 18.80 11.10 18.80Q15.20 18.80 17.60 20.35Q20 21.90 21.08 24.75Q22.15 27.60 22.15 31.60L22.15 47.00Q22.15 50.95 21.08 53.90Q20 56.85 17.60 58.48Q15.20 60.10 11.10 60.10M11.10 55.65Q13.35 55.65 14.50 54.73Q15.65 53.80 16.05 52.13Q16.45 50.45 16.45 48.20L16.45 30.45Q16.45 28.20 16.05 26.58Q15.65 24.95 14.50 24.08Q13.35 23.20 11.10 23.20Q8.85 23.20 7.68 24.08Q6.50 24.95 6.10 26.58Q5.70 28.20 5.70 30.45L5.70 48.20Q5.70 50.45 6.10 52.13Q6.50 53.80 7.68 54.73Q8.85 55.65 11.10 55.65ZM33.95 60.05Q30.40 60.05 28.25 57.83Q26.10 55.60 25.80 51.95L30.25 50.60Q30.65 53.35 31.60 54.73Q32.55 56.10 34.40 56.10Q35.85 56.10 36.60 55.28Q37.35 54.45 37.35 53.05Q37.35 51.80 36.80 50.80Q36.25 49.80 35.00 48.75L30.05 44.50Q28.55 43.20 27.53 41.60Q26.50 40 26.50 37.45Q26.50 35.15 27.43 33.58Q28.35 32 30.03 31.18Q31.70 30.35 33.95 30.35Q37.55 30.35 39.45 32.58Q41.35 34.80 41.65 37.95L37.85 39.30Q37.65 37.80 37.25 36.68Q36.85 35.55 36.10 34.93Q35.35 34.30 34.15 34.30Q32.85 34.30 32.08 35.18Q31.30 36.05 31.30 37.25Q31.30 38 31.63 38.73Q31.95 39.45 32.75 40.15L37.85 44.85Q38.90 45.80 39.83 46.90Q40.75 48.00 41.35 49.40Q41.95 50.80 41.95 52.65Q41.95 55.10 40.95 56.75Q39.95 58.40 38.15 59.23Q36.35 60.05 33.95 60.05ZM49.30 59.65L44.65 30.75L49.05 30.75L52.05 52.05L55.90 30.75L60 30.75L63.85 51.95L66.85 30.75L71.25 30.75L66.45 59.65L61.95 59.65L58 39.25L54.10 59.65L49.30 59.65ZM79.40 60.05Q77.70 60.05 76.40 59.08Q75.10 58.10 74.35 56.58Q73.60 55.05 73.60 53.35Q73.60 50.65 74.50 48.80Q75.40 46.95 76.98 45.68Q78.55 44.40 80.63 43.45Q82.70 42.50 85.00 41.60L85.00 39.55Q85.00 37.80 84.80 36.65Q84.60 35.50 83.98 34.93Q83.35 34.35 82.10 34.35Q81.00 34.35 80.33 34.85Q79.65 35.35 79.35 36.28Q79.05 37.20 79.05 38.45L79.05 39.90L73.75 39.70Q73.85 34.90 75.95 32.63Q78.05 30.35 82.45 30.35Q86.75 30.35 88.55 32.70Q90.35 35.05 90.35 39.50L90.35 52.70Q90.35 54.05 90.43 55.30Q90.50 56.55 90.63 57.63Q90.75 58.70 90.85 59.65L85.95 59.65Q85.80 58.85 85.58 57.63Q85.35 56.40 85.25 55.40Q84.75 57.10 83.33 58.58Q81.90 60.05 79.40 60.05M81.50 55.45Q82.30 55.45 83.00 55.00Q83.70 54.55 84.25 53.98Q84.80 53.40 85.00 53.05L85.00 44.85Q83.75 45.55 82.65 46.25Q81.55 46.95 80.73 47.73Q79.90 48.50 79.43 49.48Q78.95 50.45 78.95 51.70Q78.95 53.45 79.60 54.45Q80.25 55.45 81.50 55.45ZM96.00 59.65L96.00 19.15L101.35 19.15L101.35 59.65L96.00 59.65ZM113.65 60.05Q110.00 60.05 108.20 57.38Q106.40 54.70 106.40 48.30L106.40 42.70Q106.40 39.40 106.95 36.58Q107.50 33.75 109.03 32.05Q110.55 30.35 113.50 30.35Q114.95 30.35 116.15 31.00Q117.35 31.65 118.30 32.60L118.30 19.15L123.65 19.15L123.65 59.65L118.30 59.65L118.30 57.80Q117.35 58.80 116.23 59.43Q115.10 60.05 113.65 60.05M115.00 55.85Q115.75 55.85 116.60 55.58Q117.45 55.30 118.30 54.75L118.30 35.80Q117.60 35.30 116.75 34.93Q115.90 34.55 114.90 34.55Q113.05 34.55 112.40 36.33Q111.75 38.10 111.75 40.60L111.75 48.75Q111.75 50.75 111.98 52.38Q112.20 54.00 112.90 54.93Q113.60 55.85 115.00 55.85Z"/></g></g></g></svg>