<svg xmlns="http://www.w3.org/2000/svg" viewBox="0 13.800000190734863 129.10000610351562 36.70000076293945" data-asc="1" width="129.10000610351562" height="36.70000076293945"><defs/><g><g fill="#000000"><g transform="translate(0, 0)"><path d="M17.55 50.50Q13.85 50.50 10.65 49.13Q7.45 47.75 5.05 45.27Q2.65 42.80 1.33 39.55Q0 36.30 0 32.60Q0 28.85 1.33 25.63Q2.65 22.40 5.03 19.95Q7.40 17.50 10.58 16.15Q13.75 14.80 17.45 14.80Q21.15 14.80 24.32 16.15Q27.50 17.50 29.90 19.95Q32.30 22.40 33.65 25.65Q35 28.90 35 32.65Q35 36.35 33.65 39.60Q32.30 42.85 29.92 45.30Q27.55 47.75 24.38 49.13Q21.20 50.50 17.55 50.50M17.45 46Q21.20 46 24.02 44.27Q26.85 42.55 28.50 39.52Q30.15 36.50 30.15 32.60Q30.15 29.70 29.20 27.27Q28.25 24.85 26.55 23.05Q24.85 21.25 22.55 20.27Q20.25 19.30 17.45 19.30Q13.75 19.30 10.93 21Q8.10 22.70 6.48 25.70Q4.85 28.70 4.85 32.60Q4.85 35.50 5.78 37.98Q6.70 40.45 8.38 42.23Q10.05 44 12.38 45Q14.70 46 17.45 46ZM50.25 50.50Q47.30 50.50 44.98 49.17Q42.65 47.85 41.35 45.50Q40.05 43.15 40.05 40.05L40.05 26.25L44.55 26.25L44.55 39.85Q44.55 41.80 45.23 43.23Q45.90 44.65 47.20 45.40Q48.50 46.15 50.25 46.15Q52.90 46.15 54.40 44.48Q55.90 42.80 55.90 39.85L55.90 26.25L60.40 26.25L60.40 40.05Q60.40 43.15 59.10 45.50Q57.80 47.85 55.53 49.17Q53.25 50.50 50.25 50.50ZM70.10 50L70.10 16.30L74.60 16.30L74.60 50L70.10 50M64.25 30.35L64.25 26.25L80.45 26.25L80.45 30.35L64.25 30.35ZM87.35 50L87.35 22.70Q87.35 20.05 88.50 18.07Q89.65 16.10 91.68 14.95Q93.70 13.80 96.40 13.80Q98.45 13.80 99.95 14.50Q101.45 15.20 102.70 16.55L99.75 19.45Q99.10 18.75 98.30 18.38Q97.50 18 96.35 18Q94.20 18 93.03 19.25Q91.85 20.50 91.85 22.70L91.85 50L87.35 50M81.50 30.35L81.50 26.25L99.40 26.25L99.40 30.35L81.50 30.35ZM103.95 50L103.95 26.25L108.45 26.25L108.45 50L103.95 50M106.20 21.50Q104.95 21.50 104.15 20.67Q103.35 19.85 103.35 18.60Q103.35 17.40 104.15 16.57Q104.95 15.75 106.20 15.75Q107.45 15.75 108.25 16.57Q109.05 17.40 109.05 18.60Q109.05 19.85 108.25 20.67Q107.45 21.50 106.20 21.50ZM118.75 50L118.75 16.30L123.25 16.30L123.25 50L118.75 50M112.90 30.35L112.90 26.25L129.10 26.25L129.10 30.35L112.90 30.35Z"/></g></g></g></svg>