<svg xmlns="http://www.w3.org/2000/svg" viewBox="0 4.550000190734863 193.8000030517578 34.95000076293945" data-asc="0.79" width="193.8000030517578" height="34.95000076293945"><defs/><g fill="#000000"><g transform="translate(0, 0)"><path d="M0 32.05L0 12.45Q0 5 7.45 5L19.20 5Q26.65 5 26.65 12.45L26.65 32.05Q26.65 39.50 19.20 39.50L7.45 39.50Q0 39.50 0 32.05M3.35 32.55Q3.35 36.45 7.30 36.45L19.40 36.45Q23.30 36.45 23.30 32.55L23.30 11.95Q23.30 8.05 19.40 8.05L7.30 8.05Q3.35 8.05 3.35 11.95L3.35 32.55ZM32.30 38.85L41.70 26.25L32.70 14.25L33 13.60L35.95 13.60L43.55 24L51.15 13.60L54.05 13.60L54.35 14.25L45.40 26.25L54.75 38.85L54.45 39.50L51.50 39.50L43.55 28.55L35.55 39.50L32.65 39.50L32.30 38.85ZM66.35 39.50Q58.95 39.50 58.95 32.08Q58.95 24.65 66.35 24.65L76.15 24.65L76.15 20.45Q76.15 16.40 72.10 16.40L61.35 16.40L61.35 14.90L63.10 13.60L72 13.60Q79.30 13.60 79.30 20.95L79.30 39.50L66.35 39.50M62.10 32.65Q62.10 36.75 66.20 36.75L76.15 36.75L76.15 27.30L66.20 27.30Q62.10 27.30 62.10 31.35L62.10 32.65ZM87.35 39.50L87.35 13.60L101.20 13.60Q108.50 13.60 108.50 20.95L108.50 39.50L105.35 39.50L105.35 20.45Q105.35 16.40 101.30 16.40L90.50 16.40L90.50 39.50L87.35 39.50ZM116.35 8.65L116.35 4.55L119.95 4.55L119.95 8.65L116.35 8.65M116.55 39.50L116.55 13.60L119.70 13.60L119.70 39.50L116.55 39.50ZM127.75 32.15L127.75 13.60L130.90 13.60L130.90 32.65Q130.90 36.75 135 36.75L145.75 36.75L145.75 13.60L148.90 13.60L148.90 39.50L135.10 39.50Q127.75 39.50 127.75 32.15ZM157.15 39.50L157.15 13.60L186.50 13.60Q193.80 13.60 193.80 20.95L193.80 39.50L190.65 39.50L190.65 20.45Q190.65 16.40 186.60 16.40L177.05 16.40L177.05 39.50L173.90 39.50L173.90 16.40L160.30 16.40L160.30 39.50L157.15 39.50Z"/></g></g></svg>