<svg xmlns="http://www.w3.org/2000/svg" viewBox="0 18.149999618530273 170.64999389648438 62.79999542236328" data-asc="1.303" width="170.64999389648438" height="62.79999542236328"><defs/><g><g fill="#000000"><g transform="translate(0, 0)"><path d="M38.85 35.35Q38.85 39.60 36.65 43.15Q34.45 46.70 30.25 48.95Q26.05 51.20 20.25 51.60L18.10 63.65Q16.85 70.60 11.30 70.60Q8.25 70.60 5.68 68.80Q3.10 67.00 1.55 63.30Q0 59.60 0 54.20Q0 44.05 3.27 36.97Q6.55 29.90 12.07 26.37Q17.60 22.85 24.25 22.85Q28.95 22.85 32.23 24.50Q35.50 26.15 37.18 28.97Q38.85 31.80 38.85 35.35M21.15 46.45Q31.40 45.15 31.40 35.80Q31.40 32.50 29.23 30.42Q27.05 28.35 22.50 28.35Q17.35 28.35 13.53 31.60Q9.70 34.85 7.63 40.62Q5.55 46.40 5.55 53.80Q5.55 56.90 6.17 59.30Q6.80 61.70 7.78 63.02Q8.75 64.35 9.65 64.35Q10.90 64.35 11.55 60.90L13.20 51.45Q11.25 51.15 11.50 51.20Q10 50.95 9.55 50.27Q9.10 49.60 9.10 48.55Q9.10 47.45 9.72 46.80Q10.35 46.15 11.45 46.15Q11.95 46.15 12.20 46.20Q13.40 46.40 14.05 46.45Q14.70 42.55 15.90 36.00Q16.20 34.30 17.28 33.57Q18.35 32.85 19.80 32.85Q21.45 32.85 22.18 33.47Q22.90 34.10 22.90 35.45Q22.90 36.25 22.80 36.75L21.15 46.45ZM46.50 65.40Q43.40 65.40 41.55 63.15Q39.70 60.90 39.70 57.25Q39.70 53.25 41.55 49.67Q43.40 46.10 46.48 43.92Q49.55 41.75 53 41.75Q54.10 41.75 54.48 42.17Q54.85 42.60 55.10 43.70Q56.15 43.50 57.30 43.50Q59.75 43.50 59.75 45.25Q59.75 46.30 59 50.25Q57.85 56.00 57.85 58.25Q57.85 59.00 58.23 59.45Q58.60 59.90 59.20 59.90Q60.15 59.90 61.50 58.67Q62.85 57.45 65.15 54.70Q65.75 54.00 66.50 54.00Q67.15 54.00 67.53 54.60Q67.90 55.20 67.90 56.25Q67.90 58.25 66.95 59.35Q64.90 61.90 62.60 63.65Q60.30 65.40 58.15 65.40Q56.50 65.40 55.13 64.27Q53.75 63.15 53.05 61.20Q50.45 65.40 46.50 65.40M48.30 60.35Q49.40 60.35 50.40 59.05Q51.40 57.75 51.85 55.60L53.70 46.40Q51.60 46.45 49.83 47.97Q48.05 49.50 47 52.00Q45.95 54.50 45.95 57.30Q45.95 58.85 46.58 59.60Q47.20 60.35 48.30 60.35ZM73.40 65.40Q68.50 65.40 65.78 62.62Q63.05 59.85 63.05 55.30Q63.05 51.25 64.65 48.20Q66.25 45.15 68.80 43.50Q71.35 41.85 74.15 41.85Q76.90 41.85 78.43 43.47Q79.95 45.10 79.95 47.65Q79.95 49.75 79.03 51.20Q78.10 52.65 76.60 52.65Q75.65 52.65 75.08 52.20Q74.50 51.75 74.50 50.95Q74.50 50.60 74.60 50.15Q74.70 49.70 74.75 49.50Q75 48.75 75 48.10Q75 47.45 74.68 47.10Q74.35 46.75 73.75 46.75Q72.60 46.75 71.60 47.77Q70.60 48.80 70 50.55Q69.40 52.30 69.40 54.40Q69.40 60.20 74.45 60.20Q76.50 60.20 78.88 58.82Q81.25 57.45 83.55 54.70Q84.15 54.00 84.90 54.00Q85.55 54.00 85.93 54.60Q86.30 55.20 86.30 56.25Q86.30 58.15 85.35 59.35Q83 62.25 79.73 63.82Q76.45 65.40 73.40 65.40ZM88.80 38.55Q86.70 38.55 85.65 37.57Q84.60 36.60 84.60 34.85Q84.60 33.10 85.98 31.92Q87.35 30.75 89.40 30.75Q91.25 30.75 92.40 31.65Q93.55 32.55 93.55 34.20Q93.55 36.20 92.25 37.37Q90.95 38.55 88.80 38.55M88.40 65.40Q85.15 65.40 83.68 63.10Q82.20 60.80 82.20 57.00Q82.20 54.75 82.78 51.22Q83.35 47.70 84.25 44.65Q84.70 43.05 85.45 42.45Q86.20 41.85 87.85 41.85Q90.40 41.85 90.40 43.55Q90.40 44.80 89.45 49.35Q88.25 54.85 88.25 56.80Q88.25 58.30 88.65 59.10Q89.05 59.90 90.00 59.90Q90.90 59.90 92.25 58.65Q93.60 57.40 95.85 54.70Q96.45 54.00 97.20 54.00Q97.85 54.00 98.23 54.60Q98.60 55.20 98.60 56.25Q98.60 58.25 97.65 59.35Q92.70 65.40 88.40 65.40ZM114.50 51.15Q115.90 51.15 115.90 53.25Q115.90 57.20 109.70 57.20Q108.50 57.20 106.25 56.75Q106.90 59.85 107.33 63.62Q107.75 67.40 107.75 69.85Q107.75 75.25 106 78.10Q104.25 80.95 101.40 80.95Q97.80 80.95 96.28 75.85Q94.75 70.75 94.75 60.45Q94.75 50.85 96.83 40.97Q98.90 31.10 102.53 24.62Q106.15 18.15 110.50 18.15Q112.85 18.15 114.18 20.25Q115.50 22.35 115.50 25.90Q115.50 37.65 101.45 51.50Q100.95 56.40 100.95 60.10Q100.95 65.25 101.30 70.67Q101.65 76.10 102.45 76.10Q103.95 76.10 103.95 70.90Q103.95 67.00 103.43 63.35Q102.90 59.70 102 55.65Q101.95 55.00 102.43 54.00Q102.90 53.00 103.60 52.25Q104.30 51.50 104.85 51.50Q105.85 51.50 107.25 51.60Q107.70 51.65 108.30 51.65Q110.30 51.65 112.75 51.30Q113.15 51.25 113.60 51.20Q114.05 51.15 114.50 51.15M109.45 23.10Q108.55 23.10 107.23 26.15Q105.90 29.20 104.60 34.22Q103.30 39.25 102.35 44.85Q106.35 40.30 108.50 35.37Q110.65 30.45 110.70 26.15Q110.70 23.10 109.45 23.10ZM119.65 38.55Q117.55 38.55 116.50 37.57Q115.45 36.60 115.45 34.85Q115.45 33.10 116.83 31.92Q118.20 30.75 120.25 30.75Q122.10 30.75 123.25 31.65Q124.40 32.55 124.40 34.20Q124.40 36.20 123.10 37.37Q121.80 38.55 119.65 38.55M119.25 65.40Q116 65.40 114.53 63.10Q113.05 60.80 113.05 57.00Q113.05 54.75 113.63 51.22Q114.20 47.70 115.10 44.65Q115.55 43.05 116.30 42.45Q117.05 41.85 118.70 41.85Q121.25 41.85 121.25 43.55Q121.25 44.80 120.30 49.35Q119.10 54.85 119.10 56.80Q119.10 58.30 119.50 59.10Q119.90 59.90 120.85 59.90Q121.75 59.90 123.10 58.65Q124.45 57.40 126.70 54.70Q127.30 54.00 128.05 54.00Q128.70 54.00 129.07 54.60Q129.45 55.20 129.45 56.25Q129.45 58.25 128.50 59.35Q123.55 65.40 119.25 65.40ZM134.95 65.40Q130.05 65.40 127.33 62.62Q124.60 59.85 124.60 55.30Q124.60 51.25 126.20 48.20Q127.80 45.15 130.35 43.50Q132.90 41.85 135.70 41.85Q138.45 41.85 139.97 43.47Q141.50 45.10 141.50 47.65Q141.50 49.75 140.57 51.20Q139.65 52.65 138.15 52.65Q137.20 52.65 136.63 52.20Q136.05 51.75 136.05 50.95Q136.05 50.60 136.15 50.15Q136.25 49.70 136.30 49.50Q136.55 48.75 136.55 48.10Q136.55 47.45 136.22 47.10Q135.90 46.75 135.30 46.75Q134.15 46.75 133.15 47.77Q132.15 48.80 131.55 50.55Q130.95 52.30 130.95 54.40Q130.95 60.20 136 60.20Q138.05 60.20 140.43 58.82Q142.80 57.45 145.10 54.70Q145.70 54.00 146.45 54.00Q147.10 54.00 147.47 54.60Q147.85 55.20 147.85 56.25Q147.85 58.15 146.90 59.35Q144.55 62.25 141.28 63.82Q138 65.40 134.95 65.40ZM169.30 49.80Q169.95 49.80 170.30 50.45Q170.65 51.10 170.65 52.10Q170.65 54.50 169.20 54.95Q166.20 56.00 162.60 56.15Q161.65 60.35 158.85 62.87Q156.05 65.40 152.50 65.40Q149.50 65.40 147.38 63.95Q145.25 62.50 144.15 60.10Q143.05 57.70 143.05 54.90Q143.05 51.10 144.50 48.12Q145.95 45.15 148.50 43.47Q151.05 41.80 154.15 41.80Q157.95 41.80 160.28 44.42Q162.60 47.05 163 50.90Q165.35 50.75 168.60 49.90Q169 49.80 169.30 49.80M152.90 60.10Q154.50 60.10 155.68 58.80Q156.85 57.50 157.25 55.05Q155.70 54.00 154.88 52.30Q154.05 50.60 154.05 48.70Q154.05 47.90 154.20 47.10L153.95 47.10Q151.95 47.10 150.63 49.02Q149.30 50.95 149.30 54.45Q149.30 57.20 150.38 58.65Q151.45 60.10 152.90 60.10Z"/></g></g></g></svg>