<svg xmlns="http://www.w3.org/2000/svg" viewBox="0 14.899999618530273 348.5 48.599998474121094" data-asc="1.082" width="348.5" height="48.599998474121094"><defs/><g><g fill="#000000"><g transform="translate(0, 0)"><path d="M0 18.70Q1.05 18.75 2.75 18.80Q4.45 18.85 6.10 18.85Q8.45 18.85 10.60 18.80Q12.75 18.75 13.65 18.75Q19.70 18.75 22.70 21.50Q25.70 24.25 25.70 28.60Q25.70 30.40 25.10 32.38Q24.50 34.35 23.02 36.03Q21.55 37.70 19 38.75Q16.45 39.80 12.55 39.80L7.75 39.80L7.75 38.80L12.05 38.80Q15.60 38.80 17.48 37.45Q19.35 36.10 20.02 33.90Q20.70 31.70 20.70 29.15Q20.70 24.40 18.82 22.05Q16.95 19.70 12.40 19.70Q10.10 19.70 9.40 20.55Q8.70 21.40 8.70 24L8.70 48.80Q8.70 50.60 9.08 51.50Q9.45 52.40 10.55 52.70Q11.65 53 13.75 53.10L13.75 54.10Q12.45 54 10.45 53.98Q8.45 53.95 6.40 53.95Q4.45 53.95 2.75 53.98Q1.05 54 0 54.10L0 53.10Q1.70 53 2.57 52.70Q3.45 52.40 3.75 51.50Q4.05 50.60 4.05 48.80L4.05 24Q4.05 22.15 3.75 21.27Q3.45 20.40 2.57 20.08Q1.70 19.75 0 19.70L0 18.70ZM36.55 14.90L36.55 49.45Q36.55 51.55 37.42 52.30Q38.30 53.05 40.35 53.05L40.35 54.10Q39.50 54.05 37.77 53.98Q36.05 53.90 34.30 53.90Q32.60 53.90 30.85 53.98Q29.10 54.05 28.25 54.10L28.25 53.05Q30.30 53.05 31.17 52.30Q32.05 51.55 32.05 49.45L32.05 20.90Q32.05 18.65 31.25 17.58Q30.45 16.50 28.25 16.50L28.25 15.45Q29.85 15.60 31.35 15.60Q32.80 15.60 34.13 15.42Q35.45 15.25 36.55 14.90ZM50 54.45Q47.95 54.45 46.45 53.68Q44.95 52.90 44.18 51.50Q43.40 50.10 43.40 48.25Q43.40 46.05 44.43 44.65Q45.45 43.25 47.05 42.40Q48.65 41.55 50.43 40.98Q52.20 40.40 53.80 39.88Q55.40 39.35 56.43 38.65Q57.45 37.95 57.45 36.80L57.45 33.70Q57.45 31.60 56.83 30.50Q56.20 29.40 55.15 29.02Q54.10 28.65 52.80 28.65Q51.55 28.65 50.13 29Q48.70 29.35 47.85 30.45Q48.80 30.65 49.50 31.45Q50.20 32.25 50.20 33.50Q50.20 34.75 49.40 35.48Q48.60 36.20 47.35 36.20Q45.90 36.20 45.23 35.28Q44.55 34.35 44.55 33.20Q44.55 31.90 45.20 31.10Q45.85 30.30 46.85 29.60Q48 28.80 49.83 28.23Q51.65 27.65 53.95 27.65Q56 27.65 57.45 28.13Q58.90 28.60 59.85 29.50Q61.15 30.70 61.55 32.42Q61.95 34.15 61.95 36.55L61.95 50.45Q61.95 51.70 62.33 52.25Q62.70 52.80 63.50 52.80Q64.05 52.80 64.55 52.55Q65.05 52.30 65.75 51.75L66.30 52.60Q65.25 53.40 64.30 53.93Q63.35 54.45 61.75 54.45Q60.30 54.45 59.35 53.95Q58.40 53.45 57.93 52.48Q57.45 51.50 57.45 50Q56.10 52.25 54.23 53.35Q52.35 54.45 50 54.45M51.80 52.45Q53.45 52.45 54.88 51.50Q56.30 50.55 57.45 48.65L57.45 38.85Q56.85 39.70 55.70 40.27Q54.55 40.85 53.20 41.42Q51.85 42 50.63 42.77Q49.40 43.55 48.60 44.80Q47.80 46.05 47.80 48.05Q47.80 50.05 48.88 51.25Q49.95 52.45 51.80 52.45ZM91.05 28.35L91.05 29.35Q90.10 29.45 89.30 30.20Q88.50 30.95 87.80 32.85L79.60 54.35L78.75 54.35L69.55 32.20Q68.60 30.25 67.68 29.82Q66.75 29.40 66.15 29.40L66.15 28.35Q67.25 28.50 68.45 28.57Q69.65 28.65 71.05 28.65Q72.60 28.65 74.33 28.55Q76.05 28.45 77.55 28.35L77.55 29.40Q76.30 29.40 75.33 29.57Q74.35 29.75 74.10 30.63Q73.85 31.50 74.70 33.60L80.85 48.85L80.55 48.95L86.25 34.05Q86.90 32.40 86.78 31.43Q86.65 30.45 85.75 29.95Q84.85 29.45 83.05 29.35L83.05 28.35Q83.95 28.40 84.60 28.43Q85.25 28.45 85.88 28.48Q86.50 28.50 87.25 28.50Q88.40 28.50 89.33 28.45Q90.25 28.40 91.05 28.35M79.60 54.35L77.90 58.70Q77.40 59.95 76.88 60.80Q76.35 61.65 75.75 62.20Q74.95 62.95 73.85 63.23Q72.75 63.50 71.85 63.50Q70.90 63.50 70.13 63.15Q69.35 62.80 68.90 62.13Q68.45 61.45 68.45 60.50Q68.45 59.30 69.15 58.58Q69.85 57.85 71.10 57.85Q72.15 57.85 72.90 58.45Q73.65 59.05 73.65 60.20Q73.65 61.05 73.25 61.60Q72.85 62.15 72.30 62.45Q72.40 62.50 72.48 62.50Q72.55 62.50 72.60 62.50Q73.95 62.50 75.00 61.58Q76.05 60.65 76.85 58.60L78.65 53.95L79.60 54.35ZM105.35 15Q106.75 15 107.83 15.38Q108.90 15.75 109.70 16.35Q110.45 16.95 110.85 17.75Q111.25 18.55 111.25 19.45Q111.25 20.60 110.50 21.35Q109.75 22.10 108.60 22.10Q107.50 22.10 106.68 21.38Q105.85 20.65 105.85 19.40Q105.85 18.35 106.43 17.70Q107.00 17.05 107.95 16.85Q107.80 16.40 107.18 16.08Q106.55 15.75 105.50 15.75Q104.35 15.75 103.53 16.25Q102.70 16.75 102.25 17.60Q101.65 18.65 101.50 20.73Q101.35 22.80 101.35 27.10L101.35 28.40L106.70 28.40L106.70 29.40L101.35 29.40L101.35 48.95Q101.35 51.40 102.78 52.23Q104.20 53.05 106.65 53.05L106.65 54.10Q105.50 54.05 103.40 53.98Q101.30 53.90 98.95 53.90Q97.25 53.90 95.58 53.98Q93.90 54.05 93.05 54.10L93.05 53.05Q95.10 53.05 95.98 52.30Q96.85 51.55 96.85 49.45L96.85 29.40L92.85 29.40L92.85 28.40L96.85 28.40Q96.85 25.45 97.10 23.45Q97.35 21.45 97.90 20.02Q98.45 18.60 99.40 17.50Q100.40 16.35 101.95 15.67Q103.50 15 105.35 15ZM116.70 54.45Q114.65 54.45 113.15 53.68Q111.65 52.90 110.88 51.50Q110.10 50.10 110.10 48.25Q110.10 46.05 111.13 44.65Q112.15 43.25 113.75 42.40Q115.35 41.55 117.13 40.98Q118.90 40.40 120.50 39.88Q122.10 39.35 123.13 38.65Q124.15 37.95 124.15 36.80L124.15 33.70Q124.15 31.60 123.53 30.50Q122.90 29.40 121.85 29.02Q120.80 28.65 119.50 28.65Q118.25 28.65 116.83 29Q115.40 29.35 114.55 30.45Q115.50 30.65 116.20 31.45Q116.90 32.25 116.90 33.50Q116.90 34.75 116.10 35.48Q115.30 36.20 114.05 36.20Q112.60 36.20 111.93 35.28Q111.25 34.35 111.25 33.20Q111.25 31.90 111.90 31.10Q112.55 30.30 113.55 29.60Q114.70 28.80 116.53 28.23Q118.35 27.65 120.65 27.65Q122.70 27.65 124.15 28.13Q125.60 28.60 126.55 29.50Q127.85 30.70 128.25 32.42Q128.65 34.15 128.65 36.55L128.65 50.45Q128.65 51.70 129.03 52.25Q129.40 52.80 130.20 52.80Q130.75 52.80 131.25 52.55Q131.75 52.30 132.45 51.75L133 52.60Q131.95 53.40 131 53.93Q130.05 54.45 128.45 54.45Q127 54.45 126.05 53.95Q125.10 53.45 124.63 52.48Q124.15 51.50 124.15 50Q122.80 52.25 120.93 53.35Q119.05 54.45 116.70 54.45M118.50 52.45Q120.15 52.45 121.58 51.50Q123 50.55 124.15 48.65L124.15 38.85Q123.55 39.70 122.40 40.27Q121.25 40.85 119.90 41.42Q118.55 42 117.33 42.77Q116.10 43.55 115.30 44.80Q114.50 46.05 114.50 48.05Q114.50 50.05 115.58 51.25Q116.65 52.45 118.50 52.45ZM140.20 15.85Q141.50 15.85 142.45 16.80Q143.40 17.75 143.40 19.05Q143.40 20.35 142.45 21.30Q141.50 22.25 140.20 22.25Q138.90 22.25 137.95 21.30Q137 20.35 137 19.05Q137 17.75 137.95 16.80Q138.90 15.85 140.20 15.85M142.80 27.80L142.80 49.45Q142.80 51.55 143.68 52.30Q144.55 53.05 146.60 53.05L146.60 54.10Q145.75 54.05 144.03 53.98Q142.30 53.90 140.55 53.90Q138.85 53.90 137.10 53.98Q135.35 54.05 134.50 54.10L134.50 53.05Q136.55 53.05 137.43 52.30Q138.30 51.55 138.30 49.45L138.30 33.80Q138.30 31.55 137.50 30.48Q136.70 29.40 134.50 29.40L134.50 28.35Q136.10 28.50 137.60 28.50Q139.05 28.50 140.38 28.32Q141.70 28.15 142.80 27.80ZM164.70 27.65Q166.05 27.65 167.08 28.20Q168.10 28.75 168.68 29.63Q169.25 30.50 169.25 31.60Q169.25 32.85 168.48 33.80Q167.70 34.75 166.40 34.75Q165.35 34.75 164.55 34.08Q163.75 33.40 163.75 32.15Q163.75 31.20 164.28 30.52Q164.80 29.85 165.45 29.45Q165.10 28.95 164.40 28.95Q162.85 28.95 161.55 29.88Q160.25 30.80 159.35 32.25Q158.45 33.70 157.95 35.33Q157.45 36.95 157.45 38.35L157.45 48.95Q157.45 51.40 158.88 52.23Q160.30 53.05 162.75 53.05L162.75 54.10Q161.60 54.05 159.50 53.98Q157.40 53.90 155.05 53.90Q153.35 53.90 151.68 53.98Q150.00 54.05 149.15 54.10L149.15 53.05Q151.20 53.05 152.08 52.30Q152.95 51.55 152.95 49.45L152.95 33.80Q152.95 31.55 152.15 30.48Q151.35 29.40 149.15 29.40L149.15 28.35Q150.75 28.50 152.25 28.50Q153.70 28.50 155.03 28.32Q156.35 28.15 157.45 27.80L157.45 34.05Q158.00 32.60 159.03 31.13Q160.05 29.65 161.50 28.65Q162.95 27.65 164.70 27.65ZM198.15 18.70Q207.10 18.70 211.45 23.18Q215.80 27.65 215.80 36Q215.80 41.45 213.68 45.52Q211.55 49.60 207.50 51.85Q203.45 54.10 197.70 54.10Q196.95 54.10 195.70 54.05Q194.45 54 193.13 53.98Q191.80 53.95 190.70 53.95Q188.95 53.95 187.25 53.98Q185.55 54 184.50 54.10L184.50 53.10Q186.20 53 187.08 52.70Q187.95 52.40 188.25 51.50Q188.55 50.60 188.55 48.80L188.55 24Q188.55 22.15 188.25 21.27Q187.95 20.40 187.08 20.08Q186.20 19.75 184.50 19.70L184.50 18.70Q185.55 18.75 187.25 18.83Q188.95 18.90 190.60 18.85Q192.35 18.80 194.55 18.75Q196.75 18.70 198.15 18.70M196.90 19.60Q194.60 19.60 193.90 20.45Q193.20 21.30 193.20 23.90L193.20 48.90Q193.20 51.50 193.93 52.35Q194.65 53.20 196.95 53.20Q202.40 53.20 205.40 51.23Q208.40 49.25 209.60 45.45Q210.80 41.65 210.80 36.20Q210.80 30.60 209.48 26.93Q208.15 23.25 205.13 21.42Q202.10 19.60 196.90 19.60ZM225.70 15.85Q227 15.85 227.95 16.80Q228.90 17.75 228.90 19.05Q228.90 20.35 227.95 21.30Q227 22.25 225.70 22.25Q224.40 22.25 223.45 21.30Q222.50 20.35 222.50 19.05Q222.50 17.75 223.45 16.80Q224.40 15.85 225.70 15.85M228.30 27.80L228.30 49.45Q228.30 51.55 229.18 52.30Q230.05 53.05 232.10 53.05L232.10 54.10Q231.25 54.05 229.53 53.98Q227.80 53.90 226.05 53.90Q224.35 53.90 222.60 53.98Q220.85 54.05 220 54.10L220 53.05Q222.05 53.05 222.93 52.30Q223.80 51.55 223.80 49.45L223.80 33.80Q223.80 31.55 223 30.48Q222.20 29.40 220 29.40L220 28.35Q221.60 28.50 223.10 28.50Q224.55 28.50 225.88 28.32Q227.20 28.15 228.30 27.80ZM243.60 27.65Q245.60 27.65 247.00 28.30Q248.40 28.95 249.05 29.50Q250.70 30.85 251.05 27.70L252.20 27.70Q252.10 29.10 252.05 31.02Q252.00 32.95 252.00 36.20L250.85 36.20Q250.55 34.35 249.83 32.60Q249.10 30.85 247.70 29.73Q246.30 28.60 244.05 28.60Q242.30 28.60 241.13 29.57Q239.95 30.55 239.95 32.45Q239.95 33.95 240.85 35.03Q241.75 36.10 243.20 37.03Q244.65 37.95 246.35 39.05Q248.25 40.25 249.80 41.50Q251.35 42.75 252.28 44.25Q253.20 45.75 253.20 47.80Q253.20 50.10 252.00 51.65Q250.80 53.20 248.88 54Q246.95 54.80 244.65 54.80Q243.55 54.80 242.58 54.63Q241.60 54.45 240.70 54.10Q240.20 53.85 239.68 53.50Q239.15 53.15 238.65 52.75Q238.15 52.35 237.75 52.77Q237.35 53.20 237.15 54.45L236.00 54.45Q236.10 52.85 236.15 50.55Q236.20 48.25 236.20 44.45L237.35 44.45Q237.70 47.25 238.35 49.35Q239.00 51.45 240.40 52.63Q241.80 53.80 244.30 53.80Q245.30 53.80 246.33 53.35Q247.35 52.90 248.05 51.85Q248.75 50.80 248.75 49.05Q248.75 46.85 247.15 45.45Q245.55 44.05 243.10 42.50Q241.30 41.35 239.73 40.20Q238.15 39.05 237.18 37.60Q236.20 36.15 236.20 34.10Q236.20 31.85 237.23 30.43Q238.25 29 239.95 28.32Q241.65 27.65 243.60 27.65ZM264.95 27.80L264.95 58.50Q264.95 60.65 266.23 61.38Q267.50 62.10 269.75 62.10L269.75 63.15Q268.65 63.10 266.70 63.03Q264.75 62.95 262.55 62.95Q261 62.95 259.48 63.03Q257.95 63.10 257.15 63.15L257.15 62.10Q258.95 62.10 259.70 61.45Q260.45 60.80 260.45 59L260.45 33.80Q260.45 31.55 259.65 30.48Q258.85 29.40 256.65 29.40L256.65 28.35Q258.25 28.50 259.75 28.50Q261.20 28.50 262.53 28.32Q263.85 28.15 264.95 27.80M272.95 27.65Q275.60 27.65 277.70 29.07Q279.80 30.50 281.03 33.25Q282.25 36 282.25 40.05Q282.25 42.75 281.60 45.38Q280.95 48 279.57 50.13Q278.20 52.25 276.03 53.52Q273.85 54.80 270.80 54.80Q268.45 54.80 266.73 53.70Q265 52.60 264.40 51.05L264.90 50.35Q265.60 51.75 266.93 52.70Q268.25 53.65 270.25 53.65Q273.05 53.65 274.60 51.90Q276.15 50.15 276.78 47.23Q277.40 44.30 277.40 40.75Q277.40 36.75 276.75 34.20Q276.10 31.65 274.80 30.40Q273.50 29.15 271.60 29.15Q269.15 29.15 267.15 31.18Q265.15 33.20 264.60 37.30L264 36.60Q264.55 32.35 267.03 30Q269.50 27.65 272.95 27.65ZM294 14.90L294 49.45Q294 51.55 294.88 52.30Q295.75 53.05 297.80 53.05L297.80 54.10Q296.95 54.05 295.23 53.98Q293.50 53.90 291.75 53.90Q290.05 53.90 288.30 53.98Q286.55 54.05 285.70 54.10L285.70 53.05Q287.75 53.05 288.63 52.30Q289.50 51.55 289.50 49.45L289.50 20.90Q289.50 18.65 288.70 17.58Q287.90 16.50 285.70 16.50L285.70 15.45Q287.30 15.60 288.80 15.60Q290.25 15.60 291.58 15.42Q292.90 15.25 294 14.90ZM307.45 54.45Q305.40 54.45 303.90 53.68Q302.40 52.90 301.63 51.50Q300.85 50.10 300.85 48.25Q300.85 46.05 301.88 44.65Q302.90 43.25 304.50 42.40Q306.10 41.55 307.88 40.98Q309.65 40.40 311.25 39.88Q312.85 39.35 313.88 38.65Q314.90 37.95 314.90 36.80L314.90 33.70Q314.90 31.60 314.28 30.50Q313.65 29.40 312.60 29.02Q311.55 28.65 310.25 28.65Q309.00 28.65 307.58 29Q306.15 29.35 305.30 30.45Q306.25 30.65 306.95 31.45Q307.65 32.25 307.65 33.50Q307.65 34.75 306.85 35.48Q306.05 36.20 304.80 36.20Q303.35 36.20 302.68 35.28Q302.00 34.35 302.00 33.20Q302.00 31.90 302.65 31.10Q303.30 30.30 304.30 29.60Q305.45 28.80 307.28 28.23Q309.10 27.65 311.40 27.65Q313.45 27.65 314.90 28.13Q316.35 28.60 317.30 29.50Q318.60 30.70 319.00 32.42Q319.40 34.15 319.40 36.55L319.40 50.45Q319.40 51.70 319.78 52.25Q320.15 52.80 320.95 52.80Q321.50 52.80 322.00 52.55Q322.50 52.30 323.20 51.75L323.75 52.60Q322.70 53.40 321.75 53.93Q320.80 54.45 319.20 54.45Q317.75 54.45 316.80 53.95Q315.85 53.45 315.38 52.48Q314.90 51.50 314.90 50Q313.55 52.25 311.68 53.35Q309.80 54.45 307.45 54.45M309.25 52.45Q310.90 52.45 312.33 51.50Q313.75 50.55 314.90 48.65L314.90 38.85Q314.30 39.70 313.15 40.27Q312.00 40.85 310.65 41.42Q309.30 42 308.08 42.77Q306.85 43.55 306.05 44.80Q305.25 46.05 305.25 48.05Q305.25 50.05 306.33 51.25Q307.40 52.45 309.25 52.45ZM348.50 28.35L348.50 29.35Q347.55 29.45 346.75 30.20Q345.95 30.95 345.25 32.85L337.05 54.35L336.20 54.35L327 32.20Q326.05 30.25 325.13 29.82Q324.20 29.40 323.60 29.40L323.60 28.35Q324.70 28.50 325.90 28.57Q327.10 28.65 328.50 28.65Q330.05 28.65 331.78 28.55Q333.50 28.45 335 28.35L335 29.40Q333.75 29.40 332.78 29.57Q331.80 29.75 331.55 30.63Q331.30 31.50 332.15 33.60L338.30 48.85L338 48.95L343.70 34.05Q344.35 32.40 344.23 31.43Q344.10 30.45 343.20 29.95Q342.30 29.45 340.50 29.35L340.50 28.35Q341.40 28.40 342.05 28.43Q342.70 28.45 343.32 28.48Q343.95 28.50 344.70 28.50Q345.85 28.50 346.78 28.45Q347.70 28.40 348.50 28.35M337.05 54.35L335.35 58.70Q334.85 59.95 334.32 60.80Q333.80 61.65 333.20 62.20Q332.40 62.95 331.30 63.23Q330.20 63.50 329.30 63.50Q328.35 63.50 327.57 63.15Q326.80 62.80 326.35 62.13Q325.90 61.45 325.90 60.50Q325.90 59.30 326.60 58.58Q327.30 57.85 328.55 57.85Q329.60 57.85 330.35 58.45Q331.10 59.05 331.10 60.20Q331.10 61.05 330.70 61.60Q330.30 62.15 329.75 62.45Q329.85 62.50 329.93 62.50Q330 62.50 330.05 62.50Q331.40 62.50 332.45 61.58Q333.50 60.65 334.30 58.60L336.10 53.95L337.05 54.35Z"/></g></g></g></svg>