<svg xmlns="http://www.w3.org/2000/svg" viewBox="0 14.899999618530273 189.8000030517578 50.5" data-asc="1.05" width="189.8000030517578" height="50.5"><defs/><g fill="#000000"><g transform="translate(0, 0)"><path d="M22.35 27.60Q22.35 32.10 19.40 34.85Q16.45 37.60 10.55 37.60L3.50 37.60L3.50 52.50L0 52.50L0 17.55L10.55 17.55Q16.40 17.55 19.38 20.30Q22.35 23.05 22.35 27.60M10.55 34.60Q18.75 34.60 18.75 27.60Q18.75 24.10 16.80 22.30Q14.85 20.50 10.55 20.50L3.50 20.50L3.50 34.60L10.55 34.60ZM40.15 52.90Q36.30 52.90 33.23 51.17Q30.15 49.45 28.38 46.27Q26.60 43.10 26.60 38.85Q26.60 34.60 28.40 31.42Q30.20 28.25 33.30 26.52Q36.40 24.80 40.25 24.80Q44.10 24.80 47.23 26.52Q50.35 28.25 52.13 31.42Q53.90 34.60 53.90 38.85Q53.90 43.05 52.10 46.25Q50.30 49.45 47.15 51.17Q44 52.90 40.15 52.90M40.15 49.85Q42.85 49.85 45.15 48.63Q47.45 47.40 48.88 44.92Q50.30 42.45 50.30 38.85Q50.30 35.25 48.90 32.77Q47.50 30.30 45.20 29.07Q42.90 27.85 40.20 27.85Q37.50 27.85 35.20 29.07Q32.90 30.30 31.53 32.77Q30.15 35.25 30.15 38.85Q30.15 42.45 31.53 44.92Q32.90 47.40 35.18 48.63Q37.45 49.85 40.15 49.85ZM63.75 31.20Q65.05 28.45 67.88 26.63Q70.70 24.80 74.60 24.80Q78.30 24.80 81.28 26.52Q84.25 28.25 85.93 31.42Q87.60 34.60 87.60 38.80Q87.60 43 85.93 46.20Q84.25 49.40 81.28 51.15Q78.30 52.90 74.60 52.90Q70.75 52.90 67.90 51.08Q65.05 49.25 63.75 46.50L63.75 65.40L60.30 65.40L60.30 25.20L63.75 25.20L63.75 31.20M84.05 38.80Q84.05 35.40 82.73 32.92Q81.40 30.45 79.10 29.15Q76.80 27.85 73.90 27.85Q71.10 27.85 68.78 29.20Q66.45 30.55 65.10 33.05Q63.75 35.55 63.75 38.85Q63.75 42.15 65.10 44.65Q66.45 47.15 68.78 48.50Q71.10 49.85 73.90 49.85Q76.80 49.85 79.10 48.52Q81.40 47.20 82.73 44.67Q84.05 42.15 84.05 38.80ZM97.50 31.20Q98.80 28.45 101.63 26.63Q104.45 24.80 108.35 24.80Q112.05 24.80 115.03 26.52Q118.00 28.25 119.68 31.42Q121.35 34.60 121.35 38.80Q121.35 43 119.68 46.20Q118.00 49.40 115.03 51.15Q112.05 52.90 108.35 52.90Q104.50 52.90 101.65 51.08Q98.80 49.25 97.50 46.50L97.50 65.40L94.05 65.40L94.05 25.20L97.50 25.20L97.50 31.20M117.80 38.80Q117.80 35.40 116.48 32.92Q115.15 30.45 112.85 29.15Q110.55 27.85 107.65 27.85Q104.85 27.85 102.53 29.20Q100.20 30.55 98.85 33.05Q97.50 35.55 97.50 38.85Q97.50 42.15 98.85 44.65Q100.20 47.15 102.53 48.50Q104.85 49.85 107.65 49.85Q110.55 49.85 112.85 48.52Q115.15 47.20 116.48 44.67Q117.80 42.15 117.80 38.80ZM129.55 20.05Q128.50 20.05 127.75 19.30Q127.00 18.55 127.00 17.45Q127.00 16.35 127.75 15.63Q128.50 14.90 129.55 14.90Q130.60 14.90 131.35 15.63Q132.10 16.35 132.10 17.45Q132.10 18.55 131.35 19.30Q130.60 20.05 129.55 20.05M131.30 25.20L131.30 52.50L127.80 52.50L127.80 25.20L131.30 25.20ZM152.05 24.70Q156.95 24.70 160.05 27.72Q163.15 30.75 163.15 36.50L163.15 52.50L159.70 52.50L159.70 36.90Q159.70 32.45 157.47 30.10Q155.25 27.75 151.40 27.75Q147.45 27.75 145.10 30.25Q142.75 32.75 142.75 37.60L142.75 52.50L139.25 52.50L139.25 25.20L142.75 25.20L142.75 29.85Q144.05 27.35 146.50 26.02Q148.95 24.70 152.05 24.70ZM180.30 52.90Q175.60 52.90 172.63 50.73Q169.65 48.55 169.30 44.80L172.90 44.80Q173.15 47.10 175.08 48.52Q177 49.95 180.25 49.95Q183.10 49.95 184.72 48.60Q186.35 47.25 186.35 45.25Q186.35 43.85 185.45 42.95Q184.55 42.05 183.18 41.52Q181.80 41 179.45 40.40Q176.40 39.60 174.50 38.80Q172.60 38 171.28 36.42Q169.95 34.85 169.95 32.20Q169.95 30.20 171.15 28.50Q172.35 26.80 174.55 25.80Q176.75 24.80 179.55 24.80Q183.95 24.80 186.65 27.02Q189.35 29.25 189.55 33.15L186.05 33.15Q185.90 30.75 184.18 29.27Q182.45 27.80 179.45 27.80Q176.80 27.80 175.15 29.05Q173.50 30.30 173.50 32.15Q173.50 33.75 174.47 34.77Q175.45 35.80 176.90 36.38Q178.35 36.95 180.80 37.65Q183.75 38.45 185.50 39.20Q187.25 39.95 188.50 41.40Q189.75 42.85 189.80 45.25Q189.80 47.45 188.60 49.17Q187.40 50.90 185.25 51.90Q183.10 52.90 180.30 52.90Z"/></g></g></svg>