<svg xmlns="http://www.w3.org/2000/svg" viewBox="0 14.350000381469727 177.5500030517578 38.20000076293945" data-asc="1.039" width="177.5500030517578" height="38.20000076293945"><defs/><g fill="#000000"><g transform="translate(0, 0)"><path d="M8.90 49.30Q10.25 49.45 11.45 49.77Q12.65 50.10 13.70 50.50L13.70 51.95L0 51.95L0 50.50Q1 50.00 2.05 49.75Q3.10 49.50 4.10 49.30L4.10 19.65Q2.95 19.45 1.95 19.12Q0.95 18.80 0 18.40L0 16.95L4.50 16.95Q6.50 16.95 8.85 16.75Q11.20 16.55 13.35 16.55Q15.80 16.55 18.15 17.07Q20.50 17.60 22.33 18.85Q24.15 20.10 25.28 22.17Q26.40 24.25 26.40 27.35Q26.40 30.30 25.25 32.40Q24.10 34.50 22.18 35.85Q20.25 37.20 17.80 37.82Q15.35 38.45 12.75 38.45Q12.50 38.45 11.98 38.45Q11.45 38.45 10.85 38.42Q10.25 38.40 9.70 38.35Q9.15 38.30 8.90 38.25L8.90 49.30M12.30 19.15Q11.10 19.15 10.35 19.20Q9.60 19.25 8.90 19.40L8.90 35.60Q9.15 35.70 9.63 35.72Q10.10 35.75 10.63 35.80Q11.15 35.85 11.65 35.85Q12.15 35.85 12.45 35.85Q14.20 35.85 15.75 35.38Q17.30 34.90 18.48 33.85Q19.65 32.80 20.35 31.20Q21.05 29.60 21.05 27.35Q21.05 23.25 18.73 21.20Q16.40 19.15 12.30 19.15ZM50.85 51.95L36.80 51.95L36.80 50.50Q37.90 50.10 39.03 49.80Q40.15 49.50 41.45 49.30L41.45 19.55L33.80 19.55L31.15 26.70L29.90 26.70Q29.75 25.70 29.65 24.42Q29.55 23.15 29.48 21.82Q29.40 20.50 29.35 19.22Q29.30 17.95 29.30 16.95L58.35 16.95Q58.35 17.95 58.30 19.20Q58.25 20.45 58.18 21.77Q58.10 23.10 58.03 24.37Q57.95 25.65 57.80 26.70L56.50 26.70L53.90 19.55L46.25 19.55L46.25 49.30Q47.55 49.55 48.68 49.80Q49.80 50.05 50.85 50.50L50.85 51.95ZM78.95 48.50Q79.55 49.10 80.50 49.52Q81.45 49.95 83.35 49.95Q84.95 49.95 86.35 49.52Q87.75 49.10 88.78 48.27Q89.80 47.45 90.40 46.27Q91 45.10 91 43.60Q91 41.60 89.78 40.25Q88.55 38.90 86.73 37.85Q84.90 36.80 82.75 35.80Q80.60 34.80 78.78 33.42Q76.95 32.05 75.73 30.12Q74.50 28.20 74.50 25.30Q74.50 23.20 75.25 21.55Q76 19.90 77.38 18.75Q78.75 17.60 80.65 16.97Q82.55 16.35 84.90 16.35Q87.95 16.35 90.48 16.82Q93 17.30 94.45 18.00Q94.45 18.85 94.33 19.97Q94.20 21.10 94.03 22.30Q93.85 23.50 93.65 24.62Q93.45 25.75 93.25 26.60L91.95 26.60L89.95 19.75Q89.05 19.35 87.68 19.15Q86.30 18.95 84.75 18.95Q82.20 18.95 80.65 20.37Q79.10 21.80 79.10 24.35Q79.10 26.40 80.33 27.80Q81.55 29.20 83.40 30.30Q85.25 31.40 87.38 32.42Q89.50 33.45 91.35 34.80Q93.20 36.15 94.43 38.00Q95.65 39.85 95.65 42.60Q95.65 44.85 94.83 46.70Q94 48.55 92.45 49.85Q90.90 51.15 88.65 51.85Q86.40 52.55 83.55 52.55Q80.40 52.55 77.90 51.80Q75.40 51.05 74.35 50.20Q74.40 49.35 74.53 48.15Q74.65 46.95 74.83 45.67Q75 44.40 75.20 43.20Q75.40 42.00 75.60 41.15L76.90 41.15L78.95 48.50ZM120.55 48.45Q120.15 49.30 119.30 50.05Q118.45 50.80 117.35 51.35Q116.25 51.90 114.95 52.22Q113.65 52.55 112.30 52.55Q109.35 52.55 107.10 51.62Q104.85 50.70 103.35 48.97Q101.85 47.25 101.08 44.85Q100.30 42.45 100.30 39.45Q100.30 33.05 103.25 29.70Q106.20 26.35 111.60 26.35Q113.35 26.35 115.05 26.82Q116.75 27.30 118.08 28.40Q119.40 29.50 120.22 31.32Q121.05 33.15 121.05 35.85Q121.05 36.70 120.97 37.57Q120.90 38.45 120.70 39.45L105.10 39.45Q105.10 41.55 105.63 43.37Q106.15 45.20 107.20 46.55Q108.25 47.90 109.85 48.67Q111.45 49.45 113.60 49.45Q115.35 49.45 117.15 48.95Q118.95 48.45 119.85 47.65L120.55 48.45M111.40 28.55Q108.55 28.55 107.05 30.47Q105.55 32.40 105.25 37.25L116.25 37.25Q116.30 36.80 116.33 36.37Q116.35 35.95 116.35 35.55Q116.35 32.35 115.15 30.45Q113.95 28.55 111.40 28.55ZM135.60 30.70Q135.05 31.00 134.22 31.92Q133.40 32.85 132.75 34.65L132.75 49.50Q133.75 49.60 134.75 49.87Q135.75 50.15 136.75 50.70L136.75 51.95L124.95 51.95L124.95 50.70Q125.85 50.20 126.65 49.95Q127.45 49.70 128.25 49.50L128.25 29.85L124.95 29.45L124.95 28.15Q126.55 27.45 128.25 27.02Q129.95 26.60 131.50 26.35L132.75 26.35L132.75 31.65L132.95 31.65Q133.40 30.65 134.22 29.65Q135.05 28.65 136.13 27.85Q137.20 27.05 138.47 26.62Q139.75 26.20 141.10 26.35Q141.45 27.00 141.72 27.77Q142 28.55 142.25 29.40L142.25 30.70L135.60 30.70ZM155.75 51.95L144.65 51.95L144.65 50.70Q145.40 50.30 146.20 50.02Q147.00 49.75 147.95 49.50L147.95 29.85L144.65 29.45L144.65 28.15Q146.10 27.55 147.80 27.10Q149.50 26.65 151.20 26.35L152.45 26.35L152.45 49.50Q153.45 49.75 154.25 50.02Q155.05 50.30 155.75 50.70L155.75 51.95M147.00 18.45Q147.00 17.10 147.88 16.30Q148.75 15.50 150.20 15.50Q151.65 15.50 152.50 16.30Q153.35 17.10 153.35 18.45Q153.35 19.80 152.50 20.57Q151.65 21.35 150.20 21.35Q148.75 21.35 147.88 20.57Q147.00 19.80 147.00 18.45ZM172.95 14.35Q173.40 14.35 174.00 14.40Q174.60 14.45 175.25 14.52Q175.90 14.60 176.50 14.72Q177.10 14.85 177.55 15.00Q177.40 16.65 177.13 18.07Q176.85 19.50 176.45 20.65L175.20 20.65L173.00 16.35Q171.55 16.35 170.53 16.65Q169.50 16.95 168.83 17.80Q168.15 18.65 167.83 20.25Q167.50 21.85 167.50 24.45L167.50 26.95L173.25 26.95L173.25 29.45L167.50 29.45L167.50 49.50Q170.10 49.80 172.30 50.70L172.30 51.95L159.70 51.95L159.70 50.70Q161.25 49.80 163.00 49.50L163.00 29.45L159.20 29.45L159.20 28.15Q160.95 27.05 163.00 26.50L163.00 24.75Q163.00 21.65 163.75 19.62Q164.50 17.60 165.85 16.42Q167.20 15.25 169.03 14.80Q170.85 14.35 172.95 14.35Z"/></g></g></svg>