<svg xmlns="http://www.w3.org/2000/svg" viewBox="0 13 237.35000610351562 45.70000076293945" data-asc="1" width="237.35000610351562" height="45.70000076293945"><defs/><g><g fill="#000000"><g transform="translate(0, 0)"><path d="M35.90 52.80Q36.45 52.80 36.85 53.17Q37.25 53.55 37.25 54.15Q37.25 55 36.38 55.80Q35.50 56.60 34.08 57.27Q32.65 57.95 31.08 58.33Q29.50 58.70 28.10 58.70Q25.15 58.70 23.15 58.05Q21.15 57.40 19.65 56.55Q18.15 55.70 16.60 55.05Q15.05 54.40 12.90 54.40Q12 54.40 11.33 54.70Q10.65 55 10.08 55.27Q9.50 55.55 8.85 55.55Q8.25 55.55 7.83 55.10Q7.40 54.65 7.40 54Q7.40 53.10 8.25 52.75L16.85 49.65L21.45 49.80L13.50 52.50L14.15 51.80Q16.25 51.80 17.90 52.40Q19.55 53 21.08 53.83Q22.60 54.65 24.30 55.27Q26 55.90 28.20 55.90Q30.15 55.90 31.43 55.33Q32.70 54.75 33.50 54.30Q34.25 53.85 34.78 53.33Q35.30 52.80 35.90 52.80M33.50 32.50Q33.50 36.45 32.28 39.73Q31.05 43 28.80 45.42Q26.55 47.85 23.48 49.17Q20.40 50.50 16.75 50.50Q13.10 50.50 10.03 49.17Q6.95 47.85 4.70 45.42Q2.45 43 1.22 39.73Q0 36.45 0 32.50Q0 28.55 1.22 25.27Q2.45 22 4.70 19.57Q6.95 17.15 10.03 15.82Q13.10 14.50 16.75 14.50Q20.40 14.50 23.48 15.82Q26.55 17.15 28.80 19.57Q31.05 22 32.28 25.27Q33.50 28.55 33.50 32.50M30.30 32.50Q30.30 28.05 28.58 24.67Q26.85 21.30 23.80 19.40Q20.75 17.50 16.75 17.50Q12.80 17.50 9.72 19.40Q6.65 21.30 4.92 24.67Q3.20 28.05 3.20 32.50Q3.20 36.95 4.92 40.33Q6.65 43.70 9.72 45.60Q12.80 47.50 16.75 47.50Q20.75 47.50 23.80 45.60Q26.85 43.70 28.58 40.33Q30.30 36.95 30.30 32.50ZM59.40 24.60Q60.05 24.60 60.48 25.05Q60.90 25.50 60.90 26.10L60.90 40.20Q60.90 45.15 58.10 47.75Q55.30 50.35 50.55 50.35Q45.85 50.35 43.08 47.75Q40.30 45.15 40.30 40.20L40.30 26.10Q40.30 25.50 40.73 25.05Q41.15 24.60 41.80 24.60Q42.45 24.60 42.88 25.05Q43.30 25.50 43.30 26.10L43.30 40.20Q43.30 43.80 45.23 45.67Q47.15 47.55 50.55 47.55Q54 47.55 55.95 45.67Q57.90 43.80 57.90 40.20L57.90 26.10Q57.90 25.50 58.30 25.05Q58.70 24.60 59.40 24.60ZM71.65 48.50Q71.65 49.10 71.20 49.55Q70.75 50 70.15 50Q69.50 50 69.08 49.55Q68.65 49.10 68.65 48.50L68.65 25.50Q68.65 24.90 69.08 24.45Q69.50 24 70.15 24Q70.80 24 71.23 24.45Q71.65 24.90 71.65 25.50L71.65 48.50M70.15 20.65Q69.10 20.65 68.58 20.17Q68.05 19.70 68.05 18.80L68.05 18.30Q68.05 17.40 68.63 16.92Q69.20 16.45 70.20 16.45Q71.15 16.45 71.68 16.92Q72.20 17.40 72.20 18.30L72.20 18.80Q72.20 19.70 71.68 20.17Q71.15 20.65 70.15 20.65ZM90.70 23.85Q93.10 23.85 95.10 24.38Q97.10 24.90 98.33 25.80Q99.55 26.70 99.55 27.75Q99.55 28.25 99.20 28.72Q98.85 29.20 98.25 29.20Q97.65 29.20 97.28 28.90Q96.90 28.60 96.53 28.20Q96.15 27.80 95.45 27.45Q94.80 27.15 93.60 26.90Q92.40 26.65 90.85 26.65Q88.05 26.65 85.80 28.05Q83.55 29.45 82.25 31.82Q80.95 34.20 80.95 37.15Q80.95 40.15 82.20 42.55Q83.45 44.95 85.65 46.33Q87.85 47.70 90.80 47.70Q92.80 47.70 93.90 47.35Q95.00 47 95.80 46.55Q96.75 46 97.18 45.48Q97.60 44.95 98.30 44.95Q98.95 44.95 99.28 45.33Q99.60 45.70 99.60 46.30Q99.60 47.10 98.43 48.08Q97.25 49.05 95.20 49.77Q93.15 50.50 90.50 50.50Q86.75 50.50 83.93 48.75Q81.10 47 79.53 43.98Q77.95 40.95 77.95 37.15Q77.95 33.50 79.55 30.50Q81.15 27.50 84.03 25.67Q86.90 23.85 90.70 23.85ZM107.15 50Q106.50 50 106.08 49.55Q105.65 49.10 105.65 48.50L105.65 14.50Q105.65 13.90 106.08 13.45Q106.50 13 107.15 13Q107.80 13 108.23 13.45Q108.65 13.90 108.65 14.50L108.65 48.50Q108.65 49.10 108.23 49.55Q107.80 50 107.15 50M124.15 24.35Q124.70 24.35 125.15 24.82Q125.60 25.30 125.60 25.85Q125.60 26.50 125.05 27L108.25 41.30L108.10 37.75L123.10 24.85Q123.55 24.35 124.15 24.35M124.55 50Q123.90 50 123.45 49.45L112.05 37.35L114.30 35.30L125.60 47.35Q126.05 47.85 126.05 48.50Q126.05 49.20 125.50 49.60Q124.95 50 124.55 50ZM130.40 45.95Q130.00 45.35 130.03 44.77Q130.05 44.20 130.65 43.85Q131.05 43.50 131.58 43.55Q132.10 43.60 132.55 44.05Q133.90 45.80 135.83 46.88Q137.75 47.95 140.40 47.95Q141.80 47.95 143.18 47.48Q144.55 47 145.45 46.02Q146.35 45.05 146.35 43.55Q146.35 42 145.45 41.05Q144.55 40.10 143.13 39.55Q141.70 39 140.10 38.60Q138.40 38.15 136.80 37.58Q135.20 37 133.98 36.13Q132.75 35.25 132.00 34Q131.25 32.75 131.25 30.95Q131.25 28.85 132.40 27.25Q133.55 25.65 135.53 24.75Q137.50 23.85 140.00 23.85Q141.25 23.85 142.70 24.17Q144.15 24.50 145.55 25.25Q146.95 26 148.05 27.30Q148.50 27.75 148.50 28.32Q148.50 28.90 148.00 29.35Q147.60 29.65 147.08 29.65Q146.55 29.65 146.20 29.25Q145.00 27.90 143.35 27.20Q141.70 26.50 139.80 26.50Q138.35 26.50 137.08 26.97Q135.80 27.45 134.95 28.40Q134.10 29.35 134.10 30.90Q134.20 32.35 135.13 33.25Q136.05 34.15 137.58 34.75Q139.10 35.35 141.00 35.85Q142.60 36.25 144.08 36.80Q145.55 37.35 146.68 38.17Q147.80 39 148.48 40.25Q149.15 41.50 149.15 43.40Q149.15 45.60 147.93 47.20Q146.70 48.80 144.65 49.65Q142.60 50.50 140.10 50.50Q137.40 50.50 134.88 49.45Q132.35 48.40 130.40 45.95ZM176.65 24.45Q177.30 24.45 177.73 24.90Q178.15 25.35 178.15 26L178.15 48.50Q178.15 49.10 177.70 49.55Q177.25 50 176.65 50Q176.00 50 175.58 49.55Q175.15 49.10 175.15 48.50L175.15 42.55L176.00 42.15Q176.00 43.55 175.23 45Q174.45 46.45 173.10 47.70Q171.75 48.95 169.93 49.73Q168.10 50.50 166.00 50.50Q162.60 50.50 159.93 48.75Q157.25 47 155.73 43.95Q154.20 40.90 154.20 37.10Q154.20 33.20 155.75 30.22Q157.30 27.25 159.95 25.55Q162.60 23.85 165.95 23.85Q168.10 23.85 169.98 24.60Q171.85 25.35 173.25 26.65Q174.65 27.95 175.43 29.63Q176.20 31.30 176.20 33.10L175.15 32.35L175.15 26Q175.15 25.35 175.58 24.90Q176.00 24.45 176.65 24.45M166.25 47.70Q168.90 47.70 170.95 46.33Q173.00 44.95 174.18 42.52Q175.35 40.10 175.35 37.10Q175.35 34.15 174.18 31.80Q173.00 29.45 170.95 28.05Q168.90 26.65 166.25 26.65Q163.65 26.65 161.58 28Q159.50 29.35 158.33 31.70Q157.15 34.05 157.15 37.10Q157.15 40.10 158.33 42.52Q159.50 44.95 161.55 46.33Q163.60 47.70 166.25 47.70ZM198.05 23.85Q201.35 23.85 203.33 25.17Q205.30 26.50 206.18 28.77Q207.05 31.05 207.05 33.80L207.05 48.50Q207.05 49.10 206.60 49.55Q206.15 50 205.55 50Q204.85 50 204.45 49.55Q204.05 49.10 204.05 48.50L204.05 33.95Q204.05 31.95 203.40 30.30Q202.75 28.65 201.28 27.65Q199.80 26.65 197.40 26.65Q195.25 26.65 193.33 27.65Q191.40 28.65 190.20 30.30Q189.00 31.95 189.00 33.95L189.00 48.50Q189.00 49.10 188.55 49.55Q188.10 50 187.50 50Q186.80 50 186.40 49.55Q186.00 49.10 186.00 48.50L186.00 26.10Q186.00 25.50 186.43 25.05Q186.85 24.60 187.50 24.60Q188.15 24.60 188.58 25.05Q189.00 25.50 189.00 26.10L189.00 30.30L187.85 32.10Q187.95 30.50 188.88 29.02Q189.80 27.55 191.25 26.38Q192.70 25.20 194.48 24.52Q196.25 23.85 198.05 23.85ZM235.85 13Q236.50 13 236.93 13.42Q237.35 13.85 237.35 14.50L237.35 48.50Q237.35 49.10 236.90 49.55Q236.45 50 235.85 50Q235.20 50 234.78 49.55Q234.35 49.10 234.35 48.50L234.35 42.55L235.20 41.85Q235.20 43.25 234.45 44.77Q233.70 46.30 232.33 47.60Q230.95 48.90 229.13 49.70Q227.30 50.50 225.20 50.50Q221.85 50.50 219.18 48.75Q216.50 47 214.95 44Q213.40 41 213.40 37.15Q213.40 33.35 214.95 30.32Q216.50 27.30 219.15 25.57Q221.80 23.85 225.15 23.85Q227.20 23.85 229.05 24.60Q230.90 25.35 232.33 26.65Q233.75 27.95 234.58 29.63Q235.40 31.30 235.40 33.10L234.35 32.35L234.35 14.50Q234.35 13.90 234.78 13.45Q235.20 13 235.85 13M225.45 47.70Q228.15 47.70 230.18 46.33Q232.20 44.95 233.38 42.58Q234.55 40.20 234.55 37.15Q234.55 34.15 233.38 31.77Q232.20 29.40 230.15 28.02Q228.10 26.65 225.45 26.65Q222.85 26.65 220.78 28.02Q218.70 29.40 217.53 31.77Q216.35 34.15 216.35 37.15Q216.35 40.15 217.53 42.55Q218.70 44.95 220.78 46.33Q222.85 47.70 225.45 47.70Z"/></g></g></g></svg>