<svg xmlns="http://www.w3.org/2000/svg" viewBox="0 10.5 192.39999389648438 47.681251525878906" data-asc="0.94" width="192.39999389648438" height="47.681251525878906"><defs/><g><g fill="#000000"><g transform="translate(0, 0)"><path d="M0 47L0 11.50L15.00 11.50Q17.30 11.50 19.20 12.45Q21.10 13.40 22.53 15.02Q23.95 16.65 24.73 18.63Q25.50 20.60 25.50 22.65Q25.50 25.20 24.53 27.45Q23.55 29.70 21.78 31.25Q20.00 32.80 17.60 33.30L26.30 47L22.35 47L14 33.90L3.50 33.90L3.50 47L0 47M3.50 30.80L15.10 30.80Q17.20 30.80 18.75 29.65Q20.30 28.50 21.15 26.63Q22.00 24.75 22.00 22.65Q22.00 20.50 21.03 18.67Q20.05 16.85 18.43 15.72Q16.80 14.60 14.80 14.60L3.50 14.60L3.50 30.80ZM29.85 39.50Q29.85 37.05 31.25 35.27Q32.65 33.50 35.13 32.52Q37.60 31.55 40.85 31.55Q42.75 31.55 44.80 31.85Q46.85 32.15 48.45 32.75L48.45 30.55Q48.45 27.25 46.50 25.30Q44.55 23.35 41.10 23.35Q39 23.35 36.98 24.13Q34.95 24.90 32.75 26.40L31.45 24Q34 22.25 36.45 21.38Q38.90 20.50 41.45 20.50Q46.25 20.50 49.05 23.25Q51.85 26 51.85 30.85L51.85 42.90Q51.85 43.60 52.15 43.92Q52.45 44.25 53.10 44.30L53.10 47Q52.55 47.05 52.15 47.10Q51.75 47.15 51.55 47.10Q50.30 47.05 49.65 46.30Q49 45.55 48.95 44.70L48.90 42.80Q47.15 45.05 44.35 46.27Q41.55 47.50 38.65 47.50Q36.15 47.50 34.13 46.42Q32.10 45.35 30.98 43.52Q29.85 41.70 29.85 39.50M47.30 41.50Q47.85 40.80 48.15 40.15Q48.45 39.50 48.45 39L48.45 35.20Q46.75 34.55 44.92 34.20Q43.10 33.85 41.25 33.85Q37.60 33.85 35.35 35.30Q33.10 36.75 33.10 39.25Q33.10 40.70 33.85 41.98Q34.60 43.25 36.05 44.08Q37.50 44.90 39.45 44.90Q41.90 44.90 44.02 43.95Q46.15 43 47.30 41.50ZM59.35 10.50L62.75 10.50L62.75 41.10Q62.75 43.05 63.45 43.65Q64.15 44.25 65.15 44.25Q66.05 44.25 66.95 44.05Q67.85 43.85 68.50 43.65L69.10 46.40Q68.15 46.80 66.78 47.05Q65.40 47.30 64.40 47.30Q62.10 47.30 60.73 45.95Q59.35 44.60 59.35 42.25L59.35 10.50ZM84.05 47.50Q81.25 47.50 78.85 46.42Q76.45 45.35 74.70 43.48Q72.95 41.60 71.98 39.15Q71.00 36.70 71.00 33.90Q71.00 30.25 72.68 27.20Q74.35 24.15 77.30 22.32Q80.25 20.50 84.00 20.50Q87.85 20.50 90.73 22.35Q93.60 24.20 95.25 27.22Q96.90 30.25 96.90 33.85Q96.90 34.25 96.90 34.63Q96.90 35 96.85 35.20L74.55 35.20Q74.80 38 76.13 40.17Q77.45 42.35 79.58 43.63Q81.70 44.90 84.20 44.90Q86.75 44.90 89.03 43.60Q91.30 42.30 92.20 40.20L95.15 41Q94.35 42.85 92.70 44.35Q91.05 45.85 88.83 46.67Q86.60 47.50 84.05 47.50M74.45 32.75L93.70 32.75Q93.50 29.90 92.18 27.75Q90.85 25.60 88.73 24.38Q86.60 23.15 84.05 23.15Q81.50 23.15 79.40 24.38Q77.30 25.60 75.98 27.77Q74.65 29.95 74.45 32.75ZM134.95 20.95L138.30 20.95L127.10 47L124.15 47L118.70 34.05L113.30 47L110.35 47L99.15 20.95L102.45 20.95L111.95 43.50L116.75 31.75L112.35 21L115.40 21L118.70 29.45L122.05 21L125.05 21L120.70 31.75L125.50 43.50L134.95 20.95ZM140.70 39.50Q140.70 37.05 142.10 35.27Q143.50 33.50 145.98 32.52Q148.45 31.55 151.70 31.55Q153.60 31.55 155.65 31.85Q157.70 32.15 159.30 32.75L159.30 30.55Q159.30 27.25 157.35 25.30Q155.40 23.35 151.95 23.35Q149.85 23.35 147.83 24.13Q145.80 24.90 143.60 26.40L142.30 24Q144.85 22.25 147.30 21.38Q149.75 20.50 152.30 20.50Q157.10 20.50 159.90 23.25Q162.70 26 162.70 30.85L162.70 42.90Q162.70 43.60 163 43.92Q163.30 44.25 163.95 44.30L163.95 47Q163.40 47.05 163 47.10Q162.60 47.15 162.40 47.10Q161.15 47.05 160.50 46.30Q159.85 45.55 159.80 44.70L159.75 42.80Q158 45.05 155.20 46.27Q152.40 47.50 149.50 47.50Q147 47.50 144.98 46.42Q142.95 45.35 141.83 43.52Q140.70 41.70 140.70 39.50M158.15 41.50Q158.70 40.80 159 40.15Q159.30 39.50 159.30 39L159.30 35.20Q157.60 34.55 155.78 34.20Q153.95 33.85 152.10 33.85Q148.45 33.85 146.20 35.30Q143.95 36.75 143.95 39.25Q143.95 40.70 144.70 41.98Q145.45 43.25 146.90 44.08Q148.35 44.90 150.30 44.90Q152.75 44.90 154.88 43.95Q157 43 158.15 41.50ZM171.55 55Q172.25 55.05 172.90 55.08Q173.55 55.10 173.85 55Q174.45 54.90 175 54.30Q175.55 53.70 176.30 52Q177.05 50.30 178.40 47L167.05 20.95L170.65 20.95L180.20 43.50L189 20.95L192.40 20.95L178.90 54.55Q178.55 55.50 177.85 56.33Q177.15 57.15 176.13 57.63Q175.10 58.10 173.60 58.15Q173.15 58.20 172.68 58.17Q172.20 58.15 171.55 58.05L171.55 55Z"/></g></g></g></svg>