<svg xmlns="http://www.w3.org/2000/svg" viewBox="0 15.050000190734863 342.95001220703125 46.54999923706055" data-asc="1.018" width="342.95001220703125" height="46.54999923706055"><defs/><g fill="#000000"><g transform="translate(0, 0)"><path d="M0 50.90L0 15.90L15.00 15.90Q18.45 15.90 21 17.15Q23.55 18.40 24.98 20.65Q26.40 22.90 26.40 25.95Q26.40 29.40 24.38 31.87Q22.35 34.35 18.95 35.35L26.80 50.90L22.55 50.90L15.05 35.85L3.85 35.85L3.85 50.90L0 50.90M3.85 32.60L14.75 32.60Q18.30 32.60 20.43 30.80Q22.55 29.00 22.55 25.95Q22.55 22.95 20.43 21.15Q18.30 19.35 14.75 19.35L3.85 19.35L3.85 32.60ZM41.80 51.35Q38.20 51.35 35.27 49.63Q32.35 47.90 30.63 44.95Q28.90 42 28.90 38.35Q28.90 34.75 30.55 31.82Q32.20 28.90 35 27.17Q37.80 25.45 41.25 25.45Q44.60 25.45 47.27 27.17Q49.95 28.90 51.52 31.82Q53.10 34.75 53.10 38.35L53.10 39.50L32.55 39.50Q32.85 41.95 34.13 43.90Q35.40 45.85 37.45 46.98Q39.50 48.10 41.95 48.10Q43.90 48.10 45.75 47.50Q47.60 46.90 48.85 45.80L51.15 48.25Q49.05 49.80 46.77 50.57Q44.50 51.35 41.80 51.35M32.65 36.55L49.40 36.55Q49.10 34.30 47.92 32.52Q46.75 30.75 45 29.72Q43.25 28.70 41.15 28.70Q39 28.70 37.20 29.70Q35.40 30.70 34.20 32.47Q33 34.25 32.65 36.55ZM69.70 51.30Q66.20 51.30 63.33 49.57Q60.45 47.85 58.77 44.92Q57.10 42 57.10 38.35Q57.10 34.70 58.77 31.80Q60.45 28.90 63.33 27.17Q66.20 25.45 69.75 25.45Q71.95 25.45 74 26.17Q76.05 26.90 77.75 28.30L77.75 15.90L81.45 15.05L81.45 50.90L77.80 50.90L77.80 48.25Q74.50 51.30 69.70 51.30M70.05 48.05Q72.40 48.05 74.43 47.13Q76.45 46.20 77.75 44.55L77.75 32.15Q76.45 30.55 74.43 29.62Q72.40 28.70 70.05 28.70Q67.45 28.70 65.33 29.95Q63.20 31.20 61.98 33.38Q60.75 35.55 60.75 38.30Q60.75 41.05 61.98 43.25Q63.20 45.45 65.33 46.75Q67.45 48.05 70.05 48.05ZM99.20 50.90L99.20 15.90L103.05 15.90L103.05 31.55L123.40 31.55L123.40 15.90L127.25 15.90L127.25 50.90L123.40 50.90L123.40 35L103.05 35L103.05 50.90L99.20 50.90ZM141.65 51.35Q138.90 51.35 136.82 50.40Q134.75 49.45 133.57 47.75Q132.40 46.05 132.40 43.80Q132.40 40.25 135.10 38.20Q137.80 36.15 142.40 36.15Q146.45 36.15 149.75 37.85L149.75 34.55Q149.75 31.55 148.05 30.02Q146.35 28.50 143.10 28.50Q141.25 28.50 139.38 29.02Q137.50 29.55 135.25 30.70L133.85 27.85Q136.55 26.55 138.85 25.95Q141.15 25.35 143.45 25.35Q148.20 25.35 150.78 27.60Q153.35 29.85 153.35 34.05L153.35 50.90L149.75 50.90L149.75 48.45Q148.05 49.90 146.03 50.63Q144 51.35 141.65 51.35M135.95 43.70Q135.95 45.80 137.72 47.13Q139.50 48.45 142.30 48.45Q144.55 48.45 146.40 47.75Q148.25 47.05 149.75 45.55L149.75 40.85Q148.20 39.80 146.45 39.32Q144.70 38.85 142.50 38.85Q139.50 38.85 137.72 40.17Q135.95 41.50 135.95 43.70ZM168.65 51.40Q165.40 51.40 163.65 49.85Q161.90 48.30 161.90 45.35L161.90 29.00L156.50 29.00L156.50 25.85L161.90 25.85L161.90 19.50L165.55 18.55L165.55 25.85L173.10 25.85L173.10 29.00L165.55 29.00L165.55 44.40Q165.55 46.40 166.45 47.27Q167.35 48.15 169.40 48.15Q170.45 48.15 171.28 48Q172.10 47.85 173.05 47.50L173.05 50.75Q172.10 51.10 170.93 51.25Q169.75 51.40 168.65 51.40ZM192.35 47.40L200.25 47.40Q203.30 47.40 205.90 46.35Q208.50 45.30 210.45 43.40Q212.40 41.50 213.48 38.95Q214.55 36.40 214.55 33.40Q214.55 30.40 213.48 27.85Q212.40 25.30 210.45 23.40Q208.50 21.50 205.90 20.45Q203.30 19.40 200.25 19.40L192.35 19.40L192.35 47.40M188.50 50.90L188.50 15.90L200.05 15.90Q204.05 15.90 207.40 17.20Q210.75 18.50 213.23 20.85Q215.70 23.20 217.08 26.40Q218.45 29.60 218.45 33.40Q218.45 37.20 217.10 40.40Q215.75 43.60 213.28 45.95Q210.80 48.30 207.43 49.60Q204.05 50.90 200.05 50.90L188.50 50.90ZM223.80 50.90L223.80 25.85L227.50 25.85L227.50 50.90L223.80 50.90M225.65 21.05Q224.65 21.05 223.90 20.30Q223.15 19.55 223.15 18.50Q223.15 17.50 223.90 16.77Q224.65 16.05 225.65 16.05Q226.70 16.05 227.43 16.77Q228.15 17.50 228.15 18.55Q228.15 19.55 227.43 20.30Q226.70 21.05 225.65 21.05ZM241.80 51.40Q238.70 51.40 235.97 50.38Q233.25 49.35 231.25 47.50L233.50 45.10Q235.25 46.70 237.35 47.57Q239.45 48.45 241.65 48.45Q244.65 48.45 246.55 47.20Q248.45 45.95 248.45 43.95Q248.45 42.30 247.33 41.38Q246.20 40.45 243.80 40.10L239.45 39.50Q235.70 38.95 233.88 37.25Q232.05 35.55 232.05 32.65Q232.05 30.55 233.25 28.90Q234.45 27.25 236.58 26.30Q238.70 25.35 241.45 25.35Q244.20 25.35 246.60 26.15Q249 26.95 251.30 28.65L249.35 31.15Q247.25 29.70 245.28 29.02Q243.30 28.35 241.25 28.35Q238.65 28.35 237.05 29.50Q235.45 30.65 235.45 32.50Q235.45 34.20 236.55 35.07Q237.65 35.95 240.10 36.30L244.45 36.90Q248.20 37.40 250.08 39.10Q251.95 40.80 251.95 43.75Q251.95 45.90 250.60 47.65Q249.25 49.40 246.97 50.40Q244.70 51.40 241.80 51.40ZM256.10 61.10L256.10 25.85L259.75 25.85L259.75 28.55Q263 25.45 267.85 25.45Q271.40 25.45 274.25 27.17Q277.10 28.90 278.78 31.80Q280.45 34.70 280.45 38.35Q280.45 42 278.78 44.92Q277.10 47.85 274.25 49.57Q271.40 51.30 267.80 51.30Q265.60 51.30 263.55 50.55Q261.50 49.80 259.80 48.40L259.80 61.10L256.10 61.10M267.50 48.05Q270.15 48.05 272.25 46.77Q274.35 45.50 275.58 43.32Q276.80 41.15 276.80 38.40Q276.80 35.65 275.58 33.45Q274.35 31.25 272.25 29.97Q270.15 28.70 267.50 28.70Q265.15 28.70 263.13 29.62Q261.10 30.55 259.80 32.20L259.80 44.60Q261.10 46.20 263.15 47.13Q265.20 48.05 267.50 48.05ZM285.60 50.90L285.60 15.90L289.30 15.05L289.30 50.90L285.60 50.90ZM303.50 51.35Q300.75 51.35 298.68 50.40Q296.60 49.45 295.43 47.75Q294.25 46.05 294.25 43.80Q294.25 40.25 296.95 38.20Q299.65 36.15 304.25 36.15Q308.30 36.15 311.60 37.85L311.60 34.55Q311.60 31.55 309.90 30.02Q308.20 28.50 304.95 28.50Q303.10 28.50 301.23 29.02Q299.35 29.55 297.10 30.70L295.70 27.85Q298.40 26.55 300.70 25.95Q303.00 25.35 305.30 25.35Q310.05 25.35 312.63 27.60Q315.20 29.85 315.20 34.05L315.20 50.90L311.60 50.90L311.60 48.45Q309.90 49.90 307.88 50.63Q305.85 51.35 303.50 51.35M297.80 43.70Q297.80 45.80 299.58 47.13Q301.35 48.45 304.15 48.45Q306.40 48.45 308.25 47.75Q310.10 47.05 311.60 45.55L311.60 40.85Q310.05 39.80 308.30 39.32Q306.55 38.85 304.35 38.85Q301.35 38.85 299.58 40.17Q297.80 41.50 297.80 43.70ZM321.95 61.60Q321.25 61.60 320.63 61.52Q320.00 61.45 319.60 61.35L319.60 58Q320.45 58.20 321.70 58.20Q325.00 58.20 326.70 54.30L328.20 50.85L318.00 25.85L322.10 25.85L330.20 46.40L338.95 25.85L342.95 25.85L330.45 54.80Q329.40 57.20 328.20 58.70Q327.00 60.20 325.48 60.90Q323.95 61.60 321.95 61.60Z"/></g></g></svg>