<svg xmlns="http://www.w3.org/2000/svg" viewBox="0 7.699999809265137 313.04998779296875 39.5" data-asc="0.927" width="313.04998779296875" height="39.5"><defs/><g fill="#000000"><g transform="translate(0, 0)"><path d="M16.20 30.20L25.10 46.35L32.00 46.35L32.00 43.85L31.45 43.85Q30.50 43.85 29.68 43.70Q28.85 43.55 28.20 43.05Q27.55 42.55 26.95 41.60L19.80 29.10L16.20 30.20M8.65 43.40L8.65 13.50L15.35 13.50Q18.05 13.50 19.88 14.33Q21.70 15.15 22.60 16.80Q23.50 18.45 23.50 20.90Q23.50 23.20 22.63 24.93Q21.75 26.65 19.93 27.60Q18.10 28.55 15.20 28.55L7.90 28.55L7.95 31.10L16.25 31.10Q16.70 31.10 17.10 31.02Q17.50 30.95 17.90 30.80Q18.30 30.65 18.75 30.50Q21.45 29.90 23.45 28.57Q25.45 27.25 26.55 25.25Q27.65 23.25 27.65 20.65Q27.65 17.55 26.18 15.35Q24.70 13.15 21.98 12Q19.25 10.85 15.45 10.85L0 10.85L0 13.30L0.55 13.30Q2.40 13.30 3.60 13.65Q4.80 14 4.80 15.10L4.80 42.10Q4.80 43.20 3.60 43.55Q2.40 43.90 0.55 43.90L0 43.90L0 46.35L13.70 46.35L13.70 43.90L12.95 43.90Q12.20 43.90 11.43 43.88Q10.65 43.85 10.03 43.77Q9.40 43.70 9.03 43.63Q8.65 43.55 8.65 43.40ZM62.00 32.95Q62.00 37.25 60.38 40.38Q58.75 43.50 55.80 45.20Q52.85 46.90 48.90 46.90Q44.95 46.90 42.00 45.20Q39.05 43.50 37.43 40.38Q35.80 37.25 35.80 32.95Q35.80 29.75 36.73 27.18Q37.65 24.60 39.38 22.77Q41.10 20.95 43.53 19.98Q45.95 19 48.90 19Q51.90 19 54.30 19.98Q56.70 20.95 58.43 22.77Q60.15 24.60 61.08 27.18Q62.00 29.75 62.00 32.95M39.75 32.95Q39.75 36.70 40.80 39.20Q41.85 41.70 43.88 42.98Q45.90 44.25 48.90 44.25Q51.95 44.25 53.98 43Q56.00 41.75 57.03 39.23Q58.05 36.70 58.05 32.95Q58.05 29.40 57.03 26.88Q56.00 24.35 53.98 23.02Q51.95 21.70 48.90 21.70Q45.90 21.70 43.88 23.02Q41.85 24.35 40.80 26.88Q39.75 29.40 39.75 32.95ZM82.85 46.90Q80.65 46.90 78.88 46.13Q77.10 45.35 75.65 43.88Q74.20 42.40 72.95 40.30L73.10 37.35Q74.35 39.55 75.75 41.10Q77.15 42.65 78.85 43.45Q80.55 44.25 82.60 44.25Q84.65 44.25 86.20 43.48Q87.75 42.70 88.80 41.25Q89.85 39.80 90.38 37.65Q90.90 35.50 90.90 32.80Q90.90 30.15 90.43 28.07Q89.95 26 88.98 24.57Q88 23.15 86.50 22.43Q85 21.70 82.95 21.70Q80.90 21.70 79.18 22.48Q77.45 23.25 75.95 24.77Q74.45 26.30 73.05 28.60L72.95 25.80Q74.35 23.65 75.90 22.13Q77.45 20.60 79.28 19.80Q81.10 19 83.35 19Q87.05 19 89.63 20.75Q92.20 22.50 93.55 25.57Q94.90 28.65 94.90 32.80Q94.90 36.90 93.45 40.10Q92 43.30 89.30 45.10Q86.60 46.90 82.85 46.90M69.95 13.15Q69.95 12.40 69.53 12.02Q69.10 11.65 68.25 11.40Q67.40 11.15 66.10 10.90L65.55 10.80L65.55 8.45L73.70 8.45L73.70 40.10L73.55 40.45L72.45 46.95L69.95 46.95L69.95 13.15ZM125.90 32.95Q125.90 37.25 124.28 40.38Q122.65 43.50 119.70 45.20Q116.75 46.90 112.80 46.90Q108.85 46.90 105.90 45.20Q102.95 43.50 101.33 40.38Q99.70 37.25 99.70 32.95Q99.70 29.75 100.63 27.18Q101.55 24.60 103.28 22.77Q105.00 20.95 107.43 19.98Q109.85 19 112.80 19Q115.80 19 118.20 19.98Q120.60 20.95 122.33 22.77Q124.05 24.60 124.98 27.18Q125.90 29.75 125.90 32.95M103.65 32.95Q103.65 36.70 104.70 39.20Q105.75 41.70 107.78 42.98Q109.80 44.25 112.80 44.25Q115.85 44.25 117.88 43Q119.90 41.75 120.93 39.23Q121.95 36.70 121.95 32.95Q121.95 29.40 120.93 26.88Q119.90 24.35 117.88 23.02Q115.85 21.70 112.80 21.70Q109.80 21.70 107.78 23.02Q105.75 24.35 104.70 26.88Q103.65 29.40 103.65 32.95ZM129.10 22.15L129.10 19.75L129.65 19.75Q131.30 19.75 132.43 19.52Q133.55 19.30 134.15 18.60Q134.75 17.90 134.75 16.50L137.35 19.50L146.85 19.50L146.85 22.15L129.10 22.15M138.15 38.75Q138.15 40.80 138.78 41.98Q139.40 43.15 140.58 43.63Q141.75 44.10 143.35 44.10Q144.60 44.10 145.68 43.93Q146.75 43.75 147.15 43.65L147.15 46.25Q146.65 46.40 145.93 46.55Q145.20 46.70 144.40 46.80Q143.60 46.90 142.80 46.90Q140.60 46.90 138.68 46.23Q136.75 45.55 135.60 43.77Q134.45 42 134.45 38.75L134.45 20.25L134.75 19.85L134.75 11.85L138.15 11.85L138.15 38.75ZM177.65 32.95Q177.65 37.25 176.03 40.38Q174.40 43.50 171.45 45.20Q168.50 46.90 164.55 46.90Q160.60 46.90 157.65 45.20Q154.70 43.50 153.08 40.38Q151.45 37.25 151.45 32.95Q151.45 29.75 152.38 27.18Q153.30 24.60 155.03 22.77Q156.75 20.95 159.18 19.98Q161.60 19 164.55 19Q167.55 19 169.95 19.98Q172.35 20.95 174.08 22.77Q175.80 24.60 176.73 27.18Q177.65 29.75 177.65 32.95M155.40 32.95Q155.40 36.70 156.45 39.20Q157.50 41.70 159.53 42.98Q161.55 44.25 164.55 44.25Q167.60 44.25 169.63 43Q171.65 41.75 172.68 39.23Q173.70 36.70 173.70 32.95Q173.70 29.40 172.68 26.88Q171.65 24.35 169.63 23.02Q167.60 21.70 164.55 21.70Q161.55 21.70 159.53 23.02Q157.50 24.35 156.45 26.88Q155.40 29.40 155.40 32.95ZM210.75 44.60Q213.35 44.60 215.10 43.93Q216.85 43.25 217.78 41.75Q218.70 40.25 218.70 37.80Q218.70 35.70 217.85 34.33Q217 32.95 215.55 32.10Q214.10 31.25 212.30 30.68Q210.50 30.10 208.60 29.60Q206.40 29.05 204.38 28.35Q202.35 27.65 200.75 26.52Q199.15 25.40 198.23 23.63Q197.30 21.85 197.30 19.15Q197.30 16.25 198.60 14.23Q199.90 12.20 202.30 11.08Q204.70 9.95 207.95 9.95Q210.75 9.95 212.85 10.83Q214.95 11.70 216.38 13.65Q217.80 15.60 218.40 18.75L217.35 17.60L217.90 10.60L220.55 10.60L220.55 20.70L217.65 20.70Q216.95 18.05 215.65 16.25Q214.35 14.45 212.48 13.50Q210.60 12.55 208.10 12.55Q205.65 12.55 204.03 13.27Q202.40 14 201.63 15.40Q200.85 16.80 200.85 18.80Q200.85 20.70 201.63 21.95Q202.40 23.20 203.75 23.98Q205.10 24.75 206.88 25.30Q208.65 25.85 210.75 26.40Q212.85 26.95 214.93 27.65Q217 28.35 218.70 29.50Q220.40 30.65 221.40 32.45Q222.40 34.25 222.40 37Q222.40 40.45 220.90 42.73Q219.40 45 216.78 46.10Q214.15 47.20 210.80 47.20Q207.50 47.20 204.88 46.15Q202.25 45.10 200.55 42.83Q198.85 40.55 198.15 36.85L199.45 38.15L198.90 46.50L196.10 46.50L196.10 34.90L199.15 34.90Q199.90 38.10 201.45 40.25Q203 42.40 205.35 43.50Q207.70 44.60 210.75 44.60ZM231.40 33.20Q231.40 36.15 232.10 38.25Q232.80 40.35 234.08 41.68Q235.35 43 237.03 43.63Q238.70 44.25 240.70 44.25Q242.90 44.25 244.48 43.52Q246.05 42.80 247.15 41.65Q248.25 40.50 249 39.25L251.15 40.90Q250.20 42.60 248.70 44Q247.20 45.40 245.18 46.15Q243.15 46.90 240.65 46.90Q236.95 46.90 233.97 45.30Q231 43.70 229.28 40.63Q227.55 37.55 227.55 33.15Q227.55 28.90 229.13 25.75Q230.70 22.60 233.47 20.80Q236.25 19 239.85 19Q242.70 19 244.80 19.95Q246.90 20.90 248.30 22.77Q249.70 24.65 250.43 27.45Q251.15 30.25 251.15 33.95L230.40 33.95L230.40 31.40L248.40 31.40L247.25 32.40Q247.15 29.50 246.70 27.45Q246.25 25.40 245.38 24.13Q244.50 22.85 243.15 22.27Q241.80 21.70 239.85 21.70Q237.95 21.70 236.38 22.43Q234.80 23.15 233.70 24.60Q232.60 26.05 232 28.20Q231.40 30.35 231.40 33.20ZM273.70 19.20L273.70 23.25Q273.30 23.15 272.83 23.10Q272.35 23.05 271.85 23.02Q271.35 23 270.90 23Q269.55 23 268.48 23.30Q267.40 23.60 266.48 24.23Q265.55 24.85 264.70 25.82Q263.85 26.80 262.95 28.15L262.95 26Q264.20 23.70 265.53 22.15Q266.85 20.60 268.38 19.77Q269.90 18.95 271.80 18.95Q272.40 18.95 272.95 19.02Q273.50 19.10 273.70 19.20M255.55 46.35L255.55 44.20L255.70 44.20Q257.65 44.20 258.80 43.65Q259.95 43.10 259.95 41.40L259.95 24.20Q259.95 23.45 259.53 23.07Q259.10 22.70 258.23 22.45Q257.35 22.20 256.05 21.95L255.55 21.85L255.55 19.50L262.95 19.50L263.50 26.05L263.70 25.85L263.70 43.10Q263.70 43.55 264.38 43.80Q265.05 44.05 266 44.13Q266.95 44.20 267.75 44.20L268.85 44.20L268.85 46.35L255.55 46.35ZM283.25 13.55Q282 13.55 281.15 12.83Q280.30 12.10 280.30 10.60Q280.30 9.15 281.13 8.42Q281.95 7.70 283.25 7.70Q284.55 7.70 285.40 8.42Q286.25 9.15 286.25 10.60Q286.25 12.10 285.40 12.83Q284.55 13.55 283.25 13.55M285.60 19.50L285.60 41.55Q285.60 43.15 286.73 43.68Q287.85 44.20 289.80 44.20L289.95 44.20L289.95 46.35L277.50 46.35L277.50 44.20L277.65 44.20Q279.60 44.20 280.75 43.68Q281.90 43.15 281.90 41.55L281.90 24.20Q281.90 23.10 280.93 22.73Q279.95 22.35 278 21.95L277.45 21.85L277.45 19.50L285.60 19.50ZM293.75 19.50L311.05 19.50L311.05 22.10L293.75 22.10L293.75 19.50M313.05 8.30L313.05 11.20Q312.30 11 311.08 10.77Q309.85 10.55 308.35 10.55Q306.60 10.55 305.40 11.05Q304.20 11.55 303.58 12.77Q302.95 14 302.95 16.25L302.95 43.70Q302.95 43.85 303.65 43.98Q304.35 44.10 305.43 44.15Q306.50 44.20 307.55 44.20L308.80 44.20L308.80 46.35L293.85 46.35L293.85 44.20L294.75 44.20Q296.85 44.20 298.05 43.65Q299.25 43.10 299.25 41.40L299.25 16.05Q299.25 12.85 300.50 11.05Q301.75 9.25 303.83 8.52Q305.90 7.80 308.35 7.80Q309.85 7.80 311.15 7.95Q312.45 8.10 313.05 8.30Z"/></g></g></svg>