<svg xmlns="http://www.w3.org/2000/svg" viewBox="0 8.890000343322754 153.8800048828125 37.9900016784668" data-asc="0.927734375" width="153.8800048828125" height="37.9900016784668"><defs/><g><g fill="#000000"><g transform="translate(0, 0)"><path d="M13.06 32.01L4.71 32.01L4.71 46.39L0 46.39L0 10.84L11.77 10.84Q17.77 10.84 21.01 13.57Q24.24 16.31 24.24 21.53Q24.24 24.85 22.45 27.32Q20.65 29.79 17.46 31.01L25.81 46.09L25.81 46.39L20.78 46.39L13.06 32.01M4.71 28.17L11.91 28.17Q15.41 28.17 17.47 26.37Q19.53 24.56 19.53 21.53Q19.53 18.24 17.57 16.48Q15.60 14.72 11.89 14.70L4.71 14.70L4.71 28.17ZM28.91 32.93Q28.91 29.05 30.43 25.95Q31.96 22.85 34.68 21.17Q37.40 19.48 40.89 19.48Q46.29 19.48 49.62 23.22Q52.95 26.95 52.95 33.15L52.95 33.47Q52.95 37.33 51.48 40.39Q50 43.46 47.25 45.17Q44.51 46.88 40.94 46.88Q35.57 46.88 32.24 43.14Q28.91 39.40 28.91 33.25L28.91 32.93M33.45 33.47Q33.45 37.87 35.49 40.53Q37.52 43.19 40.94 43.19Q44.38 43.19 46.41 40.49Q48.44 37.79 48.44 32.93Q48.44 28.59 46.37 25.89Q44.31 23.19 40.89 23.19Q37.55 23.19 35.50 25.85Q33.45 28.52 33.45 33.47ZM80.98 33.47Q80.98 39.53 78.20 43.20Q75.42 46.88 70.73 46.88Q65.72 46.88 62.99 43.33L62.77 46.39L58.62 46.39L58.62 8.89L63.13 8.89L63.13 22.88Q65.87 19.48 70.68 19.48Q75.49 19.48 78.23 23.12Q80.98 26.76 80.98 33.08L80.98 33.47M76.46 32.96Q76.46 28.34 74.68 25.83Q72.90 23.32 69.56 23.32Q65.09 23.32 63.13 27.47L63.13 38.89Q65.21 43.04 69.60 43.04Q72.85 43.04 74.66 40.53Q76.46 38.01 76.46 32.96ZM85.47 32.93Q85.47 29.05 87.00 25.95Q88.53 22.85 91.25 21.17Q93.97 19.48 97.46 19.48Q102.86 19.48 106.19 23.22Q109.52 26.95 109.52 33.15L109.52 33.47Q109.52 37.33 108.04 40.39Q106.57 43.46 103.82 45.17Q101.07 46.88 97.51 46.88Q92.14 46.88 88.81 43.14Q85.47 39.40 85.47 33.25L85.47 32.93M90.01 33.47Q90.01 37.87 92.05 40.53Q94.09 43.19 97.51 43.19Q100.95 43.19 102.98 40.49Q105.00 37.79 105.00 32.93Q105.00 28.59 102.94 25.89Q100.88 23.19 97.46 23.19Q94.12 23.19 92.07 25.85Q90.01 28.52 90.01 33.47ZM121.31 13.57L121.31 19.97L126.25 19.97L126.25 23.46L121.31 23.46L121.31 39.84Q121.31 41.43 121.97 42.22Q122.63 43.02 124.22 43.02Q125 43.02 126.37 42.72L126.37 46.39Q124.58 46.88 122.90 46.88Q119.87 46.88 118.33 45.04Q116.80 43.21 116.80 39.84L116.80 23.46L111.99 23.46L111.99 19.97L116.80 19.97L116.80 13.57L121.31 13.57ZM129.83 32.93Q129.83 29.05 131.36 25.95Q132.89 22.85 135.61 21.17Q138.33 19.48 141.82 19.48Q147.22 19.48 150.55 23.22Q153.88 26.95 153.88 33.15L153.88 33.47Q153.88 37.33 152.40 40.39Q150.93 43.46 148.18 45.17Q145.43 46.88 141.87 46.88Q136.50 46.88 133.17 43.14Q129.83 39.40 129.83 33.25L129.83 32.93M134.38 33.47Q134.38 37.87 136.41 40.53Q138.45 43.19 141.87 43.19Q145.31 43.19 147.34 40.49Q149.37 37.79 149.37 32.93Q149.37 28.59 147.30 25.89Q145.24 23.19 141.82 23.19Q138.48 23.19 136.43 25.85Q134.38 28.52 134.38 33.47Z"/></g></g></g></svg>