<svg xmlns="http://www.w3.org/2000/svg" viewBox="0 8.890000343322754 152.38999938964844 37.9900016784668" data-asc="0.927734375" width="152.38999938964844" height="37.9900016784668"><defs/><g fill="#000000"><g transform="translate(0, 0)"><path d="M13.35 31.59L3.03 31.59L3.03 46.39L0 46.39L0 10.84L11.55 10.84Q17.24 10.84 20.43 13.60Q23.63 16.36 23.63 21.31Q23.63 24.73 21.63 27.34Q19.63 29.96 16.26 30.96L25.15 46.07L25.15 46.39L21.95 46.39L13.35 31.59M3.03 29.03L12.23 29.03Q16.02 29.03 18.31 26.88Q20.61 24.73 20.61 21.31Q20.61 17.55 18.21 15.48Q15.82 13.40 11.50 13.40L3.03 13.40L3.03 29.03ZM29.52 32.79Q29.52 28.98 30.99 25.93Q32.47 22.88 35.17 21.18Q37.87 19.48 41.28 19.48Q46.56 19.48 49.83 23.18Q53.10 26.88 53.10 32.98L53.10 33.59Q53.10 37.43 51.62 40.49Q50.15 43.55 47.46 45.21Q44.78 46.88 41.33 46.88Q36.08 46.88 32.80 43.18Q29.52 39.48 29.52 33.37L29.52 32.79M32.45 33.59Q32.45 38.33 34.90 41.37Q37.35 44.41 41.33 44.41Q45.29 44.41 47.74 41.37Q50.20 38.33 50.20 33.35L50.20 32.79Q50.20 29.76 49.07 27.25Q47.95 24.73 45.92 23.35Q43.90 21.97 41.28 21.97Q37.38 21.97 34.91 25.04Q32.45 28.10 32.45 33.06L32.45 33.59ZM80.40 33.45Q80.40 39.62 77.66 43.25Q74.93 46.88 70.31 46.88Q64.79 46.88 61.96 42.77L61.84 46.39L59.11 46.39L59.11 8.89L62.01 8.89L62.01 23.80Q64.79 19.48 70.26 19.48Q74.95 19.48 77.67 23.06Q80.40 26.64 80.40 33.01L80.40 33.45M77.47 32.93Q77.47 27.71 75.44 24.87Q73.41 22.02 69.73 22.02Q66.92 22.02 64.97 23.40Q63.01 24.78 62.01 27.44L62.01 39.36Q64.21 44.34 69.78 44.34Q73.39 44.34 75.43 41.48Q77.47 38.62 77.47 32.93ZM85.23 32.79Q85.23 28.98 86.71 25.93Q88.18 22.88 90.88 21.18Q93.58 19.48 97.00 19.48Q102.27 19.48 105.54 23.18Q108.81 26.88 108.81 32.98L108.81 33.59Q108.81 37.43 107.34 40.49Q105.86 43.55 103.17 45.21Q100.49 46.88 97.05 46.88Q91.80 46.88 88.51 43.18Q85.23 39.48 85.23 33.37L85.23 32.79M88.16 33.59Q88.16 38.33 90.61 41.37Q93.07 44.41 97.05 44.41Q101.00 44.41 103.45 41.37Q105.91 38.33 105.91 33.35L105.91 32.79Q105.91 29.76 104.79 27.25Q103.66 24.73 101.64 23.35Q99.61 21.97 97.00 21.97Q93.09 21.97 90.63 25.04Q88.16 28.10 88.16 33.06L88.16 33.59ZM119.38 13.21L119.38 19.97L124.85 19.97L124.85 22.36L119.38 22.36L119.38 39.97Q119.38 42.16 120.18 43.24Q120.97 44.31 122.83 44.31Q123.56 44.31 125.20 44.07L125.32 46.46Q124.17 46.88 122.19 46.88Q119.19 46.88 117.82 45.13Q116.46 43.38 116.46 39.99L116.46 22.36L111.60 22.36L111.60 19.97L116.46 19.97L116.46 13.21L119.38 13.21ZM128.81 32.79Q128.81 28.98 130.29 25.93Q131.76 22.88 134.46 21.18Q137.16 19.48 140.58 19.48Q145.85 19.48 149.12 23.18Q152.39 26.88 152.39 32.98L152.39 33.59Q152.39 37.43 150.92 40.49Q149.44 43.55 146.75 45.21Q144.07 46.88 140.63 46.88Q135.38 46.88 132.09 43.18Q128.81 39.48 128.81 33.37L128.81 32.79M131.74 33.59Q131.74 38.33 134.19 41.37Q136.65 44.41 140.63 44.41Q144.58 44.41 147.03 41.37Q149.49 38.33 149.49 33.35L149.49 32.79Q149.49 29.76 148.36 27.25Q147.24 24.73 145.21 23.35Q143.19 21.97 140.58 21.97Q136.67 21.97 134.20 25.04Q131.74 28.10 131.74 33.06L131.74 33.59Z"/></g></g></svg>