<svg xmlns="http://www.w3.org/2000/svg" viewBox="0 14.3100004196167 272.0199890136719 38.599998474121094" data-asc="1.0478515625" width="272.0199890136719" height="38.599998474121094"><defs/><g><g fill="#000000"><g transform="translate(0, 0)"><path d="M0 52.39L0 49.32L3.98 48.63L3.98 20.63L0 19.95L0 16.87L15.84 16.87Q19.73 16.87 22.40 18.03Q25.07 19.19 26.46 21.39Q27.86 23.58 27.86 26.76Q27.86 29.88 26.50 32.01Q25.15 34.13 22.66 35.22Q20.17 36.30 16.75 36.38L8.79 36.52L8.79 48.63L12.77 49.32L12.77 52.39L0 52.39M23.46 52.39L15.55 34.64L20.36 34.59L26.93 48.80L29.39 49.24L29.39 52.39L23.46 52.39M8.79 32.74L15.36 32.74Q19.38 32.74 21.22 31.20Q23.05 29.66 23.05 26.71Q23.05 23.90 21.29 22.27Q19.53 20.63 15.84 20.63L8.79 20.63L8.79 32.74ZM45.58 52.91Q41.92 52.91 39.27 51.18Q36.62 49.46 35.18 46.42Q33.74 43.38 33.74 39.48L33.74 38.94Q33.74 35.03 35.18 31.99Q36.62 28.96 39.27 27.22Q41.92 25.49 45.53 25.49Q49.19 25.49 51.84 27.22Q54.49 28.96 55.93 31.98Q57.37 35.01 57.37 38.94L57.37 39.48Q57.37 43.41 55.93 46.45Q54.49 49.49 51.86 51.20Q49.22 52.91 45.58 52.91M45.58 49.15Q47.88 49.15 49.43 47.89Q50.98 46.63 51.77 44.45Q52.56 42.26 52.56 39.48L52.56 38.94Q52.56 36.16 51.77 33.97Q50.98 31.79 49.41 30.53Q47.85 29.27 45.53 29.27Q43.24 29.27 41.67 30.53Q40.11 31.79 39.33 33.97Q38.55 36.16 38.55 38.94L38.55 39.48Q38.55 42.26 39.33 44.45Q40.11 46.63 41.69 47.89Q43.26 49.15 45.58 49.15ZM75.12 52.91Q72.53 52.91 70.63 51.92Q68.73 50.93 67.46 49.00L67.02 52.39L62.87 52.39L62.87 18.09L58.89 17.41L58.89 14.31L67.68 14.31L67.68 29.10Q68.92 27.34 70.76 26.42Q72.61 25.49 75.07 25.49Q78.34 25.49 80.65 27.26Q82.96 29.03 84.19 32.23Q85.42 35.42 85.42 39.67L85.42 40.19Q85.42 43.99 84.19 46.85Q82.96 49.71 80.65 51.31Q78.34 52.91 75.12 52.91M73.90 49.00Q77.29 49.00 78.94 46.58Q80.59 44.17 80.59 40.19L80.59 39.67Q80.59 36.62 79.86 34.31Q79.13 32.01 77.64 30.70Q76.15 29.39 73.85 29.39Q71.63 29.39 70.10 30.47Q68.58 31.54 67.68 33.35L67.68 45.02Q68.58 46.85 70.13 47.92Q71.68 49.00 73.90 49.00ZM101.95 52.91Q98.29 52.91 95.64 51.18Q92.99 49.46 91.55 46.42Q90.11 43.38 90.11 39.48L90.11 38.94Q90.11 35.03 91.55 31.99Q92.99 28.96 95.64 27.22Q98.29 25.49 101.90 25.49Q105.57 25.49 108.22 27.22Q110.86 28.96 112.30 31.98Q113.75 35.01 113.75 38.94L113.75 39.48Q113.75 43.41 112.30 46.45Q110.86 49.49 108.23 51.20Q105.59 52.91 101.95 52.91M101.95 49.15Q104.25 49.15 105.80 47.89Q107.35 46.63 108.14 44.45Q108.94 42.26 108.94 39.48L108.94 38.94Q108.94 36.16 108.14 33.97Q107.35 31.79 105.79 30.53Q104.22 29.27 101.90 29.27Q99.61 29.27 98.05 30.53Q96.48 31.79 95.70 33.97Q94.92 36.16 94.92 38.94L94.92 39.48Q94.92 42.26 95.70 44.45Q96.48 46.63 98.06 47.89Q99.63 49.15 101.95 49.15ZM126.78 52.81Q123.85 52.81 122.13 51.09Q120.41 49.37 120.41 45.58L120.41 29.54L116.24 29.54L116.24 25.98L120.41 25.98L120.41 19.60L125.22 19.60L125.22 25.98L130.96 25.98L130.96 29.54L125.22 29.54L125.22 45.58Q125.22 47.49 125.98 48.39Q126.73 49.29 128.00 49.29Q128.86 49.29 129.91 49.13Q130.96 48.97 131.54 48.85L132.20 52.00Q131.15 52.32 129.63 52.56Q128.10 52.81 126.78 52.81ZM146.73 52.91Q143.07 52.91 140.42 51.18Q137.77 49.46 136.33 46.42Q134.89 43.38 134.89 39.48L134.89 38.94Q134.89 35.03 136.33 31.99Q137.77 28.96 140.42 27.22Q143.07 25.49 146.68 25.49Q150.34 25.49 152.99 27.22Q155.64 28.96 157.08 31.98Q158.52 35.01 158.52 38.94L158.52 39.48Q158.52 43.41 157.08 46.45Q155.64 49.49 153.00 51.20Q150.37 52.91 146.73 52.91M146.73 49.15Q149.02 49.15 150.57 47.89Q152.12 46.63 152.92 44.45Q153.71 42.26 153.71 39.48L153.71 38.94Q153.71 36.16 152.92 33.97Q152.12 31.79 150.56 30.53Q149.00 29.27 146.68 29.27Q144.38 29.27 142.82 30.53Q141.26 31.79 140.48 33.97Q139.70 36.16 139.70 38.94L139.70 39.48Q139.70 42.26 140.48 44.45Q141.26 46.63 142.83 47.89Q144.41 49.15 146.73 49.15ZM187.65 52.91Q184.40 52.91 181.40 51.95Q178.39 51.00 175.66 49.02L175.66 41.43L179.39 41.43L180.20 47.02Q181.79 48.00 183.64 48.54Q185.50 49.07 187.65 49.07Q190.09 49.07 191.78 48.33Q193.48 47.58 194.38 46.26Q195.29 44.95 195.29 43.19Q195.29 41.55 194.51 40.31Q193.73 39.06 191.93 38.12Q190.14 37.18 187.04 36.47Q183.37 35.62 180.85 34.19Q178.32 32.76 177.01 30.73Q175.71 28.69 175.71 26.05Q175.71 23.27 177.19 21.07Q178.66 18.87 181.30 17.60Q183.94 16.33 187.45 16.33Q191.19 16.33 194.06 17.47Q196.92 18.60 198.78 20.21L198.78 27.32L195.04 27.32L194.24 22.24Q193.14 21.36 191.50 20.78Q189.87 20.19 187.45 20.19Q185.40 20.19 183.84 20.91Q182.28 21.63 181.40 22.92Q180.52 24.22 180.52 25.98Q180.52 27.51 181.31 28.66Q182.10 29.81 183.90 30.68Q185.69 31.54 188.70 32.30Q194.31 33.69 197.20 36.41Q200.10 39.14 200.10 43.14Q200.10 46.00 198.56 48.21Q197.02 50.42 194.23 51.66Q191.43 52.91 187.65 52.91ZM203.86 52.39L203.86 49.32L207.84 48.63L207.84 18.09L203.86 17.41L203.86 14.31L212.65 14.31L212.65 48.63L216.63 49.32L216.63 52.39L203.86 52.39ZM228.59 52.91Q224.46 52.91 222.31 50.89Q220.17 48.88 220.17 45.21Q220.17 41.46 223.24 39.17Q226.32 36.89 231.79 36.89L236.50 36.89L236.50 34.30Q236.50 31.91 235.05 30.59Q233.59 29.27 230.96 29.27Q229.30 29.27 228.08 29.68Q226.86 30.08 225.85 30.79L225.34 34.47L221.63 34.47L221.63 28.42Q223.41 26.98 225.78 26.23Q228.15 25.49 231.03 25.49Q235.84 25.49 238.57 27.78Q241.31 30.08 241.31 34.35L241.31 47.07Q241.31 47.58 241.32 48.07Q241.33 48.56 241.38 49.05L243.95 49.32L243.95 52.39L237.04 52.39Q236.82 51.32 236.69 50.46Q236.57 49.61 236.52 48.75Q235.13 50.54 233.04 51.72Q230.96 52.91 228.59 52.91M229.30 48.88Q231.69 48.88 233.67 47.73Q235.64 46.58 236.50 44.97L236.50 40.19L231.62 40.19Q228.30 40.19 226.64 41.77Q224.98 43.36 224.98 45.31Q224.98 47.05 226.05 47.96Q227.12 48.88 229.30 48.88ZM261.72 52.91Q259.13 52.91 257.23 51.92Q255.32 50.93 254.05 49.00L253.61 52.39L249.46 52.39L249.46 18.09L245.48 17.41L245.48 14.31L254.27 14.31L254.27 29.10Q255.52 27.34 257.36 26.42Q259.20 25.49 261.67 25.49Q264.94 25.49 267.25 27.26Q269.56 29.03 270.79 32.23Q272.02 35.42 272.02 39.67L272.02 40.19Q272.02 43.99 270.79 46.85Q269.56 49.71 267.25 51.31Q264.94 52.91 261.72 52.91M260.50 49.00Q263.89 49.00 265.54 46.58Q267.19 44.17 267.19 40.19L267.19 39.67Q267.19 36.62 266.46 34.31Q265.72 32.01 264.23 30.70Q262.74 29.39 260.45 29.39Q258.23 29.39 256.70 30.47Q255.18 31.54 254.27 33.35L254.27 45.02Q255.18 46.85 256.73 47.92Q258.28 49.00 260.50 49.00Z"/></g></g></g></svg>