<svg xmlns="http://www.w3.org/2000/svg" viewBox="0 14.3100004196167 268.82000732421875 38.599998474121094" data-asc="1.0478515625" width="268.82000732421875" height="38.599998474121094"><defs/><g fill="#000000"><g transform="translate(0, 0)"><path d="M0 52.42L0 50.27L3.98 49.95L3.98 19.31L0 18.99L0 16.87L14.99 16.87Q18.80 16.87 21.44 17.99Q24.07 19.12 25.45 21.26Q26.83 23.41 26.83 26.56Q26.83 29.61 25.40 31.71Q23.97 33.81 21.40 34.90Q18.82 35.99 15.36 36.01L6.91 36.08L6.91 49.95L10.89 50.27L10.89 52.42L0 52.42M23.90 52.42L16.26 34.77L19.19 34.74L25.98 50.05L28.88 50.24L28.88 52.42L23.90 52.42M6.91 33.64L14.70 33.64Q19.46 33.64 21.68 31.69Q23.90 29.74 23.90 26.54Q23.90 23.10 21.68 21.20Q19.46 19.31 14.99 19.31L6.91 19.31L6.91 33.64ZM45.65 52.91Q42.11 52.91 39.48 51.21Q36.84 49.51 35.39 46.50Q33.94 43.48 33.94 39.60L33.94 38.79Q33.94 34.91 35.39 31.91Q36.84 28.91 39.47 27.20Q42.09 25.49 45.61 25.49Q49.15 25.49 51.77 27.20Q54.39 28.91 55.85 31.90Q57.30 34.89 57.30 38.79L57.30 39.60Q57.30 43.51 55.85 46.51Q54.39 49.51 51.78 51.21Q49.17 52.91 45.65 52.91M45.65 50.46Q48.36 50.46 50.32 49.02Q52.27 47.58 53.32 45.12Q54.37 42.65 54.37 39.60L54.37 38.79Q54.37 35.77 53.31 33.31Q52.25 30.86 50.29 29.41Q48.34 27.95 45.61 27.95Q42.87 27.95 40.91 29.41Q38.94 30.86 37.90 33.31Q36.87 35.77 36.87 38.79L36.87 39.60Q36.87 42.68 37.90 45.13Q38.94 47.58 40.92 49.02Q42.90 50.46 45.65 50.46ZM74.46 52.91Q71.56 52.91 69.45 51.76Q67.33 50.61 66.04 48.56L65.75 52.39L63.23 52.39L63.23 16.77L59.25 16.46L59.25 14.31L66.16 14.31L66.16 30.00Q67.46 27.88 69.52 26.68Q71.58 25.49 74.41 25.49Q77.61 25.49 79.87 27.21Q82.13 28.93 83.34 32.06Q84.55 35.18 84.55 39.40L84.55 39.92Q84.55 43.85 83.34 46.77Q82.13 49.68 79.87 51.29Q77.61 52.91 74.46 52.91M73.90 50.39Q77.71 50.39 79.65 47.55Q81.59 44.70 81.59 39.92L81.59 39.40Q81.59 36.01 80.73 33.45Q79.86 30.88 78.14 29.44Q76.42 28.00 73.85 28.00Q70.75 28.00 68.91 29.55Q67.07 31.10 66.16 33.47L66.16 45.39Q67.09 47.68 69.04 49.04Q71.00 50.39 73.90 50.39ZM101.15 52.91Q97.61 52.91 94.97 51.21Q92.33 49.51 90.88 46.50Q89.43 43.48 89.43 39.60L89.43 38.79Q89.43 34.91 90.88 31.91Q92.33 28.91 94.96 27.20Q97.58 25.49 101.10 25.49Q104.64 25.49 107.26 27.20Q109.89 28.91 111.34 31.90Q112.79 34.89 112.79 38.79L112.79 39.60Q112.79 43.51 111.34 46.51Q109.89 49.51 107.28 51.21Q104.66 52.91 101.15 52.91M101.15 50.46Q103.86 50.46 105.81 49.02Q107.76 47.58 108.81 45.12Q109.86 42.65 109.86 39.60L109.86 38.79Q109.86 35.77 108.80 33.31Q107.74 30.86 105.79 29.41Q103.83 27.95 101.10 27.95Q98.36 27.95 96.40 29.41Q94.43 30.86 93.40 33.31Q92.36 35.77 92.36 38.79L92.36 39.60Q92.36 42.68 93.40 45.13Q94.43 47.58 96.41 49.02Q98.39 50.46 101.15 50.46ZM126.59 52.86Q123.80 52.86 122.27 51.14Q120.73 49.41 120.73 45.58L120.73 28.34L116.16 28.34L116.16 25.98L120.73 25.98L120.73 19.19L123.66 19.19L123.66 25.98L129.81 25.98L129.81 28.34L123.66 28.34L123.66 45.58Q123.66 48.22 124.60 49.38Q125.54 50.54 127.10 50.54Q127.93 50.54 128.74 50.43Q129.54 50.32 130.40 50.20L130.83 52.29Q129.96 52.56 128.83 52.71Q127.71 52.86 126.59 52.86ZM146.19 52.91Q142.65 52.91 140.01 51.21Q137.38 49.51 135.93 46.50Q134.47 43.48 134.47 39.60L134.47 38.79Q134.47 34.91 135.93 31.91Q137.38 28.91 140.00 27.20Q142.63 25.49 146.14 25.49Q149.68 25.49 152.31 27.20Q154.93 28.91 156.38 31.90Q157.84 34.89 157.84 38.79L157.84 39.60Q157.84 43.51 156.38 46.51Q154.93 49.51 152.32 51.21Q149.71 52.91 146.19 52.91M146.19 50.46Q148.90 50.46 150.85 49.02Q152.81 47.58 153.86 45.12Q154.91 42.65 154.91 39.60L154.91 38.79Q154.91 35.77 153.85 33.31Q152.78 30.86 150.83 29.41Q148.88 27.95 146.14 27.95Q143.41 27.95 141.44 29.41Q139.48 30.86 138.44 33.31Q137.40 35.77 137.40 38.79L137.40 39.60Q137.40 42.68 138.44 45.13Q139.48 47.58 141.46 49.02Q143.43 50.46 146.19 50.46ZM186.84 52.91Q183.79 52.91 180.75 51.98Q177.71 51.05 174.88 49.10L174.88 42.21L177.32 42.21L177.69 47.75Q179.83 49.10 182.15 49.76Q184.47 50.42 186.84 50.42Q189.65 50.42 191.74 49.55Q193.82 48.68 194.98 47.13Q196.14 45.58 196.14 43.55Q196.14 41.60 195.20 40.12Q194.26 38.65 192.15 37.52Q190.04 36.40 186.43 35.47Q182.54 34.47 180.09 33.13Q177.64 31.79 176.48 29.90Q175.32 28.00 175.32 25.39Q175.32 22.73 176.73 20.69Q178.15 18.65 180.70 17.49Q183.25 16.33 186.65 16.33Q190.23 16.33 193.05 17.41Q195.87 18.48 197.83 20.17L197.83 26.51L195.41 26.51L195.04 21.48Q193.51 20.24 191.41 19.53Q189.31 18.82 186.65 18.82Q184.03 18.82 182.15 19.69Q180.27 20.56 179.26 22.02Q178.25 23.49 178.25 25.34Q178.25 27.12 179.05 28.48Q179.86 29.83 181.84 30.87Q183.81 31.91 187.38 32.86Q193.16 34.35 196.12 36.88Q199.07 39.40 199.07 43.51Q199.07 46.34 197.52 48.45Q195.97 50.56 193.21 51.73Q190.45 52.91 186.84 52.91ZM203.22 52.39L203.22 50.27L207.20 49.95L207.20 16.77L203.22 16.46L203.22 14.31L210.13 14.31L210.13 49.95L214.11 50.27L214.11 52.39L203.22 52.39ZM226.66 52.91Q222.90 52.91 220.78 50.90Q218.65 48.90 218.65 45.48Q218.65 41.82 221.77 39.56Q224.88 37.30 230.25 37.30L235.72 37.30L235.72 34.28Q235.72 31.42 234.02 29.68Q232.32 27.93 228.91 27.93Q226.98 27.93 225.45 28.55Q223.93 29.17 222.80 30.13L222.56 34.16L220.14 34.16L220.14 28.64Q221.85 27.17 224.02 26.33Q226.20 25.49 228.96 25.49Q233.62 25.49 236.13 27.83Q238.65 30.18 238.65 34.33L238.65 47.07Q238.65 47.85 238.70 48.62Q238.75 49.39 238.87 50.15L242.02 50.27L242.02 52.39L236.25 52.39Q235.96 50.95 235.85 50.07Q235.74 49.19 235.72 48.10Q234.28 50.22 231.91 51.56Q229.54 52.91 226.66 52.91M227.00 50.34Q229.71 50.34 232.14 48.91Q234.57 47.49 235.72 45.12L235.72 39.55L230.22 39.55Q226.17 39.55 223.88 41.30Q221.58 43.04 221.58 45.58Q221.58 47.71 223.05 49.02Q224.51 50.34 227.00 50.34ZM258.74 52.91Q255.83 52.91 253.72 51.76Q251.61 50.61 250.32 48.56L250.02 52.39L247.51 52.39L247.51 16.77L243.53 16.46L243.53 14.31L250.44 14.31L250.44 30.00Q251.73 27.88 253.80 26.68Q255.86 25.49 258.69 25.49Q261.89 25.49 264.15 27.21Q266.41 28.93 267.61 32.06Q268.82 35.18 268.82 39.40L268.82 39.92Q268.82 43.85 267.61 46.77Q266.41 49.68 264.15 51.29Q261.89 52.91 258.74 52.91M258.18 50.39Q261.99 50.39 263.93 47.55Q265.87 44.70 265.87 39.92L265.87 39.40Q265.87 36.01 265.00 33.45Q264.14 30.88 262.41 29.44Q260.69 28.00 258.13 28.00Q255.03 28.00 253.19 29.55Q251.34 31.10 250.44 33.47L250.44 45.39Q251.37 47.68 253.32 49.04Q255.27 50.39 258.18 50.39Z"/></g></g></svg>