<svg xmlns="http://www.w3.org/2000/svg" viewBox="0 28.65999984741211 323.67999267578125 64.69999694824219" data-asc="1.5849609375" width="323.67999267578125" height="64.69999694824219"><defs/><g><g fill="#000000"><g transform="translate(0, 0)"><path d="M74.41 81.25Q74.32 82.23 73.73 82.79Q73.14 83.35 72.22 83.35Q71.73 83.35 71.29 83.20Q70.36 83.94 69.09 84.33Q67.82 84.72 66.70 85.11Q65.33 85.06 64.01 84.86Q62.70 84.67 61.28 84.77Q60.79 84.42 60.25 84.33Q59.72 84.23 59.16 84.20Q58.59 84.18 58.08 84.03Q57.57 83.89 57.08 83.35L54.64 83.35Q54.30 83.35 53.64 83.03Q52.98 82.71 52.17 82.37Q51.37 82.03 50.46 81.74Q49.56 81.45 48.78 81.45L48.49 81.45Q47.95 81.01 47.24 80.79Q46.53 80.57 45.80 80.40Q45.07 80.22 44.38 80.03Q43.70 79.83 43.21 79.49Q42.72 79.15 42.09 78.78Q41.46 78.42 40.77 78.47Q39.84 77.93 38.84 77.54Q37.84 77.15 36.82 76.81L34.81 76.07Q33.84 75.68 32.86 75.15Q32.71 75.20 32.52 75.15Q32.32 75.10 32.18 75.10Q31.88 75.10 31.84 75.29Q31.49 74.95 31.08 74.71Q30.66 74.46 30.27 74.12Q30.08 74.17 29.91 74.19Q29.74 74.22 29.49 74.22Q29.05 74.22 28.64 74.12Q28.22 74.02 27.83 73.88Q27.39 74.85 27.25 76.07Q27.10 77.29 27.03 78.59Q26.95 79.88 26.86 81.18Q26.76 82.47 26.42 83.54Q26.51 83.94 26.51 84.33L26.51 85.16Q26.51 85.99 26.76 86.47Q26.66 86.91 26.59 87.30Q26.51 87.70 26.42 88.09Q26.46 88.62 26.49 89.09Q26.51 89.55 26.51 90.09L26.51 90.92Q26.51 91.36 26.42 91.80Q25.93 92.09 25.44 92.36Q24.95 92.63 24.46 93.02Q24.12 92.38 23.29 92.29Q23.10 92.53 23.02 92.94Q22.95 93.36 22.56 93.36Q21.88 92.82 21.44 92.48Q21.00 92.14 20.46 91.46Q20.41 91.36 20.41 91.21Q20.41 90.97 20.51 90.77Q20.61 90.58 20.61 90.38Q20.61 89.79 20.46 89.36Q20.36 88.72 20.31 88.11Q20.26 87.50 20.26 86.91Q20.26 86.08 20.39 85.30Q20.51 84.52 20.85 83.69Q21.39 82.28 21.61 80.71Q21.83 79.15 21.92 77.56Q22.02 75.98 22.05 74.37Q22.07 72.75 22.22 71.29Q21.88 70.51 21.41 70.04Q20.95 69.58 20.95 68.55Q20.95 67.63 21.53 67.11Q22.12 66.60 22.56 65.87Q22.46 65.58 22.71 65.48L23.29 60.35Q23.34 59.81 23.46 59.18Q23.58 58.54 23.63 58.01Q23.73 56.88 23.73 55.81Q23.73 54.74 23.83 53.66Q24.07 51.27 24.29 48.93Q24.51 46.58 24.51 44.24Q24.51 43.12 24.44 41.99Q24.37 40.87 24.12 39.75Q23.29 39.99 22.29 40.26Q21.29 40.53 20.61 41.16L20.21 41.16Q18.95 41.16 17.85 41.65Q16.75 42.14 15.63 42.58Q15.14 42.82 14.65 42.90Q14.16 42.97 13.62 43.12Q13.38 43.16 13.09 43.41Q12.79 43.65 12.55 43.75L11.72 43.95Q11.38 44.04 11.43 44.38Q11.47 44.73 11.18 44.82Q10.94 45.07 10.50 45.04Q10.06 45.02 9.81 45.02L9.62 45.02Q8.40 45.90 7.25 46.51Q6.10 47.12 4.54 47.31L3.47 48.00Q2.93 48.34 2.25 48.34Q1.71 48.34 1.37 48.14Q0.98 47.56 0.76 46.83Q0.54 46.09 0 45.56Q0.24 45.31 0.32 44.90Q0.39 44.48 0.49 44.14Q1.95 43.51 3.44 42.92Q4.93 42.33 6.30 41.50Q6.45 41.55 6.74 41.55Q7.23 41.55 7.62 41.41Q8.01 41.26 8.40 41.06Q8.79 40.87 9.18 40.72Q9.57 40.58 10.11 40.63Q11.77 39.70 13.62 39.11Q15.48 38.53 17.14 37.50Q17.38 37.50 17.55 37.60Q17.72 37.70 17.92 37.70Q18.12 37.70 18.16 37.65Q18.46 37.26 18.95 37.08Q19.43 36.91 19.95 36.79Q20.46 36.67 20.92 36.45Q21.39 36.23 21.53 35.74Q21.78 35.94 22.27 35.94Q23.10 35.94 23.80 35.60Q24.51 35.25 25.34 35.25Q25.54 35.25 25.71 35.33Q25.88 35.40 26.07 35.40Q26.46 35.40 26.49 35.16Q26.51 34.91 26.76 34.72Q29.74 34.18 32.69 33.74Q35.64 33.30 38.67 33.30Q39.11 33.01 39.65 33.01Q40.19 33.01 40.63 33.30Q41.46 33.20 42.29 33.15Q43.12 33.11 43.95 33.11Q45.85 33.11 47.85 33.35Q49.85 33.59 51.83 34.11Q53.81 34.62 55.62 35.47Q57.42 36.33 58.98 37.50Q59.13 37.94 59.38 38.38Q59.62 38.82 60.01 39.06Q60.01 39.16 59.99 39.21Q59.96 39.26 59.96 39.36Q59.96 39.89 60.28 40.38Q60.60 40.87 60.60 41.55Q60.60 42.24 60.38 42.92Q60.16 43.60 60.21 44.29Q59.67 45.07 59.30 45.70Q58.94 46.34 58.84 47.31Q57.96 48.19 57.28 49.24Q56.59 50.29 55.88 51.29Q55.18 52.29 54.30 53.13Q53.42 53.96 52.20 54.44Q52.15 54.93 51.81 55.52L50.78 55.52Q50.63 55.91 50.29 56.10L49.61 56.49Q49.27 56.69 49.05 56.98Q48.83 57.28 48.83 57.81Q48.73 57.76 48.58 57.76Q48.10 57.76 47.44 58.25Q46.78 58.74 46.39 59.03Q45.56 59.62 44.70 60.11Q43.85 60.60 43.21 61.47Q41.26 62.30 39.50 63.40Q37.74 64.50 35.69 65.14Q34.91 65.97 33.86 66.43Q32.81 66.89 31.84 67.43L31.84 67.58Q31.84 67.97 32.13 68.33Q32.42 68.70 32.81 68.97Q33.20 69.24 33.67 69.34Q34.13 69.43 34.47 69.34Q35.45 70.21 36.72 70.75Q37.99 71.29 39.36 71.73Q40.72 72.17 42.04 72.66Q43.36 73.14 44.48 73.88L45.65 73.88Q46.78 74.85 48.32 75.34Q49.85 75.83 51.27 76.22Q51.86 76.76 52.76 77.03Q53.66 77.29 54.49 77.29L54.79 77.29Q54.98 77.29 55.13 77.25L55.13 77.34Q55.13 77.59 55.27 77.66Q55.42 77.73 55.59 77.76Q55.76 77.78 55.93 77.86Q56.10 77.93 56.20 78.08L56.69 78.08Q57.71 78.08 58.64 78.49Q59.57 78.91 60.60 78.91Q61.04 78.91 61.28 78.81Q61.57 78.91 61.72 79.20Q61.87 79.49 62.11 79.69Q62.45 79.64 62.74 79.61Q63.04 79.59 63.33 79.59Q64.40 79.59 65.33 79.83Q66.26 80.08 67.24 80.57Q68.80 79.88 70.31 79.44Q71.83 79.00 73.54 79.00L73.54 79.10Q73.54 79.69 73.85 80.20Q74.17 80.71 74.41 81.25M55.71 42.29Q55.71 41.70 55.49 41.36Q55.27 41.02 54.93 40.75Q54.59 40.48 54.22 40.23Q53.86 39.99 53.56 39.60Q52.29 39.21 51.07 38.72Q49.85 38.23 48.58 37.89Q47.95 37.74 47.31 37.62Q46.68 37.50 46.04 37.50L44.97 37.50Q44.68 37.45 44.36 37.38Q44.04 37.30 43.75 37.26Q43.07 37.16 42.41 37.11Q41.75 37.06 41.06 37.06Q39.79 37.06 38.53 37.16L35.99 37.35Q35.45 37.40 34.86 37.40Q34.28 37.40 33.79 37.50Q33.54 37.55 33.11 37.72Q32.67 37.89 32.18 38.06Q31.69 38.23 31.23 38.43Q30.76 38.62 30.42 38.72Q30.47 39.06 30.47 39.40L30.47 40.04Q30.47 40.77 30.42 41.50Q30.37 42.24 30.22 42.97Q30.18 43.26 30.08 43.55Q29.98 43.85 29.93 44.14Q29.83 44.58 29.83 45.12L29.83 46.04Q29.74 47.17 29.69 48.24Q29.64 49.32 29.54 50.44Q29.25 53.66 28.93 56.84Q28.61 60.01 28.52 63.23Q30.13 62.89 31.59 62.21Q33.06 61.52 34.47 60.72Q35.89 59.91 37.30 59.13Q38.72 58.35 40.28 57.81Q40.67 57.28 41.24 56.93Q41.80 56.59 42.19 56.05Q42.68 56.05 42.92 55.83Q43.16 55.62 43.55 55.52Q45.90 53.47 48.34 51.66Q50.78 49.85 53.03 47.80Q53.22 47.12 53.69 46.46Q54.15 45.80 54.59 45.12Q55.03 44.43 55.37 43.75Q55.71 43.07 55.71 42.29ZM89.99 50.98Q89.70 51.42 89.65 51.95Q89.60 52.49 89.60 52.93Q89.60 53.52 89.62 54.08Q89.65 54.64 89.65 55.18L89.65 55.91Q89.55 56.25 89.36 56.59Q89.16 56.93 89.06 57.28Q88.38 59.08 88.38 60.89L88.38 60.99Q88.13 61.57 87.92 62.06Q87.70 62.55 87.50 63.01Q87.30 63.48 87.21 63.99Q87.11 64.50 87.16 65.19Q86.47 66.89 85.35 68.29Q84.23 69.68 83.15 71.14Q82.13 71.53 81.27 72.17Q80.42 72.80 79.64 73.58Q78.13 74.07 76.66 74.71Q75.20 75.34 74.02 76.42Q73.10 76.51 72.17 76.71Q71.24 76.90 70.36 77.29L69.78 77.29Q69.34 77.29 69.14 77.10Q68.51 77.44 67.82 77.56Q67.14 77.69 66.46 77.69Q65.58 77.69 64.72 77.56Q63.87 77.44 62.99 77.29Q62.50 76.61 61.62 76.25Q60.74 75.88 60.06 75.54Q58.64 73.58 58.01 71.75Q57.37 69.92 56.69 67.63Q56.79 66.94 57.03 66.28Q57.28 65.63 57.23 64.84Q58.11 62.30 59.55 60.23Q60.99 58.15 62.84 56.25Q62.84 55.96 62.96 55.76Q63.09 55.57 62.99 55.18Q63.04 55.22 63.18 55.22Q63.57 55.22 63.67 55.00Q63.77 54.79 63.72 54.49Q65.48 53.37 66.92 51.90Q68.36 50.44 70.21 49.46Q70.36 49.02 70.70 48.73Q71.04 48.44 71.24 48.05Q72.80 47.61 74.07 46.73Q75.34 45.85 76.76 45.17Q77.54 44.73 78.25 44.56Q78.96 44.38 79.79 44.19Q80.08 44.09 80.32 44.04Q80.57 43.99 80.86 43.99Q81.74 43.99 82.57 44.31Q83.40 44.63 84.28 44.63Q84.52 44.63 84.69 44.60Q84.86 44.58 85.06 44.53Q85.89 45.56 87.16 46.09Q87.45 46.83 87.87 47.36Q88.28 47.90 88.72 48.41Q89.16 48.93 89.53 49.54Q89.89 50.15 89.99 50.98M85.11 53.52Q85.11 53.27 85.06 53.08Q84.57 52.93 84.13 52.69Q83.69 52.44 83.15 52.44Q82.81 52.44 82.47 52.59Q82.42 52.25 82.20 52.10Q81.98 51.95 81.71 51.83Q81.45 51.71 81.18 51.64Q80.91 51.56 80.71 51.37Q80.57 50.98 80.40 50.56Q80.22 50.15 79.79 49.95Q79.35 50.39 78.76 50.66Q78.17 50.93 77.56 51.17Q76.95 51.42 76.39 51.76Q75.83 52.10 75.44 52.59L74.56 52.59Q74.27 53.13 73.73 53.39Q73.19 53.66 72.80 54.15Q72.02 54.54 71.36 55.10Q70.70 55.66 70.07 56.27Q69.43 56.88 68.82 57.52Q68.21 58.15 67.53 58.69Q66.89 60.06 66.14 61.06Q65.38 62.06 64.72 63.09Q64.06 64.11 63.60 65.31Q63.13 66.50 63.13 68.26L63.13 68.75Q63.13 68.99 63.18 69.24Q63.82 69.92 64.23 70.70Q64.65 71.48 65.63 71.83Q66.60 72.22 67.70 72.17Q68.80 72.12 69.82 72.41Q72.17 71.97 74.34 70.97Q76.51 69.97 78.47 68.55Q78.76 68.31 79.15 68.04Q79.54 67.77 79.79 67.48Q80.03 67.24 80.20 66.94Q80.37 66.65 80.57 66.41Q80.96 65.77 81.45 65.14Q81.93 64.50 82.47 63.96Q82.71 62.89 83.11 61.89Q83.50 60.89 83.89 59.91Q84.28 58.94 84.55 57.91Q84.81 56.88 84.81 55.76Q84.81 55.52 84.79 55.22Q84.77 54.93 84.72 54.69Q85.11 54.15 85.11 53.52ZM129.98 70.46Q129.98 70.95 129.71 71.26Q129.44 71.58 129.08 71.83Q128.71 72.07 128.34 72.27Q127.98 72.46 127.69 72.75Q127.49 72.95 127.42 73.22Q127.34 73.49 127.15 73.58Q126.86 73.83 126.51 73.88Q126.17 73.93 125.81 74.00Q125.44 74.07 125.10 74.19Q124.76 74.32 124.51 74.66Q122.22 74.90 120.00 75.29Q117.77 75.68 115.43 75.68Q114.99 75.68 114.48 75.76Q113.96 75.83 113.53 75.88Q112.50 75.98 111.50 76.03Q110.50 76.07 109.47 76.07Q108.06 76.07 106.64 75.95Q105.22 75.83 103.86 75.54Q103.52 75.29 103.08 75.15Q102.64 75 102.17 74.85Q101.71 74.71 101.32 74.51Q100.93 74.32 100.73 73.93Q100 73.88 99.44 73.63Q98.88 73.39 98.41 73.07Q97.95 72.75 97.46 72.41Q96.97 72.07 96.34 71.83Q95.85 71.14 95.34 70.48Q94.82 69.82 94.09 69.38Q93.95 68.46 93.63 67.53Q93.31 66.60 92.99 65.70Q92.68 64.79 92.46 63.87Q92.24 62.94 92.24 61.96Q92.24 61.28 92.43 60.30Q92.63 59.33 92.94 58.33Q93.26 57.32 93.70 56.45Q94.14 55.57 94.58 55.03Q94.73 54.88 94.92 54.79Q95.12 54.69 95.26 54.49Q95.70 54.00 96.19 53.69Q96.68 53.37 97.22 52.93Q97.41 52.73 97.53 52.49Q97.66 52.25 97.90 52.05Q98.05 51.95 98.32 52.00Q98.58 52.05 98.78 51.90Q98.97 51.76 98.97 51.56Q98.97 51.37 99.12 51.22Q99.17 51.17 99.41 51.20Q99.66 51.22 99.71 51.22Q100.05 51.22 100.49 50.76Q100.93 50.29 101.22 50.15Q101.56 49.95 101.90 49.88Q102.25 49.80 102.64 49.61Q103.17 49.32 103.69 49.15Q104.20 48.97 104.74 48.73Q105.03 48.63 105.27 48.39Q105.52 48.14 105.76 48.05Q106.20 47.90 106.71 47.83Q107.23 47.75 107.69 47.68Q108.15 47.61 108.62 47.49Q109.08 47.36 109.47 47.02L109.86 47.02Q110.74 47.02 111.57 46.78Q112.40 46.53 113.28 46.53Q113.53 46.53 114.01 46.63Q114.40 46.39 114.89 46.39Q115.72 46.39 116.55 46.80Q117.38 47.22 118.26 47.22L118.55 47.22Q118.75 47.22 118.95 47.17Q119.48 47.71 120.24 47.75Q121.00 47.80 121.53 48.19Q121.88 48.49 122.09 48.88Q122.31 49.27 122.46 49.71L122.75 50.59Q122.90 51.03 123.14 51.37Q122.90 53.13 121.70 54.17Q120.51 55.22 118.70 55.22Q118.02 55.22 117.55 55.05Q117.09 54.88 116.72 54.69Q116.36 54.49 115.97 54.30Q115.58 54.10 115.09 54.00Q115.63 53.03 115.77 51.90Q115.23 51.66 114.70 51.56Q114.16 51.46 113.67 51.22Q112.35 51.56 111.11 51.68Q109.86 51.81 108.79 52.73Q108.54 52.69 108.28 52.64Q108.01 52.59 107.76 52.59Q107.47 52.59 106.59 53.00Q105.71 53.42 104.71 53.96Q103.71 54.49 102.81 55.03Q101.90 55.57 101.56 55.76Q101.17 56.01 100.88 56.35Q100.59 56.69 100.29 57.06Q100 57.42 99.71 57.74Q99.41 58.06 98.97 58.20Q98.88 58.74 98.63 59.13Q98.39 59.52 98.10 59.96Q98.05 60.84 97.92 61.72Q97.80 62.60 97.80 63.48L97.80 64.11Q97.80 64.40 97.90 64.65Q98.39 65.28 98.71 66.06Q99.02 66.85 99.80 67.14Q99.85 67.33 99.78 67.38Q99.71 67.43 99.66 67.63Q99.95 68.16 100.42 68.48Q100.88 68.80 101.37 69.12Q101.86 69.43 102.29 69.78Q102.73 70.12 102.98 70.65Q103.71 70.65 104.37 70.90Q105.03 71.14 105.64 71.44Q106.25 71.73 106.81 71.97Q107.37 72.22 107.96 72.22Q108.50 72.22 108.94 72.07Q110.21 72.46 111.50 72.63Q112.79 72.80 114.11 72.80Q115.72 72.80 117.33 72.61Q118.95 72.41 120.56 72.27Q121.14 72.17 121.68 72.17Q122.22 72.17 122.75 72.07Q123.44 71.97 124.05 71.44Q124.66 70.90 125.24 70.65Q125.78 71.00 126.51 71.00Q127.34 71.00 128.13 70.73Q128.91 70.46 129.74 70.46L129.98 70.46ZM168.21 76.76Q168.21 77.15 167.87 77.39Q167.53 77.64 167.09 77.88L166.21 78.32Q165.77 78.52 165.63 78.86Q165.09 78.71 164.58 78.66Q164.06 78.61 163.57 78.61Q162.94 78.61 162.26 78.74Q161.57 78.86 161.18 79.39Q160.94 79.30 160.74 79.30L160.35 79.30Q159.62 79.30 158.86 79.42Q158.11 79.54 157.37 79.54Q156.98 79.54 156.62 79.49Q156.25 79.44 155.96 79.20Q155.52 79.35 155.03 79.35Q154.39 79.35 153.81 79.15Q153.22 78.96 152.66 78.69Q152.10 78.42 151.51 78.17Q150.93 77.93 150.34 77.78L150 77.10Q149.22 76.95 148.56 76.64Q147.90 76.32 147.27 75.93Q146.63 75.54 146.02 75.17Q145.41 74.80 144.78 74.66Q144.53 74.46 144.34 74.29Q144.14 74.12 144.04 73.78Q143.41 73.63 142.87 73.39L141.85 72.85Q141.36 72.56 140.75 72.34Q140.14 72.12 139.31 72.07Q139.01 71.63 138.48 71.24Q137.94 70.85 137.40 70.85Q137.06 70.85 136.87 71.00L136.87 71.24Q136.87 71.83 137.21 72.41Q137.55 73.00 138.09 73.24Q138.04 73.34 138.04 73.54Q138.04 73.83 138.16 74.12Q138.28 74.41 138.62 74.51Q138.43 75.05 138.13 75.61Q137.84 76.17 137.40 76.66Q136.96 77.15 136.45 77.47Q135.94 77.78 135.30 77.78Q135.11 77.88 135.03 78.08Q134.96 78.27 134.94 78.49Q134.91 78.71 134.84 78.91Q134.77 79.10 134.62 79.20Q134.42 79.25 134.08 79.25Q133.59 79.25 133.25 79.10Q132.91 78.96 132.52 78.71L132.52 78.52Q132.52 77.93 132.30 77.59Q132.08 77.25 131.81 76.93Q131.54 76.61 131.32 76.27Q131.10 75.93 131.10 75.34Q130.96 75.44 130.79 75.49Q130.62 75.54 130.57 75.68Q130.47 75.20 130.47 74.85Q130.47 73.88 130.79 73.00Q131.10 72.12 131.10 71.14L131.10 70.41Q131.10 69.29 131.05 68.21Q131.01 67.14 131.01 66.06Q131.01 65.14 131.05 64.23Q131.10 63.33 131.25 62.40Q131.79 59.18 132.15 55.98Q132.52 52.78 133.35 49.61Q133.30 49.37 133.23 49.12Q133.15 48.88 133.15 48.63Q133.15 48.44 133.20 48.39Q133.40 47.41 134.08 46.75Q134.77 46.09 135.84 46.09L135.99 46.09Q136.57 46.34 136.89 46.80Q137.21 47.27 137.89 47.17Q137.89 47.27 137.87 47.36Q137.84 47.46 137.84 47.56Q137.84 48.10 138.13 48.34Q138.43 48.58 138.82 48.88Q138.57 49.37 138.50 50Q138.43 50.63 138.38 51.27Q138.33 51.90 138.21 52.49Q138.09 53.08 137.74 53.47Q137.94 53.96 137.99 54.44Q138.04 54.93 138.04 55.47Q138.04 56.01 137.99 56.57Q137.94 57.13 137.94 57.71Q137.94 58.25 138.09 58.69Q139.16 58.69 139.31 57.67Q140.58 57.32 141.58 56.71Q142.58 56.10 143.51 55.42Q144.43 54.74 145.34 54.00Q146.24 53.27 147.36 52.73L147.36 52.64Q147.36 52.39 147.51 52.32Q147.66 52.25 147.56 51.90Q148.29 51.66 148.80 51.25Q149.32 50.83 149.76 50.34L150.68 49.32Q151.17 48.78 151.76 48.39Q152.15 47.56 152.47 46.63Q152.78 45.70 153.32 44.92Q154.25 44.92 155.35 45.07Q156.45 45.21 157.23 45.75Q157.13 46.14 157.57 46.29Q157.03 48.34 155.96 49.98Q154.88 51.61 153.17 52.73Q152.93 53.27 152.54 53.66Q152.15 54.05 151.76 54.42Q151.37 54.79 150.98 55.18Q150.59 55.57 150.34 56.10Q149.76 56.20 149.34 56.45Q148.93 56.69 148.56 57.01Q148.19 57.32 147.78 57.59Q147.36 57.86 146.88 58.01Q146.48 58.50 145.97 58.84Q145.46 59.18 144.95 59.50Q144.43 59.81 143.99 60.18Q143.55 60.55 143.36 61.13L142.09 61.13Q141.55 62.06 140.70 62.67Q139.84 63.28 138.96 63.82Q139.11 64.40 139.50 64.77Q139.89 65.14 140.36 65.43Q140.82 65.72 141.28 66.04Q141.75 66.36 142.09 66.80Q144.14 67.58 146.04 68.58Q147.95 69.58 149.66 71.00Q149.76 70.95 149.90 70.95Q150.29 70.95 150.54 71.17Q150.78 71.39 151.22 71.34Q151.42 71.83 151.76 72.00Q152.10 72.17 152.47 72.27Q152.83 72.36 153.17 72.56Q153.52 72.75 153.66 73.24Q154.39 73.29 155.00 73.54Q155.62 73.78 156.10 74.32L156.69 74.32Q158.25 74.32 159.72 74.61Q161.18 74.90 162.70 74.90Q163.48 74.90 164.21 74.78Q164.94 74.66 165.63 74.32Q165.87 74.46 166.16 74.61Q166.46 74.76 166.80 74.76Q167.04 74.76 167.53 74.66Q167.58 75.20 167.90 75.68Q168.21 76.17 168.21 76.76ZM220.80 77.44Q220.80 77.93 220.75 78.17Q220.51 78.27 220.36 78.44Q220.21 78.61 219.87 78.56Q219.78 79.30 219.38 79.79Q218.99 80.27 218.58 80.69Q218.16 81.10 217.77 81.57Q217.38 82.03 217.29 82.76Q216.55 83.15 215.84 83.81Q215.14 84.47 214.60 84.72Q214.21 84.91 213.77 85.03Q213.33 85.16 212.89 85.35Q211.47 85.99 209.99 86.67Q208.50 87.35 206.88 87.35L206.54 87.35Q206.35 87.55 206.05 87.62Q205.76 87.70 205.47 87.74Q205.18 87.79 204.88 87.89Q204.59 87.99 204.44 88.18Q203.91 87.99 203.27 87.99L202.93 87.99Q202.10 88.18 201.37 88.28Q200.63 88.38 199.80 88.38Q198.34 88.38 196.88 88.18Q195.41 87.99 193.95 87.84Q193.02 87.11 192.43 86.01Q191.85 84.91 191.85 83.69Q191.85 82.76 192.24 81.96Q192.63 81.15 193.26 80.52L193.41 80.52Q193.85 80.52 194.31 80.32Q194.78 80.13 195.21 80.13Q195.70 80.13 196.02 80.52Q196.34 80.91 196.51 81.45Q196.68 81.98 196.73 82.54Q196.78 83.11 196.78 83.45Q197.31 83.69 197.92 83.74Q198.54 83.79 199.17 83.79Q199.80 83.79 200.59 83.72Q201.37 83.64 202.17 83.47Q202.98 83.30 203.74 83.06Q204.49 82.81 205.03 82.42Q207.71 82.18 209.77 81.20Q211.82 80.22 214.11 78.91Q214.21 78.37 214.53 78.05Q214.84 77.73 214.84 77.10Q214.84 77.00 214.82 76.88Q214.79 76.76 214.79 76.66Q213.82 75.44 212.77 74.51Q211.72 73.58 210.06 73.29Q209.86 72.85 209.42 72.63Q208.98 72.41 208.50 72.22Q208.01 72.02 207.57 71.80Q207.13 71.58 206.93 71.04Q205.62 70.80 204.22 70.43Q202.83 70.07 201.86 69.09Q201.07 69.04 200.37 68.77Q199.66 68.51 198.97 68.24Q198.29 67.97 197.56 67.75Q196.83 67.53 196.04 67.53Q195.85 67.19 195.51 66.99Q195.17 66.80 194.75 66.65Q194.34 66.50 193.97 66.33Q193.60 66.16 193.41 65.82Q193.21 65.87 193.12 66.02Q193.02 66.16 192.77 66.16L192.58 66.16Q192.48 65.87 192.19 65.75Q191.89 65.63 191.85 65.23Q190.97 65.19 190.26 64.89Q189.55 64.60 188.94 64.23Q188.33 63.87 187.70 63.53Q187.06 63.18 186.28 62.99Q185.79 62.60 185.38 62.13Q184.96 61.67 184.33 61.67Q184.18 61.67 183.79 61.77Q183.69 60.89 183.06 60.52Q182.42 60.16 181.69 59.86Q181.20 58.59 180.37 57.62Q179.54 56.64 178.56 55.81Q178.66 55.52 178.66 55.37Q178.66 54.88 178.42 54.52Q178.17 54.15 177.88 53.91Q177.20 51.71 177.20 49.61Q177.20 46.68 178.49 44.17Q179.79 41.65 182.57 40.38Q182.62 39.99 182.84 39.70Q183.06 39.40 183.11 39.01Q183.54 39.01 183.79 38.82Q184.03 38.62 184.25 38.40Q184.47 38.18 184.72 37.99Q184.96 37.79 185.35 37.74Q187.21 36.13 189.31 35.13Q191.41 34.13 193.60 33.06Q194.04 32.86 194.34 32.32L194.63 32.32Q195.12 32.32 195.39 32.10Q195.65 31.88 196.19 31.98Q196.39 31.69 196.70 31.59Q197.02 31.49 197.34 31.42Q197.66 31.35 197.95 31.20Q198.24 31.05 198.34 30.76L198.68 30.76Q199.51 30.76 200.29 30.49Q201.07 30.22 201.86 29.88L202.20 29.88Q203.17 29.88 204.03 29.52Q204.88 29.15 205.86 29.00Q206.25 28.91 206.64 28.96Q207.03 29.00 207.42 29.00Q207.67 29.00 208.01 28.96Q208.35 28.91 208.50 28.66L208.59 28.66Q208.89 28.66 208.94 28.86Q208.98 29.05 209.23 29.05Q209.57 29.05 209.91 28.96Q210.25 28.86 210.60 28.86Q212.06 28.86 213.50 29.15Q214.94 29.44 216.36 29.69Q216.46 30.27 216.87 30.52Q217.29 30.76 217.77 30.96L217.77 31.15Q217.77 31.54 217.97 31.79Q217.77 32.47 217.29 32.81Q216.80 33.15 216.21 33.40Q216.46 33.59 216.50 33.94Q216.55 34.28 216.55 34.57L216.55 35.16L216.31 35.11Q215.53 35.11 215.53 35.84Q214.89 35.45 214.14 35.35Q213.38 35.25 212.65 35.25Q211.67 35.25 210.60 35.33Q209.52 35.40 208.50 35.30Q208.11 35.79 207.52 36.01Q206.93 36.23 206.35 36.23Q205.71 36.23 205.13 35.96Q204.54 35.69 204.30 35.16Q204.05 35.06 203.86 35.06L203.42 35.06Q202.64 35.06 201.88 35.23Q201.12 35.40 200.34 35.62Q199.56 35.84 198.80 36.06Q198.05 36.28 197.27 36.33Q196.97 36.72 196.48 36.87Q196.00 37.01 195.70 37.40Q194.68 37.60 193.85 38.06Q193.02 38.53 192.24 39.06L190.72 40.09Q189.99 40.58 189.06 40.92Q188.38 41.65 187.79 42.09Q187.21 42.53 186.28 42.87Q185.69 43.07 185.62 43.46Q185.55 43.85 185.21 44.24Q184.91 44.58 184.50 44.75Q184.08 44.92 183.79 45.31Q183.54 45.65 183.42 46.12Q183.30 46.58 183.15 47.02Q183.01 47.46 182.81 47.88Q182.62 48.29 182.23 48.58Q182.23 48.78 182.20 48.97Q182.18 49.17 182.18 49.32Q182.18 50 182.35 50.71Q182.52 51.42 182.57 52.10Q183.54 53.81 184.86 55.20Q186.18 56.59 187.70 57.76Q189.21 58.94 190.84 59.96Q192.48 60.99 194.09 61.96Q194.68 61.91 195.17 62.08Q195.65 62.26 196.19 62.30Q196.78 62.74 197.56 62.99L199.12 63.48Q199.90 63.72 200.63 64.04Q201.37 64.36 201.86 64.89Q202.10 64.94 202.29 65.01Q202.49 65.09 202.73 65.09Q203.03 65.09 203.08 64.89Q205.27 65.72 207.37 66.72Q209.47 67.72 211.82 68.26Q212.74 69.04 213.87 69.63Q214.99 70.21 216.11 70.83Q217.24 71.44 218.26 72.14Q219.29 72.85 220.07 73.83Q220.17 74.76 220.48 75.61Q220.80 76.46 220.80 77.44ZM259.77 75.68Q259.62 76.37 259.16 76.78Q258.69 77.20 258.06 77.44Q257.42 77.69 256.76 77.76Q256.10 77.83 255.57 77.83Q255.32 77.83 255.10 77.81Q254.88 77.78 254.64 77.78Q254.39 77.78 254.39 78.03Q254.39 78.27 254.15 78.37Q253.91 78.27 253.66 78.22Q253.42 78.17 253.17 78.17Q252.83 78.17 252.51 78.22Q252.20 78.27 251.90 78.27Q251.51 78.27 251.34 78.17Q251.17 78.08 251.05 77.95Q250.93 77.83 250.81 77.69Q250.68 77.54 250.44 77.44Q250.10 77.29 249.88 77.39Q249.66 77.49 249.22 77.10Q248.63 76.61 248.22 75.90Q247.80 75.20 247.41 74.41Q247.02 73.63 246.58 72.85Q246.14 72.07 245.56 71.48L245.17 71.48Q244.29 71.48 243.95 72.22Q243.70 72.07 243.46 71.85Q243.21 71.63 242.92 71.48Q241.80 71.83 240.58 72.07Q239.36 72.31 238.13 72.31L237.45 72.31Q237.16 72.31 236.82 72.22Q236.33 72.41 235.94 72.68Q235.55 72.95 235.06 72.95Q234.77 72.95 234.38 72.75Q234.08 72.75 234.11 73.00Q234.13 73.24 233.79 73.24L233.35 73.24Q232.67 73.24 232.01 73.29Q231.35 73.34 230.66 73.34Q229.74 73.34 228.76 73.10Q228.52 73.24 228.22 73.24Q228.03 73.34 227.93 73.56Q227.83 73.78 227.73 73.95Q227.64 74.12 227.47 74.24Q227.29 74.37 227.00 74.32Q226.90 74.90 226.51 75.24Q226.12 75.59 226.12 76.27Q225.59 76.56 225.24 77.00Q224.90 77.44 224.56 77.93Q224.22 78.42 223.85 78.86Q223.49 79.30 222.95 79.54Q222.71 79.83 222.80 80.47Q222.27 80.91 221.48 81.25Q220.70 81.59 220.02 81.59Q218.60 81.59 218.07 80.08Q218.07 79.59 218.14 79.03Q218.21 78.47 218.36 77.95Q218.51 77.44 218.80 77.03Q219.09 76.61 219.63 76.42Q219.63 75.98 219.34 75.81Q219.04 75.63 219.09 75.20Q220.41 74.56 221.39 73.54Q222.36 72.51 223.17 71.36Q223.97 70.21 224.80 69.04Q225.63 67.87 226.66 66.94L226.66 65.92Q228.13 64.36 228.56 62.40Q229.10 62.30 229.27 61.91Q229.44 61.52 229.44 60.99Q229.69 60.99 229.76 60.77Q229.83 60.55 230.18 60.64Q230.62 59.47 231.15 58.50Q231.69 57.52 232.23 56.52Q232.76 55.52 233.18 54.44Q233.59 53.37 233.79 52.05Q234.47 52.00 234.55 51.39Q234.62 50.78 234.72 50.29Q235.45 49.61 235.82 48.68Q236.18 47.75 236.47 46.75Q236.77 45.75 237.13 44.75Q237.50 43.75 238.18 42.97L238.18 42.82Q238.18 42.58 237.99 42.50Q237.79 42.43 237.79 42.19Q237.84 42.14 237.84 42.09Q238.43 41.85 238.72 41.28Q239.01 40.72 239.60 40.48Q240.63 41.31 241.41 41.48Q242.19 41.65 243.46 41.75Q244.09 42.43 244.17 43.38Q244.24 44.34 244.48 45.26Q244.87 46.83 245.34 48.32Q245.80 49.80 246.04 51.37Q246.19 52.29 246.58 53.13Q246.97 53.96 247.12 54.83Q247.22 55.52 247.12 56.37Q247.02 57.23 247.31 57.86L247.66 58.64Q247.90 59.18 248.07 59.77Q248.24 60.35 248.39 60.94Q248.78 62.40 249.10 64.09Q249.41 65.77 250.10 67.14Q250.34 67.63 250.85 67.82Q251.37 68.02 252.00 68.09Q252.64 68.16 253.25 68.14Q253.86 68.12 254.30 68.12L254.79 68.12Q255.08 68.12 255.37 68.21Q255.57 68.60 255.57 68.90Q255.57 69.48 255.18 69.82Q254.79 70.17 254.79 70.61Q254.79 70.85 254.98 71.14Q254.79 71.09 254.39 71.09Q253.27 71.09 252.20 71.48Q252.59 72.31 253.25 72.88Q253.91 73.44 254.64 73.93Q255.13 73.54 255.66 73.54Q256.25 73.54 256.76 73.80Q257.28 74.07 257.86 74.07Q258.30 74.07 258.50 73.93Q258.89 74.37 259.13 74.83Q259.38 75.29 259.77 75.68M244.48 67.87Q244.38 67.04 244.17 66.67Q243.95 66.31 243.80 65.77Q243.60 65.09 243.53 64.31Q243.46 63.53 243.31 62.79Q242.97 61.13 242.55 59.47Q242.14 57.81 241.50 56.25Q241.70 55.96 241.70 55.71L241.70 55.57Q241.26 55.08 241.06 54.37Q240.87 53.66 240.70 52.95Q240.53 52.25 240.26 51.64Q239.99 51.03 239.40 50.63Q239.26 50.93 239.26 51.32Q239.26 51.66 239.33 51.95Q239.40 52.25 239.40 52.59Q238.92 52.83 238.70 53.34Q238.48 53.86 237.99 54.15Q237.60 55.71 236.87 57.10Q236.13 58.50 235.33 59.86Q234.52 61.23 233.79 62.62Q233.06 64.01 232.62 65.53Q231.98 65.97 231.76 66.65Q231.54 67.33 231.54 68.02Q231.98 68.26 232.54 68.29Q233.11 68.31 233.64 68.31Q234.18 68.31 234.67 68.41Q235.16 68.51 235.55 68.90Q236.18 68.70 236.94 68.63Q237.70 68.55 238.18 68.21Q239.16 68.55 240.28 68.55Q240.87 68.55 241.43 68.46Q241.99 68.36 242.53 68.21Q242.97 68.31 243.21 68.53Q243.46 68.75 243.95 68.70Q244.19 68.51 244.24 68.29Q244.29 68.07 244.48 67.87ZM285.99 66.70Q285.99 67.24 285.60 67.50Q285.21 67.77 285.21 68.21Q285.21 68.41 285.40 68.70Q284.72 68.70 284.47 69.14Q284.23 69.58 283.98 70.12L283.35 70.12Q283.11 70.12 282.96 70.21Q282.81 70.31 282.69 70.48Q282.57 70.65 282.37 71.00Q281.45 71.19 280.59 71.61Q279.74 72.02 278.93 72.49Q278.13 72.95 277.29 73.41Q276.46 73.88 275.59 74.17Q275.15 74.90 274.32 75.34L274.17 75.34Q273.93 75.39 273.75 75.27Q273.58 75.15 273.34 75.15Q273.19 75.15 273.14 75.20Q271.68 76.17 269.87 76.17Q269.38 76.17 268.95 76.10Q268.51 76.03 268.02 76.03Q267.87 76.03 267.82 76.12L267.72 76.32Q267.68 76.42 267.60 76.51Q267.53 76.61 267.24 76.61Q266.70 76.61 266.16 76.46Q265.63 76.32 265.04 76.42Q263.92 75.78 263.28 75.20Q262.65 74.61 262.11 73.44Q261.87 72.90 261.45 72.41Q261.04 71.92 260.84 71.34Q260.79 71.14 260.69 70.63Q260.60 70.12 260.50 69.53Q260.40 68.95 260.33 68.41Q260.25 67.87 260.25 67.68Q260.25 67.09 260.33 66.53Q260.40 65.97 260.50 65.38Q260.79 63.53 260.91 61.65Q261.04 59.77 261.72 58.01Q261.62 57.47 261.62 56.98L261.62 55.91Q261.62 54.98 261.38 54.35Q261.77 53.71 261.77 52.93Q261.77 52.05 261.04 51.90L261.04 51.76Q261.04 50.73 260.35 50.15Q260.35 48.44 261.21 47.58Q262.06 46.73 263.48 46.09Q263.67 45.80 263.62 45.61Q263.96 45.70 264.26 45.80Q264.55 45.90 264.84 45.90Q265.33 45.90 265.72 45.75Q265.87 46.34 266.48 46.46Q267.09 46.58 267.48 46.78L267.48 47.41Q267.48 48.93 268.21 50.29Q268.02 50.68 267.97 51.12Q267.92 51.56 267.92 51.95Q267.92 52.54 267.97 53.13Q268.02 53.71 268.02 54.25Q268.02 54.83 267.90 55.42Q267.77 56.01 267.33 56.45Q267.29 57.08 267.26 57.89Q267.24 58.69 267.16 59.52Q267.09 60.35 266.89 61.13Q266.70 61.91 266.31 62.40Q266.26 63.13 266.24 63.89Q266.21 64.65 266.21 65.33Q266.21 66.41 266.33 67.87Q266.46 69.34 266.99 70.31Q267.24 70.70 267.94 70.90Q268.65 71.09 269.09 71.09Q269.63 71.09 270.19 70.92Q270.75 70.75 271.00 70.31Q271.29 70.36 271.39 70.61Q271.48 70.85 271.73 71.00Q274.51 69.82 277.29 68.75Q280.08 67.68 282.76 66.26Q283.15 66.46 283.59 66.46Q284.08 66.46 284.57 66.36Q285.06 66.26 285.55 66.26L285.89 66.26Q285.99 66.55 285.99 66.70ZM323.68 47.85Q323.49 48.49 323.05 49.02L322.22 50.05Q321.83 50.54 321.56 51.10Q321.29 51.66 321.39 52.39Q321.29 52.39 321.14 52.37Q321.00 52.34 320.90 52.34Q320.12 52.34 319.70 52.71Q319.29 53.08 318.60 53.32Q318.51 53.03 318.36 52.76Q318.21 52.49 317.92 52.39Q316.75 52.64 315.58 52.76Q314.40 52.88 313.23 53.08Q312.70 53.17 312.16 53.34Q311.62 53.52 311.04 53.66Q310.74 53.76 310.40 53.74Q310.06 53.71 309.72 53.76Q308.54 53.81 307.18 53.93Q305.81 54.05 304.74 54.69Q304.25 54.59 303.71 54.54Q303.17 54.49 302.64 54.49Q301.46 54.49 300.07 54.71Q298.68 54.93 297.61 55.57Q297.36 55.47 297.09 55.42Q296.83 55.37 296.48 55.37Q296.39 55.37 296.34 55.40Q296.29 55.42 296.19 55.42Q296.14 55.86 296.31 56.27Q296.48 56.69 296.92 56.93Q296.73 57.47 296.73 58.11Q296.73 58.94 296.85 59.77Q296.97 60.60 296.97 61.43Q296.97 62.35 296.73 62.89Q297.22 64.36 297.22 66.02Q297.22 66.60 297.14 67.16Q297.07 67.72 297.07 68.36Q297.07 68.90 297.46 69.21Q297.85 69.53 297.85 70.07Q297.85 70.26 297.75 70.46Q298.44 70.31 299.07 70.04Q299.71 69.78 300.39 69.78Q300.78 69.78 301.15 69.92Q301.51 70.07 301.81 70.31Q301.76 70.56 301.73 70.85Q301.71 71.14 301.71 71.44Q301.71 71.97 301.73 72.44Q301.76 72.90 301.81 73.44Q301.42 74.12 300.90 74.66Q300.39 75.20 300.20 76.03Q299.46 76.03 298.90 76.34Q298.34 76.66 297.85 77.03Q297.36 77.39 296.88 77.71Q296.39 78.03 295.80 78.03Q295.07 78.03 294.78 77.81Q294.48 77.59 294.34 77.34Q294.19 77.10 294.07 76.90Q293.95 76.71 293.55 76.76Q293.46 76.12 293.16 75.56Q292.87 75 292.55 74.46Q292.24 73.93 291.92 73.36Q291.60 72.80 291.46 72.22Q291.16 70.95 291.21 69.58Q291.26 68.21 290.77 66.94Q290.87 66.26 290.92 65.55Q290.97 64.84 290.97 64.16Q290.97 62.79 290.89 61.45Q290.82 60.11 290.77 58.69Q290.43 58.25 290.36 57.69Q290.28 57.13 290.23 56.59Q290.09 56.45 289.92 56.30Q289.75 56.15 289.70 55.91Q289.31 55.81 289.11 55.81Q288.43 55.81 287.96 56.13Q287.50 56.45 287.11 56.45Q286.72 56.45 286.38 56.35Q286.04 56.25 285.69 56.25Q285.40 56.25 285.38 56.37Q285.35 56.49 285.16 56.59Q285.01 56.69 284.47 56.79Q283.94 56.88 283.28 56.96Q282.62 57.03 282.01 57.08Q281.40 57.13 281.20 57.13Q280.42 57.13 280.00 56.81Q279.59 56.49 279.00 56.10Q279.10 55.81 279.10 55.71Q279.10 55.22 278.81 54.91Q278.52 54.59 278.52 54.35Q278.52 53.81 278.93 53.52Q279.35 53.22 279.39 52.59Q280.52 52.10 281.69 51.86Q282.86 51.61 284.08 51.46Q285.30 51.32 286.50 51.12Q287.70 50.93 288.87 50.49Q289.21 50.54 289.53 50.56Q289.84 50.59 290.19 50.59Q291.65 50.59 293.09 50.27Q294.53 49.95 296.04 49.95Q296.44 49.95 296.83 50Q297.22 50.05 297.61 50.15Q299.56 49.85 301.49 49.51Q303.42 49.17 305.47 48.93Q306.45 48.83 307.40 48.75Q308.35 48.68 309.33 48.54Q309.67 48.49 309.84 48.36Q310.01 48.24 310.01 47.85Q310.45 48.05 310.99 48.05Q311.82 48.05 312.60 47.75Q313.38 47.46 314.21 47.46Q314.40 47.46 314.55 47.49Q314.70 47.51 314.84 47.51Q315.19 47.51 315.21 47.19Q315.23 46.88 315.67 46.78Q316.02 46.68 316.65 46.63Q317.29 46.58 317.99 46.51Q318.70 46.44 319.31 46.31Q319.92 46.19 320.21 45.95L320.56 45.41Q321.44 45.46 321.85 46.17Q322.27 46.88 322.31 47.71Q322.51 47.90 322.88 47.88Q323.24 47.85 323.54 47.85L323.68 47.85Z"/></g></g></g></svg>