<svg xmlns="http://www.w3.org/2000/svg" viewBox="0 10.850000381469727 125.55000305175781 36.400001525878906" data-asc="0.935" width="125.55000305175781" height="36.400001525878906"><defs/><g><g fill="#000000"><g transform="translate(0, 0)"><path d="M1.15 46.75Q0.60 46.75 0.30 46.42Q0 46.10 0 45.60L0 12.95Q0 12.40 0.30 12.07Q0.60 11.75 1.15 11.75L13.35 11.75Q19 11.75 22.30 14.40Q25.60 17.05 25.60 22.25Q25.60 26.10 23.68 28.52Q21.75 30.95 18.45 31.90L26.15 45.20Q26.30 45.50 26.30 45.75Q26.30 46.15 25.98 46.45Q25.65 46.75 25.25 46.75L22.85 46.75Q22 46.75 21.60 46.30Q21.20 45.85 20.90 45.40L13.65 32.70L4.90 32.70L4.90 45.60Q4.90 46.10 4.58 46.42Q4.25 46.75 3.70 46.75L1.15 46.75M4.90 28.45L13.15 28.45Q16.90 28.45 18.75 26.88Q20.60 25.30 20.60 22.20Q20.60 19.15 18.77 17.55Q16.95 15.95 13.15 15.95L4.90 15.95L4.90 28.45ZM41.80 47.25Q38.60 47.25 36.38 45.83Q34.15 44.40 33 41.85Q31.85 39.30 31.85 36L31.85 21.90Q31.85 21.40 32.17 21.07Q32.50 20.75 33 20.75L35.50 20.75Q36 20.75 36.33 21.07Q36.65 21.40 36.65 21.90L36.65 35.75Q36.65 43.20 43.15 43.20Q46.25 43.20 48.13 41.23Q50 39.25 50 35.75L50 21.90Q50 21.40 50.33 21.07Q50.65 20.75 51.15 20.75L53.65 20.75Q54.15 20.75 54.45 21.07Q54.75 21.40 54.75 21.90L54.75 45.60Q54.75 46.10 54.45 46.42Q54.15 46.75 53.65 46.75L51.30 46.75Q50.80 46.75 50.48 46.42Q50.15 46.10 50.15 45.60L50.15 43.40Q48.80 45.15 46.88 46.20Q44.95 47.25 41.80 47.25ZM75.05 47.25Q72.05 47.25 70.05 46.17Q68.05 45.10 66.85 43.50L66.85 45.60Q66.85 46.10 66.53 46.42Q66.20 46.75 65.70 46.75L63.40 46.75Q62.90 46.75 62.58 46.42Q62.25 46.10 62.25 45.60L62.25 12.40Q62.25 11.90 62.58 11.57Q62.90 11.25 63.40 11.25L65.85 11.25Q66.35 11.25 66.65 11.57Q66.95 11.90 66.95 12.40L66.95 23.90Q68.20 22.35 70.17 21.30Q72.15 20.25 75.05 20.25Q77.85 20.25 79.83 21.22Q81.80 22.20 83.08 23.90Q84.35 25.60 85 27.75Q85.65 29.90 85.75 32.25Q85.80 33.05 85.80 33.75Q85.80 34.45 85.75 35.25Q85.65 37.65 85 39.80Q84.35 41.95 83.08 43.63Q81.80 45.30 79.83 46.27Q77.85 47.25 75.05 47.25M74 43.20Q76.60 43.20 78.08 42.08Q79.55 40.95 80.20 39.13Q80.85 37.30 80.95 35.20Q81 33.75 80.95 32.30Q80.85 30.20 80.20 28.38Q79.55 26.55 78.08 25.42Q76.60 24.30 74 24.30Q71.65 24.30 70.10 25.40Q68.55 26.50 67.78 28.20Q67 29.90 66.95 31.65Q66.90 32.45 66.90 33.58Q66.90 34.70 66.95 35.50Q67.05 37.35 67.78 39.13Q68.50 40.90 70.03 42.05Q71.55 43.20 74 43.20ZM93.10 46.75Q92.60 46.75 92.28 46.42Q91.95 46.10 91.95 45.60L91.95 21.90Q91.95 21.40 92.28 21.07Q92.60 20.75 93.10 20.75L95.50 20.75Q96 20.75 96.33 21.07Q96.65 21.40 96.65 21.90L96.65 45.60Q96.65 46.10 96.33 46.42Q96 46.75 95.50 46.75L93.10 46.75M92.70 15.90Q92.20 15.90 91.88 15.57Q91.55 15.25 91.55 14.75L91.55 12.05Q91.55 11.55 91.88 11.20Q92.20 10.85 92.70 10.85L95.85 10.85Q96.35 10.85 96.70 11.20Q97.05 11.55 97.05 12.05L97.05 14.75Q97.05 15.25 96.70 15.57Q96.35 15.90 95.85 15.90L92.70 15.90ZM105.25 46.75Q104.75 46.75 104.42 46.42Q104.10 46.10 104.10 45.60L104.10 12.40Q104.10 11.90 104.42 11.57Q104.75 11.25 105.25 11.25L107.60 11.25Q108.10 11.25 108.42 11.57Q108.75 11.90 108.75 12.40L108.75 29.80L118.60 21.60Q119.20 21.10 119.52 20.92Q119.85 20.75 120.60 20.75L123.25 20.75Q123.70 20.75 124 21.05Q124.30 21.35 124.30 21.80Q124.30 22 124.17 22.25Q124.05 22.50 123.70 22.75L112.15 32.35L124.95 44.80Q125.55 45.30 125.55 45.70Q125.55 46.15 125.25 46.45Q124.95 46.75 124.50 46.75L121.90 46.75Q121.15 46.75 120.80 46.58Q120.45 46.40 119.90 45.90L108.75 35.25L108.75 45.60Q108.75 46.10 108.42 46.42Q108.10 46.75 107.60 46.75L105.25 46.75Z"/></g></g></g></svg>