<svg xmlns="http://www.w3.org/2000/svg" viewBox="0 11.25 120.30000305175781 36" data-asc="0.935" width="120.30000305175781" height="36"><defs/><g fill="#000000"><g transform="translate(0, 0)"><path d="M1.10 46.75Q0.60 46.75 0.30 46.45Q0 46.15 0 45.65L0 12.90Q0 12.35 0.30 12.05Q0.60 11.75 1.10 11.75L12.75 11.75Q18.00 11.75 21.13 14.25Q24.25 16.75 24.25 21.85Q24.25 25.85 22.25 28.25Q20.25 30.65 16.70 31.50L24.75 45.20Q24.90 45.50 24.90 45.75Q24.90 46.15 24.60 46.45Q24.30 46.75 23.90 46.75L23.30 46.75Q22.50 46.75 22.10 46.33Q21.70 45.90 21.40 45.40L13.45 31.95L3.15 31.95L3.15 45.65Q3.15 46.15 2.85 46.45Q2.55 46.75 2 46.75L1.10 46.75M3.15 28.95L12.50 28.95Q16.85 28.95 18.98 27.17Q21.10 25.40 21.10 21.85Q21.10 18.30 18.98 16.52Q16.85 14.75 12.50 14.75L3.15 14.75L3.15 28.95ZM41.10 47.25Q37.70 47.25 35.48 45.77Q33.25 44.30 32.17 41.75Q31.10 39.20 31.10 36.05L31.10 21.85Q31.10 21.35 31.40 21.05Q31.70 20.75 32.20 20.75L33.05 20.75Q33.55 20.75 33.85 21.05Q34.15 21.35 34.15 21.85L34.15 35.80Q34.15 44.35 41.60 44.35Q45.15 44.35 47.30 42.08Q49.45 39.80 49.45 35.80L49.45 21.85Q49.45 21.35 49.75 21.05Q50.05 20.75 50.55 20.75L51.40 20.75Q51.90 20.75 52.20 21.05Q52.50 21.35 52.50 21.85L52.50 45.65Q52.50 46.15 52.20 46.45Q51.90 46.75 51.40 46.75L50.55 46.75Q50.05 46.75 49.75 46.45Q49.45 46.15 49.45 45.65L49.45 43.30Q48.10 45.05 46.23 46.15Q44.35 47.25 41.10 47.25ZM72.10 47.25Q69 47.25 66.97 46.13Q64.95 45 63.70 43.30L63.70 45.65Q63.70 46.15 63.40 46.45Q63.10 46.75 62.60 46.75L61.75 46.75Q61.25 46.75 60.95 46.45Q60.65 46.15 60.65 45.65L60.65 12.35Q60.65 11.85 60.95 11.55Q61.25 11.25 61.75 11.25L62.60 11.25Q63.10 11.25 63.40 11.55Q63.70 11.85 63.70 12.35L63.70 24.20Q64.95 22.55 66.97 21.40Q69 20.25 72.10 20.25Q75.05 20.25 77.05 21.30Q79.05 22.35 80.30 24.10Q81.55 25.85 82.15 28Q82.75 30.15 82.80 32.35Q82.85 33.10 82.85 33.75Q82.85 34.40 82.80 35.15Q82.75 37.35 82.15 39.50Q81.55 41.65 80.30 43.40Q79.05 45.15 77.05 46.20Q75.05 47.25 72.10 47.25M71.80 44.35Q74.75 44.35 76.45 43.05Q78.15 41.75 78.90 39.65Q79.65 37.55 79.75 35.15Q79.80 33.75 79.75 32.35Q79.65 29.95 78.90 27.85Q78.15 25.75 76.45 24.45Q74.75 23.15 71.80 23.15Q69.05 23.15 67.28 24.45Q65.50 25.75 64.63 27.70Q63.75 29.65 63.70 31.65Q63.65 32.40 63.65 33.60Q63.65 34.80 63.70 35.55Q63.80 37.60 64.63 39.63Q65.45 41.65 67.20 43Q68.95 44.35 71.80 44.35ZM90.70 46.75Q90.20 46.75 89.90 46.45Q89.60 46.15 89.60 45.65L89.60 21.85Q89.60 21.35 89.90 21.05Q90.20 20.75 90.70 20.75L91.55 20.75Q92.05 20.75 92.35 21.05Q92.65 21.35 92.65 21.85L92.65 45.65Q92.65 46.15 92.35 46.45Q92.05 46.75 91.55 46.75L90.70 46.75M90.15 15.40Q89.65 15.40 89.35 15.10Q89.05 14.80 89.05 14.30L89.05 12.40Q89.05 11.90 89.35 11.57Q89.65 11.25 90.15 11.25L92.05 11.25Q92.55 11.25 92.88 11.57Q93.20 11.90 93.20 12.40L93.20 14.30Q93.20 14.80 92.88 15.10Q92.55 15.40 92.05 15.40L90.15 15.40ZM101.90 46.75Q101.40 46.75 101.10 46.45Q100.80 46.15 100.80 45.65L100.80 12.35Q100.80 11.85 101.10 11.55Q101.40 11.25 101.90 11.25L102.75 11.25Q103.25 11.25 103.55 11.55Q103.85 11.85 103.85 12.35L103.85 30.05L115 21.60Q115.70 21.05 116.03 20.90Q116.35 20.75 117.10 20.75L118.05 20.75Q118.50 20.75 118.78 21.02Q119.05 21.30 119.05 21.75Q119.05 21.95 118.93 22.22Q118.80 22.50 118.40 22.75L105.75 32.35L119.65 44.75Q120.30 45.35 120.30 45.75Q120.30 46.20 120.03 46.48Q119.75 46.75 119.30 46.75L118.50 46.75Q117.75 46.75 117.43 46.63Q117.10 46.50 116.40 45.90L103.85 34.75L103.85 45.65Q103.85 46.15 103.55 46.45Q103.25 46.75 102.75 46.75L101.90 46.75Z"/></g></g></svg>