<svg xmlns="http://www.w3.org/2000/svg" viewBox="0 11.199999809265137 115 38.099998474121094" data-asc="0.974" width="115" height="38.099998474121094"><defs/><g fill="#000000"><g transform="translate(0, 0)"><path d="M16.80 24.00Q17 23.00 17 21.95Q17 17.10 12.25 17.10Q10.10 17.10 8.60 18.00Q7.20 19.65 7.20 21.95Q7.20 23.45 8.50 24.52Q9.80 25.60 11.73 26.20Q13.65 26.80 15.90 27.70Q18.15 28.60 20.08 29.62Q22 30.65 23.30 32.67Q24.60 34.70 24.60 37.45Q24.60 42.70 20.58 46.00Q16.55 49.30 10.90 49.30Q6.35 49.30 3.18 47.02Q0 44.75 0 40.65Q0 38.55 1.28 37.12Q2.55 35.70 4.33 35.70Q6.10 35.70 6.95 36.15Q6.55 37.65 6.55 38.85Q6.55 41.55 8.08 43.12Q9.60 44.70 12.30 44.70Q15 44.70 16.65 43.30Q18.30 41.90 18.30 39.57Q18.30 37.25 16.48 35.75Q14.65 34.25 12.05 33.35Q9.45 32.45 6.85 31.45Q4.25 30.45 2.42 28.47Q0.60 26.50 0.60 23.50Q0.60 18.80 4.68 15.70Q8.75 12.60 13.90 12.60Q17.70 12.60 20.48 14.12Q23.25 15.65 23.25 18.75Q23.25 21.00 21.80 22.57Q20.35 24.15 18.15 24.15Q17.55 24.15 16.80 24.00ZM51.55 25.15Q50.20 30.90 50.20 36.67Q50.20 42.45 51.50 48.10Q49.70 48.70 47.80 48.70Q45.90 48.70 45.15 47.57Q44.40 46.45 44.40 44.32Q44.40 42.20 45.05 38.50Q41.50 46.10 38.20 48.10Q36.70 49.00 35.10 49.00Q31.30 49.00 29.20 46.17Q27.10 43.35 27.10 39.15Q27.10 32.75 30.65 27.92Q34.20 23.10 39.88 23.10Q45.55 23.10 51.55 25.15M45 28.15Q42.35 27.35 40.50 27.35Q36.75 27.35 34.90 29.00Q33.20 33.20 33.20 37.55Q33.20 39.85 33.93 42.20Q34.65 44.55 36.15 44.55Q37.90 44.55 40.65 39.40Q43.40 34.25 45 28.15ZM56.50 11.80Q58.10 11.20 59.80 11.20Q61.50 11.20 62.63 12.32Q63.75 13.45 63.75 15.37Q63.75 17.30 63.23 23.07Q62.70 28.85 62.70 32.15Q62.70 40.30 63.85 48.10Q62.25 48.70 60.45 48.70Q56.60 48.70 56.60 44.95Q56.60 43.15 57.15 37.87Q57.70 32.60 57.70 29.40Q57.70 18.75 56.50 11.80ZM73.85 39.60Q73.70 40.30 73.70 40.75Q73.70 42.80 74.92 43.90Q76.15 45.00 78.22 45.00Q80.30 45.00 81.67 44.22Q83.05 43.45 83.05 41.90Q83.05 40.35 81.58 39.42Q80.10 38.50 78.03 37.95Q75.95 37.40 73.85 36.72Q71.75 36.05 70.27 34.60Q68.80 33.15 68.80 30.95Q68.80 27.50 72.45 25.15Q76.10 22.80 80.10 22.80Q84.50 22.80 86.80 24.60Q88.15 25.65 88.15 27.37Q88.15 29.10 86.83 30.17Q85.50 31.25 83.60 31.25Q83.20 31.25 82.60 31.15Q82.75 30.50 82.75 30.00Q82.75 28.55 81.65 27.80Q80.55 27.05 78.67 27.05Q76.80 27.05 75.25 27.80Q74.65 28.60 74.65 29.85Q74.65 31.10 76.10 31.87Q77.55 32.65 79.63 33.22Q81.70 33.80 83.80 34.52Q85.90 35.25 87.35 36.77Q88.80 38.30 88.80 40.60Q88.80 44.35 85.08 46.82Q81.35 49.30 77.40 49.30Q73.45 49.30 70.88 47.87Q68.30 46.45 68.30 43.55Q68.30 41.75 69.63 40.62Q70.95 39.50 72.85 39.50Q73.25 39.50 73.85 39.60ZM115 25.15Q113.65 30.90 113.65 36.67Q113.65 42.45 114.95 48.10Q113.15 48.70 111.25 48.70Q109.35 48.70 108.60 47.57Q107.85 46.45 107.85 44.32Q107.85 42.20 108.50 38.50Q104.95 46.10 101.65 48.10Q100.15 49.00 98.55 49.00Q94.75 49.00 92.65 46.17Q90.55 43.35 90.55 39.15Q90.55 32.75 94.10 27.92Q97.65 23.10 103.33 23.10Q109 23.10 115 25.15M108.45 28.15Q105.80 27.35 103.95 27.35Q100.20 27.35 98.35 29.00Q96.65 33.20 96.65 37.55Q96.65 39.85 97.38 42.20Q98.10 44.55 99.60 44.55Q101.35 44.55 104.10 39.40Q106.85 34.25 108.45 28.15Z"/></g></g></svg>