<svg xmlns="http://www.w3.org/2000/svg" viewBox="0 13 318.25 38.650001525878906" data-asc="1.02" width="318.25" height="38.650001525878906"><defs/><g fill="#000000"><g transform="translate(0, 0)"><path d="M5.95 51.45Q2.95 51.45 1.48 50.70Q0 49.95 0 48.80Q0 48.20 0.35 47.88Q0.70 47.55 1.45 47.55Q2.00 47.55 2.38 47.63Q2.75 47.70 3.15 47.80Q3.55 47.90 4.13 47.98Q4.70 48.05 5.55 48.05Q8.95 48.05 11.63 47.67Q14.30 47.30 16.18 46.60Q18.05 45.90 19.10 44.95Q18.85 43.40 17.48 42.27Q16.10 41.15 14.05 40.25Q12 39.35 9.78 38.42Q7.55 37.50 5.60 36.42Q3.65 35.35 2.43 33.85Q1.20 32.35 1.20 30.25Q1.20 27.65 2.63 25.38Q4.05 23.10 6.35 21.30Q8.65 19.50 11.33 18.20Q14.00 16.90 16.53 16.20Q19.05 15.50 20.90 15.50Q21.65 15.50 22.13 15.70Q22.60 15.90 22.83 16.27Q23.05 16.65 23.05 17.15Q23.05 17.90 22.55 18.32Q22.05 18.75 20.80 19Q15.60 20 11.97 21.75Q8.35 23.50 6.50 25.65Q4.65 27.80 4.65 30.10Q4.65 31.55 5.95 32.63Q7.25 33.70 9.30 34.65Q11.35 35.60 13.65 36.55Q15.95 37.50 18.00 38.63Q20.05 39.75 21.35 41.20Q22.65 42.65 22.65 44.65Q22.65 46.35 21.25 47.63Q19.85 48.90 17.48 49.75Q15.10 50.60 12.13 51.02Q9.15 51.45 5.95 51.45ZM31.35 51.50Q30.70 51.50 30.15 50.98Q29.60 50.45 29.28 49.27Q28.95 48.10 28.95 46.25Q28.95 40.85 29.63 36.55Q30.30 32.25 31.13 28.72Q31.95 25.20 32.30 22.25Q32.50 20.85 32.53 19.55Q32.55 18.25 32.58 17.05Q32.60 15.85 32.70 14.85Q32.80 14.15 33.18 13.57Q33.55 13 34.30 13Q35.20 13 35.65 13.82Q36.10 14.65 36.18 16.45Q36.25 18.25 35.85 21.30Q35.40 24.80 34.55 28.82Q33.70 32.85 33.03 37.13Q32.35 41.40 32.45 45.70L31.55 45.60Q34.25 38.35 36.43 34.13Q38.60 29.90 40.60 28.10Q42.60 26.30 44.65 26.30Q46.60 26.30 47.63 27.65Q48.65 29 49.18 31.52Q49.70 34.05 50.00 37.60Q50.35 41 50.65 43.05Q50.95 45.10 51.33 46.27Q51.70 47.45 52.20 48.35Q52.40 48.70 52.55 49.13Q52.70 49.55 52.70 50Q52.70 50.60 52.25 51.05Q51.80 51.50 51.20 51.50Q50.20 51.50 49.28 49.95Q48.35 48.40 47.70 45.88Q47.05 43.35 46.85 40.50Q46.65 37.25 46.35 35.17Q46.05 33.10 45.65 31.77Q45.25 30.45 44.60 29.55Q43.50 29.55 41.60 31.95Q39.70 34.35 37.60 38.83Q35.50 43.30 33.65 49.60Q33.30 50.70 32.73 51.10Q32.15 51.50 31.35 51.50ZM65.90 51.50Q63.75 51.50 62.18 50.42Q60.60 49.35 59.75 47.40Q58.90 45.45 58.90 42.85Q58.90 40.50 59.63 38.13Q60.35 35.75 61.65 33.63Q62.95 31.50 64.80 29.85Q66.65 28.20 68.90 27.25Q71.15 26.30 73.75 26.30Q74.65 26.30 75.25 26.72Q75.85 27.15 75.85 28Q75.85 28.55 75.50 28.95Q75.15 29.35 74.35 29.45Q70.75 29.85 68.08 31.88Q65.40 33.90 63.93 36.80Q62.45 39.70 62.45 42.85Q62.45 44.45 62.73 45.77Q63.00 47.10 64.00 49.20L61.70 46.35Q62.80 47.55 63.55 47.92Q64.30 48.30 65.70 48.30Q69.10 48.30 71.73 44.30Q74.35 40.30 75.60 32.65Q75.75 31.80 76.13 31.30Q76.50 30.80 77.25 30.80Q78.25 30.80 78.90 31.70Q79.55 32.60 79.65 34.10Q79.95 37.15 80.43 39.55Q80.90 41.95 81.90 44.05Q82.90 46.15 84.60 48.45Q84.95 48.90 85.00 49.40Q85.05 49.90 84.90 50.35Q84.75 50.80 84.43 51.08Q84.10 51.35 83.65 51.35Q83.00 51.35 82.60 51.08Q82.20 50.80 81.80 50.30Q80.85 49 80.00 47.63Q79.15 46.25 78.48 44.42Q77.80 42.60 77.35 40.05Q76.90 37.50 76.80 33.90L78.10 33.95Q77.55 38.75 76.30 42.13Q75.05 45.50 73.33 47.55Q71.60 49.60 69.68 50.55Q67.75 51.50 65.90 51.50ZM111.80 51.45Q110.50 51.45 109.48 50.15Q108.45 48.85 107.88 45.83Q107.30 42.80 107.30 37.75Q107.30 34.95 107.20 33.27Q107.10 31.60 106.85 30.67Q106.60 29.75 106.20 29.20Q105.80 28.65 105.15 28.05Q106.10 27.95 106.75 28.27Q107.40 28.60 107.75 29.32Q108.10 30.05 108.15 31.20Q107.55 30.20 107.10 29.88Q106.65 29.55 105.95 29.55Q104.95 29.55 103.63 30.88Q102.30 32.20 100.88 34.58Q99.45 36.95 98.15 40.23Q96.85 43.50 95.90 47.40Q95.40 49.65 94.80 50.55Q94.20 51.45 93.25 51.45Q91.55 51.45 90.65 49.20Q89.75 46.95 89.75 43.45Q89.75 40.90 89.98 38.98Q90.20 37.05 90.48 35.38Q90.75 33.70 90.98 31.90Q91.20 30.10 91.20 27.75Q91.20 27.10 91.55 26.67Q91.90 26.25 92.55 26.25Q93.50 26.25 94.03 27.02Q94.55 27.80 94.55 29.55Q94.55 31.25 94.28 32.92Q94 34.60 93.68 36.58Q93.35 38.55 93.15 41.08Q92.95 43.60 93.15 46.95L92.55 47.35Q94.25 40.45 96.45 35.75Q98.65 31.05 101.10 28.63Q103.55 26.20 105.95 26.20Q107.50 26.20 108.55 27.13Q109.60 28.05 110.15 29.77Q110.70 31.50 110.70 33.90Q110.70 37.90 110.73 40.83Q110.75 43.75 111.18 45.65Q111.60 47.55 112.75 48.50Q113.20 48.85 113.35 49.23Q113.50 49.60 113.50 50.10Q113.50 50.60 113.13 51.02Q112.75 51.45 111.80 51.45ZM129.30 51.65Q125.65 51.65 123.45 49.80Q121.25 47.95 120.28 44.63Q119.30 41.30 119.30 36.90Q119.30 34.15 119.60 31.93Q119.90 29.70 120.30 27.72Q120.70 25.75 120.95 23.80Q121.25 21.35 121.40 19.82Q121.55 18.30 121.70 17.05Q121.80 16.50 122.08 16.10Q122.35 15.70 123 15.70Q124.40 15.70 124.65 17.60Q124.90 19.50 124.40 23.15Q124.10 25.35 123.80 26.95Q123.50 28.55 123.25 29.97Q123 31.40 122.83 32.97Q122.65 34.55 122.65 36.70Q122.65 41.05 123.38 43.60Q124.10 46.15 125.55 47.25Q127 48.35 129.15 48.35Q130.40 48.35 131.03 48.10Q131.65 47.85 132.08 47.63Q132.50 47.40 133.15 47.40Q133.70 47.40 134 47.75Q134.30 48.10 134.30 48.65Q134.30 49.75 133 50.70Q131.70 51.65 129.30 51.65M123.05 31.65Q121.95 32.15 121.38 31.80Q120.80 31.45 120.80 30.75Q120.80 29.85 121.33 29.17Q121.85 28.50 123.80 27.80Q125 27.35 126.35 27Q127.70 26.65 129.10 26.45Q130.50 26.25 131.75 26.25Q132.40 26.25 132.88 26.45Q133.35 26.65 133.65 27.02Q133.95 27.40 133.95 28Q133.95 28.70 133.55 29Q133.15 29.30 132.20 29.40Q130.15 29.55 128.58 29.88Q127 30.20 125.68 30.65Q124.35 31.10 123.05 31.65ZM149.90 51.50Q147.25 51.50 145.33 50.70Q143.40 49.90 142.15 48.40Q140.90 46.90 140.30 44.90Q139.70 42.90 139.70 40.50Q139.70 38 140.60 35.48Q141.50 32.95 143.20 30.88Q144.90 28.80 147.28 27.52Q149.65 26.25 152.60 26.25Q154.80 26.25 156.43 27.05Q158.05 27.85 158.95 29.47Q159.85 31.10 159.85 33.55Q159.85 35.55 158.93 37.13Q158 38.70 156.35 39.80Q154.70 40.90 152.47 41.48Q150.25 42.05 147.65 42.05Q144.55 42.05 143.43 41.30Q142.30 40.55 142.30 39.65Q142.30 39.10 142.58 38.83Q142.85 38.55 143.55 38.55Q144.10 38.55 144.95 38.75Q145.80 38.95 147.45 38.95Q150.20 38.95 152.22 38.25Q154.25 37.55 155.38 36.27Q156.50 35 156.50 33.35Q156.50 31.45 155.58 30.50Q154.65 29.55 152.45 29.55Q150.40 29.55 148.68 30.47Q146.95 31.40 145.70 33Q144.45 34.60 143.75 36.65Q143.05 38.70 143.05 40.95Q143.05 42.95 143.70 44.60Q144.35 46.25 145.83 47.25Q147.30 48.25 149.75 48.25Q152.40 48.25 154.18 47.58Q155.95 46.90 157.13 46.05Q158.30 45.20 159.08 44.52Q159.85 43.85 160.50 43.85Q161.05 43.85 161.25 44.20Q161.45 44.55 161.45 45.30Q161.45 46.20 160.48 47.27Q159.50 48.35 157.85 49.30Q156.20 50.25 154.15 50.88Q152.10 51.50 149.90 51.50ZM174.55 51.55Q173.35 51.55 172.33 51.23Q171.30 50.90 170.50 49.95Q169.70 49 169.13 47.20Q168.55 45.40 168.25 42.45Q167.95 39.50 167.95 35.15Q167.95 30.80 168.13 27.57Q168.30 24.35 168.63 21.70Q168.95 19.05 169.35 16.45Q169.70 14.50 170.13 13.75Q170.55 13 171.20 13Q171.90 13 172.33 13.67Q172.75 14.35 172.75 15.95Q172.75 17.30 172.55 18.92Q172.35 20.55 172.05 22.80Q171.75 25.05 171.55 28.27Q171.35 31.50 171.35 36.15Q171.35 39.60 171.60 41.95Q171.85 44.30 172.28 45.70Q172.70 47.10 173.30 47.73Q173.90 48.35 174.55 48.35Q175.35 48.35 175.78 48.17Q176.20 48 176.50 47.85Q176.80 47.70 177.20 47.70Q177.90 47.70 178.15 48.08Q178.40 48.45 178.40 49Q178.40 49.70 177.83 50.30Q177.25 50.90 176.38 51.23Q175.50 51.55 174.55 51.55ZM188.80 51.55Q187.60 51.55 186.58 51.23Q185.55 50.90 184.75 49.95Q183.95 49 183.38 47.20Q182.80 45.40 182.50 42.45Q182.20 39.50 182.20 35.15Q182.20 30.80 182.38 27.57Q182.55 24.35 182.88 21.70Q183.20 19.05 183.60 16.45Q183.95 14.50 184.38 13.75Q184.80 13 185.45 13Q186.15 13 186.58 13.67Q187 14.35 187 15.95Q187 17.30 186.80 18.92Q186.60 20.55 186.30 22.80Q186 25.05 185.80 28.27Q185.60 31.50 185.60 36.15Q185.60 39.60 185.85 41.95Q186.10 44.30 186.53 45.70Q186.95 47.10 187.55 47.73Q188.15 48.35 188.80 48.35Q189.60 48.35 190.03 48.17Q190.45 48 190.75 47.85Q191.05 47.70 191.45 47.70Q192.15 47.70 192.40 48.08Q192.65 48.45 192.65 49Q192.65 49.70 192.08 50.30Q191.50 50.90 190.63 51.23Q189.75 51.55 188.80 51.55ZM218 51.45Q215 51.45 213.53 50.70Q212.05 49.95 212.05 48.80Q212.05 48.20 212.40 47.88Q212.75 47.55 213.50 47.55Q214.05 47.55 214.43 47.63Q214.80 47.70 215.20 47.80Q215.60 47.90 216.18 47.98Q216.75 48.05 217.60 48.05Q221 48.05 223.68 47.67Q226.35 47.30 228.22 46.60Q230.10 45.90 231.15 44.95Q230.90 43.40 229.53 42.27Q228.15 41.15 226.10 40.25Q224.05 39.35 221.83 38.42Q219.60 37.50 217.65 36.42Q215.70 35.35 214.47 33.85Q213.25 32.35 213.25 30.25Q213.25 27.65 214.68 25.38Q216.10 23.10 218.40 21.30Q220.70 19.50 223.38 18.20Q226.05 16.90 228.58 16.20Q231.10 15.50 232.95 15.50Q233.70 15.50 234.18 15.70Q234.65 15.90 234.88 16.27Q235.10 16.65 235.10 17.15Q235.10 17.90 234.60 18.32Q234.10 18.75 232.85 19Q227.65 20 224.03 21.75Q220.40 23.50 218.55 25.65Q216.70 27.80 216.70 30.10Q216.70 31.55 218 32.63Q219.30 33.70 221.35 34.65Q223.40 35.60 225.70 36.55Q228 37.50 230.05 38.63Q232.10 39.75 233.40 41.20Q234.70 42.65 234.70 44.65Q234.70 46.35 233.30 47.63Q231.90 48.90 229.53 49.75Q227.15 50.60 224.18 51.02Q221.20 51.45 218 51.45ZM247.40 51.50Q245.25 51.50 243.68 50.42Q242.10 49.35 241.25 47.40Q240.40 45.45 240.40 42.85Q240.40 40.50 241.13 38.13Q241.85 35.75 243.15 33.63Q244.45 31.50 246.30 29.85Q248.15 28.20 250.40 27.25Q252.65 26.30 255.25 26.30Q256.15 26.30 256.75 26.72Q257.35 27.15 257.35 28Q257.35 28.55 257 28.95Q256.65 29.35 255.85 29.45Q252.25 29.85 249.58 31.88Q246.90 33.90 245.43 36.80Q243.95 39.70 243.95 42.85Q243.95 44.45 244.23 45.77Q244.50 47.10 245.50 49.20L243.20 46.35Q244.30 47.55 245.05 47.92Q245.80 48.30 247.20 48.30Q250.60 48.30 253.23 44.30Q255.85 40.30 257.10 32.65Q257.25 31.80 257.63 31.30Q258 30.80 258.75 30.80Q259.75 30.80 260.40 31.70Q261.05 32.60 261.15 34.10Q261.45 37.15 261.93 39.55Q262.40 41.95 263.40 44.05Q264.40 46.15 266.10 48.45Q266.45 48.90 266.50 49.40Q266.55 49.90 266.40 50.35Q266.25 50.80 265.93 51.08Q265.60 51.35 265.15 51.35Q264.50 51.35 264.10 51.08Q263.70 50.80 263.30 50.30Q262.35 49 261.50 47.63Q260.65 46.25 259.98 44.42Q259.30 42.60 258.85 40.05Q258.40 37.50 258.30 33.90L259.60 33.95Q259.05 38.75 257.80 42.13Q256.55 45.50 254.83 47.55Q253.10 49.60 251.18 50.55Q249.25 51.50 247.40 51.50ZM293.30 51.45Q292.00 51.45 290.98 50.15Q289.95 48.85 289.38 45.83Q288.80 42.80 288.80 37.75Q288.80 34.95 288.70 33.27Q288.60 31.60 288.35 30.67Q288.10 29.75 287.70 29.20Q287.30 28.65 286.65 28.05Q287.60 27.95 288.25 28.27Q288.90 28.60 289.25 29.32Q289.60 30.05 289.65 31.20Q289.05 30.20 288.60 29.88Q288.15 29.55 287.45 29.55Q286.45 29.55 285.13 30.88Q283.80 32.20 282.38 34.58Q280.95 36.95 279.65 40.23Q278.35 43.50 277.40 47.40Q276.90 49.65 276.30 50.55Q275.70 51.45 274.75 51.45Q273.05 51.45 272.15 49.20Q271.25 46.95 271.25 43.45Q271.25 40.90 271.48 38.98Q271.70 37.05 271.98 35.38Q272.25 33.70 272.48 31.90Q272.70 30.10 272.70 27.75Q272.70 27.10 273.05 26.67Q273.40 26.25 274.05 26.25Q275.00 26.25 275.53 27.02Q276.05 27.80 276.05 29.55Q276.05 31.25 275.78 32.92Q275.50 34.60 275.18 36.58Q274.85 38.55 274.65 41.08Q274.45 43.60 274.65 46.95L274.05 47.35Q275.75 40.45 277.95 35.75Q280.15 31.05 282.60 28.63Q285.05 26.20 287.45 26.20Q289.00 26.20 290.05 27.13Q291.10 28.05 291.65 29.77Q292.20 31.50 292.20 33.90Q292.20 37.90 292.23 40.83Q292.25 43.75 292.68 45.65Q293.10 47.55 294.25 48.50Q294.70 48.85 294.85 49.23Q295.00 49.60 295.00 50.10Q295.00 50.60 294.63 51.02Q294.25 51.45 293.30 51.45ZM305.70 51.50Q303.80 51.50 302.45 51.05Q301.10 50.60 300.43 49.90Q299.75 49.20 299.75 48.50Q299.75 47.90 300.13 47.48Q300.50 47.05 301.20 47.05Q301.60 47.05 301.83 47.23Q302.05 47.40 302.40 47.65Q302.75 47.90 303.45 48.08Q304.15 48.25 305.50 48.25Q308.90 48.25 311.55 47.38Q314.20 46.50 315.15 44.35Q314.85 43.10 313.70 42.35Q312.55 41.60 310.93 41.05Q309.30 40.50 307.53 39.95Q305.75 39.40 304.23 38.67Q302.70 37.95 301.73 36.77Q300.75 35.60 300.75 33.80Q300.75 32.25 301.80 30.85Q302.85 29.45 304.60 28.38Q306.35 27.30 308.48 26.70Q310.60 26.10 312.80 26.15Q313.85 26.15 314.63 26.50Q315.40 26.85 315.83 27.32Q316.25 27.80 316.25 28.25Q316.25 28.80 315.88 29.15Q315.50 29.50 314.75 29.50Q314.60 29.50 314.35 29.47Q314.10 29.45 313.75 29.42Q313.40 29.40 312.90 29.40Q309.70 29.40 307.28 30.47Q304.85 31.55 303.70 33.70Q303.90 34.85 305.05 35.58Q306.20 36.30 307.85 36.83Q309.50 37.35 311.30 37.90Q313.10 38.45 314.68 39.20Q316.25 39.95 317.25 41.15Q318.25 42.35 318.25 44.20Q318.25 46.10 317.20 47.48Q316.15 48.85 314.38 49.75Q312.60 50.65 310.35 51.08Q308.10 51.50 305.70 51.50Z"/></g></g></svg>