<svg xmlns="http://www.w3.org/2000/svg" viewBox="0 13.5 345.6499938964844 45.70000076293945" data-asc="0.984" width="345.6499938964844" height="45.70000076293945"><defs/><g fill="#000000"><g transform="translate(0, 0)"><path d="M13.25 49.90Q9.45 49.90 6.45 48.55Q3.45 47.20 1.72 44.48Q0 41.75 0 37.65L0 36.60L4.15 36.60L4.15 37.65Q4.15 42 6.70 44.13Q9.25 46.25 13.25 46.25Q17.35 46.25 19.50 44.40Q21.65 42.55 21.65 39.75Q21.65 37.80 20.68 36.65Q19.70 35.50 17.95 34.78Q16.20 34.05 13.85 33.50L11.25 32.85Q8.20 32.05 5.85 30.90Q3.50 29.75 2.17 27.88Q0.85 26 0.85 23.05Q0.85 20.10 2.33 17.95Q3.80 15.80 6.47 14.65Q9.15 13.50 12.65 13.50Q16.20 13.50 19.02 14.73Q21.85 15.95 23.48 18.33Q25.10 20.70 25.10 24.30L25.10 26.40L20.95 26.40L20.95 24.30Q20.95 21.75 19.88 20.20Q18.80 18.65 16.93 17.90Q15.05 17.15 12.65 17.15Q9.20 17.15 7.10 18.68Q5 20.20 5 23Q5 24.85 5.90 26Q6.80 27.15 8.45 27.88Q10.10 28.60 12.40 29.15L15.00 29.80Q18.05 30.45 20.48 31.58Q22.90 32.70 24.35 34.63Q25.80 36.55 25.80 39.65Q25.80 42.75 24.25 45.05Q22.70 47.35 19.88 48.63Q17.05 49.90 13.25 49.90ZM32.40 59.20L32.40 24.75L36.25 24.75L36.25 28.80L36.95 28.80Q37.90 26.95 40.02 25.50Q42.15 24.05 45.95 24.05Q49.10 24.05 51.73 25.58Q54.35 27.10 55.92 29.90Q57.50 32.70 57.50 36.65L57.50 37.30Q57.50 41.20 55.95 44.05Q54.40 46.90 51.78 48.40Q49.15 49.90 45.95 49.90Q43.40 49.90 41.63 49.23Q39.85 48.55 38.75 47.50Q37.65 46.45 37.05 45.35L36.35 45.35L36.35 59.20L32.40 59.20M44.90 46.40Q48.70 46.40 51.08 43.98Q53.45 41.55 53.45 37.20L53.45 36.75Q53.45 32.40 51.08 29.98Q48.70 27.55 44.90 27.55Q41.15 27.55 38.73 29.98Q36.30 32.40 36.30 36.75L36.30 37.20Q36.30 41.55 38.73 43.98Q41.15 46.40 44.90 46.40ZM72.10 49.90Q69.55 49.90 67.45 49Q65.35 48.10 64.15 46.40Q62.95 44.70 62.95 42.25Q62.95 39.75 64.15 38.13Q65.35 36.50 67.45 35.68Q69.55 34.85 72.15 34.85L80.40 34.85L80.40 33.05Q80.40 30.45 78.88 28.95Q77.35 27.45 74.35 27.45Q71.40 27.45 69.75 28.88Q68.10 30.30 67.50 32.70L63.80 31.50Q64.40 29.45 65.70 27.78Q67 26.10 69.17 25.08Q71.35 24.05 74.40 24.05Q79.10 24.05 81.70 26.48Q84.30 28.90 84.30 33.30L84.30 44.35Q84.30 45.85 85.70 45.85L87.95 45.85L87.95 49.20L84.50 49.20Q82.85 49.20 81.85 48.28Q80.85 47.35 80.85 45.80L80.85 45.55L80.25 45.55Q79.70 46.50 78.78 47.53Q77.85 48.55 76.25 49.23Q74.65 49.90 72.10 49.90M72.55 46.50Q76.05 46.50 78.23 44.43Q80.40 42.35 80.40 38.60L80.40 38.05L72.30 38.05Q69.95 38.05 68.42 39.08Q66.90 40.10 66.90 42.15Q66.90 44.20 68.48 45.35Q70.05 46.50 72.55 46.50ZM103.90 49.90Q100.35 49.90 97.53 48.38Q94.70 46.85 93.08 44Q91.45 41.15 91.45 37.25L91.45 36.70Q91.45 32.75 93.08 29.93Q94.70 27.10 97.53 25.58Q100.35 24.05 103.90 24.05Q107.40 24.05 109.88 25.35Q112.35 26.65 113.78 28.80Q115.20 30.95 115.60 33.40L111.75 34.20Q111.50 32.40 110.58 30.90Q109.65 29.40 108 28.50Q106.35 27.60 103.95 27.60Q101.50 27.60 99.58 28.70Q97.65 29.80 96.53 31.85Q95.40 33.90 95.40 36.75L95.40 37.20Q95.40 40.05 96.53 42.10Q97.65 44.15 99.58 45.25Q101.50 46.35 103.95 46.35Q107.60 46.35 109.53 44.45Q111.45 42.55 111.90 39.75L115.80 40.60Q115.25 43 113.80 45.15Q112.35 47.30 109.88 48.60Q107.40 49.90 103.90 49.90ZM133.75 49.90Q130.05 49.90 127.25 48.33Q124.45 46.75 122.90 43.90Q121.35 41.05 121.35 37.30L121.35 36.70Q121.35 32.90 122.90 30.05Q124.45 27.20 127.20 25.63Q129.95 24.05 133.50 24.05Q136.95 24.05 139.60 25.53Q142.25 27 143.75 29.75Q145.25 32.50 145.25 36.20L145.25 38L125.30 38Q125.45 41.95 127.85 44.18Q130.25 46.40 133.85 46.40Q137 46.40 138.70 44.95Q140.40 43.50 141.30 41.50L144.70 43.15Q143.95 44.70 142.63 46.25Q141.30 47.80 139.18 48.85Q137.05 49.90 133.75 49.90M125.35 34.75L141.25 34.75Q141.05 31.35 138.93 29.45Q136.80 27.55 133.50 27.55Q130.15 27.55 128 29.45Q125.85 31.35 125.35 34.75ZM177.05 49.90Q173.15 49.90 170.17 48.28Q167.20 46.65 165.53 43.50Q163.85 40.35 163.85 35.70L163.85 27.70Q163.85 20.75 167.55 17.13Q171.25 13.50 177.50 13.50Q183.70 13.50 186.95 16.90Q190.20 20.30 190.20 26L190.20 26.25L186.05 26.25L186.05 25.90Q186.05 23.40 185.15 21.45Q184.25 19.50 182.35 18.38Q180.45 17.25 177.50 17.25Q173.05 17.25 170.55 19.98Q168.05 22.70 168.05 27.60L168.05 35.80Q168.05 40.70 170.55 43.43Q173.05 46.15 177.55 46.15Q181.95 46.15 184.03 43.65Q186.10 41.15 186.10 37L186.10 36.15L175.50 36.15L175.50 32.55L190.20 32.55L190.20 49.20L186.40 49.20L186.40 45.40L185.70 45.40Q185.15 46.50 184.15 47.55Q183.15 48.60 181.45 49.25Q179.75 49.90 177.05 49.90ZM198 49.20L198 24.75L201.85 24.75L201.85 27.75L202.55 27.75Q203.20 26.15 204.55 25.40Q205.90 24.65 208.10 24.65L211 24.65L211 28.25L207.85 28.25Q205.20 28.25 203.57 29.73Q201.95 31.20 201.95 34.30L201.95 49.20L198 49.20ZM227.25 49.90Q223.55 49.90 220.72 48.35Q217.90 46.80 216.32 43.98Q214.75 41.15 214.75 37.30L214.75 36.65Q214.75 32.85 216.32 30Q217.90 27.15 220.72 25.60Q223.55 24.05 227.25 24.05Q230.95 24.05 233.77 25.60Q236.60 27.15 238.17 30Q239.75 32.85 239.75 36.65L239.75 37.30Q239.75 41.15 238.17 43.98Q236.60 46.80 233.77 48.35Q230.95 49.90 227.25 49.90M227.25 46.35Q231.15 46.35 233.47 43.88Q235.80 41.40 235.80 37.20L235.80 36.75Q235.80 32.55 233.47 30.08Q231.15 27.60 227.25 27.60Q223.40 27.60 221.05 30.08Q218.70 32.55 218.70 36.75L218.70 37.20Q218.70 41.40 221.05 43.88Q223.40 46.35 227.25 46.35ZM254.85 49.20Q252.75 49.20 251.63 48.05Q250.50 46.90 250.50 44.90L250.50 28.20L243.15 28.20L243.15 24.75L250.50 24.75L250.50 16.05L254.45 16.05L254.45 24.75L262.45 24.75L262.45 28.20L254.45 28.20L254.45 44.30Q254.45 45.80 255.90 45.80L261.35 45.80L261.35 49.20L254.85 49.20ZM279.15 49.90Q275.45 49.90 272.65 48.33Q269.85 46.75 268.30 43.90Q266.75 41.05 266.75 37.30L266.75 36.70Q266.75 32.90 268.30 30.05Q269.85 27.20 272.60 25.63Q275.35 24.05 278.90 24.05Q282.35 24.05 285 25.53Q287.65 27 289.15 29.75Q290.65 32.50 290.65 36.20L290.65 38L270.70 38Q270.85 41.95 273.25 44.18Q275.65 46.40 279.25 46.40Q282.40 46.40 284.10 44.95Q285.80 43.50 286.70 41.50L290.10 43.15Q289.35 44.70 288.03 46.25Q286.70 47.80 284.57 48.85Q282.45 49.90 279.15 49.90M270.75 34.75L286.65 34.75Q286.45 31.35 284.32 29.45Q282.20 27.55 278.90 27.55Q275.55 27.55 273.40 29.45Q271.25 31.35 270.75 34.75ZM307.40 49.90Q302.85 49.90 299.73 47.80Q296.60 45.70 295.95 41.15L299.70 40.30Q300.10 42.70 301.20 44.08Q302.30 45.45 303.93 46.03Q305.55 46.60 307.40 46.60Q310.15 46.60 311.75 45.50Q313.35 44.40 313.35 42.55Q313.35 40.65 311.83 39.88Q310.30 39.10 307.65 38.60L305.60 38.25Q303.25 37.85 301.30 37Q299.35 36.15 298.20 34.70Q297.05 33.25 297.05 31.05Q297.05 27.75 299.60 25.90Q302.15 24.05 306.35 24.05Q310.50 24.05 313.08 25.93Q315.65 27.80 316.40 31.20L312.70 32.15Q312.25 29.50 310.55 28.43Q308.85 27.35 306.35 27.35Q303.85 27.35 302.40 28.28Q300.95 29.20 300.95 31.00Q300.95 32.75 302.33 33.58Q303.70 34.40 306.00 34.80L308.05 35.15Q310.65 35.60 312.73 36.38Q314.80 37.15 316.03 38.60Q317.25 40.05 317.25 42.40Q317.25 46 314.58 47.95Q311.90 49.90 307.40 49.90ZM323.90 49.20L323.90 14.20L327.85 14.20L327.85 34.80L328.55 34.80L339.75 24.75L345.25 24.75L331.70 36.65L345.65 49.20L340.20 49.20L328.55 38.55L327.85 38.55L327.85 49.20L323.90 49.20Z"/></g></g></svg>