<svg xmlns="http://www.w3.org/2000/svg" viewBox="2.25 20.299999237060547 300.8999938964844 45.70000076293945" data-asc="1.12" width="300.8999938964844" height="45.70000076293945"><defs/><g><g fill="#000000"><g transform="translate(0, 0)"><path d="M23.55 31.10Q23.55 29.40 22.88 28.10Q22.20 26.80 21.05 25.95Q19.90 25.10 18.40 24.65Q16.90 24.20 15.25 24.20Q13.80 24.20 12.50 24.58Q11.20 24.95 10.18 25.65Q9.15 26.35 8.55 27.38Q7.95 28.40 7.95 29.75L7.95 30.05Q7.95 31.50 8.55 32.53Q9.15 33.55 10.33 34.28Q11.50 35.00 13.25 35.48Q15 35.95 17.35 36.30Q22.85 37.15 25.45 39.53Q28.05 41.90 28.05 45.90L28.05 46.50Q28.05 48.75 27.28 50.63Q26.50 52.50 24.98 53.85Q23.45 55.20 21.20 55.95Q18.95 56.70 16 56.70Q12.65 56.70 10.08 55.73Q7.50 54.75 5.78 53.03Q4.05 51.30 3.15 48.98Q2.25 46.65 2.25 43.90L2.25 42.40L6.45 42.40L6.45 43.60Q6.45 48.20 8.97 50.50Q11.50 52.80 16 52.80Q19.90 52.80 21.88 51.08Q23.85 49.35 23.85 46.50L23.85 46.20Q23.85 43.45 21.83 42.00Q19.80 40.55 15.25 39.90Q12.60 39.55 10.48 38.83Q8.35 38.10 6.85 36.93Q5.35 35.75 4.55 34.10Q3.75 32.45 3.75 30.20L3.75 29.60Q3.75 27.55 4.60 25.85Q5.45 24.15 6.98 22.90Q8.50 21.65 10.63 20.98Q12.75 20.30 15.30 20.30Q18.25 20.30 20.58 21.15Q22.90 22.00 24.50 23.43Q26.10 24.85 26.93 26.78Q27.75 28.70 27.75 30.80L27.75 32.90L23.55 32.90L23.55 31.10ZM37.95 66L34.05 66L34.05 31.20L37.95 31.20L37.95 35.10L38.55 35.10Q39.85 32.85 42.15 31.68Q44.45 30.50 47.15 30.50Q49.45 30.50 51.50 31.35Q53.55 32.20 55.13 33.80Q56.70 35.40 57.63 37.75Q58.55 40.10 58.55 43.10L58.55 44.10Q58.55 47.15 57.65 49.50Q56.75 51.85 55.18 53.45Q53.60 55.05 51.50 55.88Q49.40 56.70 47.05 56.70Q45.85 56.70 44.60 56.43Q43.35 56.15 42.23 55.58Q41.10 55.00 40.15 54.18Q39.20 53.35 38.55 52.20L37.95 52.20L37.95 66M46.25 53.00Q48.05 53.00 49.55 52.38Q51.05 51.75 52.18 50.60Q53.30 49.45 53.93 47.80Q54.55 46.15 54.55 44.10L54.55 43.10Q54.55 41.10 53.93 39.48Q53.30 37.85 52.18 36.68Q51.05 35.50 49.53 34.85Q48 34.20 46.25 34.20Q44.50 34.20 43 34.88Q41.50 35.55 40.38 36.75Q39.25 37.95 38.60 39.63Q37.95 41.30 37.95 43.30L37.95 43.90Q37.95 45.95 38.60 47.63Q39.25 49.30 40.38 50.50Q41.50 51.70 43 52.35Q44.50 53.00 46.25 53.00ZM83.55 51.80L82.95 51.80Q81.75 54.30 79.63 55.50Q77.50 56.70 75.15 56.70Q72.70 56.70 70.60 55.88Q68.50 55.05 66.92 53.43Q65.35 51.80 64.45 49.45Q63.55 47.10 63.55 44.00L63.55 43.20Q63.55 40.15 64.45 37.80Q65.35 35.45 66.92 33.83Q68.50 32.20 70.60 31.35Q72.70 30.50 75.05 30.50Q77.60 30.50 79.68 31.63Q81.75 32.75 82.95 35.10L83.55 35.10L83.55 31.20L87.45 31.20L87.45 50.90Q87.45 52.40 88.80 52.40L90.05 52.40L90.05 56.00L87.40 56.00Q85.70 56.00 84.63 54.90Q83.55 53.80 83.55 52.10L83.55 51.80M75.55 53.00Q77.30 53.00 78.78 52.35Q80.25 51.70 81.30 50.50Q82.35 49.30 82.95 47.63Q83.55 45.95 83.55 43.90L83.55 43.30Q83.55 41.30 82.95 39.63Q82.35 37.95 81.28 36.75Q80.20 35.55 78.73 34.88Q77.25 34.20 75.55 34.20Q73.80 34.20 72.35 34.85Q70.90 35.50 69.83 36.68Q68.75 37.85 68.15 39.53Q67.55 41.20 67.55 43.20L67.55 44.00Q67.55 48.25 69.78 50.63Q72 53.00 75.55 53.00ZM119.35 47.20Q118.95 49.25 117.98 51.00Q117.00 52.75 115.50 54.03Q114.00 55.30 112.00 56.00Q110.00 56.70 107.55 56.70Q104.95 56.70 102.63 55.85Q100.30 55.00 98.55 53.38Q96.80 51.75 95.78 49.40Q94.75 47.05 94.75 44.00L94.75 43.40Q94.75 40.40 95.78 38.00Q96.80 35.60 98.55 33.95Q100.30 32.30 102.63 31.40Q104.95 30.50 107.55 30.50Q109.90 30.50 111.90 31.20Q113.90 31.90 115.43 33.18Q116.95 34.45 117.93 36.20Q118.90 37.95 119.25 40.00L115.35 40.90Q115.20 39.60 114.63 38.38Q114.05 37.15 113.08 36.23Q112.10 35.30 110.70 34.75Q109.30 34.20 107.45 34.20Q105.65 34.20 104.08 34.88Q102.50 35.55 101.30 36.78Q100.10 38.00 99.43 39.70Q98.75 41.40 98.75 43.40L98.75 44.00Q98.75 46.10 99.43 47.78Q100.10 49.45 101.30 50.60Q102.50 51.75 104.10 52.38Q105.70 53.00 107.55 53.00Q109.40 53.00 110.78 52.43Q112.15 51.85 113.13 50.93Q114.10 50.00 114.68 48.80Q115.25 47.60 115.45 46.30L119.35 47.20ZM129.60 44.80Q129.75 48.50 131.90 50.75Q134.05 53.00 137.90 53.00Q139.65 53.00 140.95 52.60Q142.25 52.20 143.18 51.50Q144.10 50.80 144.68 49.88Q145.25 48.95 145.60 47.90L149.30 48.90Q148.25 52.35 145.43 54.53Q142.60 56.70 137.80 56.70Q135.15 56.70 132.93 55.78Q130.70 54.85 129.10 53.15Q127.50 51.45 126.60 49.10Q125.70 46.75 125.70 43.90L125.70 42.70Q125.70 40.10 126.63 37.85Q127.55 35.60 129.20 33.98Q130.85 32.35 133.08 31.43Q135.30 30.50 137.90 30.50Q140.95 30.50 143.18 31.63Q145.40 32.75 146.83 34.40Q148.25 36.05 148.93 38.00Q149.60 39.95 149.60 41.60L149.60 44.80L129.60 44.80M137.90 34.20Q136.25 34.20 134.83 34.73Q133.40 35.25 132.33 36.20Q131.25 37.15 130.58 38.43Q129.90 39.70 129.70 41.20L145.70 41.20Q145.60 39.60 144.93 38.30Q144.25 37.00 143.18 36.10Q142.10 35.20 140.72 34.70Q139.35 34.20 137.90 34.20ZM185.90 21.00L193.90 21.00L198.60 54.20L199.20 54.20L203.90 21.00L211.90 21.00L211.90 56.00L208 56.00L208 22.80L207.40 22.80L202.70 56.00L195.10 56.00L190.40 22.80L189.80 22.80L189.80 56.00L185.90 56.00L185.90 21.00ZM241.95 43.90Q241.95 47.00 240.92 49.38Q239.90 51.75 238.20 53.38Q236.50 55.00 234.22 55.85Q231.95 56.70 229.50 56.70Q227 56.70 224.75 55.85Q222.50 55.00 220.80 53.38Q219.10 51.75 218.07 49.38Q217.05 47.00 217.05 43.90L217.05 43.30Q217.05 40.25 218.07 37.88Q219.10 35.50 220.82 33.85Q222.55 32.20 224.80 31.35Q227.05 30.50 229.50 30.50Q231.95 30.50 234.20 31.35Q236.45 32.20 238.17 33.85Q239.90 35.50 240.92 37.88Q241.95 40.25 241.95 43.30L241.95 43.90M229.50 53.00Q231.30 53.00 232.82 52.38Q234.35 51.75 235.50 50.55Q236.65 49.35 237.30 47.68Q237.95 46.00 237.95 43.90L237.95 43.30Q237.95 41.30 237.30 39.63Q236.65 37.95 235.50 36.75Q234.35 35.55 232.80 34.88Q231.25 34.20 229.50 34.20Q227.75 34.20 226.20 34.88Q224.65 35.55 223.50 36.75Q222.35 37.95 221.70 39.63Q221.05 41.30 221.05 43.30L221.05 43.90Q221.05 46.00 221.70 47.68Q222.35 49.35 223.50 50.55Q224.65 51.75 226.17 52.38Q227.70 53.00 229.50 53.00ZM253.05 56.00L249.15 56.00L249.15 31.20L253.05 31.20L253.05 35.40L253.65 35.40Q255.95 30.50 261.65 30.50Q265.95 30.50 268.50 33.18Q271.05 35.85 271.05 41.20L271.05 56.00L267.15 56.00L267.15 42.00Q267.15 38.10 265.40 36.15Q263.65 34.20 260.65 34.20Q257.10 34.20 255.07 36.63Q253.05 39.05 253.05 43.10L253.05 56.00ZM303.15 43.90Q303.15 47.00 302.13 49.38Q301.10 51.75 299.40 53.38Q297.70 55.00 295.42 55.85Q293.15 56.70 290.70 56.70Q288.20 56.70 285.95 55.85Q283.70 55.00 282 53.38Q280.30 51.75 279.27 49.38Q278.25 47.00 278.25 43.90L278.25 43.30Q278.25 40.25 279.27 37.88Q280.30 35.50 282.02 33.85Q283.75 32.20 286 31.35Q288.25 30.50 290.70 30.50Q293.15 30.50 295.40 31.35Q297.65 32.20 299.38 33.85Q301.10 35.50 302.13 37.88Q303.15 40.25 303.15 43.30L303.15 43.90M290.70 53.00Q292.50 53.00 294.02 52.38Q295.55 51.75 296.70 50.55Q297.85 49.35 298.50 47.68Q299.15 46.00 299.15 43.90L299.15 43.30Q299.15 41.30 298.50 39.63Q297.85 37.95 296.70 36.75Q295.55 35.55 294 34.88Q292.45 34.20 290.70 34.20Q288.95 34.20 287.40 34.88Q285.85 35.55 284.70 36.75Q283.55 37.95 282.90 39.63Q282.25 41.30 282.25 43.30L282.25 43.90Q282.25 46.00 282.90 47.68Q283.55 49.35 284.70 50.55Q285.85 51.75 287.38 52.38Q288.90 53.00 290.70 53.00Z"/></g></g></g></svg>