<svg xmlns="http://www.w3.org/2000/svg" viewBox="0.1111111044883728 13.25 103.18140411376953 43" data-asc="0.925" width="103.18140411376953" height="43"><defs/><g fill="#000000"><g transform="translate(0, 0)"><path d="M0.20 35.70L3.80 35.70Q3.95 37.80 5.05 39.45Q6.15 41.10 8.08 42.05Q10.00 43 12.60 43Q14.85 43 16.38 42.33Q17.90 41.65 18.68 40.45Q19.45 39.25 19.45 37.65Q19.45 36 18.65 35Q17.85 34 16.35 33.30Q14.85 32.60 12.80 31.95Q10.85 31.35 8.85 30.55Q6.85 29.75 5.13 28.60Q3.40 27.45 2.35 25.82Q1.30 24.20 1.30 21.90Q1.30 19.65 2.52 17.67Q3.75 15.70 6.13 14.47Q8.50 13.25 11.85 13.25Q17.10 13.25 19.70 16.10Q22.30 18.95 22.20 23.65L18.60 23.65Q18.50 20.10 16.60 18.55Q14.70 17 11.65 17Q9.10 17 7.20 18.17Q5.30 19.35 5.30 21.85Q5.30 22.95 5.72 23.77Q6.15 24.60 7.13 25.30Q8.10 26 9.78 26.67Q11.45 27.35 13.90 28.15Q15.50 28.65 17.18 29.35Q18.85 30.05 20.27 31.10Q21.70 32.15 22.57 33.77Q23.45 35.40 23.45 37.85Q23.45 40.20 22.32 42.23Q21.20 44.25 18.82 45.50Q16.45 46.75 12.70 46.75Q9.50 46.75 7.23 45.88Q4.95 45 3.50 43.60Q2.05 42.20 1.27 40.67Q0.50 39.15 0.25 37.80Q0 36.45 0.20 35.70ZM26.45 21.25L30.75 21.25L39.70 45.25L36.20 46.25L26.45 21.25M49.70 21.25L35.75 56.25L31.40 56.25L37.45 42.75L45.45 21.25L49.70 21.25ZM53.95 21.25L57.95 21.25L57.95 46.25L53.95 46.25L53.95 21.25M66.55 20.75Q68.55 20.75 70.15 21.35Q71.75 21.95 72.85 23.10Q73.95 24.25 74.55 25.88Q75.15 27.50 75.15 29.55L75.15 46.25L71.15 46.25L71.15 30.55Q71.15 27.65 69.80 26.20Q68.45 24.75 65.75 24.75Q63.70 24.75 61.95 25.80Q60.20 26.85 59.08 28.68Q57.95 30.50 57.70 32.90L57.65 30Q57.90 27.90 58.68 26.20Q59.45 24.50 60.63 23.27Q61.80 22.05 63.33 21.40Q64.85 20.75 66.55 20.75ZM99.35 38.20L103.10 38.20Q102.70 40.65 101.33 42.58Q99.95 44.50 97.73 45.63Q95.50 46.75 92.60 46.75Q89.10 46.75 86.30 45.08Q83.50 43.40 81.88 40.48Q80.25 37.55 80.25 33.80Q80.25 30.05 81.83 27.10Q83.40 24.15 86.15 22.45Q88.90 20.75 92.35 20.75Q96 20.75 98.53 22.38Q101.05 24 102.28 27.13Q103.50 30.25 103.25 34.80L84.25 34.80Q84.50 37.25 85.60 39.10Q86.70 40.95 88.50 41.98Q90.30 43 92.60 43Q95.15 43 96.93 41.67Q98.70 40.35 99.35 38.20M92.50 24.50Q89.40 24.50 87.30 26.30Q85.20 28.10 84.50 31.20L99.15 31.20Q98.95 27.90 97.03 26.20Q95.10 24.50 92.50 24.50Z"/></g></g></svg>