<svg xmlns="http://www.w3.org/2000/svg" viewBox="0 12.550000190734863 245.5500030517578 40.5" data-asc="1.051" width="245.5500030517578" height="40.5"><defs/><g fill="#000000"><g transform="translate(0, 0)"><path d="M30.90 15.55L30.90 16.80Q29.45 16.35 28.60 16.35Q27.10 16.35 26.45 17.55Q26.10 18.25 25.85 19.00L17.95 50.20L17.95 50.25L17.35 52.55L14.40 52.55L4.60 18.55Q4.35 17.55 3.63 17.02Q2.90 16.50 1.80 16.50Q0.95 16.50 0 16.80L0 15.55L12.05 15.55L12.05 16.80Q11.10 16.50 10.30 16.50Q9.50 16.50 9.05 16.85Q8.60 17.20 8.60 17.85Q8.60 18.30 8.70 18.55L17.35 48.25L24.10 19.80L24.45 18.55Q24.55 18.25 24.55 17.80Q24.55 16.35 22.75 16.35Q21.75 16.35 20.45 16.80L20.45 15.55L30.90 15.55ZM36.30 25.95Q35.40 25.95 34.80 25.40Q34.20 24.85 34.20 24.00Q34.20 23.15 34.80 22.60Q35.40 22.05 36.30 22.05Q37.20 22.05 37.83 22.62Q38.45 23.20 38.45 24.00Q38.45 24.85 37.85 25.40Q37.25 25.95 36.30 25.95M31.90 51.80Q32.75 52.05 33.15 52.05Q34.05 52.05 34.30 51.42Q34.55 50.80 34.55 49.55L34.55 31.75Q33.80 32.00 32.95 32.00Q32.60 32.00 31.90 31.90L31.90 30.55L32.35 30.55Q32.35 30.90 32.73 31.15Q33.10 31.40 33.60 31.40Q34.30 31.40 34.85 30.85Q35.40 30.30 36.20 29.15L37.65 29.15L37.65 49.55Q37.65 50.85 37.88 51.45Q38.10 52.05 38.90 52.05Q39.30 52.05 40.15 51.80L40.15 52.55L31.90 52.55L31.90 51.80ZM50.25 53.05Q47.45 53.05 45.55 51.32Q43.65 49.60 43.65 46.40Q43.65 44.10 45.20 42.47Q46.75 40.85 48.60 40.25Q49.55 39.95 50.83 39.67Q52.10 39.40 52.55 39.30Q55.05 38.80 56.30 38.38Q57.55 37.95 57.80 37.20Q57.80 33.60 56.43 31.20Q55.05 28.80 51.85 28.80Q49.85 28.80 48.88 30.22Q47.90 31.65 47.90 34.05Q47.90 34.70 48.15 34.97Q48.40 35.25 49.30 35.25Q49.85 35.25 50.25 35Q50.65 34.75 50.65 34.40L51.10 34.40L51.10 35.75L44.55 35.75Q44.55 33.95 45.60 32.17Q46.65 30.40 48.50 29.27Q50.35 28.15 52.60 28.15Q55.60 28.15 57.43 29.52Q59.25 30.90 60.03 32.82Q60.80 34.75 60.80 36.65L60.80 47.50Q60.80 51.25 62.40 51.25Q62.90 51.25 63.33 50.57Q63.75 49.90 63.75 49.20L64.25 49.20Q64.25 51.05 63.13 52.05Q62.00 53.05 60.55 53.05Q58.85 53.05 58.33 51.55Q57.80 50.05 57.80 47.35L57.80 45.05Q57.80 45.75 57.13 47.70Q56.45 49.65 54.75 51.35Q53.05 53.05 50.25 53.05M51.40 51.65Q53.10 51.65 54.55 50.30Q56.00 48.95 56.85 47.10Q57.70 45.25 57.70 44L57.70 38.30Q57.70 38.45 57.20 38.60Q56.70 38.75 55.95 38.90Q52.70 39.75 51.20 40.30Q48.85 41.15 47.75 42.67Q46.65 44.20 46.65 46.10Q46.65 48.30 47.88 49.97Q49.10 51.65 51.40 51.65ZM77.20 53.05Q71.90 53.05 69.58 49.67Q67.25 46.30 67.25 40.60Q67.25 35.35 69.60 31.77Q71.95 28.20 77.20 28.20Q82.45 28.20 84.83 31.77Q87.20 35.35 87.20 40.60Q87.20 46.30 84.85 49.67Q82.50 53.05 77.20 53.05M77.20 52.45Q80.60 52.45 82.15 49.17Q83.70 45.90 83.70 40.60Q83.70 35.65 82.10 32.22Q80.50 28.80 77.20 28.80Q73.90 28.80 72.33 32.22Q70.75 35.65 70.75 40.60Q70.75 45.90 72.30 49.17Q73.85 52.45 77.20 52.45ZM99.95 53.05Q95.30 53.05 93.25 49.27Q91.20 45.50 91.20 39.65Q91.20 36.55 92.20 33.95Q93.20 31.35 95.17 29.77Q97.15 28.20 100 28.20Q102.40 28.20 104.15 29.60Q105.90 31.00 106.95 33.25L107.75 33.25L107.80 20.20L107.80 15.15Q107.05 15.40 106.20 15.40Q105.85 15.40 105.15 15.30L105.15 13.95L105.60 13.95Q105.60 14.30 105.98 14.55Q106.35 14.80 106.85 14.80Q107.60 14.80 108.38 14.12Q109.15 13.45 109.80 12.55L110.50 12.55L110.50 50.60Q110.60 52.05 111.65 52.05Q112.25 52.05 112.95 51.80L112.95 52.55L108.70 52.55L107.55 48.90L106.65 48.90Q104.60 53.05 99.95 53.05M100.85 52.15Q104.45 52.15 105.80 48.88Q107.15 45.60 107.15 40.45Q107.15 38.05 106.48 35.35Q105.80 32.65 104.35 30.72Q102.90 28.80 100.75 28.80Q97.65 28.80 96.17 32.15Q94.70 35.50 94.70 40.40Q94.70 45.40 96.15 48.77Q97.60 52.15 100.85 52.15ZM123.05 53.05Q120.25 53.05 118.35 51.32Q116.45 49.60 116.45 46.40Q116.45 44.10 118 42.47Q119.55 40.85 121.40 40.25Q122.35 39.95 123.63 39.67Q124.90 39.40 125.35 39.30Q127.85 38.80 129.10 38.38Q130.35 37.95 130.60 37.20Q130.60 33.60 129.22 31.20Q127.85 28.80 124.65 28.80Q122.65 28.80 121.67 30.22Q120.70 31.65 120.70 34.05Q120.70 34.70 120.95 34.97Q121.20 35.25 122.10 35.25Q122.65 35.25 123.05 35Q123.45 34.75 123.45 34.40L123.90 34.40L123.90 35.75L117.35 35.75Q117.35 33.95 118.40 32.17Q119.45 30.40 121.30 29.27Q123.15 28.15 125.40 28.15Q128.40 28.15 130.22 29.52Q132.05 30.90 132.82 32.82Q133.60 34.75 133.60 36.65L133.60 47.50Q133.60 51.25 135.20 51.25Q135.70 51.25 136.13 50.57Q136.55 49.90 136.55 49.20L137.05 49.20Q137.05 51.05 135.93 52.05Q134.80 53.05 133.35 53.05Q131.65 53.05 131.13 51.55Q130.60 50.05 130.60 47.35L130.60 45.05Q130.60 45.75 129.93 47.70Q129.25 49.65 127.55 51.35Q125.85 53.05 123.05 53.05M124.20 51.65Q125.90 51.65 127.35 50.30Q128.80 48.95 129.65 47.10Q130.50 45.25 130.50 44L130.50 38.30Q130.50 38.45 130 38.60Q129.50 38.75 128.75 38.90Q125.50 39.75 124 40.30Q121.65 41.15 120.55 42.67Q119.45 44.20 119.45 46.10Q119.45 48.30 120.67 49.97Q121.90 51.65 124.20 51.65ZM172.65 41.25Q171.95 41.90 171.73 43.30Q171.50 44.70 171.50 47.45L171.50 52.55L151.55 52.55L151.55 51.30Q152.50 51.60 153.30 51.60Q154.25 51.60 154.78 51.07Q155.30 50.55 155.30 49.55L155.30 18.55Q155.30 17.55 154.78 17.02Q154.25 16.50 153.30 16.50Q152.50 16.50 151.55 16.80L151.55 15.55L162.80 15.55L162.80 16.80Q161.85 16.50 161.05 16.50Q160.10 16.50 159.58 17.02Q159.05 17.55 159.05 18.55L159.05 46.30Q159.05 49.25 160.05 50.65Q161.05 52.05 163.55 52.05Q166.35 52.05 167.75 51.27Q169.15 50.50 169.60 49.32Q170.05 48.15 170.35 46Q170.55 44.35 170.80 43.30Q171.05 42.25 171.70 41.25L172.65 41.25ZM179.05 25.95Q178.15 25.95 177.55 25.40Q176.95 24.85 176.95 24.00Q176.95 23.15 177.55 22.60Q178.15 22.05 179.05 22.05Q179.95 22.05 180.58 22.62Q181.20 23.20 181.20 24.00Q181.20 24.85 180.60 25.40Q180 25.95 179.05 25.95M174.65 51.80Q175.50 52.05 175.90 52.05Q176.80 52.05 177.05 51.42Q177.30 50.80 177.30 49.55L177.30 31.75Q176.55 32.00 175.70 32.00Q175.35 32.00 174.65 31.90L174.65 30.55L175.10 30.55Q175.10 30.90 175.47 31.15Q175.85 31.40 176.35 31.40Q177.05 31.40 177.60 30.85Q178.15 30.30 178.95 29.15L180.40 29.15L180.40 49.55Q180.40 50.85 180.63 51.45Q180.85 52.05 181.65 52.05Q182.05 52.05 182.90 51.80L182.90 52.55L174.65 52.55L174.65 51.80ZM185.85 13.95Q185.85 14.30 186.22 14.55Q186.60 14.80 187.10 14.80Q187.85 14.80 188.50 14.17Q189.15 13.55 189.85 12.55L190.75 12.55L190.80 33.25L191.60 33.25Q192.65 31.00 194.40 29.60Q196.15 28.20 198.55 28.20Q201.40 28.20 203.38 29.77Q205.35 31.35 206.35 33.95Q207.35 36.55 207.35 39.65Q207.35 45.50 205.30 49.27Q203.25 53.05 198.60 53.05Q193.95 53.05 191.90 48.90L191 48.90L189.85 52.55L188.05 52.55L188.05 15.15Q187.30 15.40 186.45 15.40Q186.10 15.40 185.40 15.30L185.40 13.95L185.85 13.95M191.40 40.45Q191.40 45.60 192.75 48.88Q194.10 52.15 197.70 52.15Q200.95 52.15 202.40 48.77Q203.85 45.40 203.85 40.40Q203.85 35.50 202.38 32.15Q200.90 28.80 197.80 28.80Q195.65 28.80 194.20 30.72Q192.75 32.65 192.08 35.35Q191.40 38.05 191.40 40.45ZM223.75 32.40Q223.75 33 223.55 33.75Q223.35 34.50 223.30 34.65Q222.90 35.95 222.90 36.40Q222.90 37.40 224.35 37.40L224.35 37.90Q222.30 37.90 221.43 36.85Q220.55 35.80 220.55 34.15Q220.55 33.35 220.70 32.60Q221.00 31.15 221.00 30.35Q221.00 29.50 220.68 29.17Q220.35 28.85 219.65 28.85Q218.20 28.85 217.40 31.92Q216.60 35 216.60 39.10L216.60 49.55Q216.60 50.85 216.83 51.45Q217.05 52.05 217.85 52.05Q218.25 52.05 219.10 51.80L219.10 52.55L210.85 52.55L210.85 51.80Q211.70 52.05 212.10 52.05Q213.00 52.05 213.25 51.42Q213.50 50.80 213.50 49.55L213.50 31.75Q212.75 32.00 211.90 32.00Q211.55 32.00 210.85 31.90L210.85 30.55L211.30 30.55Q211.30 30.90 211.68 31.15Q212.05 31.40 212.55 31.40Q213.30 31.40 213.85 30.85Q214.40 30.30 215.15 29.20L215.65 29.20L215.70 33.25L216.20 33.25Q216.80 30.65 217.88 29.42Q218.95 28.20 220.15 28.20Q221.90 28.20 222.83 29.50Q223.75 30.80 223.75 32.40ZM236.30 53.05Q231.55 53.05 229.20 49.88Q226.85 46.70 226.85 40.60Q226.85 37.40 227.85 34.57Q228.85 31.75 230.98 29.97Q233.10 28.20 236.20 28.20Q241.25 28.20 243.40 31.27Q245.55 34.35 245.55 38.65Q245.55 39.40 245.45 40.60L245.40 41.05L230.35 41.05Q230.55 52.25 236.60 52.25Q239.30 52.25 240.60 50.60Q241.90 48.95 241.90 46.85Q241.90 46 241.48 45.60Q241.05 45.20 240.40 45.20Q239.90 45.20 239.53 45.47Q239.15 45.75 239.15 46.15L238.70 46.15L238.70 44.80L245.05 44.80Q245.20 46.70 244.13 48.60Q243.05 50.50 241.00 51.75Q238.95 53 236.30 53.05M240.75 40.30Q241.65 40.30 241.83 40.13Q242.00 39.95 242.05 39.25Q242.10 38.70 242.10 37.60Q242.10 33.80 240.70 31.30Q239.30 28.80 236.00 28.80Q232.80 28.80 231.60 31.95Q230.40 35.10 230.35 40.30L240.75 40.30Z"/></g></g></svg>