<svg xmlns="http://www.w3.org/2000/svg" viewBox="0 10 256.95001220703125 37" data-asc="0.93" width="256.95001220703125" height="37"><defs/><g><g fill="#000000"><g transform="translate(0, 0)"><path d="M9.75 46.50L0 13.50L4.15 13.50L12.30 42.85L20.05 13.50L24.60 13.50L32.35 42.95L40.50 13.50L44.45 13.50L34.75 46.50L29.80 46.50L23.95 25.10L22.25 17.65L22.20 17.65L20.50 25.10L14.70 46.50L9.75 46.50ZM61.25 21Q64.80 21 67.53 22.55Q70.25 24.10 71.80 27.02Q73.35 29.95 73.35 34Q73.35 38.05 71.80 40.98Q70.25 43.90 67.53 45.45Q64.80 47 61.25 47Q57.75 47 55.00 45.45Q52.25 43.90 50.70 40.98Q49.15 38.05 49.15 34Q49.15 29.95 50.70 27.02Q52.25 24.10 55.00 22.55Q57.75 21 61.25 21M61.25 24.45Q58.70 24.45 56.90 25.60Q55.10 26.75 54.13 28.88Q53.15 31 53.15 34Q53.15 36.95 54.13 39.10Q55.10 41.25 56.90 42.40Q58.70 43.55 61.25 43.55Q63.80 43.55 65.60 42.40Q67.40 41.25 68.38 39.10Q69.35 36.95 69.35 34Q69.35 31 68.38 28.88Q67.40 26.75 65.60 25.60Q63.80 24.45 61.25 24.45ZM80.90 46.50L80.90 21.50L84.15 21.50L84.70 25.60Q85.75 23.30 87.78 22.15Q89.80 21 92.70 21Q93.35 21 94.13 21.10Q94.90 21.20 95.45 21.50L94.75 25.15Q94.20 24.95 93.55 24.85Q92.90 24.75 91.70 24.75Q90.15 24.75 88.58 25.65Q87 26.55 85.95 28.38Q84.90 30.20 84.90 33L84.90 46.50L80.90 46.50ZM123.25 21.50L112.45 32.30L111.50 33.25L103.30 41.45L103.30 36.45L118.20 21.50L123.25 21.50M105.30 10L105.30 46.50L101.30 46.50L101.30 10L105.30 10M112.80 30.25L123.85 46.50L119 46.50L109.45 32.50L112.80 30.25ZM158.05 13Q162.40 13 165.55 14.77Q168.70 16.55 170.80 20L167.45 22.60Q165.60 19.40 163.28 18.07Q160.95 16.75 157.65 16.75Q155 16.75 153.28 17.50Q151.55 18.25 150.75 19.47Q149.95 20.70 149.95 22.25Q149.95 24 151.05 25.32Q152.15 26.65 155.45 27.40L162.60 29Q167.35 30.05 169.23 32.17Q171.10 34.30 171.10 37.45Q171.10 40.25 169.53 42.42Q167.95 44.60 165.10 45.80Q162.25 47 158.40 47Q154.80 47 152.08 46.02Q149.35 45.05 147.40 43.40Q145.45 41.75 144.20 39.70L147.70 36.85Q148.65 38.75 150.15 40.20Q151.65 41.65 153.78 42.45Q155.90 43.25 158.65 43.25Q161.20 43.25 163.08 42.63Q164.95 42 165.95 40.77Q166.95 39.55 166.95 37.80Q166.95 36.20 165.90 34.92Q164.85 33.65 161.95 33L154.20 31.25Q151.15 30.55 149.28 29.32Q147.40 28.10 146.58 26.42Q145.75 24.75 145.75 22.80Q145.75 20.15 147.23 17.92Q148.70 15.70 151.48 14.35Q154.25 13 158.05 13ZM193.35 30.35Q193.35 27.55 191.85 26.02Q190.35 24.50 187.60 24.50Q185.00 24.50 183.20 25.63Q181.40 26.75 180.55 29.25L177.30 27.25Q178.30 24.45 181.00 22.72Q183.70 21 187.70 21Q190.40 21 192.60 21.92Q194.80 22.85 196.08 24.72Q197.35 26.60 197.35 29.55L197.35 41.65Q197.35 43.45 199.25 43.45Q200.20 43.45 201.10 43.20L200.90 46.35Q199.90 46.85 198.30 46.85Q196.85 46.85 195.70 46.30Q194.55 45.75 193.90 44.63Q193.25 43.50 193.25 41.80L193.25 41.30L194.25 41.45Q193.65 43.40 192.20 44.63Q190.75 45.85 188.95 46.42Q187.15 47 185.40 47Q183.20 47 181.30 46.25Q179.40 45.50 178.28 43.98Q177.15 42.45 177.15 40.20Q177.15 37.40 179.03 35.58Q180.90 33.75 184.25 33.10L194.15 31.15L194.15 34.45L186.10 36.10Q183.65 36.60 182.45 37.50Q181.25 38.40 181.25 40Q181.25 41.55 182.48 42.52Q183.70 43.50 185.95 43.50Q187.40 43.50 188.73 43.13Q190.05 42.75 191.10 41.98Q192.15 41.20 192.75 40.02Q193.35 38.85 193.35 37.25L193.35 30.35ZM207.05 46.50L207.05 21.50L210.55 21.50L210.90 27.10L210.25 26.55Q211.05 24.55 212.40 23.32Q213.75 22.10 215.53 21.55Q217.30 21 219.20 21Q221.90 21 224.10 22.02Q226.30 23.05 227.63 25.15Q228.95 27.25 228.95 30.50L228.95 46.50L224.95 46.50L224.95 31.90Q224.95 27.75 223.18 26.13Q221.40 24.50 218.80 24.50Q217.00 24.50 215.20 25.35Q213.40 26.20 212.23 28.10Q211.05 30 211.05 33.20L211.05 46.50L207.05 46.50ZM247.00 47Q243.35 47 240.28 45.45Q237.20 43.90 235.55 41.05L238.95 38.60Q240.05 40.90 242.18 42.20Q244.30 43.50 247.30 43.50Q249.95 43.50 251.45 42.48Q252.95 41.45 252.95 39.80Q252.95 38.75 252.28 37.88Q251.60 37 249.70 36.60L243.70 35.35Q240.05 34.60 238.48 32.85Q236.90 31.10 236.90 28.50Q236.90 26.45 238.08 24.75Q239.25 23.05 241.43 22.02Q243.60 21 246.55 21Q250.25 21 252.80 22.45Q255.35 23.90 256.60 26.55L253.25 28.75Q252.40 26.55 250.50 25.52Q248.60 24.50 246.55 24.50Q244.75 24.50 243.48 25Q242.20 25.50 241.53 26.38Q240.85 27.25 240.85 28.35Q240.85 29.45 241.60 30.38Q242.35 31.30 244.40 31.70L250.65 33Q254.15 33.70 255.55 35.30Q256.95 36.90 256.95 39.20Q256.95 41.55 255.70 43.33Q254.45 45.10 252.20 46.05Q249.95 47 247.00 47Z"/></g></g></g></svg>